%TF.GenerationSoftware,KiCad,Pcbnew,9.0.7*%
%TF.CreationDate,2026-03-23T12:06:36-04:00*%
%TF.ProjectId,rev-b,7265762d-622e-46b6-9963-61645f706362,rev?*%
%TF.SameCoordinates,Original*%
%TF.FileFunction,Soldermask,Top*%
%TF.FilePolarity,Negative*%
%FSLAX46Y46*%
G04 Gerber Fmt 4.6, Leading zero omitted, Abs format (unit mm)*
G04 Created by KiCad (PCBNEW 9.0.7) date 2026-03-23 12:06:36*
%MOMM*%
%LPD*%
G01*
G04 APERTURE LIST*
G04 Aperture macros list*
%AMRoundRect*
0 Rectangle with rounded corners*
0 $1 Rounding radius*
0 $2 $3 $4 $5 $6 $7 $8 $9 X,Y pos of 4 corners*
0 Add a 4 corners polygon primitive as box body*
4,1,4,$2,$3,$4,$5,$6,$7,$8,$9,$2,$3,0*
0 Add four circle primitives for the rounded corners*
1,1,$1+$1,$2,$3*
1,1,$1+$1,$4,$5*
1,1,$1+$1,$6,$7*
1,1,$1+$1,$8,$9*
0 Add four rect primitives between the rounded corners*
20,1,$1+$1,$2,$3,$4,$5,0*
20,1,$1+$1,$4,$5,$6,$7,0*
20,1,$1+$1,$6,$7,$8,$9,0*
20,1,$1+$1,$8,$9,$2,$3,0*%
G04 Aperture macros list end*
%ADD10C,0.010000*%
%ADD11RoundRect,0.200000X0.200000X0.275000X-0.200000X0.275000X-0.200000X-0.275000X0.200000X-0.275000X0*%
%ADD12RoundRect,0.075000X-0.075000X0.650000X-0.075000X-0.650000X0.075000X-0.650000X0.075000X0.650000X0*%
%ADD13C,4.400000*%
%ADD14RoundRect,0.102000X-0.600000X0.400000X-0.600000X-0.400000X0.600000X-0.400000X0.600000X0.400000X0*%
%ADD15RoundRect,0.102000X-0.600000X0.380000X-0.600000X-0.380000X0.600000X-0.380000X0.600000X0.380000X0*%
%ADD16RoundRect,0.102000X-0.600000X0.350000X-0.600000X-0.350000X0.600000X-0.350000X0.600000X0.350000X0*%
%ADD17RoundRect,0.062500X0.062500X-0.350000X0.062500X0.350000X-0.062500X0.350000X-0.062500X-0.350000X0*%
%ADD18RoundRect,0.062500X0.350000X-0.062500X0.350000X0.062500X-0.350000X0.062500X-0.350000X-0.062500X0*%
%ADD19R,1.700000X1.700000*%
%ADD20O,1.750000X1.200000*%
%ADD21RoundRect,0.250000X-0.625000X0.350000X-0.625000X-0.350000X0.625000X-0.350000X0.625000X0.350000X0*%
%ADD22C,1.000000*%
%ADD23R,1.000000X1.000000*%
%ADD24R,2.750000X1.000000*%
%ADD25RoundRect,0.250000X0.625000X-0.350000X0.625000X0.350000X-0.625000X0.350000X-0.625000X-0.350000X0*%
%ADD26R,1.400000X0.800000*%
%ADD27R,1.400000X0.400000*%
%ADD28R,0.400000X1.400000*%
%ADD29R,1.000000X0.400000*%
%ADD30RoundRect,0.150000X-0.825000X-0.150000X0.825000X-0.150000X0.825000X0.150000X-0.825000X0.150000X0*%
%ADD31RoundRect,0.150000X-0.512500X-0.150000X0.512500X-0.150000X0.512500X0.150000X-0.512500X0.150000X0*%
%ADD32C,1.500000*%
%ADD33RoundRect,0.200000X-0.200000X-0.275000X0.200000X-0.275000X0.200000X0.275000X-0.200000X0.275000X0*%
%ADD34RoundRect,0.200000X-0.275000X0.200000X-0.275000X-0.200000X0.275000X-0.200000X0.275000X0.200000X0*%
%ADD35RoundRect,0.150000X-0.587500X-0.150000X0.587500X-0.150000X0.587500X0.150000X-0.587500X0.150000X0*%
%ADD36C,1.700000*%
%ADD37RoundRect,0.102000X1.500000X-3.000000X1.500000X3.000000X-1.500000X3.000000X-1.500000X-3.000000X0*%
%ADD38RoundRect,0.250000X1.250000X0.550000X-1.250000X0.550000X-1.250000X-0.550000X1.250000X-0.550000X0*%
%ADD39R,1.270000X5.080000*%
%ADD40C,17.800000*%
G04 APERTURE END LIST*
D10*
%TO.C,J1*%
X135584000Y-74781000D02*
X135618000Y-74784000D01*
X135652000Y-74788000D01*
X135685000Y-74794000D01*
X135718000Y-74802000D01*
X135751000Y-74812000D01*
X135783000Y-74823000D01*
X135814000Y-74836000D01*
X135845000Y-74851000D01*
X135875000Y-74867000D01*
X135904000Y-74885000D01*
X135932000Y-74904000D01*
X135959000Y-74925000D01*
X135985000Y-74947000D01*
X136010000Y-74970000D01*
X136033000Y-74995000D01*
X136055000Y-75021000D01*
X136076000Y-75048000D01*
X136095000Y-75076000D01*
X136113000Y-75105000D01*
X136129000Y-75135000D01*
X136144000Y-75166000D01*
X136157000Y-75197000D01*
X136168000Y-75229000D01*
X136178000Y-75262000D01*
X136186000Y-75295000D01*
X136192000Y-75328000D01*
X136196000Y-75362000D01*
X136199000Y-75396000D01*
X136200000Y-75430000D01*
X136199000Y-75464000D01*
X136196000Y-75498000D01*
X136192000Y-75532000D01*
X136186000Y-75565000D01*
X136178000Y-75598000D01*
X136168000Y-75631000D01*
X136157000Y-75663000D01*
X136144000Y-75694000D01*
X136129000Y-75725000D01*
X136113000Y-75755000D01*
X136095000Y-75784000D01*
X136076000Y-75812000D01*
X136055000Y-75839000D01*
X136033000Y-75865000D01*
X136010000Y-75890000D01*
X135985000Y-75913000D01*
X135959000Y-75935000D01*
X135932000Y-75956000D01*
X135904000Y-75975000D01*
X135875000Y-75993000D01*
X135845000Y-76009000D01*
X135814000Y-76024000D01*
X135783000Y-76037000D01*
X135751000Y-76048000D01*
X135718000Y-76058000D01*
X135685000Y-76066000D01*
X135652000Y-76072000D01*
X135618000Y-76076000D01*
X135584000Y-76079000D01*
X135550000Y-76080000D01*
X134950000Y-76080000D01*
X134916000Y-76079000D01*
X134882000Y-76076000D01*
X134848000Y-76072000D01*
X134815000Y-76066000D01*
X134782000Y-76058000D01*
X134749000Y-76048000D01*
X134717000Y-76037000D01*
X134686000Y-76024000D01*
X134655000Y-76009000D01*
X134625000Y-75993000D01*
X134596000Y-75975000D01*
X134568000Y-75956000D01*
X134541000Y-75935000D01*
X134515000Y-75913000D01*
X134490000Y-75890000D01*
X134467000Y-75865000D01*
X134445000Y-75839000D01*
X134424000Y-75812000D01*
X134405000Y-75784000D01*
X134387000Y-75755000D01*
X134371000Y-75725000D01*
X134356000Y-75694000D01*
X134343000Y-75663000D01*
X134332000Y-75631000D01*
X134322000Y-75598000D01*
X134314000Y-75565000D01*
X134308000Y-75532000D01*
X134304000Y-75498000D01*
X134301000Y-75464000D01*
X134300000Y-75430000D01*
X134301000Y-75396000D01*
X134304000Y-75362000D01*
X134308000Y-75328000D01*
X134314000Y-75295000D01*
X134322000Y-75262000D01*
X134332000Y-75229000D01*
X134343000Y-75197000D01*
X134356000Y-75166000D01*
X134371000Y-75135000D01*
X134387000Y-75105000D01*
X134405000Y-75076000D01*
X134424000Y-75048000D01*
X134445000Y-75021000D01*
X134467000Y-74995000D01*
X134490000Y-74970000D01*
X134515000Y-74947000D01*
X134541000Y-74925000D01*
X134568000Y-74904000D01*
X134596000Y-74885000D01*
X134625000Y-74867000D01*
X134655000Y-74851000D01*
X134686000Y-74836000D01*
X134717000Y-74823000D01*
X134749000Y-74812000D01*
X134782000Y-74802000D01*
X134815000Y-74794000D01*
X134848000Y-74788000D01*
X134882000Y-74784000D01*
X134916000Y-74781000D01*
X134950000Y-74780000D01*
X135550000Y-74780000D01*
X135584000Y-74781000D01*
G36*
X135584000Y-74781000D02*
G01*
X135618000Y-74784000D01*
X135652000Y-74788000D01*
X135685000Y-74794000D01*
X135718000Y-74802000D01*
X135751000Y-74812000D01*
X135783000Y-74823000D01*
X135814000Y-74836000D01*
X135845000Y-74851000D01*
X135875000Y-74867000D01*
X135904000Y-74885000D01*
X135932000Y-74904000D01*
X135959000Y-74925000D01*
X135985000Y-74947000D01*
X136010000Y-74970000D01*
X136033000Y-74995000D01*
X136055000Y-75021000D01*
X136076000Y-75048000D01*
X136095000Y-75076000D01*
X136113000Y-75105000D01*
X136129000Y-75135000D01*
X136144000Y-75166000D01*
X136157000Y-75197000D01*
X136168000Y-75229000D01*
X136178000Y-75262000D01*
X136186000Y-75295000D01*
X136192000Y-75328000D01*
X136196000Y-75362000D01*
X136199000Y-75396000D01*
X136200000Y-75430000D01*
X136199000Y-75464000D01*
X136196000Y-75498000D01*
X136192000Y-75532000D01*
X136186000Y-75565000D01*
X136178000Y-75598000D01*
X136168000Y-75631000D01*
X136157000Y-75663000D01*
X136144000Y-75694000D01*
X136129000Y-75725000D01*
X136113000Y-75755000D01*
X136095000Y-75784000D01*
X136076000Y-75812000D01*
X136055000Y-75839000D01*
X136033000Y-75865000D01*
X136010000Y-75890000D01*
X135985000Y-75913000D01*
X135959000Y-75935000D01*
X135932000Y-75956000D01*
X135904000Y-75975000D01*
X135875000Y-75993000D01*
X135845000Y-76009000D01*
X135814000Y-76024000D01*
X135783000Y-76037000D01*
X135751000Y-76048000D01*
X135718000Y-76058000D01*
X135685000Y-76066000D01*
X135652000Y-76072000D01*
X135618000Y-76076000D01*
X135584000Y-76079000D01*
X135550000Y-76080000D01*
X134950000Y-76080000D01*
X134916000Y-76079000D01*
X134882000Y-76076000D01*
X134848000Y-76072000D01*
X134815000Y-76066000D01*
X134782000Y-76058000D01*
X134749000Y-76048000D01*
X134717000Y-76037000D01*
X134686000Y-76024000D01*
X134655000Y-76009000D01*
X134625000Y-75993000D01*
X134596000Y-75975000D01*
X134568000Y-75956000D01*
X134541000Y-75935000D01*
X134515000Y-75913000D01*
X134490000Y-75890000D01*
X134467000Y-75865000D01*
X134445000Y-75839000D01*
X134424000Y-75812000D01*
X134405000Y-75784000D01*
X134387000Y-75755000D01*
X134371000Y-75725000D01*
X134356000Y-75694000D01*
X134343000Y-75663000D01*
X134332000Y-75631000D01*
X134322000Y-75598000D01*
X134314000Y-75565000D01*
X134308000Y-75532000D01*
X134304000Y-75498000D01*
X134301000Y-75464000D01*
X134300000Y-75430000D01*
X134301000Y-75396000D01*
X134304000Y-75362000D01*
X134308000Y-75328000D01*
X134314000Y-75295000D01*
X134322000Y-75262000D01*
X134332000Y-75229000D01*
X134343000Y-75197000D01*
X134356000Y-75166000D01*
X134371000Y-75135000D01*
X134387000Y-75105000D01*
X134405000Y-75076000D01*
X134424000Y-75048000D01*
X134445000Y-75021000D01*
X134467000Y-74995000D01*
X134490000Y-74970000D01*
X134515000Y-74947000D01*
X134541000Y-74925000D01*
X134568000Y-74904000D01*
X134596000Y-74885000D01*
X134625000Y-74867000D01*
X134655000Y-74851000D01*
X134686000Y-74836000D01*
X134717000Y-74823000D01*
X134749000Y-74812000D01*
X134782000Y-74802000D01*
X134815000Y-74794000D01*
X134848000Y-74788000D01*
X134882000Y-74784000D01*
X134916000Y-74781000D01*
X134950000Y-74780000D01*
X135550000Y-74780000D01*
X135584000Y-74781000D01*
G37*
X135584000Y-83421000D02*
X135618000Y-83424000D01*
X135652000Y-83428000D01*
X135685000Y-83434000D01*
X135718000Y-83442000D01*
X135751000Y-83452000D01*
X135783000Y-83463000D01*
X135814000Y-83476000D01*
X135845000Y-83491000D01*
X135875000Y-83507000D01*
X135904000Y-83525000D01*
X135932000Y-83544000D01*
X135959000Y-83565000D01*
X135985000Y-83587000D01*
X136010000Y-83610000D01*
X136033000Y-83635000D01*
X136055000Y-83661000D01*
X136076000Y-83688000D01*
X136095000Y-83716000D01*
X136113000Y-83745000D01*
X136129000Y-83775000D01*
X136144000Y-83806000D01*
X136157000Y-83837000D01*
X136168000Y-83869000D01*
X136178000Y-83902000D01*
X136186000Y-83935000D01*
X136192000Y-83968000D01*
X136196000Y-84002000D01*
X136199000Y-84036000D01*
X136200000Y-84070000D01*
X136199000Y-84104000D01*
X136196000Y-84138000D01*
X136192000Y-84172000D01*
X136186000Y-84205000D01*
X136178000Y-84238000D01*
X136168000Y-84271000D01*
X136157000Y-84303000D01*
X136144000Y-84334000D01*
X136129000Y-84365000D01*
X136113000Y-84395000D01*
X136095000Y-84424000D01*
X136076000Y-84452000D01*
X136055000Y-84479000D01*
X136033000Y-84505000D01*
X136010000Y-84530000D01*
X135985000Y-84553000D01*
X135959000Y-84575000D01*
X135932000Y-84596000D01*
X135904000Y-84615000D01*
X135875000Y-84633000D01*
X135845000Y-84649000D01*
X135814000Y-84664000D01*
X135783000Y-84677000D01*
X135751000Y-84688000D01*
X135718000Y-84698000D01*
X135685000Y-84706000D01*
X135652000Y-84712000D01*
X135618000Y-84716000D01*
X135584000Y-84719000D01*
X135550000Y-84720000D01*
X134950000Y-84720000D01*
X134916000Y-84719000D01*
X134882000Y-84716000D01*
X134848000Y-84712000D01*
X134815000Y-84706000D01*
X134782000Y-84698000D01*
X134749000Y-84688000D01*
X134717000Y-84677000D01*
X134686000Y-84664000D01*
X134655000Y-84649000D01*
X134625000Y-84633000D01*
X134596000Y-84615000D01*
X134568000Y-84596000D01*
X134541000Y-84575000D01*
X134515000Y-84553000D01*
X134490000Y-84530000D01*
X134467000Y-84505000D01*
X134445000Y-84479000D01*
X134424000Y-84452000D01*
X134405000Y-84424000D01*
X134387000Y-84395000D01*
X134371000Y-84365000D01*
X134356000Y-84334000D01*
X134343000Y-84303000D01*
X134332000Y-84271000D01*
X134322000Y-84238000D01*
X134314000Y-84205000D01*
X134308000Y-84172000D01*
X134304000Y-84138000D01*
X134301000Y-84104000D01*
X134300000Y-84070000D01*
X134301000Y-84036000D01*
X134304000Y-84002000D01*
X134308000Y-83968000D01*
X134314000Y-83935000D01*
X134322000Y-83902000D01*
X134332000Y-83869000D01*
X134343000Y-83837000D01*
X134356000Y-83806000D01*
X134371000Y-83775000D01*
X134387000Y-83745000D01*
X134405000Y-83716000D01*
X134424000Y-83688000D01*
X134445000Y-83661000D01*
X134467000Y-83635000D01*
X134490000Y-83610000D01*
X134515000Y-83587000D01*
X134541000Y-83565000D01*
X134568000Y-83544000D01*
X134596000Y-83525000D01*
X134625000Y-83507000D01*
X134655000Y-83491000D01*
X134686000Y-83476000D01*
X134717000Y-83463000D01*
X134749000Y-83452000D01*
X134782000Y-83442000D01*
X134815000Y-83434000D01*
X134848000Y-83428000D01*
X134882000Y-83424000D01*
X134916000Y-83421000D01*
X134950000Y-83420000D01*
X135550000Y-83420000D01*
X135584000Y-83421000D01*
G36*
X135584000Y-83421000D02*
G01*
X135618000Y-83424000D01*
X135652000Y-83428000D01*
X135685000Y-83434000D01*
X135718000Y-83442000D01*
X135751000Y-83452000D01*
X135783000Y-83463000D01*
X135814000Y-83476000D01*
X135845000Y-83491000D01*
X135875000Y-83507000D01*
X135904000Y-83525000D01*
X135932000Y-83544000D01*
X135959000Y-83565000D01*
X135985000Y-83587000D01*
X136010000Y-83610000D01*
X136033000Y-83635000D01*
X136055000Y-83661000D01*
X136076000Y-83688000D01*
X136095000Y-83716000D01*
X136113000Y-83745000D01*
X136129000Y-83775000D01*
X136144000Y-83806000D01*
X136157000Y-83837000D01*
X136168000Y-83869000D01*
X136178000Y-83902000D01*
X136186000Y-83935000D01*
X136192000Y-83968000D01*
X136196000Y-84002000D01*
X136199000Y-84036000D01*
X136200000Y-84070000D01*
X136199000Y-84104000D01*
X136196000Y-84138000D01*
X136192000Y-84172000D01*
X136186000Y-84205000D01*
X136178000Y-84238000D01*
X136168000Y-84271000D01*
X136157000Y-84303000D01*
X136144000Y-84334000D01*
X136129000Y-84365000D01*
X136113000Y-84395000D01*
X136095000Y-84424000D01*
X136076000Y-84452000D01*
X136055000Y-84479000D01*
X136033000Y-84505000D01*
X136010000Y-84530000D01*
X135985000Y-84553000D01*
X135959000Y-84575000D01*
X135932000Y-84596000D01*
X135904000Y-84615000D01*
X135875000Y-84633000D01*
X135845000Y-84649000D01*
X135814000Y-84664000D01*
X135783000Y-84677000D01*
X135751000Y-84688000D01*
X135718000Y-84698000D01*
X135685000Y-84706000D01*
X135652000Y-84712000D01*
X135618000Y-84716000D01*
X135584000Y-84719000D01*
X135550000Y-84720000D01*
X134950000Y-84720000D01*
X134916000Y-84719000D01*
X134882000Y-84716000D01*
X134848000Y-84712000D01*
X134815000Y-84706000D01*
X134782000Y-84698000D01*
X134749000Y-84688000D01*
X134717000Y-84677000D01*
X134686000Y-84664000D01*
X134655000Y-84649000D01*
X134625000Y-84633000D01*
X134596000Y-84615000D01*
X134568000Y-84596000D01*
X134541000Y-84575000D01*
X134515000Y-84553000D01*
X134490000Y-84530000D01*
X134467000Y-84505000D01*
X134445000Y-84479000D01*
X134424000Y-84452000D01*
X134405000Y-84424000D01*
X134387000Y-84395000D01*
X134371000Y-84365000D01*
X134356000Y-84334000D01*
X134343000Y-84303000D01*
X134332000Y-84271000D01*
X134322000Y-84238000D01*
X134314000Y-84205000D01*
X134308000Y-84172000D01*
X134304000Y-84138000D01*
X134301000Y-84104000D01*
X134300000Y-84070000D01*
X134301000Y-84036000D01*
X134304000Y-84002000D01*
X134308000Y-83968000D01*
X134314000Y-83935000D01*
X134322000Y-83902000D01*
X134332000Y-83869000D01*
X134343000Y-83837000D01*
X134356000Y-83806000D01*
X134371000Y-83775000D01*
X134387000Y-83745000D01*
X134405000Y-83716000D01*
X134424000Y-83688000D01*
X134445000Y-83661000D01*
X134467000Y-83635000D01*
X134490000Y-83610000D01*
X134515000Y-83587000D01*
X134541000Y-83565000D01*
X134568000Y-83544000D01*
X134596000Y-83525000D01*
X134625000Y-83507000D01*
X134655000Y-83491000D01*
X134686000Y-83476000D01*
X134717000Y-83463000D01*
X134749000Y-83452000D01*
X134782000Y-83442000D01*
X134815000Y-83434000D01*
X134848000Y-83428000D01*
X134882000Y-83424000D01*
X134916000Y-83421000D01*
X134950000Y-83420000D01*
X135550000Y-83420000D01*
X135584000Y-83421000D01*
G37*
X139384000Y-74781000D02*
X139418000Y-74784000D01*
X139452000Y-74788000D01*
X139485000Y-74794000D01*
X139518000Y-74802000D01*
X139551000Y-74812000D01*
X139583000Y-74823000D01*
X139614000Y-74836000D01*
X139645000Y-74851000D01*
X139675000Y-74867000D01*
X139704000Y-74885000D01*
X139732000Y-74904000D01*
X139759000Y-74925000D01*
X139785000Y-74947000D01*
X139810000Y-74970000D01*
X139833000Y-74995000D01*
X139855000Y-75021000D01*
X139876000Y-75048000D01*
X139895000Y-75076000D01*
X139913000Y-75105000D01*
X139929000Y-75135000D01*
X139944000Y-75166000D01*
X139957000Y-75197000D01*
X139968000Y-75229000D01*
X139978000Y-75262000D01*
X139986000Y-75295000D01*
X139992000Y-75328000D01*
X139996000Y-75362000D01*
X139999000Y-75396000D01*
X140000000Y-75430000D01*
X139999000Y-75464000D01*
X139996000Y-75498000D01*
X139992000Y-75532000D01*
X139986000Y-75565000D01*
X139978000Y-75598000D01*
X139968000Y-75631000D01*
X139957000Y-75663000D01*
X139944000Y-75694000D01*
X139929000Y-75725000D01*
X139913000Y-75755000D01*
X139895000Y-75784000D01*
X139876000Y-75812000D01*
X139855000Y-75839000D01*
X139833000Y-75865000D01*
X139810000Y-75890000D01*
X139785000Y-75913000D01*
X139759000Y-75935000D01*
X139732000Y-75956000D01*
X139704000Y-75975000D01*
X139675000Y-75993000D01*
X139645000Y-76009000D01*
X139614000Y-76024000D01*
X139583000Y-76037000D01*
X139551000Y-76048000D01*
X139518000Y-76058000D01*
X139485000Y-76066000D01*
X139452000Y-76072000D01*
X139418000Y-76076000D01*
X139384000Y-76079000D01*
X139350000Y-76080000D01*
X138750000Y-76080000D01*
X138716000Y-76079000D01*
X138682000Y-76076000D01*
X138648000Y-76072000D01*
X138615000Y-76066000D01*
X138582000Y-76058000D01*
X138549000Y-76048000D01*
X138517000Y-76037000D01*
X138486000Y-76024000D01*
X138455000Y-76009000D01*
X138425000Y-75993000D01*
X138396000Y-75975000D01*
X138368000Y-75956000D01*
X138341000Y-75935000D01*
X138315000Y-75913000D01*
X138290000Y-75890000D01*
X138267000Y-75865000D01*
X138245000Y-75839000D01*
X138224000Y-75812000D01*
X138205000Y-75784000D01*
X138187000Y-75755000D01*
X138171000Y-75725000D01*
X138156000Y-75694000D01*
X138143000Y-75663000D01*
X138132000Y-75631000D01*
X138122000Y-75598000D01*
X138114000Y-75565000D01*
X138108000Y-75532000D01*
X138104000Y-75498000D01*
X138101000Y-75464000D01*
X138100000Y-75430000D01*
X138101000Y-75396000D01*
X138104000Y-75362000D01*
X138108000Y-75328000D01*
X138114000Y-75295000D01*
X138122000Y-75262000D01*
X138132000Y-75229000D01*
X138143000Y-75197000D01*
X138156000Y-75166000D01*
X138171000Y-75135000D01*
X138187000Y-75105000D01*
X138205000Y-75076000D01*
X138224000Y-75048000D01*
X138245000Y-75021000D01*
X138267000Y-74995000D01*
X138290000Y-74970000D01*
X138315000Y-74947000D01*
X138341000Y-74925000D01*
X138368000Y-74904000D01*
X138396000Y-74885000D01*
X138425000Y-74867000D01*
X138455000Y-74851000D01*
X138486000Y-74836000D01*
X138517000Y-74823000D01*
X138549000Y-74812000D01*
X138582000Y-74802000D01*
X138615000Y-74794000D01*
X138648000Y-74788000D01*
X138682000Y-74784000D01*
X138716000Y-74781000D01*
X138750000Y-74780000D01*
X139350000Y-74780000D01*
X139384000Y-74781000D01*
G36*
X139384000Y-74781000D02*
G01*
X139418000Y-74784000D01*
X139452000Y-74788000D01*
X139485000Y-74794000D01*
X139518000Y-74802000D01*
X139551000Y-74812000D01*
X139583000Y-74823000D01*
X139614000Y-74836000D01*
X139645000Y-74851000D01*
X139675000Y-74867000D01*
X139704000Y-74885000D01*
X139732000Y-74904000D01*
X139759000Y-74925000D01*
X139785000Y-74947000D01*
X139810000Y-74970000D01*
X139833000Y-74995000D01*
X139855000Y-75021000D01*
X139876000Y-75048000D01*
X139895000Y-75076000D01*
X139913000Y-75105000D01*
X139929000Y-75135000D01*
X139944000Y-75166000D01*
X139957000Y-75197000D01*
X139968000Y-75229000D01*
X139978000Y-75262000D01*
X139986000Y-75295000D01*
X139992000Y-75328000D01*
X139996000Y-75362000D01*
X139999000Y-75396000D01*
X140000000Y-75430000D01*
X139999000Y-75464000D01*
X139996000Y-75498000D01*
X139992000Y-75532000D01*
X139986000Y-75565000D01*
X139978000Y-75598000D01*
X139968000Y-75631000D01*
X139957000Y-75663000D01*
X139944000Y-75694000D01*
X139929000Y-75725000D01*
X139913000Y-75755000D01*
X139895000Y-75784000D01*
X139876000Y-75812000D01*
X139855000Y-75839000D01*
X139833000Y-75865000D01*
X139810000Y-75890000D01*
X139785000Y-75913000D01*
X139759000Y-75935000D01*
X139732000Y-75956000D01*
X139704000Y-75975000D01*
X139675000Y-75993000D01*
X139645000Y-76009000D01*
X139614000Y-76024000D01*
X139583000Y-76037000D01*
X139551000Y-76048000D01*
X139518000Y-76058000D01*
X139485000Y-76066000D01*
X139452000Y-76072000D01*
X139418000Y-76076000D01*
X139384000Y-76079000D01*
X139350000Y-76080000D01*
X138750000Y-76080000D01*
X138716000Y-76079000D01*
X138682000Y-76076000D01*
X138648000Y-76072000D01*
X138615000Y-76066000D01*
X138582000Y-76058000D01*
X138549000Y-76048000D01*
X138517000Y-76037000D01*
X138486000Y-76024000D01*
X138455000Y-76009000D01*
X138425000Y-75993000D01*
X138396000Y-75975000D01*
X138368000Y-75956000D01*
X138341000Y-75935000D01*
X138315000Y-75913000D01*
X138290000Y-75890000D01*
X138267000Y-75865000D01*
X138245000Y-75839000D01*
X138224000Y-75812000D01*
X138205000Y-75784000D01*
X138187000Y-75755000D01*
X138171000Y-75725000D01*
X138156000Y-75694000D01*
X138143000Y-75663000D01*
X138132000Y-75631000D01*
X138122000Y-75598000D01*
X138114000Y-75565000D01*
X138108000Y-75532000D01*
X138104000Y-75498000D01*
X138101000Y-75464000D01*
X138100000Y-75430000D01*
X138101000Y-75396000D01*
X138104000Y-75362000D01*
X138108000Y-75328000D01*
X138114000Y-75295000D01*
X138122000Y-75262000D01*
X138132000Y-75229000D01*
X138143000Y-75197000D01*
X138156000Y-75166000D01*
X138171000Y-75135000D01*
X138187000Y-75105000D01*
X138205000Y-75076000D01*
X138224000Y-75048000D01*
X138245000Y-75021000D01*
X138267000Y-74995000D01*
X138290000Y-74970000D01*
X138315000Y-74947000D01*
X138341000Y-74925000D01*
X138368000Y-74904000D01*
X138396000Y-74885000D01*
X138425000Y-74867000D01*
X138455000Y-74851000D01*
X138486000Y-74836000D01*
X138517000Y-74823000D01*
X138549000Y-74812000D01*
X138582000Y-74802000D01*
X138615000Y-74794000D01*
X138648000Y-74788000D01*
X138682000Y-74784000D01*
X138716000Y-74781000D01*
X138750000Y-74780000D01*
X139350000Y-74780000D01*
X139384000Y-74781000D01*
G37*
X139384000Y-83421000D02*
X139418000Y-83424000D01*
X139452000Y-83428000D01*
X139485000Y-83434000D01*
X139518000Y-83442000D01*
X139551000Y-83452000D01*
X139583000Y-83463000D01*
X139614000Y-83476000D01*
X139645000Y-83491000D01*
X139675000Y-83507000D01*
X139704000Y-83525000D01*
X139732000Y-83544000D01*
X139759000Y-83565000D01*
X139785000Y-83587000D01*
X139810000Y-83610000D01*
X139833000Y-83635000D01*
X139855000Y-83661000D01*
X139876000Y-83688000D01*
X139895000Y-83716000D01*
X139913000Y-83745000D01*
X139929000Y-83775000D01*
X139944000Y-83806000D01*
X139957000Y-83837000D01*
X139968000Y-83869000D01*
X139978000Y-83902000D01*
X139986000Y-83935000D01*
X139992000Y-83968000D01*
X139996000Y-84002000D01*
X139999000Y-84036000D01*
X140000000Y-84070000D01*
X139999000Y-84104000D01*
X139996000Y-84138000D01*
X139992000Y-84172000D01*
X139986000Y-84205000D01*
X139978000Y-84238000D01*
X139968000Y-84271000D01*
X139957000Y-84303000D01*
X139944000Y-84334000D01*
X139929000Y-84365000D01*
X139913000Y-84395000D01*
X139895000Y-84424000D01*
X139876000Y-84452000D01*
X139855000Y-84479000D01*
X139833000Y-84505000D01*
X139810000Y-84530000D01*
X139785000Y-84553000D01*
X139759000Y-84575000D01*
X139732000Y-84596000D01*
X139704000Y-84615000D01*
X139675000Y-84633000D01*
X139645000Y-84649000D01*
X139614000Y-84664000D01*
X139583000Y-84677000D01*
X139551000Y-84688000D01*
X139518000Y-84698000D01*
X139485000Y-84706000D01*
X139452000Y-84712000D01*
X139418000Y-84716000D01*
X139384000Y-84719000D01*
X139350000Y-84720000D01*
X138750000Y-84720000D01*
X138716000Y-84719000D01*
X138682000Y-84716000D01*
X138648000Y-84712000D01*
X138615000Y-84706000D01*
X138582000Y-84698000D01*
X138549000Y-84688000D01*
X138517000Y-84677000D01*
X138486000Y-84664000D01*
X138455000Y-84649000D01*
X138425000Y-84633000D01*
X138396000Y-84615000D01*
X138368000Y-84596000D01*
X138341000Y-84575000D01*
X138315000Y-84553000D01*
X138290000Y-84530000D01*
X138267000Y-84505000D01*
X138245000Y-84479000D01*
X138224000Y-84452000D01*
X138205000Y-84424000D01*
X138187000Y-84395000D01*
X138171000Y-84365000D01*
X138156000Y-84334000D01*
X138143000Y-84303000D01*
X138132000Y-84271000D01*
X138122000Y-84238000D01*
X138114000Y-84205000D01*
X138108000Y-84172000D01*
X138104000Y-84138000D01*
X138101000Y-84104000D01*
X138100000Y-84070000D01*
X138101000Y-84036000D01*
X138104000Y-84002000D01*
X138108000Y-83968000D01*
X138114000Y-83935000D01*
X138122000Y-83902000D01*
X138132000Y-83869000D01*
X138143000Y-83837000D01*
X138156000Y-83806000D01*
X138171000Y-83775000D01*
X138187000Y-83745000D01*
X138205000Y-83716000D01*
X138224000Y-83688000D01*
X138245000Y-83661000D01*
X138267000Y-83635000D01*
X138290000Y-83610000D01*
X138315000Y-83587000D01*
X138341000Y-83565000D01*
X138368000Y-83544000D01*
X138396000Y-83525000D01*
X138425000Y-83507000D01*
X138455000Y-83491000D01*
X138486000Y-83476000D01*
X138517000Y-83463000D01*
X138549000Y-83452000D01*
X138582000Y-83442000D01*
X138615000Y-83434000D01*
X138648000Y-83428000D01*
X138682000Y-83424000D01*
X138716000Y-83421000D01*
X138750000Y-83420000D01*
X139350000Y-83420000D01*
X139384000Y-83421000D01*
G36*
X139384000Y-83421000D02*
G01*
X139418000Y-83424000D01*
X139452000Y-83428000D01*
X139485000Y-83434000D01*
X139518000Y-83442000D01*
X139551000Y-83452000D01*
X139583000Y-83463000D01*
X139614000Y-83476000D01*
X139645000Y-83491000D01*
X139675000Y-83507000D01*
X139704000Y-83525000D01*
X139732000Y-83544000D01*
X139759000Y-83565000D01*
X139785000Y-83587000D01*
X139810000Y-83610000D01*
X139833000Y-83635000D01*
X139855000Y-83661000D01*
X139876000Y-83688000D01*
X139895000Y-83716000D01*
X139913000Y-83745000D01*
X139929000Y-83775000D01*
X139944000Y-83806000D01*
X139957000Y-83837000D01*
X139968000Y-83869000D01*
X139978000Y-83902000D01*
X139986000Y-83935000D01*
X139992000Y-83968000D01*
X139996000Y-84002000D01*
X139999000Y-84036000D01*
X140000000Y-84070000D01*
X139999000Y-84104000D01*
X139996000Y-84138000D01*
X139992000Y-84172000D01*
X139986000Y-84205000D01*
X139978000Y-84238000D01*
X139968000Y-84271000D01*
X139957000Y-84303000D01*
X139944000Y-84334000D01*
X139929000Y-84365000D01*
X139913000Y-84395000D01*
X139895000Y-84424000D01*
X139876000Y-84452000D01*
X139855000Y-84479000D01*
X139833000Y-84505000D01*
X139810000Y-84530000D01*
X139785000Y-84553000D01*
X139759000Y-84575000D01*
X139732000Y-84596000D01*
X139704000Y-84615000D01*
X139675000Y-84633000D01*
X139645000Y-84649000D01*
X139614000Y-84664000D01*
X139583000Y-84677000D01*
X139551000Y-84688000D01*
X139518000Y-84698000D01*
X139485000Y-84706000D01*
X139452000Y-84712000D01*
X139418000Y-84716000D01*
X139384000Y-84719000D01*
X139350000Y-84720000D01*
X138750000Y-84720000D01*
X138716000Y-84719000D01*
X138682000Y-84716000D01*
X138648000Y-84712000D01*
X138615000Y-84706000D01*
X138582000Y-84698000D01*
X138549000Y-84688000D01*
X138517000Y-84677000D01*
X138486000Y-84664000D01*
X138455000Y-84649000D01*
X138425000Y-84633000D01*
X138396000Y-84615000D01*
X138368000Y-84596000D01*
X138341000Y-84575000D01*
X138315000Y-84553000D01*
X138290000Y-84530000D01*
X138267000Y-84505000D01*
X138245000Y-84479000D01*
X138224000Y-84452000D01*
X138205000Y-84424000D01*
X138187000Y-84395000D01*
X138171000Y-84365000D01*
X138156000Y-84334000D01*
X138143000Y-84303000D01*
X138132000Y-84271000D01*
X138122000Y-84238000D01*
X138114000Y-84205000D01*
X138108000Y-84172000D01*
X138104000Y-84138000D01*
X138101000Y-84104000D01*
X138100000Y-84070000D01*
X138101000Y-84036000D01*
X138104000Y-84002000D01*
X138108000Y-83968000D01*
X138114000Y-83935000D01*
X138122000Y-83902000D01*
X138132000Y-83869000D01*
X138143000Y-83837000D01*
X138156000Y-83806000D01*
X138171000Y-83775000D01*
X138187000Y-83745000D01*
X138205000Y-83716000D01*
X138224000Y-83688000D01*
X138245000Y-83661000D01*
X138267000Y-83635000D01*
X138290000Y-83610000D01*
X138315000Y-83587000D01*
X138341000Y-83565000D01*
X138368000Y-83544000D01*
X138396000Y-83525000D01*
X138425000Y-83507000D01*
X138455000Y-83491000D01*
X138486000Y-83476000D01*
X138517000Y-83463000D01*
X138549000Y-83452000D01*
X138582000Y-83442000D01*
X138615000Y-83434000D01*
X138648000Y-83428000D01*
X138682000Y-83424000D01*
X138716000Y-83421000D01*
X138750000Y-83420000D01*
X139350000Y-83420000D01*
X139384000Y-83421000D01*
G37*
%TD*%
D11*
%TO.C,R22*%
X185350000Y-82490000D03*
X187000000Y-82490000D03*
%TD*%
D12*
%TO.C,U3*%
X144500000Y-93800000D03*
X144000000Y-93800000D03*
X143500000Y-93800000D03*
X143000000Y-93800000D03*
X142500000Y-93800000D03*
X142500000Y-98200000D03*
X143000000Y-98200000D03*
X143500000Y-98200000D03*
X144000000Y-98200000D03*
X144500000Y-98200000D03*
%TD*%
D13*
%TO.C,H1*%
X137000000Y-53000000D03*
%TD*%
%TO.C,H2*%
X191000000Y-53000000D03*
%TD*%
%TO.C,H3*%
X137000000Y-107000000D03*
%TD*%
%TO.C,H4*%
X191000000Y-107000000D03*
%TD*%
D14*
%TO.C,J1*%
X139130000Y-77000000D03*
X139130000Y-82500000D03*
D15*
X139130000Y-78230000D03*
X139130000Y-81270000D03*
D16*
X139130000Y-79250000D03*
X139130000Y-80250000D03*
%TD*%
D17*
%TO.C,U2*%
X145250000Y-84147500D03*
X145750000Y-84147500D03*
X146250000Y-84147500D03*
X146750000Y-84147500D03*
D18*
X147462500Y-83435000D03*
X147462500Y-82935000D03*
X147462500Y-82435000D03*
X147462500Y-81935000D03*
D17*
X146750000Y-81222500D03*
X146250000Y-81222500D03*
X145750000Y-81222500D03*
X145250000Y-81222500D03*
D18*
X144537500Y-81935000D03*
X144537500Y-82435000D03*
X144537500Y-82935000D03*
X144537500Y-83435000D03*
D19*
X146000000Y-82685000D03*
%TD*%
D20*
%TO.C,J3*%
X137500000Y-100900000D03*
D21*
X137500000Y-98900000D03*
%TD*%
D22*
%TO.C,J10*%
X186750000Y-51500000D03*
X186750000Y-52770000D03*
X185480000Y-51500000D03*
X185480000Y-52770000D03*
X184210000Y-51500000D03*
X184210000Y-52770000D03*
X182940000Y-51500000D03*
X182940000Y-52770000D03*
X181670000Y-51500000D03*
D23*
X181670000Y-52770000D03*
%TD*%
D24*
%TO.C,SW1*%
X171620000Y-61750000D03*
X177380000Y-61750000D03*
X171620000Y-65750000D03*
X177380000Y-65750000D03*
%TD*%
D25*
%TO.C,J6*%
X190500000Y-64500000D03*
D20*
X190500000Y-62500000D03*
X190500000Y-60500000D03*
X190500000Y-58500000D03*
%TD*%
D26*
%TO.C,U5*%
X159400000Y-50200000D03*
D27*
X159400000Y-53200000D03*
X159400000Y-53900000D03*
X159400000Y-54600000D03*
X159400000Y-55300000D03*
X159400000Y-56000000D03*
X159400000Y-56700000D03*
X159400000Y-57400000D03*
X159400000Y-58100000D03*
X159400000Y-58800000D03*
X159400000Y-59500000D03*
D28*
X159800000Y-61600000D03*
X160500000Y-61600000D03*
X161200000Y-61600000D03*
X161900000Y-61600000D03*
X162600000Y-61600000D03*
X163300000Y-61600000D03*
X164000000Y-61600000D03*
X164700000Y-61600000D03*
X165400000Y-61600000D03*
X166100000Y-61600000D03*
X166800000Y-61600000D03*
X167500000Y-61600000D03*
X168200000Y-61600000D03*
D27*
X168600000Y-60200000D03*
X168600000Y-59500000D03*
X168600000Y-58800000D03*
X168600000Y-58100000D03*
X168600000Y-57400000D03*
X168600000Y-56700000D03*
X168600000Y-56000000D03*
X168600000Y-55300000D03*
X168600000Y-54600000D03*
X168600000Y-53900000D03*
X168600000Y-53200000D03*
X168600000Y-52500000D03*
X168600000Y-51800000D03*
X168600000Y-51100000D03*
D26*
X168600000Y-50200000D03*
D29*
X166900000Y-50750000D03*
X166900000Y-52150000D03*
%TD*%
D30*
%TO.C,U4*%
X145550000Y-55750000D03*
X145550000Y-57020000D03*
X145550000Y-58290000D03*
X145550000Y-59560000D03*
X150500000Y-59560000D03*
X150500000Y-58290000D03*
X150500000Y-57020000D03*
X150500000Y-55750000D03*
%TD*%
D31*
%TO.C,U1*%
X150750000Y-75350000D03*
X150750000Y-76300000D03*
X150750000Y-77250000D03*
X153025000Y-77250000D03*
X153025000Y-75350000D03*
%TD*%
D32*
%TO.C,RESET*%
X185500000Y-56250000D03*
%TD*%
%TO.C,TP6*%
X135500000Y-68750000D03*
%TD*%
%TO.C,TP5*%
X165250000Y-67500000D03*
%TD*%
%TO.C,TP2*%
X135500000Y-72750000D03*
%TD*%
%TO.C,TP1*%
X135500000Y-87250000D03*
%TD*%
D11*
%TO.C,R27*%
X186750000Y-58500000D03*
X185100000Y-58500000D03*
%TD*%
%TO.C,R26*%
X186750000Y-60500000D03*
X185100000Y-60500000D03*
%TD*%
%TO.C,R25*%
X186750000Y-62500000D03*
X185100000Y-62500000D03*
%TD*%
%TO.C,R24*%
X186750000Y-70500000D03*
X185100000Y-70500000D03*
%TD*%
%TO.C,R23*%
X186750000Y-72500000D03*
X185100000Y-72500000D03*
%TD*%
D33*
%TO.C,R21*%
X185350000Y-84500000D03*
X187000000Y-84500000D03*
%TD*%
%TO.C,R20*%
X184600000Y-94500000D03*
X186250000Y-94500000D03*
%TD*%
%TO.C,R19*%
X184600000Y-96500000D03*
X186250000Y-96500000D03*
%TD*%
D34*
%TO.C,R18*%
X163750000Y-63425000D03*
X163750000Y-65075000D03*
%TD*%
D11*
%TO.C,R17*%
X177075000Y-52750000D03*
X175425000Y-52750000D03*
%TD*%
D34*
%TO.C,R16*%
X167437500Y-63600000D03*
X167437500Y-65250000D03*
%TD*%
D33*
%TO.C,R15*%
X146100000Y-61750000D03*
X147750000Y-61750000D03*
%TD*%
D34*
%TO.C,R14*%
X155000000Y-57925000D03*
X155000000Y-59575000D03*
%TD*%
%TO.C,R13*%
X153250000Y-57925000D03*
X153250000Y-59575000D03*
%TD*%
D11*
%TO.C,R12*%
X152000000Y-86000000D03*
X150350000Y-86000000D03*
%TD*%
%TO.C,R11*%
X152000000Y-80750000D03*
X150350000Y-80750000D03*
%TD*%
D34*
%TO.C,R9*%
X143750000Y-85425000D03*
X143750000Y-87075000D03*
%TD*%
%TO.C,R8*%
X141925000Y-85425000D03*
X141925000Y-87075000D03*
%TD*%
D33*
%TO.C,R7*%
X150350000Y-84250000D03*
X152000000Y-84250000D03*
%TD*%
D11*
%TO.C,R6*%
X144650000Y-79500000D03*
X143000000Y-79500000D03*
%TD*%
D33*
%TO.C,R5*%
X158350000Y-67760000D03*
X160000000Y-67760000D03*
%TD*%
D11*
%TO.C,R4*%
X160000000Y-69500000D03*
X158350000Y-69500000D03*
%TD*%
D33*
%TO.C,R3*%
X148350000Y-78750000D03*
X150000000Y-78750000D03*
%TD*%
D35*
%TO.C,Q1*%
X172312500Y-72550000D03*
X172312500Y-74450000D03*
X174187500Y-73500000D03*
%TD*%
D25*
%TO.C,J9*%
X190450000Y-100500000D03*
D20*
X190450000Y-98500000D03*
X190450000Y-96500000D03*
X190450000Y-94500000D03*
%TD*%
D25*
%TO.C,J8*%
X190500000Y-88500000D03*
D20*
X190500000Y-86500000D03*
X190500000Y-84500000D03*
X190500000Y-82500000D03*
%TD*%
D25*
%TO.C,J7*%
X190500000Y-76500000D03*
D20*
X190500000Y-74500000D03*
X190500000Y-72500000D03*
X190500000Y-70500000D03*
%TD*%
D19*
%TO.C,J5*%
X152500000Y-64210000D03*
D36*
X152500000Y-66750000D03*
X152500000Y-69290000D03*
%TD*%
D21*
%TO.C,J2*%
X137500000Y-91500000D03*
D20*
X137500000Y-93500000D03*
%TD*%
D37*
%TO.C,BZ1*%
X158750000Y-79250000D03*
X170750000Y-79250000D03*
%TD*%
D33*
%TO.C,R10*%
X150350000Y-82500000D03*
X152000000Y-82500000D03*
%TD*%
D38*
%TO.C,C23*%
X187150000Y-104250000D03*
X182750000Y-104250000D03*
%TD*%
D39*
%TO.C,BT1*%
X150765000Y-97500000D03*
X172735000Y-97500000D03*
D40*
X161750000Y-97500000D03*
%TD*%
M02*
