%TF.GenerationSoftware,KiCad,Pcbnew,9.0.7*%
%TF.CreationDate,2026-03-23T12:06:36-04:00*%
%TF.ProjectId,rev-b,7265762d-622e-46b6-9963-61645f706362,rev?*%
%TF.SameCoordinates,Original*%
%TF.FileFunction,Paste,Top*%
%TF.FilePolarity,Positive*%
%FSLAX46Y46*%
G04 Gerber Fmt 4.6, Leading zero omitted, Abs format (unit mm)*
G04 Created by KiCad (PCBNEW 9.0.7) date 2026-03-23 12:06:36*
%MOMM*%
%LPD*%
G01*
G04 APERTURE LIST*
G04 Aperture macros list*
%AMRoundRect*
0 Rectangle with rounded corners*
0 $1 Rounding radius*
0 $2 $3 $4 $5 $6 $7 $8 $9 X,Y pos of 4 corners*
0 Add a 4 corners polygon primitive as box body*
4,1,4,$2,$3,$4,$5,$6,$7,$8,$9,$2,$3,0*
0 Add four circle primitives for the rounded corners*
1,1,$1+$1,$2,$3*
1,1,$1+$1,$4,$5*
1,1,$1+$1,$6,$7*
1,1,$1+$1,$8,$9*
0 Add four rect primitives between the rounded corners*
20,1,$1+$1,$2,$3,$4,$5,0*
20,1,$1+$1,$4,$5,$6,$7,0*
20,1,$1+$1,$6,$7,$8,$9,0*
20,1,$1+$1,$8,$9,$2,$3,0*%
G04 Aperture macros list end*
%ADD10RoundRect,0.200000X0.200000X0.275000X-0.200000X0.275000X-0.200000X-0.275000X0.200000X-0.275000X0*%
%ADD11RoundRect,0.075000X-0.075000X0.650000X-0.075000X-0.650000X0.075000X-0.650000X0.075000X0.650000X0*%
%ADD12R,1.200000X0.800000*%
%ADD13R,1.200000X0.760000*%
%ADD14R,1.200000X0.700000*%
%ADD15RoundRect,0.172500X0.172500X-0.172500X0.172500X0.172500X-0.172500X0.172500X-0.172500X-0.172500X0*%
%ADD16RoundRect,0.062500X0.062500X-0.350000X0.062500X0.350000X-0.062500X0.350000X-0.062500X-0.350000X0*%
%ADD17RoundRect,0.062500X0.350000X-0.062500X0.350000X0.062500X-0.350000X0.062500X-0.350000X-0.062500X0*%
%ADD18R,2.750000X1.000000*%
%ADD19R,1.400000X0.800000*%
%ADD20R,1.400000X0.400000*%
%ADD21R,0.400000X1.400000*%
%ADD22R,1.000000X0.400000*%
%ADD23RoundRect,0.150000X-0.825000X-0.150000X0.825000X-0.150000X0.825000X0.150000X-0.825000X0.150000X0*%
%ADD24RoundRect,0.150000X-0.512500X-0.150000X0.512500X-0.150000X0.512500X0.150000X-0.512500X0.150000X0*%
%ADD25RoundRect,0.200000X-0.200000X-0.275000X0.200000X-0.275000X0.200000X0.275000X-0.200000X0.275000X0*%
%ADD26RoundRect,0.200000X-0.275000X0.200000X-0.275000X-0.200000X0.275000X-0.200000X0.275000X0.200000X0*%
%ADD27RoundRect,0.150000X-0.587500X-0.150000X0.587500X-0.150000X0.587500X0.150000X-0.587500X0.150000X0*%
%ADD28R,3.000000X6.000000*%
%ADD29RoundRect,0.250000X1.250000X0.550000X-1.250000X0.550000X-1.250000X-0.550000X1.250000X-0.550000X0*%
%ADD30R,1.270000X5.080000*%
G04 APERTURE END LIST*
D10*
%TO.C,R22*%
X185350000Y-82490000D03*
X187000000Y-82490000D03*
%TD*%
D11*
%TO.C,U3*%
X144500000Y-93800000D03*
X144000000Y-93800000D03*
X143500000Y-93800000D03*
X143000000Y-93800000D03*
X142500000Y-93800000D03*
X142500000Y-98200000D03*
X143000000Y-98200000D03*
X143500000Y-98200000D03*
X144000000Y-98200000D03*
X144500000Y-98200000D03*
%TD*%
D12*
%TO.C,J1*%
X139130000Y-77000000D03*
X139130000Y-82500000D03*
D13*
X139130000Y-78230000D03*
X139130000Y-81270000D03*
D14*
X139130000Y-79250000D03*
X139130000Y-80250000D03*
%TD*%
D15*
%TO.C,U2*%
X145575000Y-83110000D03*
X146425000Y-83110000D03*
X145575000Y-82260000D03*
X146425000Y-82260000D03*
D16*
X145250000Y-84147500D03*
X145750000Y-84147500D03*
X146250000Y-84147500D03*
X146750000Y-84147500D03*
D17*
X147462500Y-83435000D03*
X147462500Y-82935000D03*
X147462500Y-82435000D03*
X147462500Y-81935000D03*
D16*
X146750000Y-81222500D03*
X146250000Y-81222500D03*
X145750000Y-81222500D03*
X145250000Y-81222500D03*
D17*
X144537500Y-81935000D03*
X144537500Y-82435000D03*
X144537500Y-82935000D03*
X144537500Y-83435000D03*
%TD*%
D18*
%TO.C,SW1*%
X171620000Y-61750000D03*
X177380000Y-61750000D03*
X171620000Y-65750000D03*
X177380000Y-65750000D03*
%TD*%
D19*
%TO.C,U5*%
X159400000Y-50200000D03*
D20*
X159400000Y-53200000D03*
X159400000Y-53900000D03*
X159400000Y-54600000D03*
X159400000Y-55300000D03*
X159400000Y-56000000D03*
X159400000Y-56700000D03*
X159400000Y-57400000D03*
X159400000Y-58100000D03*
X159400000Y-58800000D03*
X159400000Y-59500000D03*
D21*
X159800000Y-61600000D03*
X160500000Y-61600000D03*
X161200000Y-61600000D03*
X161900000Y-61600000D03*
X162600000Y-61600000D03*
X163300000Y-61600000D03*
X164000000Y-61600000D03*
X164700000Y-61600000D03*
X165400000Y-61600000D03*
X166100000Y-61600000D03*
X166800000Y-61600000D03*
X167500000Y-61600000D03*
X168200000Y-61600000D03*
D20*
X168600000Y-60200000D03*
X168600000Y-59500000D03*
X168600000Y-58800000D03*
X168600000Y-58100000D03*
X168600000Y-57400000D03*
X168600000Y-56700000D03*
X168600000Y-56000000D03*
X168600000Y-55300000D03*
X168600000Y-54600000D03*
X168600000Y-53900000D03*
X168600000Y-53200000D03*
X168600000Y-52500000D03*
X168600000Y-51800000D03*
X168600000Y-51100000D03*
D19*
X168600000Y-50200000D03*
D22*
X166900000Y-50750000D03*
X166900000Y-52150000D03*
%TD*%
D23*
%TO.C,U4*%
X145550000Y-55750000D03*
X145550000Y-57020000D03*
X145550000Y-58290000D03*
X145550000Y-59560000D03*
X150500000Y-59560000D03*
X150500000Y-58290000D03*
X150500000Y-57020000D03*
X150500000Y-55750000D03*
%TD*%
D24*
%TO.C,U1*%
X150750000Y-75350000D03*
X150750000Y-76300000D03*
X150750000Y-77250000D03*
X153025000Y-77250000D03*
X153025000Y-75350000D03*
%TD*%
D10*
%TO.C,R27*%
X186750000Y-58500000D03*
X185100000Y-58500000D03*
%TD*%
%TO.C,R26*%
X186750000Y-60500000D03*
X185100000Y-60500000D03*
%TD*%
%TO.C,R25*%
X186750000Y-62500000D03*
X185100000Y-62500000D03*
%TD*%
%TO.C,R24*%
X186750000Y-70500000D03*
X185100000Y-70500000D03*
%TD*%
%TO.C,R23*%
X186750000Y-72500000D03*
X185100000Y-72500000D03*
%TD*%
D25*
%TO.C,R21*%
X185350000Y-84500000D03*
X187000000Y-84500000D03*
%TD*%
%TO.C,R20*%
X184600000Y-94500000D03*
X186250000Y-94500000D03*
%TD*%
%TO.C,R19*%
X184600000Y-96500000D03*
X186250000Y-96500000D03*
%TD*%
D26*
%TO.C,R18*%
X163750000Y-63425000D03*
X163750000Y-65075000D03*
%TD*%
D10*
%TO.C,R17*%
X177075000Y-52750000D03*
X175425000Y-52750000D03*
%TD*%
D26*
%TO.C,R16*%
X167437500Y-63600000D03*
X167437500Y-65250000D03*
%TD*%
D25*
%TO.C,R15*%
X146100000Y-61750000D03*
X147750000Y-61750000D03*
%TD*%
D26*
%TO.C,R14*%
X155000000Y-57925000D03*
X155000000Y-59575000D03*
%TD*%
%TO.C,R13*%
X153250000Y-57925000D03*
X153250000Y-59575000D03*
%TD*%
D10*
%TO.C,R12*%
X152000000Y-86000000D03*
X150350000Y-86000000D03*
%TD*%
%TO.C,R11*%
X152000000Y-80750000D03*
X150350000Y-80750000D03*
%TD*%
D26*
%TO.C,R9*%
X143750000Y-85425000D03*
X143750000Y-87075000D03*
%TD*%
%TO.C,R8*%
X141925000Y-85425000D03*
X141925000Y-87075000D03*
%TD*%
D25*
%TO.C,R7*%
X150350000Y-84250000D03*
X152000000Y-84250000D03*
%TD*%
D10*
%TO.C,R6*%
X144650000Y-79500000D03*
X143000000Y-79500000D03*
%TD*%
D25*
%TO.C,R5*%
X158350000Y-67760000D03*
X160000000Y-67760000D03*
%TD*%
D10*
%TO.C,R4*%
X160000000Y-69500000D03*
X158350000Y-69500000D03*
%TD*%
D25*
%TO.C,R3*%
X148350000Y-78750000D03*
X150000000Y-78750000D03*
%TD*%
D27*
%TO.C,Q1*%
X172312500Y-72550000D03*
X172312500Y-74450000D03*
X174187500Y-73500000D03*
%TD*%
D28*
%TO.C,BZ1*%
X158750000Y-79250000D03*
X170750000Y-79250000D03*
%TD*%
D25*
%TO.C,R10*%
X150350000Y-82500000D03*
X152000000Y-82500000D03*
%TD*%
D29*
%TO.C,C23*%
X187150000Y-104250000D03*
X182750000Y-104250000D03*
%TD*%
D30*
%TO.C,BT1*%
X150765000Y-97500000D03*
X172735000Y-97500000D03*
%TD*%
M02*
