%TF.GenerationSoftware,KiCad,Pcbnew,9.0.7*%
%TF.CreationDate,2026-03-23T12:41:53-04:00*%
%TF.ProjectId,rev-b,7265762d-622e-46b6-9963-61645f706362,rev?*%
%TF.SameCoordinates,Original*%
%TF.FileFunction,Component,L2,Bot*%
%TF.FilePolarity,Positive*%
%FSLAX46Y46*%
G04 Gerber Fmt 4.6, Leading zero omitted, Abs format (unit mm)*
G04 Created by KiCad (PCBNEW 9.0.7) date 2026-03-23 12:41:53*
%MOMM*%
%LPD*%
G01*
G04 APERTURE LIST*
%TA.AperFunction,ComponentMain*%
%ADD10C,0.300000*%
%TD*%
%TA.AperFunction,ComponentOutline,Courtyard*%
%ADD11C,0.100000*%
%TD*%
%TA.AperFunction,ComponentPin*%
%ADD12P,0.360000X4X0.000000*%
%TD*%
%TA.AperFunction,ComponentPin*%
%ADD13C,0.100000*%
%TD*%
G04 APERTURE END LIST*
D10*
%TO.C,C2*%
%TO.CFtp,C_0603_1608Metric*%
%TO.CVal,10uF*%
%TO.CLbN,Capacitor_SMD*%
%TO.CMnt,SMD*%
%TO.CRot,-90*%
X141240000Y-79250000D03*
D11*
X141965000Y-77775000D02*
X141965000Y-80725000D01*
X140515000Y-80725000D01*
X140515000Y-77775000D01*
X141965000Y-77775000D01*
D12*
%TO.P,C2,1*%
X141240000Y-80025000D03*
D13*
%TO.P,C2,2*%
X141240000Y-78475000D03*
%TD*%
D10*
%TO.C,C1*%
%TO.CFtp,C_0603_1608Metric*%
%TO.CVal,0.1uF*%
%TO.CLbN,Capacitor_SMD*%
%TO.CMnt,SMD*%
%TO.CRot,-90*%
X143000000Y-79250000D03*
D11*
X143725000Y-77775000D02*
X143725000Y-80725000D01*
X142275000Y-80725000D01*
X142275000Y-77775000D01*
X143725000Y-77775000D01*
D12*
%TO.P,C1,1*%
X143000000Y-80025000D03*
D13*
%TO.P,C1,2*%
X143000000Y-78475000D03*
%TD*%
D10*
%TO.C,R2*%
%TO.CFtp,R_0603_1608Metric*%
%TO.CVal,5.1k*%
%TO.CLbN,Resistor_SMD*%
%TO.CMnt,SMD*%
%TO.CRot,180*%
X135935000Y-79050000D03*
D11*
X137410000Y-78325000D02*
X137410000Y-79775000D01*
X134460000Y-79775000D01*
X134460000Y-78325000D01*
X137410000Y-78325000D01*
D12*
%TO.P,R2,1*%
X135110000Y-79050000D03*
D13*
%TO.P,R2,2*%
X136760000Y-79050000D03*
%TD*%
D10*
%TO.C,R1*%
%TO.CFtp,R_0603_1608Metric*%
%TO.CVal,5.1k*%
%TO.CLbN,Resistor_SMD*%
%TO.CMnt,SMD*%
%TO.CRot,0*%
X135925000Y-80750000D03*
D11*
X137400000Y-80025000D02*
X137400000Y-81475000D01*
X134450000Y-81475000D01*
X134450000Y-80025000D01*
X137400000Y-80025000D01*
D12*
%TO.P,R1,1*%
X136750000Y-80750000D03*
D13*
%TO.P,R1,2*%
X135100000Y-80750000D03*
%TD*%
D10*
%TO.C,C24*%
%TO.CFtp,C_0603_1608Metric*%
%TO.CVal,0.1uF*%
%TO.CLbN,Capacitor_SMD*%
%TO.CMnt,SMD*%
%TO.CRot,-90*%
X187250000Y-99975000D03*
D11*
X187975000Y-98500000D02*
X187975000Y-101450000D01*
X186525000Y-101450000D01*
X186525000Y-98500000D01*
X187975000Y-98500000D01*
D12*
%TO.P,C24,1*%
X187250000Y-100750000D03*
D13*
%TO.P,C24,2*%
X187250000Y-99200000D03*
%TD*%
D10*
%TO.C,C22*%
%TO.CFtp,C_0603_1608Metric*%
%TO.CVal,0.1uF*%
%TO.CLbN,Capacitor_SMD*%
%TO.CMnt,SMD*%
%TO.CRot,-90*%
X185500000Y-87775000D03*
D11*
X186225000Y-86300000D02*
X186225000Y-89250000D01*
X184775000Y-89250000D01*
X184775000Y-86300000D01*
X186225000Y-86300000D01*
D12*
%TO.P,C22,1*%
X185500000Y-88550000D03*
D13*
%TO.P,C22,2*%
X185500000Y-87000000D03*
%TD*%
D10*
%TO.C,C21*%
%TO.CFtp,C_0603_1608Metric*%
%TO.CVal,47uF*%
%TO.CLbN,Capacitor_SMD*%
%TO.CMnt,SMD*%
%TO.CRot,-90*%
X187260000Y-87750000D03*
D11*
X187985000Y-86275000D02*
X187985000Y-89225000D01*
X186535000Y-89225000D01*
X186535000Y-86275000D01*
X187985000Y-86275000D01*
D12*
%TO.P,C21,1*%
X187260000Y-88525000D03*
D13*
%TO.P,C21,2*%
X187260000Y-86975000D03*
%TD*%
D10*
%TO.C,C20*%
%TO.CFtp,C_0603_1608Metric*%
%TO.CVal,0.1uF*%
%TO.CLbN,Capacitor_SMD*%
%TO.CMnt,SMD*%
%TO.CRot,-90*%
X187250000Y-75725000D03*
D11*
X187975000Y-74250000D02*
X187975000Y-77200000D01*
X186525000Y-77200000D01*
X186525000Y-74250000D01*
X187975000Y-74250000D01*
D12*
%TO.P,C20,1*%
X187250000Y-76500000D03*
D13*
%TO.P,C20,2*%
X187250000Y-74950000D03*
%TD*%
D10*
%TO.C,C19*%
%TO.CFtp,C_0603_1608Metric*%
%TO.CVal,47uF*%
%TO.CLbN,Capacitor_SMD*%
%TO.CMnt,SMD*%
%TO.CRot,-90*%
X185480000Y-75725000D03*
D11*
X186205000Y-74250000D02*
X186205000Y-77200000D01*
X184755000Y-77200000D01*
X184755000Y-74250000D01*
X186205000Y-74250000D01*
D12*
%TO.P,C19,1*%
X185480000Y-76500000D03*
D13*
%TO.P,C19,2*%
X185480000Y-74950000D03*
%TD*%
D10*
%TO.C,C18*%
%TO.CFtp,C_0603_1608Metric*%
%TO.CVal,0.1uF*%
%TO.CLbN,Capacitor_SMD*%
%TO.CMnt,SMD*%
%TO.CRot,-90*%
X161500000Y-69250000D03*
D11*
X162225000Y-67775000D02*
X162225000Y-70725000D01*
X160775000Y-70725000D01*
X160775000Y-67775000D01*
X162225000Y-67775000D01*
D12*
%TO.P,C18,1*%
X161500000Y-70025000D03*
D13*
%TO.P,C18,2*%
X161500000Y-68475000D03*
%TD*%
D10*
%TO.C,C17*%
%TO.CFtp,C_0603_1608Metric*%
%TO.CVal,0.1uF*%
%TO.CLbN,Capacitor_SMD*%
%TO.CMnt,SMD*%
%TO.CRot,-90*%
X155750000Y-57750000D03*
D11*
X156475000Y-56275000D02*
X156475000Y-59225000D01*
X155025000Y-59225000D01*
X155025000Y-56275000D01*
X156475000Y-56275000D01*
D12*
%TO.P,C17,1*%
X155750000Y-58525000D03*
D13*
%TO.P,C17,2*%
X155750000Y-56975000D03*
%TD*%
D10*
%TO.C,C16*%
%TO.CFtp,C_0603_1608Metric*%
%TO.CVal,10uF*%
%TO.CLbN,Capacitor_SMD*%
%TO.CMnt,SMD*%
%TO.CRot,-90*%
X157500000Y-57750000D03*
D11*
X158225000Y-56275000D02*
X158225000Y-59225000D01*
X156775000Y-59225000D01*
X156775000Y-56275000D01*
X158225000Y-56275000D01*
D12*
%TO.P,C16,1*%
X157500000Y-58525000D03*
D13*
%TO.P,C16,2*%
X157500000Y-56975000D03*
%TD*%
D10*
%TO.C,C15*%
%TO.CFtp,C_0603_1608Metric*%
%TO.CVal,0.1uF*%
%TO.CLbN,Capacitor_SMD*%
%TO.CMnt,SMD*%
%TO.CRot,-90*%
X143250000Y-55025000D03*
D11*
X143975000Y-53550000D02*
X143975000Y-56500000D01*
X142525000Y-56500000D01*
X142525000Y-53550000D01*
X143975000Y-53550000D01*
D12*
%TO.P,C15,1*%
X143250000Y-55800000D03*
D13*
%TO.P,C15,2*%
X143250000Y-54250000D03*
%TD*%
D10*
%TO.C,C14*%
%TO.CFtp,C_0603_1608Metric*%
%TO.CVal,1uF*%
%TO.CLbN,Capacitor_SMD*%
%TO.CMnt,SMD*%
%TO.CRot,-90*%
X146250000Y-93000000D03*
D11*
X146975000Y-91525000D02*
X146975000Y-94475000D01*
X145525000Y-94475000D01*
X145525000Y-91525000D01*
X146975000Y-91525000D01*
D12*
%TO.P,C14,1*%
X146250000Y-93775000D03*
D13*
%TO.P,C14,2*%
X146250000Y-92225000D03*
%TD*%
D10*
%TO.C,C13*%
%TO.CFtp,C_0603_1608Metric*%
%TO.CVal,0.1uF*%
%TO.CLbN,Capacitor_SMD*%
%TO.CMnt,SMD*%
%TO.CRot,-90*%
X142250000Y-95750000D03*
D11*
X142975000Y-94275000D02*
X142975000Y-97225000D01*
X141525000Y-97225000D01*
X141525000Y-94275000D01*
X142975000Y-94275000D01*
D12*
%TO.P,C13,1*%
X142250000Y-96525000D03*
D13*
%TO.P,C13,2*%
X142250000Y-94975000D03*
%TD*%
D10*
%TO.C,C12*%
%TO.CFtp,C_0603_1608Metric*%
%TO.CVal,1uF*%
%TO.CLbN,Capacitor_SMD*%
%TO.CMnt,SMD*%
%TO.CRot,-90*%
X144000000Y-95750000D03*
D11*
X144725000Y-94275000D02*
X144725000Y-97225000D01*
X143275000Y-97225000D01*
X143275000Y-94275000D01*
X144725000Y-94275000D01*
D12*
%TO.P,C12,1*%
X144000000Y-96525000D03*
D13*
%TO.P,C12,2*%
X144000000Y-94975000D03*
%TD*%
D10*
%TO.C,C11*%
%TO.CFtp,C_0603_1608Metric*%
%TO.CVal,0.1uF*%
%TO.CLbN,Capacitor_SMD*%
%TO.CMnt,SMD*%
%TO.CRot,-90*%
X147740000Y-86500000D03*
D11*
X148465000Y-85025000D02*
X148465000Y-87975000D01*
X147015000Y-87975000D01*
X147015000Y-85025000D01*
X148465000Y-85025000D01*
D12*
%TO.P,C11,1*%
X147740000Y-87275000D03*
D13*
%TO.P,C11,2*%
X147740000Y-85725000D03*
%TD*%
D10*
%TO.C,C10*%
%TO.CFtp,C_0603_1608Metric*%
%TO.CVal,4.7uF*%
%TO.CLbN,Capacitor_SMD*%
%TO.CMnt,SMD*%
%TO.CRot,-90*%
X149500000Y-86500000D03*
D11*
X150225000Y-85025000D02*
X150225000Y-87975000D01*
X148775000Y-87975000D01*
X148775000Y-85025000D01*
X150225000Y-85025000D01*
D12*
%TO.P,C10,1*%
X149500000Y-87275000D03*
D13*
%TO.P,C10,2*%
X149500000Y-85725000D03*
%TD*%
D10*
%TO.C,C9*%
%TO.CFtp,C_0603_1608Metric*%
%TO.CVal,0.1uF*%
%TO.CLbN,Capacitor_SMD*%
%TO.CMnt,SMD*%
%TO.CRot,90*%
X146500000Y-77000000D03*
D11*
X147225000Y-75525000D02*
X147225000Y-78475000D01*
X145775000Y-78475000D01*
X145775000Y-75525000D01*
X147225000Y-75525000D01*
D12*
%TO.P,C9,1*%
X146500000Y-76225000D03*
D13*
%TO.P,C9,2*%
X146500000Y-77775000D03*
%TD*%
D10*
%TO.C,C8*%
%TO.CFtp,C_0603_1608Metric*%
%TO.CVal,4.7uF*%
%TO.CLbN,Capacitor_SMD*%
%TO.CMnt,SMD*%
%TO.CRot,90*%
X144750000Y-77000000D03*
D11*
X145475000Y-75525000D02*
X145475000Y-78475000D01*
X144025000Y-78475000D01*
X144025000Y-75525000D01*
X145475000Y-75525000D01*
D12*
%TO.P,C8,1*%
X144750000Y-76225000D03*
D13*
%TO.P,C8,2*%
X144750000Y-77775000D03*
%TD*%
D10*
%TO.C,C7*%
%TO.CFtp,C_0603_1608Metric*%
%TO.CVal,0.1uF*%
%TO.CLbN,Capacitor_SMD*%
%TO.CMnt,SMD*%
%TO.CRot,-90*%
X143000000Y-83775000D03*
D11*
X143725000Y-82300000D02*
X143725000Y-85250000D01*
X142275000Y-85250000D01*
X142275000Y-82300000D01*
X143725000Y-82300000D01*
D12*
%TO.P,C7,1*%
X143000000Y-84550000D03*
D13*
%TO.P,C7,2*%
X143000000Y-83000000D03*
%TD*%
D10*
%TO.C,C6*%
%TO.CFtp,C_0603_1608Metric*%
%TO.CVal,10uF*%
%TO.CLbN,Capacitor_SMD*%
%TO.CMnt,SMD*%
%TO.CRot,-90*%
X141250000Y-83775000D03*
D11*
X141975000Y-82300000D02*
X141975000Y-85250000D01*
X140525000Y-85250000D01*
X140525000Y-82300000D01*
X141975000Y-82300000D01*
D12*
%TO.P,C6,1*%
X141250000Y-84550000D03*
D13*
%TO.P,C6,2*%
X141250000Y-83000000D03*
%TD*%
D10*
%TO.C,C5*%
%TO.CFtp,C_0603_1608Metric*%
%TO.CVal,1uF*%
%TO.CLbN,Capacitor_SMD*%
%TO.CMnt,SMD*%
%TO.CRot,-90*%
X155000000Y-73775000D03*
D11*
X155725000Y-72300000D02*
X155725000Y-75250000D01*
X154275000Y-75250000D01*
X154275000Y-72300000D01*
X155725000Y-72300000D01*
D12*
%TO.P,C5,1*%
X155000000Y-74550000D03*
D13*
%TO.P,C5,2*%
X155000000Y-73000000D03*
%TD*%
D10*
%TO.C,C4*%
%TO.CFtp,C_0603_1608Metric*%
%TO.CVal,0.1uF*%
%TO.CLbN,Capacitor_SMD*%
%TO.CMnt,SMD*%
%TO.CRot,90*%
X148750000Y-73725000D03*
D11*
X149475000Y-72250000D02*
X149475000Y-75200000D01*
X148025000Y-75200000D01*
X148025000Y-72250000D01*
X149475000Y-72250000D01*
D12*
%TO.P,C4,1*%
X148750000Y-72950000D03*
D13*
%TO.P,C4,2*%
X148750000Y-74500000D03*
%TD*%
D10*
%TO.C,C3*%
%TO.CFtp,C_0603_1608Metric*%
%TO.CVal,1uF*%
%TO.CLbN,Capacitor_SMD*%
%TO.CMnt,SMD*%
%TO.CRot,90*%
X147000000Y-73725000D03*
D11*
X147725000Y-72250000D02*
X147725000Y-75200000D01*
X146275000Y-75200000D01*
X146275000Y-72250000D01*
X147725000Y-72250000D01*
D12*
%TO.P,C3,1*%
X147000000Y-72950000D03*
D13*
%TO.P,C3,2*%
X147000000Y-74500000D03*
%TD*%
M02*
