%TF.GenerationSoftware,KiCad,Pcbnew,9.0.7*%
%TF.CreationDate,2026-03-23T12:06:36-04:00*%
%TF.ProjectId,rev-b,7265762d-622e-46b6-9963-61645f706362,rev?*%
%TF.SameCoordinates,Original*%
%TF.FileFunction,Legend,Top*%
%TF.FilePolarity,Positive*%
%FSLAX46Y46*%
G04 Gerber Fmt 4.6, Leading zero omitted, Abs format (unit mm)*
G04 Created by KiCad (PCBNEW 9.0.7) date 2026-03-23 12:06:36*
%MOMM*%
%LPD*%
G01*
G04 APERTURE LIST*
%ADD10C,0.150000*%
%ADD11C,0.125000*%
%ADD12C,0.120000*%
%ADD13C,0.200000*%
%ADD14C,0.127000*%
G04 APERTURE END LIST*
D10*
X182607142Y-82954819D02*
X182273809Y-82478628D01*
X182035714Y-82954819D02*
X182035714Y-81954819D01*
X182035714Y-81954819D02*
X182416666Y-81954819D01*
X182416666Y-81954819D02*
X182511904Y-82002438D01*
X182511904Y-82002438D02*
X182559523Y-82050057D01*
X182559523Y-82050057D02*
X182607142Y-82145295D01*
X182607142Y-82145295D02*
X182607142Y-82288152D01*
X182607142Y-82288152D02*
X182559523Y-82383390D01*
X182559523Y-82383390D02*
X182511904Y-82431009D01*
X182511904Y-82431009D02*
X182416666Y-82478628D01*
X182416666Y-82478628D02*
X182035714Y-82478628D01*
X182988095Y-82050057D02*
X183035714Y-82002438D01*
X183035714Y-82002438D02*
X183130952Y-81954819D01*
X183130952Y-81954819D02*
X183369047Y-81954819D01*
X183369047Y-81954819D02*
X183464285Y-82002438D01*
X183464285Y-82002438D02*
X183511904Y-82050057D01*
X183511904Y-82050057D02*
X183559523Y-82145295D01*
X183559523Y-82145295D02*
X183559523Y-82240533D01*
X183559523Y-82240533D02*
X183511904Y-82383390D01*
X183511904Y-82383390D02*
X182940476Y-82954819D01*
X182940476Y-82954819D02*
X183559523Y-82954819D01*
X183940476Y-82050057D02*
X183988095Y-82002438D01*
X183988095Y-82002438D02*
X184083333Y-81954819D01*
X184083333Y-81954819D02*
X184321428Y-81954819D01*
X184321428Y-81954819D02*
X184416666Y-82002438D01*
X184416666Y-82002438D02*
X184464285Y-82050057D01*
X184464285Y-82050057D02*
X184511904Y-82145295D01*
X184511904Y-82145295D02*
X184511904Y-82240533D01*
X184511904Y-82240533D02*
X184464285Y-82383390D01*
X184464285Y-82383390D02*
X183892857Y-82954819D01*
X183892857Y-82954819D02*
X184511904Y-82954819D01*
X145404819Y-96761904D02*
X146214342Y-96761904D01*
X146214342Y-96761904D02*
X146309580Y-96714285D01*
X146309580Y-96714285D02*
X146357200Y-96666666D01*
X146357200Y-96666666D02*
X146404819Y-96571428D01*
X146404819Y-96571428D02*
X146404819Y-96380952D01*
X146404819Y-96380952D02*
X146357200Y-96285714D01*
X146357200Y-96285714D02*
X146309580Y-96238095D01*
X146309580Y-96238095D02*
X146214342Y-96190476D01*
X146214342Y-96190476D02*
X145404819Y-96190476D01*
X145404819Y-95809523D02*
X145404819Y-95190476D01*
X145404819Y-95190476D02*
X145785771Y-95523809D01*
X145785771Y-95523809D02*
X145785771Y-95380952D01*
X145785771Y-95380952D02*
X145833390Y-95285714D01*
X145833390Y-95285714D02*
X145881009Y-95238095D01*
X145881009Y-95238095D02*
X145976247Y-95190476D01*
X145976247Y-95190476D02*
X146214342Y-95190476D01*
X146214342Y-95190476D02*
X146309580Y-95238095D01*
X146309580Y-95238095D02*
X146357200Y-95285714D01*
X146357200Y-95285714D02*
X146404819Y-95380952D01*
X146404819Y-95380952D02*
X146404819Y-95666666D01*
X146404819Y-95666666D02*
X146357200Y-95761904D01*
X146357200Y-95761904D02*
X146309580Y-95809523D01*
X139488095Y-51454819D02*
X139488095Y-50454819D01*
X139488095Y-50931009D02*
X140059523Y-50931009D01*
X140059523Y-51454819D02*
X140059523Y-50454819D01*
X141059523Y-51454819D02*
X140488095Y-51454819D01*
X140773809Y-51454819D02*
X140773809Y-50454819D01*
X140773809Y-50454819D02*
X140678571Y-50597676D01*
X140678571Y-50597676D02*
X140583333Y-50692914D01*
X140583333Y-50692914D02*
X140488095Y-50740533D01*
X192238095Y-50954819D02*
X192238095Y-49954819D01*
X192238095Y-50431009D02*
X192809523Y-50431009D01*
X192809523Y-50954819D02*
X192809523Y-49954819D01*
X193238095Y-50050057D02*
X193285714Y-50002438D01*
X193285714Y-50002438D02*
X193380952Y-49954819D01*
X193380952Y-49954819D02*
X193619047Y-49954819D01*
X193619047Y-49954819D02*
X193714285Y-50002438D01*
X193714285Y-50002438D02*
X193761904Y-50050057D01*
X193761904Y-50050057D02*
X193809523Y-50145295D01*
X193809523Y-50145295D02*
X193809523Y-50240533D01*
X193809523Y-50240533D02*
X193761904Y-50383390D01*
X193761904Y-50383390D02*
X193190476Y-50954819D01*
X193190476Y-50954819D02*
X193809523Y-50954819D01*
X139238095Y-105454819D02*
X139238095Y-104454819D01*
X139238095Y-104931009D02*
X139809523Y-104931009D01*
X139809523Y-105454819D02*
X139809523Y-104454819D01*
X140190476Y-104454819D02*
X140809523Y-104454819D01*
X140809523Y-104454819D02*
X140476190Y-104835771D01*
X140476190Y-104835771D02*
X140619047Y-104835771D01*
X140619047Y-104835771D02*
X140714285Y-104883390D01*
X140714285Y-104883390D02*
X140761904Y-104931009D01*
X140761904Y-104931009D02*
X140809523Y-105026247D01*
X140809523Y-105026247D02*
X140809523Y-105264342D01*
X140809523Y-105264342D02*
X140761904Y-105359580D01*
X140761904Y-105359580D02*
X140714285Y-105407200D01*
X140714285Y-105407200D02*
X140619047Y-105454819D01*
X140619047Y-105454819D02*
X140333333Y-105454819D01*
X140333333Y-105454819D02*
X140238095Y-105407200D01*
X140238095Y-105407200D02*
X140190476Y-105359580D01*
X191738095Y-104304819D02*
X191738095Y-103304819D01*
X191738095Y-103781009D02*
X192309523Y-103781009D01*
X192309523Y-104304819D02*
X192309523Y-103304819D01*
X193214285Y-103638152D02*
X193214285Y-104304819D01*
X192976190Y-103257200D02*
X192738095Y-103971485D01*
X192738095Y-103971485D02*
X193357142Y-103971485D01*
X140639819Y-79958333D02*
X141354104Y-79958333D01*
X141354104Y-79958333D02*
X141496961Y-80005952D01*
X141496961Y-80005952D02*
X141592200Y-80101190D01*
X141592200Y-80101190D02*
X141639819Y-80244047D01*
X141639819Y-80244047D02*
X141639819Y-80339285D01*
X141639819Y-78958333D02*
X141639819Y-79529761D01*
X141639819Y-79244047D02*
X140639819Y-79244047D01*
X140639819Y-79244047D02*
X140782676Y-79339285D01*
X140782676Y-79339285D02*
X140877914Y-79434523D01*
X140877914Y-79434523D02*
X140925533Y-79529761D01*
X142624819Y-83761904D02*
X143434342Y-83761904D01*
X143434342Y-83761904D02*
X143529580Y-83714285D01*
X143529580Y-83714285D02*
X143577200Y-83666666D01*
X143577200Y-83666666D02*
X143624819Y-83571428D01*
X143624819Y-83571428D02*
X143624819Y-83380952D01*
X143624819Y-83380952D02*
X143577200Y-83285714D01*
X143577200Y-83285714D02*
X143529580Y-83238095D01*
X143529580Y-83238095D02*
X143434342Y-83190476D01*
X143434342Y-83190476D02*
X142624819Y-83190476D01*
X142720057Y-82761904D02*
X142672438Y-82714285D01*
X142672438Y-82714285D02*
X142624819Y-82619047D01*
X142624819Y-82619047D02*
X142624819Y-82380952D01*
X142624819Y-82380952D02*
X142672438Y-82285714D01*
X142672438Y-82285714D02*
X142720057Y-82238095D01*
X142720057Y-82238095D02*
X142815295Y-82190476D01*
X142815295Y-82190476D02*
X142910533Y-82190476D01*
X142910533Y-82190476D02*
X143053390Y-82238095D01*
X143053390Y-82238095D02*
X143624819Y-82809523D01*
X143624819Y-82809523D02*
X143624819Y-82190476D01*
X139954819Y-100583333D02*
X140669104Y-100583333D01*
X140669104Y-100583333D02*
X140811961Y-100630952D01*
X140811961Y-100630952D02*
X140907200Y-100726190D01*
X140907200Y-100726190D02*
X140954819Y-100869047D01*
X140954819Y-100869047D02*
X140954819Y-100964285D01*
X139954819Y-100202380D02*
X139954819Y-99583333D01*
X139954819Y-99583333D02*
X140335771Y-99916666D01*
X140335771Y-99916666D02*
X140335771Y-99773809D01*
X140335771Y-99773809D02*
X140383390Y-99678571D01*
X140383390Y-99678571D02*
X140431009Y-99630952D01*
X140431009Y-99630952D02*
X140526247Y-99583333D01*
X140526247Y-99583333D02*
X140764342Y-99583333D01*
X140764342Y-99583333D02*
X140859580Y-99630952D01*
X140859580Y-99630952D02*
X140907200Y-99678571D01*
X140907200Y-99678571D02*
X140954819Y-99773809D01*
X140954819Y-99773809D02*
X140954819Y-100059523D01*
X140954819Y-100059523D02*
X140907200Y-100154761D01*
X140907200Y-100154761D02*
X140859580Y-100202380D01*
X179379819Y-52944523D02*
X180094104Y-52944523D01*
X180094104Y-52944523D02*
X180236961Y-52992142D01*
X180236961Y-52992142D02*
X180332200Y-53087380D01*
X180332200Y-53087380D02*
X180379819Y-53230237D01*
X180379819Y-53230237D02*
X180379819Y-53325475D01*
X180379819Y-51944523D02*
X180379819Y-52515951D01*
X180379819Y-52230237D02*
X179379819Y-52230237D01*
X179379819Y-52230237D02*
X179522676Y-52325475D01*
X179522676Y-52325475D02*
X179617914Y-52420713D01*
X179617914Y-52420713D02*
X179665533Y-52515951D01*
X179379819Y-51325475D02*
X179379819Y-51230237D01*
X179379819Y-51230237D02*
X179427438Y-51134999D01*
X179427438Y-51134999D02*
X179475057Y-51087380D01*
X179475057Y-51087380D02*
X179570295Y-51039761D01*
X179570295Y-51039761D02*
X179760771Y-50992142D01*
X179760771Y-50992142D02*
X179998866Y-50992142D01*
X179998866Y-50992142D02*
X180189342Y-51039761D01*
X180189342Y-51039761D02*
X180284580Y-51087380D01*
X180284580Y-51087380D02*
X180332200Y-51134999D01*
X180332200Y-51134999D02*
X180379819Y-51230237D01*
X180379819Y-51230237D02*
X180379819Y-51325475D01*
X180379819Y-51325475D02*
X180332200Y-51420713D01*
X180332200Y-51420713D02*
X180284580Y-51468332D01*
X180284580Y-51468332D02*
X180189342Y-51515951D01*
X180189342Y-51515951D02*
X179998866Y-51563570D01*
X179998866Y-51563570D02*
X179760771Y-51563570D01*
X179760771Y-51563570D02*
X179570295Y-51515951D01*
X179570295Y-51515951D02*
X179475057Y-51468332D01*
X179475057Y-51468332D02*
X179427438Y-51420713D01*
X179427438Y-51420713D02*
X179379819Y-51325475D01*
X173166667Y-68057200D02*
X173309524Y-68104819D01*
X173309524Y-68104819D02*
X173547619Y-68104819D01*
X173547619Y-68104819D02*
X173642857Y-68057200D01*
X173642857Y-68057200D02*
X173690476Y-68009580D01*
X173690476Y-68009580D02*
X173738095Y-67914342D01*
X173738095Y-67914342D02*
X173738095Y-67819104D01*
X173738095Y-67819104D02*
X173690476Y-67723866D01*
X173690476Y-67723866D02*
X173642857Y-67676247D01*
X173642857Y-67676247D02*
X173547619Y-67628628D01*
X173547619Y-67628628D02*
X173357143Y-67581009D01*
X173357143Y-67581009D02*
X173261905Y-67533390D01*
X173261905Y-67533390D02*
X173214286Y-67485771D01*
X173214286Y-67485771D02*
X173166667Y-67390533D01*
X173166667Y-67390533D02*
X173166667Y-67295295D01*
X173166667Y-67295295D02*
X173214286Y-67200057D01*
X173214286Y-67200057D02*
X173261905Y-67152438D01*
X173261905Y-67152438D02*
X173357143Y-67104819D01*
X173357143Y-67104819D02*
X173595238Y-67104819D01*
X173595238Y-67104819D02*
X173738095Y-67152438D01*
X174071429Y-67104819D02*
X174309524Y-68104819D01*
X174309524Y-68104819D02*
X174500000Y-67390533D01*
X174500000Y-67390533D02*
X174690476Y-68104819D01*
X174690476Y-68104819D02*
X174928572Y-67104819D01*
X175833333Y-68104819D02*
X175261905Y-68104819D01*
X175547619Y-68104819D02*
X175547619Y-67104819D01*
X175547619Y-67104819D02*
X175452381Y-67247676D01*
X175452381Y-67247676D02*
X175357143Y-67342914D01*
X175357143Y-67342914D02*
X175261905Y-67390533D01*
X187054819Y-56833333D02*
X187769104Y-56833333D01*
X187769104Y-56833333D02*
X187911961Y-56880952D01*
X187911961Y-56880952D02*
X188007200Y-56976190D01*
X188007200Y-56976190D02*
X188054819Y-57119047D01*
X188054819Y-57119047D02*
X188054819Y-57214285D01*
X187054819Y-55928571D02*
X187054819Y-56119047D01*
X187054819Y-56119047D02*
X187102438Y-56214285D01*
X187102438Y-56214285D02*
X187150057Y-56261904D01*
X187150057Y-56261904D02*
X187292914Y-56357142D01*
X187292914Y-56357142D02*
X187483390Y-56404761D01*
X187483390Y-56404761D02*
X187864342Y-56404761D01*
X187864342Y-56404761D02*
X187959580Y-56357142D01*
X187959580Y-56357142D02*
X188007200Y-56309523D01*
X188007200Y-56309523D02*
X188054819Y-56214285D01*
X188054819Y-56214285D02*
X188054819Y-56023809D01*
X188054819Y-56023809D02*
X188007200Y-55928571D01*
X188007200Y-55928571D02*
X187959580Y-55880952D01*
X187959580Y-55880952D02*
X187864342Y-55833333D01*
X187864342Y-55833333D02*
X187626247Y-55833333D01*
X187626247Y-55833333D02*
X187531009Y-55880952D01*
X187531009Y-55880952D02*
X187483390Y-55928571D01*
X187483390Y-55928571D02*
X187435771Y-56023809D01*
X187435771Y-56023809D02*
X187435771Y-56214285D01*
X187435771Y-56214285D02*
X187483390Y-56309523D01*
X187483390Y-56309523D02*
X187531009Y-56357142D01*
X187531009Y-56357142D02*
X187626247Y-56404761D01*
X156488095Y-51204819D02*
X156488095Y-52014342D01*
X156488095Y-52014342D02*
X156535714Y-52109580D01*
X156535714Y-52109580D02*
X156583333Y-52157200D01*
X156583333Y-52157200D02*
X156678571Y-52204819D01*
X156678571Y-52204819D02*
X156869047Y-52204819D01*
X156869047Y-52204819D02*
X156964285Y-52157200D01*
X156964285Y-52157200D02*
X157011904Y-52109580D01*
X157011904Y-52109580D02*
X157059523Y-52014342D01*
X157059523Y-52014342D02*
X157059523Y-51204819D01*
X158011904Y-51204819D02*
X157535714Y-51204819D01*
X157535714Y-51204819D02*
X157488095Y-51681009D01*
X157488095Y-51681009D02*
X157535714Y-51633390D01*
X157535714Y-51633390D02*
X157630952Y-51585771D01*
X157630952Y-51585771D02*
X157869047Y-51585771D01*
X157869047Y-51585771D02*
X157964285Y-51633390D01*
X157964285Y-51633390D02*
X158011904Y-51681009D01*
X158011904Y-51681009D02*
X158059523Y-51776247D01*
X158059523Y-51776247D02*
X158059523Y-52014342D01*
X158059523Y-52014342D02*
X158011904Y-52109580D01*
X158011904Y-52109580D02*
X157964285Y-52157200D01*
X157964285Y-52157200D02*
X157869047Y-52204819D01*
X157869047Y-52204819D02*
X157630952Y-52204819D01*
X157630952Y-52204819D02*
X157535714Y-52157200D01*
X157535714Y-52157200D02*
X157488095Y-52109580D01*
X147238095Y-53704819D02*
X147238095Y-54514342D01*
X147238095Y-54514342D02*
X147285714Y-54609580D01*
X147285714Y-54609580D02*
X147333333Y-54657200D01*
X147333333Y-54657200D02*
X147428571Y-54704819D01*
X147428571Y-54704819D02*
X147619047Y-54704819D01*
X147619047Y-54704819D02*
X147714285Y-54657200D01*
X147714285Y-54657200D02*
X147761904Y-54609580D01*
X147761904Y-54609580D02*
X147809523Y-54514342D01*
X147809523Y-54514342D02*
X147809523Y-53704819D01*
X148714285Y-54038152D02*
X148714285Y-54704819D01*
X148476190Y-53657200D02*
X148238095Y-54371485D01*
X148238095Y-54371485D02*
X148857142Y-54371485D01*
X151125595Y-73354819D02*
X151125595Y-74164342D01*
X151125595Y-74164342D02*
X151173214Y-74259580D01*
X151173214Y-74259580D02*
X151220833Y-74307200D01*
X151220833Y-74307200D02*
X151316071Y-74354819D01*
X151316071Y-74354819D02*
X151506547Y-74354819D01*
X151506547Y-74354819D02*
X151601785Y-74307200D01*
X151601785Y-74307200D02*
X151649404Y-74259580D01*
X151649404Y-74259580D02*
X151697023Y-74164342D01*
X151697023Y-74164342D02*
X151697023Y-73354819D01*
X152697023Y-74354819D02*
X152125595Y-74354819D01*
X152411309Y-74354819D02*
X152411309Y-73354819D01*
X152411309Y-73354819D02*
X152316071Y-73497676D01*
X152316071Y-73497676D02*
X152220833Y-73592914D01*
X152220833Y-73592914D02*
X152125595Y-73640533D01*
D11*
X181088095Y-56613595D02*
X180821428Y-56232642D01*
X180630952Y-56613595D02*
X180630952Y-55813595D01*
X180630952Y-55813595D02*
X180935714Y-55813595D01*
X180935714Y-55813595D02*
X181011904Y-55851690D01*
X181011904Y-55851690D02*
X181049999Y-55889785D01*
X181049999Y-55889785D02*
X181088095Y-55965976D01*
X181088095Y-55965976D02*
X181088095Y-56080261D01*
X181088095Y-56080261D02*
X181049999Y-56156452D01*
X181049999Y-56156452D02*
X181011904Y-56194547D01*
X181011904Y-56194547D02*
X180935714Y-56232642D01*
X180935714Y-56232642D02*
X180630952Y-56232642D01*
X181430952Y-56194547D02*
X181697618Y-56194547D01*
X181811904Y-56613595D02*
X181430952Y-56613595D01*
X181430952Y-56613595D02*
X181430952Y-55813595D01*
X181430952Y-55813595D02*
X181811904Y-55813595D01*
X182116666Y-56575500D02*
X182230952Y-56613595D01*
X182230952Y-56613595D02*
X182421428Y-56613595D01*
X182421428Y-56613595D02*
X182497619Y-56575500D01*
X182497619Y-56575500D02*
X182535714Y-56537404D01*
X182535714Y-56537404D02*
X182573809Y-56461214D01*
X182573809Y-56461214D02*
X182573809Y-56385023D01*
X182573809Y-56385023D02*
X182535714Y-56308833D01*
X182535714Y-56308833D02*
X182497619Y-56270738D01*
X182497619Y-56270738D02*
X182421428Y-56232642D01*
X182421428Y-56232642D02*
X182269047Y-56194547D01*
X182269047Y-56194547D02*
X182192857Y-56156452D01*
X182192857Y-56156452D02*
X182154762Y-56118357D01*
X182154762Y-56118357D02*
X182116666Y-56042166D01*
X182116666Y-56042166D02*
X182116666Y-55965976D01*
X182116666Y-55965976D02*
X182154762Y-55889785D01*
X182154762Y-55889785D02*
X182192857Y-55851690D01*
X182192857Y-55851690D02*
X182269047Y-55813595D01*
X182269047Y-55813595D02*
X182459524Y-55813595D01*
X182459524Y-55813595D02*
X182573809Y-55851690D01*
X182916667Y-56194547D02*
X183183333Y-56194547D01*
X183297619Y-56613595D02*
X182916667Y-56613595D01*
X182916667Y-56613595D02*
X182916667Y-55813595D01*
X182916667Y-55813595D02*
X183297619Y-55813595D01*
X183526191Y-55813595D02*
X183983334Y-55813595D01*
X183754762Y-56613595D02*
X183754762Y-55813595D01*
D10*
X134238095Y-66556819D02*
X134809523Y-66556819D01*
X134523809Y-67556819D02*
X134523809Y-66556819D01*
X135142857Y-67556819D02*
X135142857Y-66556819D01*
X135142857Y-66556819D02*
X135523809Y-66556819D01*
X135523809Y-66556819D02*
X135619047Y-66604438D01*
X135619047Y-66604438D02*
X135666666Y-66652057D01*
X135666666Y-66652057D02*
X135714285Y-66747295D01*
X135714285Y-66747295D02*
X135714285Y-66890152D01*
X135714285Y-66890152D02*
X135666666Y-66985390D01*
X135666666Y-66985390D02*
X135619047Y-67033009D01*
X135619047Y-67033009D02*
X135523809Y-67080628D01*
X135523809Y-67080628D02*
X135142857Y-67080628D01*
X136571428Y-66556819D02*
X136380952Y-66556819D01*
X136380952Y-66556819D02*
X136285714Y-66604438D01*
X136285714Y-66604438D02*
X136238095Y-66652057D01*
X136238095Y-66652057D02*
X136142857Y-66794914D01*
X136142857Y-66794914D02*
X136095238Y-66985390D01*
X136095238Y-66985390D02*
X136095238Y-67366342D01*
X136095238Y-67366342D02*
X136142857Y-67461580D01*
X136142857Y-67461580D02*
X136190476Y-67509200D01*
X136190476Y-67509200D02*
X136285714Y-67556819D01*
X136285714Y-67556819D02*
X136476190Y-67556819D01*
X136476190Y-67556819D02*
X136571428Y-67509200D01*
X136571428Y-67509200D02*
X136619047Y-67461580D01*
X136619047Y-67461580D02*
X136666666Y-67366342D01*
X136666666Y-67366342D02*
X136666666Y-67128247D01*
X136666666Y-67128247D02*
X136619047Y-67033009D01*
X136619047Y-67033009D02*
X136571428Y-66985390D01*
X136571428Y-66985390D02*
X136476190Y-66937771D01*
X136476190Y-66937771D02*
X136285714Y-66937771D01*
X136285714Y-66937771D02*
X136190476Y-66985390D01*
X136190476Y-66985390D02*
X136142857Y-67033009D01*
X136142857Y-67033009D02*
X136095238Y-67128247D01*
X163988095Y-68954819D02*
X164559523Y-68954819D01*
X164273809Y-69954819D02*
X164273809Y-68954819D01*
X164892857Y-69954819D02*
X164892857Y-68954819D01*
X164892857Y-68954819D02*
X165273809Y-68954819D01*
X165273809Y-68954819D02*
X165369047Y-69002438D01*
X165369047Y-69002438D02*
X165416666Y-69050057D01*
X165416666Y-69050057D02*
X165464285Y-69145295D01*
X165464285Y-69145295D02*
X165464285Y-69288152D01*
X165464285Y-69288152D02*
X165416666Y-69383390D01*
X165416666Y-69383390D02*
X165369047Y-69431009D01*
X165369047Y-69431009D02*
X165273809Y-69478628D01*
X165273809Y-69478628D02*
X164892857Y-69478628D01*
X166369047Y-68954819D02*
X165892857Y-68954819D01*
X165892857Y-68954819D02*
X165845238Y-69431009D01*
X165845238Y-69431009D02*
X165892857Y-69383390D01*
X165892857Y-69383390D02*
X165988095Y-69335771D01*
X165988095Y-69335771D02*
X166226190Y-69335771D01*
X166226190Y-69335771D02*
X166321428Y-69383390D01*
X166321428Y-69383390D02*
X166369047Y-69431009D01*
X166369047Y-69431009D02*
X166416666Y-69526247D01*
X166416666Y-69526247D02*
X166416666Y-69764342D01*
X166416666Y-69764342D02*
X166369047Y-69859580D01*
X166369047Y-69859580D02*
X166321428Y-69907200D01*
X166321428Y-69907200D02*
X166226190Y-69954819D01*
X166226190Y-69954819D02*
X165988095Y-69954819D01*
X165988095Y-69954819D02*
X165892857Y-69907200D01*
X165892857Y-69907200D02*
X165845238Y-69859580D01*
X134238095Y-70556819D02*
X134809523Y-70556819D01*
X134523809Y-71556819D02*
X134523809Y-70556819D01*
X135142857Y-71556819D02*
X135142857Y-70556819D01*
X135142857Y-70556819D02*
X135523809Y-70556819D01*
X135523809Y-70556819D02*
X135619047Y-70604438D01*
X135619047Y-70604438D02*
X135666666Y-70652057D01*
X135666666Y-70652057D02*
X135714285Y-70747295D01*
X135714285Y-70747295D02*
X135714285Y-70890152D01*
X135714285Y-70890152D02*
X135666666Y-70985390D01*
X135666666Y-70985390D02*
X135619047Y-71033009D01*
X135619047Y-71033009D02*
X135523809Y-71080628D01*
X135523809Y-71080628D02*
X135142857Y-71080628D01*
X136095238Y-70652057D02*
X136142857Y-70604438D01*
X136142857Y-70604438D02*
X136238095Y-70556819D01*
X136238095Y-70556819D02*
X136476190Y-70556819D01*
X136476190Y-70556819D02*
X136571428Y-70604438D01*
X136571428Y-70604438D02*
X136619047Y-70652057D01*
X136619047Y-70652057D02*
X136666666Y-70747295D01*
X136666666Y-70747295D02*
X136666666Y-70842533D01*
X136666666Y-70842533D02*
X136619047Y-70985390D01*
X136619047Y-70985390D02*
X136047619Y-71556819D01*
X136047619Y-71556819D02*
X136666666Y-71556819D01*
X134238095Y-85056819D02*
X134809523Y-85056819D01*
X134523809Y-86056819D02*
X134523809Y-85056819D01*
X135142857Y-86056819D02*
X135142857Y-85056819D01*
X135142857Y-85056819D02*
X135523809Y-85056819D01*
X135523809Y-85056819D02*
X135619047Y-85104438D01*
X135619047Y-85104438D02*
X135666666Y-85152057D01*
X135666666Y-85152057D02*
X135714285Y-85247295D01*
X135714285Y-85247295D02*
X135714285Y-85390152D01*
X135714285Y-85390152D02*
X135666666Y-85485390D01*
X135666666Y-85485390D02*
X135619047Y-85533009D01*
X135619047Y-85533009D02*
X135523809Y-85580628D01*
X135523809Y-85580628D02*
X135142857Y-85580628D01*
X136666666Y-86056819D02*
X136095238Y-86056819D01*
X136380952Y-86056819D02*
X136380952Y-85056819D01*
X136380952Y-85056819D02*
X136285714Y-85199676D01*
X136285714Y-85199676D02*
X136190476Y-85294914D01*
X136190476Y-85294914D02*
X136095238Y-85342533D01*
X182107142Y-58954819D02*
X181773809Y-58478628D01*
X181535714Y-58954819D02*
X181535714Y-57954819D01*
X181535714Y-57954819D02*
X181916666Y-57954819D01*
X181916666Y-57954819D02*
X182011904Y-58002438D01*
X182011904Y-58002438D02*
X182059523Y-58050057D01*
X182059523Y-58050057D02*
X182107142Y-58145295D01*
X182107142Y-58145295D02*
X182107142Y-58288152D01*
X182107142Y-58288152D02*
X182059523Y-58383390D01*
X182059523Y-58383390D02*
X182011904Y-58431009D01*
X182011904Y-58431009D02*
X181916666Y-58478628D01*
X181916666Y-58478628D02*
X181535714Y-58478628D01*
X182488095Y-58050057D02*
X182535714Y-58002438D01*
X182535714Y-58002438D02*
X182630952Y-57954819D01*
X182630952Y-57954819D02*
X182869047Y-57954819D01*
X182869047Y-57954819D02*
X182964285Y-58002438D01*
X182964285Y-58002438D02*
X183011904Y-58050057D01*
X183011904Y-58050057D02*
X183059523Y-58145295D01*
X183059523Y-58145295D02*
X183059523Y-58240533D01*
X183059523Y-58240533D02*
X183011904Y-58383390D01*
X183011904Y-58383390D02*
X182440476Y-58954819D01*
X182440476Y-58954819D02*
X183059523Y-58954819D01*
X183392857Y-57954819D02*
X184059523Y-57954819D01*
X184059523Y-57954819D02*
X183630952Y-58954819D01*
X182357142Y-60954819D02*
X182023809Y-60478628D01*
X181785714Y-60954819D02*
X181785714Y-59954819D01*
X181785714Y-59954819D02*
X182166666Y-59954819D01*
X182166666Y-59954819D02*
X182261904Y-60002438D01*
X182261904Y-60002438D02*
X182309523Y-60050057D01*
X182309523Y-60050057D02*
X182357142Y-60145295D01*
X182357142Y-60145295D02*
X182357142Y-60288152D01*
X182357142Y-60288152D02*
X182309523Y-60383390D01*
X182309523Y-60383390D02*
X182261904Y-60431009D01*
X182261904Y-60431009D02*
X182166666Y-60478628D01*
X182166666Y-60478628D02*
X181785714Y-60478628D01*
X182738095Y-60050057D02*
X182785714Y-60002438D01*
X182785714Y-60002438D02*
X182880952Y-59954819D01*
X182880952Y-59954819D02*
X183119047Y-59954819D01*
X183119047Y-59954819D02*
X183214285Y-60002438D01*
X183214285Y-60002438D02*
X183261904Y-60050057D01*
X183261904Y-60050057D02*
X183309523Y-60145295D01*
X183309523Y-60145295D02*
X183309523Y-60240533D01*
X183309523Y-60240533D02*
X183261904Y-60383390D01*
X183261904Y-60383390D02*
X182690476Y-60954819D01*
X182690476Y-60954819D02*
X183309523Y-60954819D01*
X184166666Y-59954819D02*
X183976190Y-59954819D01*
X183976190Y-59954819D02*
X183880952Y-60002438D01*
X183880952Y-60002438D02*
X183833333Y-60050057D01*
X183833333Y-60050057D02*
X183738095Y-60192914D01*
X183738095Y-60192914D02*
X183690476Y-60383390D01*
X183690476Y-60383390D02*
X183690476Y-60764342D01*
X183690476Y-60764342D02*
X183738095Y-60859580D01*
X183738095Y-60859580D02*
X183785714Y-60907200D01*
X183785714Y-60907200D02*
X183880952Y-60954819D01*
X183880952Y-60954819D02*
X184071428Y-60954819D01*
X184071428Y-60954819D02*
X184166666Y-60907200D01*
X184166666Y-60907200D02*
X184214285Y-60859580D01*
X184214285Y-60859580D02*
X184261904Y-60764342D01*
X184261904Y-60764342D02*
X184261904Y-60526247D01*
X184261904Y-60526247D02*
X184214285Y-60431009D01*
X184214285Y-60431009D02*
X184166666Y-60383390D01*
X184166666Y-60383390D02*
X184071428Y-60335771D01*
X184071428Y-60335771D02*
X183880952Y-60335771D01*
X183880952Y-60335771D02*
X183785714Y-60383390D01*
X183785714Y-60383390D02*
X183738095Y-60431009D01*
X183738095Y-60431009D02*
X183690476Y-60526247D01*
X182357142Y-62954819D02*
X182023809Y-62478628D01*
X181785714Y-62954819D02*
X181785714Y-61954819D01*
X181785714Y-61954819D02*
X182166666Y-61954819D01*
X182166666Y-61954819D02*
X182261904Y-62002438D01*
X182261904Y-62002438D02*
X182309523Y-62050057D01*
X182309523Y-62050057D02*
X182357142Y-62145295D01*
X182357142Y-62145295D02*
X182357142Y-62288152D01*
X182357142Y-62288152D02*
X182309523Y-62383390D01*
X182309523Y-62383390D02*
X182261904Y-62431009D01*
X182261904Y-62431009D02*
X182166666Y-62478628D01*
X182166666Y-62478628D02*
X181785714Y-62478628D01*
X182738095Y-62050057D02*
X182785714Y-62002438D01*
X182785714Y-62002438D02*
X182880952Y-61954819D01*
X182880952Y-61954819D02*
X183119047Y-61954819D01*
X183119047Y-61954819D02*
X183214285Y-62002438D01*
X183214285Y-62002438D02*
X183261904Y-62050057D01*
X183261904Y-62050057D02*
X183309523Y-62145295D01*
X183309523Y-62145295D02*
X183309523Y-62240533D01*
X183309523Y-62240533D02*
X183261904Y-62383390D01*
X183261904Y-62383390D02*
X182690476Y-62954819D01*
X182690476Y-62954819D02*
X183309523Y-62954819D01*
X184214285Y-61954819D02*
X183738095Y-61954819D01*
X183738095Y-61954819D02*
X183690476Y-62431009D01*
X183690476Y-62431009D02*
X183738095Y-62383390D01*
X183738095Y-62383390D02*
X183833333Y-62335771D01*
X183833333Y-62335771D02*
X184071428Y-62335771D01*
X184071428Y-62335771D02*
X184166666Y-62383390D01*
X184166666Y-62383390D02*
X184214285Y-62431009D01*
X184214285Y-62431009D02*
X184261904Y-62526247D01*
X184261904Y-62526247D02*
X184261904Y-62764342D01*
X184261904Y-62764342D02*
X184214285Y-62859580D01*
X184214285Y-62859580D02*
X184166666Y-62907200D01*
X184166666Y-62907200D02*
X184071428Y-62954819D01*
X184071428Y-62954819D02*
X183833333Y-62954819D01*
X183833333Y-62954819D02*
X183738095Y-62907200D01*
X183738095Y-62907200D02*
X183690476Y-62859580D01*
X182607142Y-70954819D02*
X182273809Y-70478628D01*
X182035714Y-70954819D02*
X182035714Y-69954819D01*
X182035714Y-69954819D02*
X182416666Y-69954819D01*
X182416666Y-69954819D02*
X182511904Y-70002438D01*
X182511904Y-70002438D02*
X182559523Y-70050057D01*
X182559523Y-70050057D02*
X182607142Y-70145295D01*
X182607142Y-70145295D02*
X182607142Y-70288152D01*
X182607142Y-70288152D02*
X182559523Y-70383390D01*
X182559523Y-70383390D02*
X182511904Y-70431009D01*
X182511904Y-70431009D02*
X182416666Y-70478628D01*
X182416666Y-70478628D02*
X182035714Y-70478628D01*
X182988095Y-70050057D02*
X183035714Y-70002438D01*
X183035714Y-70002438D02*
X183130952Y-69954819D01*
X183130952Y-69954819D02*
X183369047Y-69954819D01*
X183369047Y-69954819D02*
X183464285Y-70002438D01*
X183464285Y-70002438D02*
X183511904Y-70050057D01*
X183511904Y-70050057D02*
X183559523Y-70145295D01*
X183559523Y-70145295D02*
X183559523Y-70240533D01*
X183559523Y-70240533D02*
X183511904Y-70383390D01*
X183511904Y-70383390D02*
X182940476Y-70954819D01*
X182940476Y-70954819D02*
X183559523Y-70954819D01*
X184416666Y-70288152D02*
X184416666Y-70954819D01*
X184178571Y-69907200D02*
X183940476Y-70621485D01*
X183940476Y-70621485D02*
X184559523Y-70621485D01*
X182357142Y-72954819D02*
X182023809Y-72478628D01*
X181785714Y-72954819D02*
X181785714Y-71954819D01*
X181785714Y-71954819D02*
X182166666Y-71954819D01*
X182166666Y-71954819D02*
X182261904Y-72002438D01*
X182261904Y-72002438D02*
X182309523Y-72050057D01*
X182309523Y-72050057D02*
X182357142Y-72145295D01*
X182357142Y-72145295D02*
X182357142Y-72288152D01*
X182357142Y-72288152D02*
X182309523Y-72383390D01*
X182309523Y-72383390D02*
X182261904Y-72431009D01*
X182261904Y-72431009D02*
X182166666Y-72478628D01*
X182166666Y-72478628D02*
X181785714Y-72478628D01*
X182738095Y-72050057D02*
X182785714Y-72002438D01*
X182785714Y-72002438D02*
X182880952Y-71954819D01*
X182880952Y-71954819D02*
X183119047Y-71954819D01*
X183119047Y-71954819D02*
X183214285Y-72002438D01*
X183214285Y-72002438D02*
X183261904Y-72050057D01*
X183261904Y-72050057D02*
X183309523Y-72145295D01*
X183309523Y-72145295D02*
X183309523Y-72240533D01*
X183309523Y-72240533D02*
X183261904Y-72383390D01*
X183261904Y-72383390D02*
X182690476Y-72954819D01*
X182690476Y-72954819D02*
X183309523Y-72954819D01*
X183642857Y-71954819D02*
X184261904Y-71954819D01*
X184261904Y-71954819D02*
X183928571Y-72335771D01*
X183928571Y-72335771D02*
X184071428Y-72335771D01*
X184071428Y-72335771D02*
X184166666Y-72383390D01*
X184166666Y-72383390D02*
X184214285Y-72431009D01*
X184214285Y-72431009D02*
X184261904Y-72526247D01*
X184261904Y-72526247D02*
X184261904Y-72764342D01*
X184261904Y-72764342D02*
X184214285Y-72859580D01*
X184214285Y-72859580D02*
X184166666Y-72907200D01*
X184166666Y-72907200D02*
X184071428Y-72954819D01*
X184071428Y-72954819D02*
X183785714Y-72954819D01*
X183785714Y-72954819D02*
X183690476Y-72907200D01*
X183690476Y-72907200D02*
X183642857Y-72859580D01*
X182357142Y-84954819D02*
X182023809Y-84478628D01*
X181785714Y-84954819D02*
X181785714Y-83954819D01*
X181785714Y-83954819D02*
X182166666Y-83954819D01*
X182166666Y-83954819D02*
X182261904Y-84002438D01*
X182261904Y-84002438D02*
X182309523Y-84050057D01*
X182309523Y-84050057D02*
X182357142Y-84145295D01*
X182357142Y-84145295D02*
X182357142Y-84288152D01*
X182357142Y-84288152D02*
X182309523Y-84383390D01*
X182309523Y-84383390D02*
X182261904Y-84431009D01*
X182261904Y-84431009D02*
X182166666Y-84478628D01*
X182166666Y-84478628D02*
X181785714Y-84478628D01*
X182738095Y-84050057D02*
X182785714Y-84002438D01*
X182785714Y-84002438D02*
X182880952Y-83954819D01*
X182880952Y-83954819D02*
X183119047Y-83954819D01*
X183119047Y-83954819D02*
X183214285Y-84002438D01*
X183214285Y-84002438D02*
X183261904Y-84050057D01*
X183261904Y-84050057D02*
X183309523Y-84145295D01*
X183309523Y-84145295D02*
X183309523Y-84240533D01*
X183309523Y-84240533D02*
X183261904Y-84383390D01*
X183261904Y-84383390D02*
X182690476Y-84954819D01*
X182690476Y-84954819D02*
X183309523Y-84954819D01*
X184261904Y-84954819D02*
X183690476Y-84954819D01*
X183976190Y-84954819D02*
X183976190Y-83954819D01*
X183976190Y-83954819D02*
X183880952Y-84097676D01*
X183880952Y-84097676D02*
X183785714Y-84192914D01*
X183785714Y-84192914D02*
X183690476Y-84240533D01*
X184782142Y-93524819D02*
X184448809Y-93048628D01*
X184210714Y-93524819D02*
X184210714Y-92524819D01*
X184210714Y-92524819D02*
X184591666Y-92524819D01*
X184591666Y-92524819D02*
X184686904Y-92572438D01*
X184686904Y-92572438D02*
X184734523Y-92620057D01*
X184734523Y-92620057D02*
X184782142Y-92715295D01*
X184782142Y-92715295D02*
X184782142Y-92858152D01*
X184782142Y-92858152D02*
X184734523Y-92953390D01*
X184734523Y-92953390D02*
X184686904Y-93001009D01*
X184686904Y-93001009D02*
X184591666Y-93048628D01*
X184591666Y-93048628D02*
X184210714Y-93048628D01*
X185163095Y-92620057D02*
X185210714Y-92572438D01*
X185210714Y-92572438D02*
X185305952Y-92524819D01*
X185305952Y-92524819D02*
X185544047Y-92524819D01*
X185544047Y-92524819D02*
X185639285Y-92572438D01*
X185639285Y-92572438D02*
X185686904Y-92620057D01*
X185686904Y-92620057D02*
X185734523Y-92715295D01*
X185734523Y-92715295D02*
X185734523Y-92810533D01*
X185734523Y-92810533D02*
X185686904Y-92953390D01*
X185686904Y-92953390D02*
X185115476Y-93524819D01*
X185115476Y-93524819D02*
X185734523Y-93524819D01*
X186353571Y-92524819D02*
X186448809Y-92524819D01*
X186448809Y-92524819D02*
X186544047Y-92572438D01*
X186544047Y-92572438D02*
X186591666Y-92620057D01*
X186591666Y-92620057D02*
X186639285Y-92715295D01*
X186639285Y-92715295D02*
X186686904Y-92905771D01*
X186686904Y-92905771D02*
X186686904Y-93143866D01*
X186686904Y-93143866D02*
X186639285Y-93334342D01*
X186639285Y-93334342D02*
X186591666Y-93429580D01*
X186591666Y-93429580D02*
X186544047Y-93477200D01*
X186544047Y-93477200D02*
X186448809Y-93524819D01*
X186448809Y-93524819D02*
X186353571Y-93524819D01*
X186353571Y-93524819D02*
X186258333Y-93477200D01*
X186258333Y-93477200D02*
X186210714Y-93429580D01*
X186210714Y-93429580D02*
X186163095Y-93334342D01*
X186163095Y-93334342D02*
X186115476Y-93143866D01*
X186115476Y-93143866D02*
X186115476Y-92905771D01*
X186115476Y-92905771D02*
X186163095Y-92715295D01*
X186163095Y-92715295D02*
X186210714Y-92620057D01*
X186210714Y-92620057D02*
X186258333Y-92572438D01*
X186258333Y-92572438D02*
X186353571Y-92524819D01*
X184857142Y-98454819D02*
X184523809Y-97978628D01*
X184285714Y-98454819D02*
X184285714Y-97454819D01*
X184285714Y-97454819D02*
X184666666Y-97454819D01*
X184666666Y-97454819D02*
X184761904Y-97502438D01*
X184761904Y-97502438D02*
X184809523Y-97550057D01*
X184809523Y-97550057D02*
X184857142Y-97645295D01*
X184857142Y-97645295D02*
X184857142Y-97788152D01*
X184857142Y-97788152D02*
X184809523Y-97883390D01*
X184809523Y-97883390D02*
X184761904Y-97931009D01*
X184761904Y-97931009D02*
X184666666Y-97978628D01*
X184666666Y-97978628D02*
X184285714Y-97978628D01*
X185809523Y-98454819D02*
X185238095Y-98454819D01*
X185523809Y-98454819D02*
X185523809Y-97454819D01*
X185523809Y-97454819D02*
X185428571Y-97597676D01*
X185428571Y-97597676D02*
X185333333Y-97692914D01*
X185333333Y-97692914D02*
X185238095Y-97740533D01*
X186285714Y-98454819D02*
X186476190Y-98454819D01*
X186476190Y-98454819D02*
X186571428Y-98407200D01*
X186571428Y-98407200D02*
X186619047Y-98359580D01*
X186619047Y-98359580D02*
X186714285Y-98216723D01*
X186714285Y-98216723D02*
X186761904Y-98026247D01*
X186761904Y-98026247D02*
X186761904Y-97645295D01*
X186761904Y-97645295D02*
X186714285Y-97550057D01*
X186714285Y-97550057D02*
X186666666Y-97502438D01*
X186666666Y-97502438D02*
X186571428Y-97454819D01*
X186571428Y-97454819D02*
X186380952Y-97454819D01*
X186380952Y-97454819D02*
X186285714Y-97502438D01*
X186285714Y-97502438D02*
X186238095Y-97550057D01*
X186238095Y-97550057D02*
X186190476Y-97645295D01*
X186190476Y-97645295D02*
X186190476Y-97883390D01*
X186190476Y-97883390D02*
X186238095Y-97978628D01*
X186238095Y-97978628D02*
X186285714Y-98026247D01*
X186285714Y-98026247D02*
X186380952Y-98073866D01*
X186380952Y-98073866D02*
X186571428Y-98073866D01*
X186571428Y-98073866D02*
X186666666Y-98026247D01*
X186666666Y-98026247D02*
X186714285Y-97978628D01*
X186714285Y-97978628D02*
X186761904Y-97883390D01*
X165634819Y-64892857D02*
X165158628Y-65226190D01*
X165634819Y-65464285D02*
X164634819Y-65464285D01*
X164634819Y-65464285D02*
X164634819Y-65083333D01*
X164634819Y-65083333D02*
X164682438Y-64988095D01*
X164682438Y-64988095D02*
X164730057Y-64940476D01*
X164730057Y-64940476D02*
X164825295Y-64892857D01*
X164825295Y-64892857D02*
X164968152Y-64892857D01*
X164968152Y-64892857D02*
X165063390Y-64940476D01*
X165063390Y-64940476D02*
X165111009Y-64988095D01*
X165111009Y-64988095D02*
X165158628Y-65083333D01*
X165158628Y-65083333D02*
X165158628Y-65464285D01*
X165634819Y-63940476D02*
X165634819Y-64511904D01*
X165634819Y-64226190D02*
X164634819Y-64226190D01*
X164634819Y-64226190D02*
X164777676Y-64321428D01*
X164777676Y-64321428D02*
X164872914Y-64416666D01*
X164872914Y-64416666D02*
X164920533Y-64511904D01*
X165063390Y-63369047D02*
X165015771Y-63464285D01*
X165015771Y-63464285D02*
X164968152Y-63511904D01*
X164968152Y-63511904D02*
X164872914Y-63559523D01*
X164872914Y-63559523D02*
X164825295Y-63559523D01*
X164825295Y-63559523D02*
X164730057Y-63511904D01*
X164730057Y-63511904D02*
X164682438Y-63464285D01*
X164682438Y-63464285D02*
X164634819Y-63369047D01*
X164634819Y-63369047D02*
X164634819Y-63178571D01*
X164634819Y-63178571D02*
X164682438Y-63083333D01*
X164682438Y-63083333D02*
X164730057Y-63035714D01*
X164730057Y-63035714D02*
X164825295Y-62988095D01*
X164825295Y-62988095D02*
X164872914Y-62988095D01*
X164872914Y-62988095D02*
X164968152Y-63035714D01*
X164968152Y-63035714D02*
X165015771Y-63083333D01*
X165015771Y-63083333D02*
X165063390Y-63178571D01*
X165063390Y-63178571D02*
X165063390Y-63369047D01*
X165063390Y-63369047D02*
X165111009Y-63464285D01*
X165111009Y-63464285D02*
X165158628Y-63511904D01*
X165158628Y-63511904D02*
X165253866Y-63559523D01*
X165253866Y-63559523D02*
X165444342Y-63559523D01*
X165444342Y-63559523D02*
X165539580Y-63511904D01*
X165539580Y-63511904D02*
X165587200Y-63464285D01*
X165587200Y-63464285D02*
X165634819Y-63369047D01*
X165634819Y-63369047D02*
X165634819Y-63178571D01*
X165634819Y-63178571D02*
X165587200Y-63083333D01*
X165587200Y-63083333D02*
X165539580Y-63035714D01*
X165539580Y-63035714D02*
X165444342Y-62988095D01*
X165444342Y-62988095D02*
X165253866Y-62988095D01*
X165253866Y-62988095D02*
X165158628Y-63035714D01*
X165158628Y-63035714D02*
X165111009Y-63083333D01*
X165111009Y-63083333D02*
X165063390Y-63178571D01*
X175607142Y-54634819D02*
X175273809Y-54158628D01*
X175035714Y-54634819D02*
X175035714Y-53634819D01*
X175035714Y-53634819D02*
X175416666Y-53634819D01*
X175416666Y-53634819D02*
X175511904Y-53682438D01*
X175511904Y-53682438D02*
X175559523Y-53730057D01*
X175559523Y-53730057D02*
X175607142Y-53825295D01*
X175607142Y-53825295D02*
X175607142Y-53968152D01*
X175607142Y-53968152D02*
X175559523Y-54063390D01*
X175559523Y-54063390D02*
X175511904Y-54111009D01*
X175511904Y-54111009D02*
X175416666Y-54158628D01*
X175416666Y-54158628D02*
X175035714Y-54158628D01*
X176559523Y-54634819D02*
X175988095Y-54634819D01*
X176273809Y-54634819D02*
X176273809Y-53634819D01*
X176273809Y-53634819D02*
X176178571Y-53777676D01*
X176178571Y-53777676D02*
X176083333Y-53872914D01*
X176083333Y-53872914D02*
X175988095Y-53920533D01*
X176892857Y-53634819D02*
X177559523Y-53634819D01*
X177559523Y-53634819D02*
X177130952Y-54634819D01*
X169322319Y-65067857D02*
X168846128Y-65401190D01*
X169322319Y-65639285D02*
X168322319Y-65639285D01*
X168322319Y-65639285D02*
X168322319Y-65258333D01*
X168322319Y-65258333D02*
X168369938Y-65163095D01*
X168369938Y-65163095D02*
X168417557Y-65115476D01*
X168417557Y-65115476D02*
X168512795Y-65067857D01*
X168512795Y-65067857D02*
X168655652Y-65067857D01*
X168655652Y-65067857D02*
X168750890Y-65115476D01*
X168750890Y-65115476D02*
X168798509Y-65163095D01*
X168798509Y-65163095D02*
X168846128Y-65258333D01*
X168846128Y-65258333D02*
X168846128Y-65639285D01*
X169322319Y-64115476D02*
X169322319Y-64686904D01*
X169322319Y-64401190D02*
X168322319Y-64401190D01*
X168322319Y-64401190D02*
X168465176Y-64496428D01*
X168465176Y-64496428D02*
X168560414Y-64591666D01*
X168560414Y-64591666D02*
X168608033Y-64686904D01*
X168322319Y-63258333D02*
X168322319Y-63448809D01*
X168322319Y-63448809D02*
X168369938Y-63544047D01*
X168369938Y-63544047D02*
X168417557Y-63591666D01*
X168417557Y-63591666D02*
X168560414Y-63686904D01*
X168560414Y-63686904D02*
X168750890Y-63734523D01*
X168750890Y-63734523D02*
X169131842Y-63734523D01*
X169131842Y-63734523D02*
X169227080Y-63686904D01*
X169227080Y-63686904D02*
X169274700Y-63639285D01*
X169274700Y-63639285D02*
X169322319Y-63544047D01*
X169322319Y-63544047D02*
X169322319Y-63353571D01*
X169322319Y-63353571D02*
X169274700Y-63258333D01*
X169274700Y-63258333D02*
X169227080Y-63210714D01*
X169227080Y-63210714D02*
X169131842Y-63163095D01*
X169131842Y-63163095D02*
X168893747Y-63163095D01*
X168893747Y-63163095D02*
X168798509Y-63210714D01*
X168798509Y-63210714D02*
X168750890Y-63258333D01*
X168750890Y-63258333D02*
X168703271Y-63353571D01*
X168703271Y-63353571D02*
X168703271Y-63544047D01*
X168703271Y-63544047D02*
X168750890Y-63639285D01*
X168750890Y-63639285D02*
X168798509Y-63686904D01*
X168798509Y-63686904D02*
X168893747Y-63734523D01*
X146357142Y-63954819D02*
X146023809Y-63478628D01*
X145785714Y-63954819D02*
X145785714Y-62954819D01*
X145785714Y-62954819D02*
X146166666Y-62954819D01*
X146166666Y-62954819D02*
X146261904Y-63002438D01*
X146261904Y-63002438D02*
X146309523Y-63050057D01*
X146309523Y-63050057D02*
X146357142Y-63145295D01*
X146357142Y-63145295D02*
X146357142Y-63288152D01*
X146357142Y-63288152D02*
X146309523Y-63383390D01*
X146309523Y-63383390D02*
X146261904Y-63431009D01*
X146261904Y-63431009D02*
X146166666Y-63478628D01*
X146166666Y-63478628D02*
X145785714Y-63478628D01*
X147309523Y-63954819D02*
X146738095Y-63954819D01*
X147023809Y-63954819D02*
X147023809Y-62954819D01*
X147023809Y-62954819D02*
X146928571Y-63097676D01*
X146928571Y-63097676D02*
X146833333Y-63192914D01*
X146833333Y-63192914D02*
X146738095Y-63240533D01*
X148214285Y-62954819D02*
X147738095Y-62954819D01*
X147738095Y-62954819D02*
X147690476Y-63431009D01*
X147690476Y-63431009D02*
X147738095Y-63383390D01*
X147738095Y-63383390D02*
X147833333Y-63335771D01*
X147833333Y-63335771D02*
X148071428Y-63335771D01*
X148071428Y-63335771D02*
X148166666Y-63383390D01*
X148166666Y-63383390D02*
X148214285Y-63431009D01*
X148214285Y-63431009D02*
X148261904Y-63526247D01*
X148261904Y-63526247D02*
X148261904Y-63764342D01*
X148261904Y-63764342D02*
X148214285Y-63859580D01*
X148214285Y-63859580D02*
X148166666Y-63907200D01*
X148166666Y-63907200D02*
X148071428Y-63954819D01*
X148071428Y-63954819D02*
X147833333Y-63954819D01*
X147833333Y-63954819D02*
X147738095Y-63907200D01*
X147738095Y-63907200D02*
X147690476Y-63859580D01*
X155704819Y-56392857D02*
X155228628Y-56726190D01*
X155704819Y-56964285D02*
X154704819Y-56964285D01*
X154704819Y-56964285D02*
X154704819Y-56583333D01*
X154704819Y-56583333D02*
X154752438Y-56488095D01*
X154752438Y-56488095D02*
X154800057Y-56440476D01*
X154800057Y-56440476D02*
X154895295Y-56392857D01*
X154895295Y-56392857D02*
X155038152Y-56392857D01*
X155038152Y-56392857D02*
X155133390Y-56440476D01*
X155133390Y-56440476D02*
X155181009Y-56488095D01*
X155181009Y-56488095D02*
X155228628Y-56583333D01*
X155228628Y-56583333D02*
X155228628Y-56964285D01*
X155704819Y-55440476D02*
X155704819Y-56011904D01*
X155704819Y-55726190D02*
X154704819Y-55726190D01*
X154704819Y-55726190D02*
X154847676Y-55821428D01*
X154847676Y-55821428D02*
X154942914Y-55916666D01*
X154942914Y-55916666D02*
X154990533Y-56011904D01*
X155038152Y-54583333D02*
X155704819Y-54583333D01*
X154657200Y-54821428D02*
X155371485Y-55059523D01*
X155371485Y-55059523D02*
X155371485Y-54440476D01*
X153704819Y-56392857D02*
X153228628Y-56726190D01*
X153704819Y-56964285D02*
X152704819Y-56964285D01*
X152704819Y-56964285D02*
X152704819Y-56583333D01*
X152704819Y-56583333D02*
X152752438Y-56488095D01*
X152752438Y-56488095D02*
X152800057Y-56440476D01*
X152800057Y-56440476D02*
X152895295Y-56392857D01*
X152895295Y-56392857D02*
X153038152Y-56392857D01*
X153038152Y-56392857D02*
X153133390Y-56440476D01*
X153133390Y-56440476D02*
X153181009Y-56488095D01*
X153181009Y-56488095D02*
X153228628Y-56583333D01*
X153228628Y-56583333D02*
X153228628Y-56964285D01*
X153704819Y-55440476D02*
X153704819Y-56011904D01*
X153704819Y-55726190D02*
X152704819Y-55726190D01*
X152704819Y-55726190D02*
X152847676Y-55821428D01*
X152847676Y-55821428D02*
X152942914Y-55916666D01*
X152942914Y-55916666D02*
X152990533Y-56011904D01*
X152704819Y-55107142D02*
X152704819Y-54488095D01*
X152704819Y-54488095D02*
X153085771Y-54821428D01*
X153085771Y-54821428D02*
X153085771Y-54678571D01*
X153085771Y-54678571D02*
X153133390Y-54583333D01*
X153133390Y-54583333D02*
X153181009Y-54535714D01*
X153181009Y-54535714D02*
X153276247Y-54488095D01*
X153276247Y-54488095D02*
X153514342Y-54488095D01*
X153514342Y-54488095D02*
X153609580Y-54535714D01*
X153609580Y-54535714D02*
X153657200Y-54583333D01*
X153657200Y-54583333D02*
X153704819Y-54678571D01*
X153704819Y-54678571D02*
X153704819Y-54964285D01*
X153704819Y-54964285D02*
X153657200Y-55059523D01*
X153657200Y-55059523D02*
X153609580Y-55107142D01*
X154107142Y-86454819D02*
X153773809Y-85978628D01*
X153535714Y-86454819D02*
X153535714Y-85454819D01*
X153535714Y-85454819D02*
X153916666Y-85454819D01*
X153916666Y-85454819D02*
X154011904Y-85502438D01*
X154011904Y-85502438D02*
X154059523Y-85550057D01*
X154059523Y-85550057D02*
X154107142Y-85645295D01*
X154107142Y-85645295D02*
X154107142Y-85788152D01*
X154107142Y-85788152D02*
X154059523Y-85883390D01*
X154059523Y-85883390D02*
X154011904Y-85931009D01*
X154011904Y-85931009D02*
X153916666Y-85978628D01*
X153916666Y-85978628D02*
X153535714Y-85978628D01*
X155059523Y-86454819D02*
X154488095Y-86454819D01*
X154773809Y-86454819D02*
X154773809Y-85454819D01*
X154773809Y-85454819D02*
X154678571Y-85597676D01*
X154678571Y-85597676D02*
X154583333Y-85692914D01*
X154583333Y-85692914D02*
X154488095Y-85740533D01*
X155440476Y-85550057D02*
X155488095Y-85502438D01*
X155488095Y-85502438D02*
X155583333Y-85454819D01*
X155583333Y-85454819D02*
X155821428Y-85454819D01*
X155821428Y-85454819D02*
X155916666Y-85502438D01*
X155916666Y-85502438D02*
X155964285Y-85550057D01*
X155964285Y-85550057D02*
X156011904Y-85645295D01*
X156011904Y-85645295D02*
X156011904Y-85740533D01*
X156011904Y-85740533D02*
X155964285Y-85883390D01*
X155964285Y-85883390D02*
X155392857Y-86454819D01*
X155392857Y-86454819D02*
X156011904Y-86454819D01*
X154107142Y-83204819D02*
X153773809Y-82728628D01*
X153535714Y-83204819D02*
X153535714Y-82204819D01*
X153535714Y-82204819D02*
X153916666Y-82204819D01*
X153916666Y-82204819D02*
X154011904Y-82252438D01*
X154011904Y-82252438D02*
X154059523Y-82300057D01*
X154059523Y-82300057D02*
X154107142Y-82395295D01*
X154107142Y-82395295D02*
X154107142Y-82538152D01*
X154107142Y-82538152D02*
X154059523Y-82633390D01*
X154059523Y-82633390D02*
X154011904Y-82681009D01*
X154011904Y-82681009D02*
X153916666Y-82728628D01*
X153916666Y-82728628D02*
X153535714Y-82728628D01*
X155059523Y-83204819D02*
X154488095Y-83204819D01*
X154773809Y-83204819D02*
X154773809Y-82204819D01*
X154773809Y-82204819D02*
X154678571Y-82347676D01*
X154678571Y-82347676D02*
X154583333Y-82442914D01*
X154583333Y-82442914D02*
X154488095Y-82490533D01*
X156011904Y-83204819D02*
X155440476Y-83204819D01*
X155726190Y-83204819D02*
X155726190Y-82204819D01*
X155726190Y-82204819D02*
X155630952Y-82347676D01*
X155630952Y-82347676D02*
X155535714Y-82442914D01*
X155535714Y-82442914D02*
X155440476Y-82490533D01*
X145634819Y-86416666D02*
X145158628Y-86749999D01*
X145634819Y-86988094D02*
X144634819Y-86988094D01*
X144634819Y-86988094D02*
X144634819Y-86607142D01*
X144634819Y-86607142D02*
X144682438Y-86511904D01*
X144682438Y-86511904D02*
X144730057Y-86464285D01*
X144730057Y-86464285D02*
X144825295Y-86416666D01*
X144825295Y-86416666D02*
X144968152Y-86416666D01*
X144968152Y-86416666D02*
X145063390Y-86464285D01*
X145063390Y-86464285D02*
X145111009Y-86511904D01*
X145111009Y-86511904D02*
X145158628Y-86607142D01*
X145158628Y-86607142D02*
X145158628Y-86988094D01*
X145634819Y-85940475D02*
X145634819Y-85749999D01*
X145634819Y-85749999D02*
X145587200Y-85654761D01*
X145587200Y-85654761D02*
X145539580Y-85607142D01*
X145539580Y-85607142D02*
X145396723Y-85511904D01*
X145396723Y-85511904D02*
X145206247Y-85464285D01*
X145206247Y-85464285D02*
X144825295Y-85464285D01*
X144825295Y-85464285D02*
X144730057Y-85511904D01*
X144730057Y-85511904D02*
X144682438Y-85559523D01*
X144682438Y-85559523D02*
X144634819Y-85654761D01*
X144634819Y-85654761D02*
X144634819Y-85845237D01*
X144634819Y-85845237D02*
X144682438Y-85940475D01*
X144682438Y-85940475D02*
X144730057Y-85988094D01*
X144730057Y-85988094D02*
X144825295Y-86035713D01*
X144825295Y-86035713D02*
X145063390Y-86035713D01*
X145063390Y-86035713D02*
X145158628Y-85988094D01*
X145158628Y-85988094D02*
X145206247Y-85940475D01*
X145206247Y-85940475D02*
X145253866Y-85845237D01*
X145253866Y-85845237D02*
X145253866Y-85654761D01*
X145253866Y-85654761D02*
X145206247Y-85559523D01*
X145206247Y-85559523D02*
X145158628Y-85511904D01*
X145158628Y-85511904D02*
X145063390Y-85464285D01*
X140954819Y-86416666D02*
X140478628Y-86749999D01*
X140954819Y-86988094D02*
X139954819Y-86988094D01*
X139954819Y-86988094D02*
X139954819Y-86607142D01*
X139954819Y-86607142D02*
X140002438Y-86511904D01*
X140002438Y-86511904D02*
X140050057Y-86464285D01*
X140050057Y-86464285D02*
X140145295Y-86416666D01*
X140145295Y-86416666D02*
X140288152Y-86416666D01*
X140288152Y-86416666D02*
X140383390Y-86464285D01*
X140383390Y-86464285D02*
X140431009Y-86511904D01*
X140431009Y-86511904D02*
X140478628Y-86607142D01*
X140478628Y-86607142D02*
X140478628Y-86988094D01*
X140383390Y-85845237D02*
X140335771Y-85940475D01*
X140335771Y-85940475D02*
X140288152Y-85988094D01*
X140288152Y-85988094D02*
X140192914Y-86035713D01*
X140192914Y-86035713D02*
X140145295Y-86035713D01*
X140145295Y-86035713D02*
X140050057Y-85988094D01*
X140050057Y-85988094D02*
X140002438Y-85940475D01*
X140002438Y-85940475D02*
X139954819Y-85845237D01*
X139954819Y-85845237D02*
X139954819Y-85654761D01*
X139954819Y-85654761D02*
X140002438Y-85559523D01*
X140002438Y-85559523D02*
X140050057Y-85511904D01*
X140050057Y-85511904D02*
X140145295Y-85464285D01*
X140145295Y-85464285D02*
X140192914Y-85464285D01*
X140192914Y-85464285D02*
X140288152Y-85511904D01*
X140288152Y-85511904D02*
X140335771Y-85559523D01*
X140335771Y-85559523D02*
X140383390Y-85654761D01*
X140383390Y-85654761D02*
X140383390Y-85845237D01*
X140383390Y-85845237D02*
X140431009Y-85940475D01*
X140431009Y-85940475D02*
X140478628Y-85988094D01*
X140478628Y-85988094D02*
X140573866Y-86035713D01*
X140573866Y-86035713D02*
X140764342Y-86035713D01*
X140764342Y-86035713D02*
X140859580Y-85988094D01*
X140859580Y-85988094D02*
X140907200Y-85940475D01*
X140907200Y-85940475D02*
X140954819Y-85845237D01*
X140954819Y-85845237D02*
X140954819Y-85654761D01*
X140954819Y-85654761D02*
X140907200Y-85559523D01*
X140907200Y-85559523D02*
X140859580Y-85511904D01*
X140859580Y-85511904D02*
X140764342Y-85464285D01*
X140764342Y-85464285D02*
X140573866Y-85464285D01*
X140573866Y-85464285D02*
X140478628Y-85511904D01*
X140478628Y-85511904D02*
X140431009Y-85559523D01*
X140431009Y-85559523D02*
X140383390Y-85654761D01*
X154333333Y-84704819D02*
X154000000Y-84228628D01*
X153761905Y-84704819D02*
X153761905Y-83704819D01*
X153761905Y-83704819D02*
X154142857Y-83704819D01*
X154142857Y-83704819D02*
X154238095Y-83752438D01*
X154238095Y-83752438D02*
X154285714Y-83800057D01*
X154285714Y-83800057D02*
X154333333Y-83895295D01*
X154333333Y-83895295D02*
X154333333Y-84038152D01*
X154333333Y-84038152D02*
X154285714Y-84133390D01*
X154285714Y-84133390D02*
X154238095Y-84181009D01*
X154238095Y-84181009D02*
X154142857Y-84228628D01*
X154142857Y-84228628D02*
X153761905Y-84228628D01*
X154666667Y-83704819D02*
X155333333Y-83704819D01*
X155333333Y-83704819D02*
X154904762Y-84704819D01*
X142833333Y-78454819D02*
X142500000Y-77978628D01*
X142261905Y-78454819D02*
X142261905Y-77454819D01*
X142261905Y-77454819D02*
X142642857Y-77454819D01*
X142642857Y-77454819D02*
X142738095Y-77502438D01*
X142738095Y-77502438D02*
X142785714Y-77550057D01*
X142785714Y-77550057D02*
X142833333Y-77645295D01*
X142833333Y-77645295D02*
X142833333Y-77788152D01*
X142833333Y-77788152D02*
X142785714Y-77883390D01*
X142785714Y-77883390D02*
X142738095Y-77931009D01*
X142738095Y-77931009D02*
X142642857Y-77978628D01*
X142642857Y-77978628D02*
X142261905Y-77978628D01*
X143690476Y-77454819D02*
X143500000Y-77454819D01*
X143500000Y-77454819D02*
X143404762Y-77502438D01*
X143404762Y-77502438D02*
X143357143Y-77550057D01*
X143357143Y-77550057D02*
X143261905Y-77692914D01*
X143261905Y-77692914D02*
X143214286Y-77883390D01*
X143214286Y-77883390D02*
X143214286Y-78264342D01*
X143214286Y-78264342D02*
X143261905Y-78359580D01*
X143261905Y-78359580D02*
X143309524Y-78407200D01*
X143309524Y-78407200D02*
X143404762Y-78454819D01*
X143404762Y-78454819D02*
X143595238Y-78454819D01*
X143595238Y-78454819D02*
X143690476Y-78407200D01*
X143690476Y-78407200D02*
X143738095Y-78359580D01*
X143738095Y-78359580D02*
X143785714Y-78264342D01*
X143785714Y-78264342D02*
X143785714Y-78026247D01*
X143785714Y-78026247D02*
X143738095Y-77931009D01*
X143738095Y-77931009D02*
X143690476Y-77883390D01*
X143690476Y-77883390D02*
X143595238Y-77835771D01*
X143595238Y-77835771D02*
X143404762Y-77835771D01*
X143404762Y-77835771D02*
X143309524Y-77883390D01*
X143309524Y-77883390D02*
X143261905Y-77931009D01*
X143261905Y-77931009D02*
X143214286Y-78026247D01*
X159008333Y-66784819D02*
X158675000Y-66308628D01*
X158436905Y-66784819D02*
X158436905Y-65784819D01*
X158436905Y-65784819D02*
X158817857Y-65784819D01*
X158817857Y-65784819D02*
X158913095Y-65832438D01*
X158913095Y-65832438D02*
X158960714Y-65880057D01*
X158960714Y-65880057D02*
X159008333Y-65975295D01*
X159008333Y-65975295D02*
X159008333Y-66118152D01*
X159008333Y-66118152D02*
X158960714Y-66213390D01*
X158960714Y-66213390D02*
X158913095Y-66261009D01*
X158913095Y-66261009D02*
X158817857Y-66308628D01*
X158817857Y-66308628D02*
X158436905Y-66308628D01*
X159913095Y-65784819D02*
X159436905Y-65784819D01*
X159436905Y-65784819D02*
X159389286Y-66261009D01*
X159389286Y-66261009D02*
X159436905Y-66213390D01*
X159436905Y-66213390D02*
X159532143Y-66165771D01*
X159532143Y-66165771D02*
X159770238Y-66165771D01*
X159770238Y-66165771D02*
X159865476Y-66213390D01*
X159865476Y-66213390D02*
X159913095Y-66261009D01*
X159913095Y-66261009D02*
X159960714Y-66356247D01*
X159960714Y-66356247D02*
X159960714Y-66594342D01*
X159960714Y-66594342D02*
X159913095Y-66689580D01*
X159913095Y-66689580D02*
X159865476Y-66737200D01*
X159865476Y-66737200D02*
X159770238Y-66784819D01*
X159770238Y-66784819D02*
X159532143Y-66784819D01*
X159532143Y-66784819D02*
X159436905Y-66737200D01*
X159436905Y-66737200D02*
X159389286Y-66689580D01*
X159008333Y-71384819D02*
X158675000Y-70908628D01*
X158436905Y-71384819D02*
X158436905Y-70384819D01*
X158436905Y-70384819D02*
X158817857Y-70384819D01*
X158817857Y-70384819D02*
X158913095Y-70432438D01*
X158913095Y-70432438D02*
X158960714Y-70480057D01*
X158960714Y-70480057D02*
X159008333Y-70575295D01*
X159008333Y-70575295D02*
X159008333Y-70718152D01*
X159008333Y-70718152D02*
X158960714Y-70813390D01*
X158960714Y-70813390D02*
X158913095Y-70861009D01*
X158913095Y-70861009D02*
X158817857Y-70908628D01*
X158817857Y-70908628D02*
X158436905Y-70908628D01*
X159865476Y-70718152D02*
X159865476Y-71384819D01*
X159627381Y-70337200D02*
X159389286Y-71051485D01*
X159389286Y-71051485D02*
X160008333Y-71051485D01*
X149008333Y-77774819D02*
X148675000Y-77298628D01*
X148436905Y-77774819D02*
X148436905Y-76774819D01*
X148436905Y-76774819D02*
X148817857Y-76774819D01*
X148817857Y-76774819D02*
X148913095Y-76822438D01*
X148913095Y-76822438D02*
X148960714Y-76870057D01*
X148960714Y-76870057D02*
X149008333Y-76965295D01*
X149008333Y-76965295D02*
X149008333Y-77108152D01*
X149008333Y-77108152D02*
X148960714Y-77203390D01*
X148960714Y-77203390D02*
X148913095Y-77251009D01*
X148913095Y-77251009D02*
X148817857Y-77298628D01*
X148817857Y-77298628D02*
X148436905Y-77298628D01*
X149341667Y-76774819D02*
X149960714Y-76774819D01*
X149960714Y-76774819D02*
X149627381Y-77155771D01*
X149627381Y-77155771D02*
X149770238Y-77155771D01*
X149770238Y-77155771D02*
X149865476Y-77203390D01*
X149865476Y-77203390D02*
X149913095Y-77251009D01*
X149913095Y-77251009D02*
X149960714Y-77346247D01*
X149960714Y-77346247D02*
X149960714Y-77584342D01*
X149960714Y-77584342D02*
X149913095Y-77679580D01*
X149913095Y-77679580D02*
X149865476Y-77727200D01*
X149865476Y-77727200D02*
X149770238Y-77774819D01*
X149770238Y-77774819D02*
X149484524Y-77774819D01*
X149484524Y-77774819D02*
X149389286Y-77727200D01*
X149389286Y-77727200D02*
X149341667Y-77679580D01*
X173154761Y-71550057D02*
X173059523Y-71502438D01*
X173059523Y-71502438D02*
X172964285Y-71407200D01*
X172964285Y-71407200D02*
X172821428Y-71264342D01*
X172821428Y-71264342D02*
X172726190Y-71216723D01*
X172726190Y-71216723D02*
X172630952Y-71216723D01*
X172678571Y-71454819D02*
X172583333Y-71407200D01*
X172583333Y-71407200D02*
X172488095Y-71311961D01*
X172488095Y-71311961D02*
X172440476Y-71121485D01*
X172440476Y-71121485D02*
X172440476Y-70788152D01*
X172440476Y-70788152D02*
X172488095Y-70597676D01*
X172488095Y-70597676D02*
X172583333Y-70502438D01*
X172583333Y-70502438D02*
X172678571Y-70454819D01*
X172678571Y-70454819D02*
X172869047Y-70454819D01*
X172869047Y-70454819D02*
X172964285Y-70502438D01*
X172964285Y-70502438D02*
X173059523Y-70597676D01*
X173059523Y-70597676D02*
X173107142Y-70788152D01*
X173107142Y-70788152D02*
X173107142Y-71121485D01*
X173107142Y-71121485D02*
X173059523Y-71311961D01*
X173059523Y-71311961D02*
X172964285Y-71407200D01*
X172964285Y-71407200D02*
X172869047Y-71454819D01*
X172869047Y-71454819D02*
X172678571Y-71454819D01*
X174059523Y-71454819D02*
X173488095Y-71454819D01*
X173773809Y-71454819D02*
X173773809Y-70454819D01*
X173773809Y-70454819D02*
X173678571Y-70597676D01*
X173678571Y-70597676D02*
X173583333Y-70692914D01*
X173583333Y-70692914D02*
X173488095Y-70740533D01*
X186954819Y-92583333D02*
X187669104Y-92583333D01*
X187669104Y-92583333D02*
X187811961Y-92630952D01*
X187811961Y-92630952D02*
X187907200Y-92726190D01*
X187907200Y-92726190D02*
X187954819Y-92869047D01*
X187954819Y-92869047D02*
X187954819Y-92964285D01*
X187954819Y-92059523D02*
X187954819Y-91869047D01*
X187954819Y-91869047D02*
X187907200Y-91773809D01*
X187907200Y-91773809D02*
X187859580Y-91726190D01*
X187859580Y-91726190D02*
X187716723Y-91630952D01*
X187716723Y-91630952D02*
X187526247Y-91583333D01*
X187526247Y-91583333D02*
X187145295Y-91583333D01*
X187145295Y-91583333D02*
X187050057Y-91630952D01*
X187050057Y-91630952D02*
X187002438Y-91678571D01*
X187002438Y-91678571D02*
X186954819Y-91773809D01*
X186954819Y-91773809D02*
X186954819Y-91964285D01*
X186954819Y-91964285D02*
X187002438Y-92059523D01*
X187002438Y-92059523D02*
X187050057Y-92107142D01*
X187050057Y-92107142D02*
X187145295Y-92154761D01*
X187145295Y-92154761D02*
X187383390Y-92154761D01*
X187383390Y-92154761D02*
X187478628Y-92107142D01*
X187478628Y-92107142D02*
X187526247Y-92059523D01*
X187526247Y-92059523D02*
X187573866Y-91964285D01*
X187573866Y-91964285D02*
X187573866Y-91773809D01*
X187573866Y-91773809D02*
X187526247Y-91678571D01*
X187526247Y-91678571D02*
X187478628Y-91630952D01*
X187478628Y-91630952D02*
X187383390Y-91583333D01*
X187054819Y-81083333D02*
X187769104Y-81083333D01*
X187769104Y-81083333D02*
X187911961Y-81130952D01*
X187911961Y-81130952D02*
X188007200Y-81226190D01*
X188007200Y-81226190D02*
X188054819Y-81369047D01*
X188054819Y-81369047D02*
X188054819Y-81464285D01*
X187483390Y-80464285D02*
X187435771Y-80559523D01*
X187435771Y-80559523D02*
X187388152Y-80607142D01*
X187388152Y-80607142D02*
X187292914Y-80654761D01*
X187292914Y-80654761D02*
X187245295Y-80654761D01*
X187245295Y-80654761D02*
X187150057Y-80607142D01*
X187150057Y-80607142D02*
X187102438Y-80559523D01*
X187102438Y-80559523D02*
X187054819Y-80464285D01*
X187054819Y-80464285D02*
X187054819Y-80273809D01*
X187054819Y-80273809D02*
X187102438Y-80178571D01*
X187102438Y-80178571D02*
X187150057Y-80130952D01*
X187150057Y-80130952D02*
X187245295Y-80083333D01*
X187245295Y-80083333D02*
X187292914Y-80083333D01*
X187292914Y-80083333D02*
X187388152Y-80130952D01*
X187388152Y-80130952D02*
X187435771Y-80178571D01*
X187435771Y-80178571D02*
X187483390Y-80273809D01*
X187483390Y-80273809D02*
X187483390Y-80464285D01*
X187483390Y-80464285D02*
X187531009Y-80559523D01*
X187531009Y-80559523D02*
X187578628Y-80607142D01*
X187578628Y-80607142D02*
X187673866Y-80654761D01*
X187673866Y-80654761D02*
X187864342Y-80654761D01*
X187864342Y-80654761D02*
X187959580Y-80607142D01*
X187959580Y-80607142D02*
X188007200Y-80559523D01*
X188007200Y-80559523D02*
X188054819Y-80464285D01*
X188054819Y-80464285D02*
X188054819Y-80273809D01*
X188054819Y-80273809D02*
X188007200Y-80178571D01*
X188007200Y-80178571D02*
X187959580Y-80130952D01*
X187959580Y-80130952D02*
X187864342Y-80083333D01*
X187864342Y-80083333D02*
X187673866Y-80083333D01*
X187673866Y-80083333D02*
X187578628Y-80130952D01*
X187578628Y-80130952D02*
X187531009Y-80178571D01*
X187531009Y-80178571D02*
X187483390Y-80273809D01*
X187054819Y-69333333D02*
X187769104Y-69333333D01*
X187769104Y-69333333D02*
X187911961Y-69380952D01*
X187911961Y-69380952D02*
X188007200Y-69476190D01*
X188007200Y-69476190D02*
X188054819Y-69619047D01*
X188054819Y-69619047D02*
X188054819Y-69714285D01*
X187054819Y-68952380D02*
X187054819Y-68285714D01*
X187054819Y-68285714D02*
X188054819Y-68714285D01*
X152166666Y-61284819D02*
X152166666Y-61999104D01*
X152166666Y-61999104D02*
X152119047Y-62141961D01*
X152119047Y-62141961D02*
X152023809Y-62237200D01*
X152023809Y-62237200D02*
X151880952Y-62284819D01*
X151880952Y-62284819D02*
X151785714Y-62284819D01*
X153119047Y-61284819D02*
X152642857Y-61284819D01*
X152642857Y-61284819D02*
X152595238Y-61761009D01*
X152595238Y-61761009D02*
X152642857Y-61713390D01*
X152642857Y-61713390D02*
X152738095Y-61665771D01*
X152738095Y-61665771D02*
X152976190Y-61665771D01*
X152976190Y-61665771D02*
X153071428Y-61713390D01*
X153071428Y-61713390D02*
X153119047Y-61761009D01*
X153119047Y-61761009D02*
X153166666Y-61856247D01*
X153166666Y-61856247D02*
X153166666Y-62094342D01*
X153166666Y-62094342D02*
X153119047Y-62189580D01*
X153119047Y-62189580D02*
X153071428Y-62237200D01*
X153071428Y-62237200D02*
X152976190Y-62284819D01*
X152976190Y-62284819D02*
X152738095Y-62284819D01*
X152738095Y-62284819D02*
X152642857Y-62237200D01*
X152642857Y-62237200D02*
X152595238Y-62189580D01*
X139854819Y-92833333D02*
X140569104Y-92833333D01*
X140569104Y-92833333D02*
X140711961Y-92880952D01*
X140711961Y-92880952D02*
X140807200Y-92976190D01*
X140807200Y-92976190D02*
X140854819Y-93119047D01*
X140854819Y-93119047D02*
X140854819Y-93214285D01*
X139950057Y-92404761D02*
X139902438Y-92357142D01*
X139902438Y-92357142D02*
X139854819Y-92261904D01*
X139854819Y-92261904D02*
X139854819Y-92023809D01*
X139854819Y-92023809D02*
X139902438Y-91928571D01*
X139902438Y-91928571D02*
X139950057Y-91880952D01*
X139950057Y-91880952D02*
X140045295Y-91833333D01*
X140045295Y-91833333D02*
X140140533Y-91833333D01*
X140140533Y-91833333D02*
X140283390Y-91880952D01*
X140283390Y-91880952D02*
X140854819Y-92452380D01*
X140854819Y-92452380D02*
X140854819Y-91833333D01*
X168618915Y-72181001D02*
X168761793Y-72228627D01*
X168761793Y-72228627D02*
X168809420Y-72276253D01*
X168809420Y-72276253D02*
X168857046Y-72371505D01*
X168857046Y-72371505D02*
X168857046Y-72514384D01*
X168857046Y-72514384D02*
X168809420Y-72609636D01*
X168809420Y-72609636D02*
X168761793Y-72657263D01*
X168761793Y-72657263D02*
X168666541Y-72704889D01*
X168666541Y-72704889D02*
X168285531Y-72704889D01*
X168285531Y-72704889D02*
X168285531Y-71704739D01*
X168285531Y-71704739D02*
X168618915Y-71704739D01*
X168618915Y-71704739D02*
X168714167Y-71752365D01*
X168714167Y-71752365D02*
X168761793Y-71799991D01*
X168761793Y-71799991D02*
X168809420Y-71895243D01*
X168809420Y-71895243D02*
X168809420Y-71990496D01*
X168809420Y-71990496D02*
X168761793Y-72085748D01*
X168761793Y-72085748D02*
X168714167Y-72133374D01*
X168714167Y-72133374D02*
X168618915Y-72181001D01*
X168618915Y-72181001D02*
X168285531Y-72181001D01*
X169190429Y-71704739D02*
X169857196Y-71704739D01*
X169857196Y-71704739D02*
X169190429Y-72704889D01*
X169190429Y-72704889D02*
X169857196Y-72704889D01*
X170762094Y-72704889D02*
X170190579Y-72704889D01*
X170476336Y-72704889D02*
X170476336Y-71704739D01*
X170476336Y-71704739D02*
X170381084Y-71847617D01*
X170381084Y-71847617D02*
X170285832Y-71942870D01*
X170285832Y-71942870D02*
X170190579Y-71990496D01*
X154107142Y-81454819D02*
X153773809Y-80978628D01*
X153535714Y-81454819D02*
X153535714Y-80454819D01*
X153535714Y-80454819D02*
X153916666Y-80454819D01*
X153916666Y-80454819D02*
X154011904Y-80502438D01*
X154011904Y-80502438D02*
X154059523Y-80550057D01*
X154059523Y-80550057D02*
X154107142Y-80645295D01*
X154107142Y-80645295D02*
X154107142Y-80788152D01*
X154107142Y-80788152D02*
X154059523Y-80883390D01*
X154059523Y-80883390D02*
X154011904Y-80931009D01*
X154011904Y-80931009D02*
X153916666Y-80978628D01*
X153916666Y-80978628D02*
X153535714Y-80978628D01*
X155059523Y-81454819D02*
X154488095Y-81454819D01*
X154773809Y-81454819D02*
X154773809Y-80454819D01*
X154773809Y-80454819D02*
X154678571Y-80597676D01*
X154678571Y-80597676D02*
X154583333Y-80692914D01*
X154583333Y-80692914D02*
X154488095Y-80740533D01*
X155678571Y-80454819D02*
X155773809Y-80454819D01*
X155773809Y-80454819D02*
X155869047Y-80502438D01*
X155869047Y-80502438D02*
X155916666Y-80550057D01*
X155916666Y-80550057D02*
X155964285Y-80645295D01*
X155964285Y-80645295D02*
X156011904Y-80835771D01*
X156011904Y-80835771D02*
X156011904Y-81073866D01*
X156011904Y-81073866D02*
X155964285Y-81264342D01*
X155964285Y-81264342D02*
X155916666Y-81359580D01*
X155916666Y-81359580D02*
X155869047Y-81407200D01*
X155869047Y-81407200D02*
X155773809Y-81454819D01*
X155773809Y-81454819D02*
X155678571Y-81454819D01*
X155678571Y-81454819D02*
X155583333Y-81407200D01*
X155583333Y-81407200D02*
X155535714Y-81359580D01*
X155535714Y-81359580D02*
X155488095Y-81264342D01*
X155488095Y-81264342D02*
X155440476Y-81073866D01*
X155440476Y-81073866D02*
X155440476Y-80835771D01*
X155440476Y-80835771D02*
X155488095Y-80645295D01*
X155488095Y-80645295D02*
X155535714Y-80550057D01*
X155535714Y-80550057D02*
X155583333Y-80502438D01*
X155583333Y-80502438D02*
X155678571Y-80454819D01*
X184307142Y-108309580D02*
X184259523Y-108357200D01*
X184259523Y-108357200D02*
X184116666Y-108404819D01*
X184116666Y-108404819D02*
X184021428Y-108404819D01*
X184021428Y-108404819D02*
X183878571Y-108357200D01*
X183878571Y-108357200D02*
X183783333Y-108261961D01*
X183783333Y-108261961D02*
X183735714Y-108166723D01*
X183735714Y-108166723D02*
X183688095Y-107976247D01*
X183688095Y-107976247D02*
X183688095Y-107833390D01*
X183688095Y-107833390D02*
X183735714Y-107642914D01*
X183735714Y-107642914D02*
X183783333Y-107547676D01*
X183783333Y-107547676D02*
X183878571Y-107452438D01*
X183878571Y-107452438D02*
X184021428Y-107404819D01*
X184021428Y-107404819D02*
X184116666Y-107404819D01*
X184116666Y-107404819D02*
X184259523Y-107452438D01*
X184259523Y-107452438D02*
X184307142Y-107500057D01*
X184688095Y-107500057D02*
X184735714Y-107452438D01*
X184735714Y-107452438D02*
X184830952Y-107404819D01*
X184830952Y-107404819D02*
X185069047Y-107404819D01*
X185069047Y-107404819D02*
X185164285Y-107452438D01*
X185164285Y-107452438D02*
X185211904Y-107500057D01*
X185211904Y-107500057D02*
X185259523Y-107595295D01*
X185259523Y-107595295D02*
X185259523Y-107690533D01*
X185259523Y-107690533D02*
X185211904Y-107833390D01*
X185211904Y-107833390D02*
X184640476Y-108404819D01*
X184640476Y-108404819D02*
X185259523Y-108404819D01*
X185592857Y-107404819D02*
X186211904Y-107404819D01*
X186211904Y-107404819D02*
X185878571Y-107785771D01*
X185878571Y-107785771D02*
X186021428Y-107785771D01*
X186021428Y-107785771D02*
X186116666Y-107833390D01*
X186116666Y-107833390D02*
X186164285Y-107881009D01*
X186164285Y-107881009D02*
X186211904Y-107976247D01*
X186211904Y-107976247D02*
X186211904Y-108214342D01*
X186211904Y-108214342D02*
X186164285Y-108309580D01*
X186164285Y-108309580D02*
X186116666Y-108357200D01*
X186116666Y-108357200D02*
X186021428Y-108404819D01*
X186021428Y-108404819D02*
X185735714Y-108404819D01*
X185735714Y-108404819D02*
X185640476Y-108357200D01*
X185640476Y-108357200D02*
X185592857Y-108309580D01*
X169214285Y-88681009D02*
X169357142Y-88728628D01*
X169357142Y-88728628D02*
X169404761Y-88776247D01*
X169404761Y-88776247D02*
X169452380Y-88871485D01*
X169452380Y-88871485D02*
X169452380Y-89014342D01*
X169452380Y-89014342D02*
X169404761Y-89109580D01*
X169404761Y-89109580D02*
X169357142Y-89157200D01*
X169357142Y-89157200D02*
X169261904Y-89204819D01*
X169261904Y-89204819D02*
X168880952Y-89204819D01*
X168880952Y-89204819D02*
X168880952Y-88204819D01*
X168880952Y-88204819D02*
X169214285Y-88204819D01*
X169214285Y-88204819D02*
X169309523Y-88252438D01*
X169309523Y-88252438D02*
X169357142Y-88300057D01*
X169357142Y-88300057D02*
X169404761Y-88395295D01*
X169404761Y-88395295D02*
X169404761Y-88490533D01*
X169404761Y-88490533D02*
X169357142Y-88585771D01*
X169357142Y-88585771D02*
X169309523Y-88633390D01*
X169309523Y-88633390D02*
X169214285Y-88681009D01*
X169214285Y-88681009D02*
X168880952Y-88681009D01*
X169738095Y-88204819D02*
X170309523Y-88204819D01*
X170023809Y-89204819D02*
X170023809Y-88204819D01*
X171166666Y-89204819D02*
X170595238Y-89204819D01*
X170880952Y-89204819D02*
X170880952Y-88204819D01*
X170880952Y-88204819D02*
X170785714Y-88347676D01*
X170785714Y-88347676D02*
X170690476Y-88442914D01*
X170690476Y-88442914D02*
X170595238Y-88490533D01*
D12*
%TO.C,R22*%
X186412258Y-81967500D02*
X185937742Y-81967500D01*
X186412258Y-83012500D02*
X185937742Y-83012500D01*
%TO.C,U3*%
X145110000Y-94390000D02*
X145110000Y-97610000D01*
X144910000Y-94390000D02*
X145110000Y-94390000D01*
X141890000Y-94390000D02*
X142090000Y-94390000D01*
X145110000Y-97610000D02*
X144910000Y-97610000D01*
X142090000Y-97610000D02*
X141890000Y-97610000D01*
X141890000Y-97610000D02*
X141890000Y-94390000D01*
X145240000Y-94040000D02*
X144910000Y-93800000D01*
X145240000Y-93560000D01*
X145240000Y-94040000D01*
G36*
X145240000Y-94040000D02*
G01*
X144910000Y-93800000D01*
X145240000Y-93560000D01*
X145240000Y-94040000D01*
G37*
D13*
%TO.C,J1*%
X133800000Y-75280000D02*
X132650000Y-75280000D01*
X132650000Y-75280000D02*
X132650000Y-84220000D01*
X132650000Y-84220000D02*
X133800000Y-84220000D01*
D12*
%TO.C,U2*%
X144390000Y-84295000D02*
X144390000Y-83820000D01*
X144865000Y-84295000D02*
X144390000Y-84295000D01*
X147610000Y-84295000D02*
X147135000Y-84295000D01*
X147610000Y-83820000D02*
X147610000Y-84295000D01*
X144390000Y-81550000D02*
X144390000Y-81075000D01*
X144390000Y-81075000D02*
X144865000Y-81075000D01*
X147135000Y-81075000D02*
X147610000Y-81075000D01*
X147610000Y-81075000D02*
X147610000Y-81550000D01*
X145490000Y-85155000D02*
X145010000Y-85155000D01*
X145250000Y-84825000D01*
X145490000Y-85155000D01*
G36*
X145490000Y-85155000D02*
G01*
X145010000Y-85155000D01*
X145250000Y-84825000D01*
X145490000Y-85155000D01*
G37*
%TO.C,J3*%
X139310000Y-96840000D02*
X134590000Y-96840000D01*
X134590000Y-102960000D01*
X139310000Y-102960000D01*
X139310000Y-96840000D01*
X136700000Y-102960000D02*
X136700000Y-102350000D01*
X138000000Y-102960000D02*
X138000000Y-102350000D01*
X135200000Y-102350000D02*
X138700000Y-102350000D01*
X138700000Y-102350000D02*
X138700000Y-100400000D01*
X138700000Y-100400000D02*
X139310000Y-100400000D01*
X135700000Y-100000000D02*
X135200000Y-100000000D01*
X135200000Y-99900000D02*
X135700000Y-99900000D01*
X135200000Y-99800000D02*
X135700000Y-99800000D01*
X135700000Y-99800000D02*
X135700000Y-100000000D01*
X138700000Y-99400000D02*
X138700000Y-97450000D01*
X139310000Y-99400000D02*
X138700000Y-99400000D01*
X139310000Y-98600000D02*
X139510000Y-98600000D01*
X139410000Y-98600000D02*
X139410000Y-98300000D01*
X139510000Y-98600000D02*
X139510000Y-98300000D01*
X139510000Y-98300000D02*
X139310000Y-98300000D01*
X139610000Y-97790000D02*
X139610000Y-96540000D01*
X135200000Y-97450000D02*
X135200000Y-102350000D01*
X138700000Y-97450000D02*
X135200000Y-97450000D01*
X136700000Y-96840000D02*
X136700000Y-97450000D01*
X138000000Y-96840000D02*
X138000000Y-97450000D01*
X139610000Y-96540000D02*
X138360000Y-96540000D01*
%TO.C,J10*%
X180925000Y-50320000D02*
X187495000Y-50320000D01*
X187495000Y-51182077D02*
X187495000Y-50320000D01*
X180925000Y-51182077D02*
X180925000Y-50320000D01*
X187495000Y-52452077D02*
X187495000Y-51817923D01*
X187495000Y-53950000D02*
X187495000Y-53087923D01*
X182480000Y-53950000D02*
X182480000Y-53436708D01*
X182480000Y-53950000D02*
X187495000Y-53950000D01*
X181670000Y-53950000D02*
X180860000Y-53950000D01*
X180860000Y-53950000D02*
X180860000Y-52770000D01*
%TO.C,SW1*%
X171150000Y-60650000D02*
X171150000Y-61050000D01*
X171150000Y-65100000D02*
X171150000Y-62400000D01*
X171150000Y-66850000D02*
X171150000Y-66400000D01*
X177850000Y-60650000D02*
X171150000Y-60650000D01*
X177850000Y-61100000D02*
X177850000Y-60650000D01*
X177850000Y-62400000D02*
X177850000Y-65100000D01*
X177850000Y-66400000D02*
X177850000Y-66850000D01*
X177850000Y-66850000D02*
X171150000Y-66850000D01*
%TO.C,J6*%
X188390000Y-66860000D02*
X189640000Y-66860000D01*
X190000000Y-66560000D02*
X190000000Y-65950000D01*
X191300000Y-66560000D02*
X191300000Y-65950000D01*
X189300000Y-65950000D02*
X192800000Y-65950000D01*
X192800000Y-65950000D02*
X192800000Y-57050000D01*
X188390000Y-65610000D02*
X188390000Y-66860000D01*
X188490000Y-65100000D02*
X188690000Y-65100000D01*
X188490000Y-64800000D02*
X188490000Y-65100000D01*
X188590000Y-64800000D02*
X188590000Y-65100000D01*
X188690000Y-64800000D02*
X188490000Y-64800000D01*
X188690000Y-64000000D02*
X189300000Y-64000000D01*
X189300000Y-64000000D02*
X189300000Y-65950000D01*
X192300000Y-63600000D02*
X192300000Y-63400000D01*
X192800000Y-63600000D02*
X192300000Y-63600000D01*
X192800000Y-63500000D02*
X192300000Y-63500000D01*
X192300000Y-63400000D02*
X192800000Y-63400000D01*
X192300000Y-61600000D02*
X192300000Y-61400000D01*
X192800000Y-61600000D02*
X192300000Y-61600000D01*
X192800000Y-61500000D02*
X192300000Y-61500000D01*
X192300000Y-61400000D02*
X192800000Y-61400000D01*
X192300000Y-59600000D02*
X192300000Y-59400000D01*
X192800000Y-59600000D02*
X192300000Y-59600000D01*
X192800000Y-59500000D02*
X192300000Y-59500000D01*
X192300000Y-59400000D02*
X192800000Y-59400000D01*
X189300000Y-59000000D02*
X188690000Y-59000000D01*
X189300000Y-57050000D02*
X189300000Y-59000000D01*
X192800000Y-57050000D02*
X189300000Y-57050000D01*
X190000000Y-56440000D02*
X190000000Y-57050000D01*
X191300000Y-56440000D02*
X191300000Y-57050000D01*
X188690000Y-66560000D02*
X193410000Y-66560000D01*
X193410000Y-56440000D01*
X188690000Y-56440000D01*
X188690000Y-66560000D01*
%TO.C,U5*%
X158900000Y-45900000D02*
X158900000Y-47500000D01*
X158900000Y-45900000D02*
X160500000Y-45900000D01*
X158900000Y-62100000D02*
X158900000Y-61000000D01*
X159200000Y-62100000D02*
X158900000Y-62100000D01*
X167500000Y-45900000D02*
X169100000Y-45900000D01*
X168800000Y-62100000D02*
X169100000Y-62100000D01*
X169100000Y-45900000D02*
X169100000Y-47500000D01*
X169100000Y-62100000D02*
X169100000Y-61000000D01*
X158900000Y-51400000D02*
X158400000Y-50900000D01*
X158900000Y-50900000D01*
X158900000Y-51400000D01*
G36*
X158900000Y-51400000D02*
G01*
X158400000Y-50900000D01*
X158900000Y-50900000D01*
X158900000Y-51400000D01*
G37*
%TO.C,U4*%
X145965000Y-55095000D02*
X150085000Y-55095000D01*
X145965000Y-55190000D02*
X145965000Y-55095000D01*
X145965000Y-60215000D02*
X145965000Y-60120000D01*
X150085000Y-55095000D02*
X150085000Y-55190000D01*
X150085000Y-60120000D02*
X150085000Y-60215000D01*
X150085000Y-60215000D02*
X145965000Y-60215000D01*
X145425000Y-55185000D02*
X145185000Y-54855000D01*
X145665000Y-54855000D01*
X145425000Y-55185000D01*
G36*
X145425000Y-55185000D02*
G01*
X145185000Y-54855000D01*
X145665000Y-54855000D01*
X145425000Y-55185000D01*
G37*
%TO.C,U1*%
X150977500Y-74740000D02*
X152797500Y-74740000D01*
X150977500Y-74790000D02*
X150977500Y-74740000D01*
X150977500Y-77860000D02*
X150977500Y-77810000D01*
X152797500Y-74740000D02*
X152797500Y-74790000D01*
X152797500Y-75910000D02*
X152797500Y-76690000D01*
X152797500Y-77810000D02*
X152797500Y-77860000D01*
X152797500Y-77860000D02*
X150977500Y-77860000D01*
X150437500Y-74790000D02*
X150197500Y-74460000D01*
X150677500Y-74460000D01*
X150437500Y-74790000D01*
G36*
X150437500Y-74790000D02*
G01*
X150197500Y-74460000D01*
X150677500Y-74460000D01*
X150437500Y-74790000D01*
G37*
%TO.C,RESET*%
X186450000Y-56250000D02*
G75*
G02*
X184550000Y-56250000I-950000J0D01*
G01*
X184550000Y-56250000D02*
G75*
G02*
X186450000Y-56250000I950000J0D01*
G01*
%TO.C,TP6*%
X136450000Y-68750000D02*
G75*
G02*
X134550000Y-68750000I-950000J0D01*
G01*
X134550000Y-68750000D02*
G75*
G02*
X136450000Y-68750000I950000J0D01*
G01*
%TO.C,TP5*%
X166200000Y-67500000D02*
G75*
G02*
X164300000Y-67500000I-950000J0D01*
G01*
X164300000Y-67500000D02*
G75*
G02*
X166200000Y-67500000I950000J0D01*
G01*
%TO.C,TP2*%
X136450000Y-72750000D02*
G75*
G02*
X134550000Y-72750000I-950000J0D01*
G01*
X134550000Y-72750000D02*
G75*
G02*
X136450000Y-72750000I950000J0D01*
G01*
%TO.C,TP1*%
X136450000Y-87250000D02*
G75*
G02*
X134550000Y-87250000I-950000J0D01*
G01*
X134550000Y-87250000D02*
G75*
G02*
X136450000Y-87250000I950000J0D01*
G01*
%TO.C,R27*%
X186162258Y-59022500D02*
X185687742Y-59022500D01*
X186162258Y-57977500D02*
X185687742Y-57977500D01*
%TO.C,R26*%
X186162258Y-61022500D02*
X185687742Y-61022500D01*
X186162258Y-59977500D02*
X185687742Y-59977500D01*
%TO.C,R25*%
X186162258Y-63022500D02*
X185687742Y-63022500D01*
X186162258Y-61977500D02*
X185687742Y-61977500D01*
%TO.C,R24*%
X186162258Y-71022500D02*
X185687742Y-71022500D01*
X186162258Y-69977500D02*
X185687742Y-69977500D01*
%TO.C,R23*%
X186162258Y-73022500D02*
X185687742Y-73022500D01*
X186162258Y-71977500D02*
X185687742Y-71977500D01*
%TO.C,R21*%
X185937742Y-83977500D02*
X186412258Y-83977500D01*
X185937742Y-85022500D02*
X186412258Y-85022500D01*
%TO.C,R20*%
X185187742Y-93977500D02*
X185662258Y-93977500D01*
X185187742Y-95022500D02*
X185662258Y-95022500D01*
%TO.C,R19*%
X185187742Y-95977500D02*
X185662258Y-95977500D01*
X185187742Y-97022500D02*
X185662258Y-97022500D01*
%TO.C,R18*%
X164272500Y-64012742D02*
X164272500Y-64487258D01*
X163227500Y-64012742D02*
X163227500Y-64487258D01*
%TO.C,R17*%
X176487258Y-53272500D02*
X176012742Y-53272500D01*
X176487258Y-52227500D02*
X176012742Y-52227500D01*
%TO.C,R16*%
X167960000Y-64187742D02*
X167960000Y-64662258D01*
X166915000Y-64187742D02*
X166915000Y-64662258D01*
%TO.C,R15*%
X146687742Y-61227500D02*
X147162258Y-61227500D01*
X146687742Y-62272500D02*
X147162258Y-62272500D01*
%TO.C,R14*%
X155522500Y-58512742D02*
X155522500Y-58987258D01*
X154477500Y-58512742D02*
X154477500Y-58987258D01*
%TO.C,R13*%
X153772500Y-58512742D02*
X153772500Y-58987258D01*
X152727500Y-58512742D02*
X152727500Y-58987258D01*
%TO.C,R12*%
X151412258Y-86522500D02*
X150937742Y-86522500D01*
X151412258Y-85477500D02*
X150937742Y-85477500D01*
%TO.C,R11*%
X151412258Y-81272500D02*
X150937742Y-81272500D01*
X151412258Y-80227500D02*
X150937742Y-80227500D01*
%TO.C,R9*%
X144272500Y-86012742D02*
X144272500Y-86487258D01*
X143227500Y-86012742D02*
X143227500Y-86487258D01*
%TO.C,R8*%
X142447500Y-86012742D02*
X142447500Y-86487258D01*
X141402500Y-86012742D02*
X141402500Y-86487258D01*
%TO.C,R7*%
X150937742Y-83727500D02*
X151412258Y-83727500D01*
X150937742Y-84772500D02*
X151412258Y-84772500D01*
%TO.C,R6*%
X144062258Y-80022500D02*
X143587742Y-80022500D01*
X144062258Y-78977500D02*
X143587742Y-78977500D01*
%TO.C,R5*%
X158937742Y-67237500D02*
X159412258Y-67237500D01*
X158937742Y-68282500D02*
X159412258Y-68282500D01*
%TO.C,R4*%
X159412258Y-70022500D02*
X158937742Y-70022500D01*
X159412258Y-68977500D02*
X158937742Y-68977500D01*
%TO.C,R3*%
X148937742Y-78227500D02*
X149412258Y-78227500D01*
X148937742Y-79272500D02*
X149412258Y-79272500D01*
%TO.C,Q1*%
X172490000Y-71940000D02*
X174010000Y-71940000D01*
X172490000Y-71990000D02*
X172490000Y-71940000D01*
X172490000Y-73890000D02*
X172490000Y-73110000D01*
X172490000Y-75060000D02*
X172490000Y-75010000D01*
X174010000Y-71940000D02*
X174010000Y-72940000D01*
X174010000Y-74060000D02*
X174010000Y-75060000D01*
X174010000Y-75060000D02*
X172490000Y-75060000D01*
X172190000Y-73450000D02*
X171710000Y-73450000D01*
X171950000Y-73120000D01*
X172190000Y-73450000D01*
G36*
X172190000Y-73450000D02*
G01*
X171710000Y-73450000D01*
X171950000Y-73120000D01*
X172190000Y-73450000D01*
G37*
%TO.C,J9*%
X188340000Y-102860000D02*
X189590000Y-102860000D01*
X189950000Y-102560000D02*
X189950000Y-101950000D01*
X191250000Y-102560000D02*
X191250000Y-101950000D01*
X189250000Y-101950000D02*
X192750000Y-101950000D01*
X192750000Y-101950000D02*
X192750000Y-93050000D01*
X188340000Y-101610000D02*
X188340000Y-102860000D01*
X188440000Y-101100000D02*
X188640000Y-101100000D01*
X188440000Y-100800000D02*
X188440000Y-101100000D01*
X188540000Y-100800000D02*
X188540000Y-101100000D01*
X188640000Y-100800000D02*
X188440000Y-100800000D01*
X188640000Y-100000000D02*
X189250000Y-100000000D01*
X189250000Y-100000000D02*
X189250000Y-101950000D01*
X192250000Y-99600000D02*
X192250000Y-99400000D01*
X192750000Y-99600000D02*
X192250000Y-99600000D01*
X192750000Y-99500000D02*
X192250000Y-99500000D01*
X192250000Y-99400000D02*
X192750000Y-99400000D01*
X192250000Y-97600000D02*
X192250000Y-97400000D01*
X192750000Y-97600000D02*
X192250000Y-97600000D01*
X192750000Y-97500000D02*
X192250000Y-97500000D01*
X192250000Y-97400000D02*
X192750000Y-97400000D01*
X192250000Y-95600000D02*
X192250000Y-95400000D01*
X192750000Y-95600000D02*
X192250000Y-95600000D01*
X192750000Y-95500000D02*
X192250000Y-95500000D01*
X192250000Y-95400000D02*
X192750000Y-95400000D01*
X189250000Y-95000000D02*
X188640000Y-95000000D01*
X189250000Y-93050000D02*
X189250000Y-95000000D01*
X192750000Y-93050000D02*
X189250000Y-93050000D01*
X189950000Y-92440000D02*
X189950000Y-93050000D01*
X191250000Y-92440000D02*
X191250000Y-93050000D01*
X188640000Y-102560000D02*
X193360000Y-102560000D01*
X193360000Y-92440000D01*
X188640000Y-92440000D01*
X188640000Y-102560000D01*
%TO.C,J8*%
X188390000Y-90860000D02*
X189640000Y-90860000D01*
X190000000Y-90560000D02*
X190000000Y-89950000D01*
X191300000Y-90560000D02*
X191300000Y-89950000D01*
X189300000Y-89950000D02*
X192800000Y-89950000D01*
X192800000Y-89950000D02*
X192800000Y-81050000D01*
X188390000Y-89610000D02*
X188390000Y-90860000D01*
X188490000Y-89100000D02*
X188690000Y-89100000D01*
X188490000Y-88800000D02*
X188490000Y-89100000D01*
X188590000Y-88800000D02*
X188590000Y-89100000D01*
X188690000Y-88800000D02*
X188490000Y-88800000D01*
X188690000Y-88000000D02*
X189300000Y-88000000D01*
X189300000Y-88000000D02*
X189300000Y-89950000D01*
X192300000Y-87600000D02*
X192300000Y-87400000D01*
X192800000Y-87600000D02*
X192300000Y-87600000D01*
X192800000Y-87500000D02*
X192300000Y-87500000D01*
X192300000Y-87400000D02*
X192800000Y-87400000D01*
X192300000Y-85600000D02*
X192300000Y-85400000D01*
X192800000Y-85600000D02*
X192300000Y-85600000D01*
X192800000Y-85500000D02*
X192300000Y-85500000D01*
X192300000Y-85400000D02*
X192800000Y-85400000D01*
X192300000Y-83600000D02*
X192300000Y-83400000D01*
X192800000Y-83600000D02*
X192300000Y-83600000D01*
X192800000Y-83500000D02*
X192300000Y-83500000D01*
X192300000Y-83400000D02*
X192800000Y-83400000D01*
X189300000Y-83000000D02*
X188690000Y-83000000D01*
X189300000Y-81050000D02*
X189300000Y-83000000D01*
X192800000Y-81050000D02*
X189300000Y-81050000D01*
X190000000Y-80440000D02*
X190000000Y-81050000D01*
X191300000Y-80440000D02*
X191300000Y-81050000D01*
X188690000Y-90560000D02*
X193410000Y-90560000D01*
X193410000Y-80440000D01*
X188690000Y-80440000D01*
X188690000Y-90560000D01*
%TO.C,J7*%
X188390000Y-78860000D02*
X189640000Y-78860000D01*
X190000000Y-78560000D02*
X190000000Y-77950000D01*
X191300000Y-78560000D02*
X191300000Y-77950000D01*
X189300000Y-77950000D02*
X192800000Y-77950000D01*
X192800000Y-77950000D02*
X192800000Y-69050000D01*
X188390000Y-77610000D02*
X188390000Y-78860000D01*
X188490000Y-77100000D02*
X188690000Y-77100000D01*
X188490000Y-76800000D02*
X188490000Y-77100000D01*
X188590000Y-76800000D02*
X188590000Y-77100000D01*
X188690000Y-76800000D02*
X188490000Y-76800000D01*
X188690000Y-76000000D02*
X189300000Y-76000000D01*
X189300000Y-76000000D02*
X189300000Y-77950000D01*
X192300000Y-75600000D02*
X192300000Y-75400000D01*
X192800000Y-75600000D02*
X192300000Y-75600000D01*
X192800000Y-75500000D02*
X192300000Y-75500000D01*
X192300000Y-75400000D02*
X192800000Y-75400000D01*
X192300000Y-73600000D02*
X192300000Y-73400000D01*
X192800000Y-73600000D02*
X192300000Y-73600000D01*
X192800000Y-73500000D02*
X192300000Y-73500000D01*
X192300000Y-73400000D02*
X192800000Y-73400000D01*
X192300000Y-71600000D02*
X192300000Y-71400000D01*
X192800000Y-71600000D02*
X192300000Y-71600000D01*
X192800000Y-71500000D02*
X192300000Y-71500000D01*
X192300000Y-71400000D02*
X192800000Y-71400000D01*
X189300000Y-71000000D02*
X188690000Y-71000000D01*
X189300000Y-69050000D02*
X189300000Y-71000000D01*
X192800000Y-69050000D02*
X189300000Y-69050000D01*
X190000000Y-68440000D02*
X190000000Y-69050000D01*
X191300000Y-68440000D02*
X191300000Y-69050000D01*
X188690000Y-78560000D02*
X193410000Y-78560000D01*
X193410000Y-68440000D01*
X188690000Y-68440000D01*
X188690000Y-78560000D01*
%TO.C,J5*%
X151120000Y-62830000D02*
X152500000Y-62830000D01*
X151120000Y-64210000D02*
X151120000Y-62830000D01*
X151120000Y-65480000D02*
X151120000Y-70670000D01*
X151120000Y-65480000D02*
X153880000Y-65480000D01*
X151120000Y-70670000D02*
X153880000Y-70670000D01*
X153880000Y-65480000D02*
X153880000Y-70670000D01*
%TO.C,J2*%
X139610000Y-89140000D02*
X138360000Y-89140000D01*
X138000000Y-89440000D02*
X138000000Y-90050000D01*
X136700000Y-89440000D02*
X136700000Y-90050000D01*
X138700000Y-90050000D02*
X135200000Y-90050000D01*
X135200000Y-90050000D02*
X135200000Y-94950000D01*
X139610000Y-90390000D02*
X139610000Y-89140000D01*
X139510000Y-90900000D02*
X139310000Y-90900000D01*
X139510000Y-91200000D02*
X139510000Y-90900000D01*
X139410000Y-91200000D02*
X139410000Y-90900000D01*
X139310000Y-91200000D02*
X139510000Y-91200000D01*
X139310000Y-92000000D02*
X138700000Y-92000000D01*
X138700000Y-92000000D02*
X138700000Y-90050000D01*
X135700000Y-92400000D02*
X135700000Y-92600000D01*
X135200000Y-92400000D02*
X135700000Y-92400000D01*
X135200000Y-92500000D02*
X135700000Y-92500000D01*
X135700000Y-92600000D02*
X135200000Y-92600000D01*
X138700000Y-93000000D02*
X139310000Y-93000000D01*
X138700000Y-94950000D02*
X138700000Y-93000000D01*
X135200000Y-94950000D02*
X138700000Y-94950000D01*
X138000000Y-95560000D02*
X138000000Y-94950000D01*
X136700000Y-95560000D02*
X136700000Y-94950000D01*
X139310000Y-89440000D02*
X134590000Y-89440000D01*
X134590000Y-95560000D01*
X139310000Y-95560000D01*
X139310000Y-89440000D01*
D14*
%TO.C,BZ1*%
X170750000Y-85250000D02*
X158750000Y-85250000D01*
X158750000Y-73250000D02*
X170750000Y-73250000D01*
X158750000Y-82750000D02*
X158750000Y-85250000D01*
X170750000Y-82750000D02*
X170750000Y-85250000D01*
X170750000Y-73250000D02*
X170750000Y-75750000D01*
X158750000Y-73250000D02*
X158750000Y-75750000D01*
D12*
%TO.C,R10*%
X150937742Y-81977500D02*
X151412258Y-81977500D01*
X150937742Y-83022500D02*
X151412258Y-83022500D01*
%TO.C,C23*%
X188575000Y-105935000D02*
X187950000Y-105935000D01*
X188262500Y-106247500D02*
X188262500Y-105622500D01*
X187710000Y-105945563D02*
X187710000Y-105310000D01*
X187710000Y-105945563D02*
X186645563Y-107010000D01*
X187710000Y-102554437D02*
X187710000Y-103190000D01*
X187710000Y-102554437D02*
X186645563Y-101490000D01*
X186645563Y-107010000D02*
X182190000Y-107010000D01*
X186645563Y-101490000D02*
X182190000Y-101490000D01*
X182190000Y-107010000D02*
X182190000Y-105310000D01*
X182190000Y-101490000D02*
X182190000Y-103190000D01*
%TO.C,BT1*%
X150970000Y-92040000D02*
X150970000Y-94500000D01*
X150970000Y-100500000D02*
X150970000Y-101130000D01*
X150970000Y-101130000D02*
X152410000Y-105080000D01*
X153050000Y-89960000D02*
X150970000Y-92040000D01*
X156550000Y-89960000D02*
X153050000Y-89960000D01*
X170450000Y-89960000D02*
X166950000Y-89960000D01*
X170450000Y-89960000D02*
X172530000Y-92040000D01*
X172530000Y-92040000D02*
X172530000Y-94500000D01*
X172530000Y-100500000D02*
X172530000Y-101130000D01*
X172530000Y-101130000D02*
X171090000Y-105080000D01*
X155746646Y-106066530D02*
G75*
G02*
X152410000Y-105080000I-1306646J1716531D01*
G01*
X171075243Y-105088169D02*
G75*
G02*
X167750000Y-106050000I-2015243J738169D01*
G01*
%TD*%
M02*
