%TF.GenerationSoftware,KiCad,Pcbnew,9.0.7*%
%TF.CreationDate,2026-03-23T12:06:36-04:00*%
%TF.ProjectId,rev-b,7265762d-622e-46b6-9963-61645f706362,rev?*%
%TF.SameCoordinates,Original*%
%TF.FileFunction,Copper,L2,Bot*%
%TF.FilePolarity,Positive*%
%FSLAX46Y46*%
G04 Gerber Fmt 4.6, Leading zero omitted, Abs format (unit mm)*
G04 Created by KiCad (PCBNEW 9.0.7) date 2026-03-23 12:06:36*
%MOMM*%
%LPD*%
G01*
G04 APERTURE LIST*
G04 Aperture macros list*
%AMRoundRect*
0 Rectangle with rounded corners*
0 $1 Rounding radius*
0 $2 $3 $4 $5 $6 $7 $8 $9 X,Y pos of 4 corners*
0 Add a 4 corners polygon primitive as box body*
4,1,4,$2,$3,$4,$5,$6,$7,$8,$9,$2,$3,0*
0 Add four circle primitives for the rounded corners*
1,1,$1+$1,$2,$3*
1,1,$1+$1,$4,$5*
1,1,$1+$1,$6,$7*
1,1,$1+$1,$8,$9*
0 Add four rect primitives between the rounded corners*
20,1,$1+$1,$2,$3,$4,$5,0*
20,1,$1+$1,$4,$5,$6,$7,0*
20,1,$1+$1,$6,$7,$8,$9,0*
20,1,$1+$1,$8,$9,$2,$3,0*%
%AMFreePoly0*
4,1,237,0.029172,0.853997,0.029356,0.853987,0.057356,0.851987,0.057683,0.851953,0.086683,0.847953,0.086879,0.847922,0.114879,0.842922,0.115213,0.842851,0.143213,0.835851,0.143374,0.835808,0.171374,0.827808,0.171737,0.827689,0.198737,0.817689,0.198886,0.817630,0.225886,0.806630,0.226095,0.806540,0.252095,0.794540,0.252443,0.794363,0.277443,0.780363,0.277572,0.780287,
0.302572,0.765287,0.302855,0.765105,0.325855,0.749105,0.326082,0.748938,0.349082,0.730938,0.371166,0.712870,0.371448,0.712621,0.392448,0.692621,0.392621,0.692448,0.412621,0.671448,0.412870,0.671166,0.430938,0.649082,0.448938,0.626082,0.449105,0.625855,0.465105,0.602855,0.465287,0.602572,0.480287,0.577572,0.480363,0.577443,0.494363,0.552443,0.494540,0.552095,
0.506540,0.526095,0.506630,0.525886,0.517630,0.498886,0.517689,0.498737,0.527689,0.471737,0.527808,0.471374,0.535808,0.443374,0.535851,0.443213,0.542851,0.415213,0.542922,0.414879,0.547922,0.386879,0.547953,0.386683,0.551953,0.357683,0.551987,0.357356,0.553987,0.329356,0.553997,0.329172,0.554997,0.300172,0.555000,0.300000,0.555000,-0.300000,0.554997,-0.300172,
0.553997,-0.329172,0.553987,-0.329356,0.551987,-0.357356,0.551953,-0.357683,0.547953,-0.386683,0.547922,-0.386879,0.542922,-0.414879,0.542851,-0.415213,0.535851,-0.443213,0.535808,-0.443374,0.527808,-0.471374,0.527689,-0.471737,0.517689,-0.498737,0.517630,-0.498886,0.506630,-0.525886,0.506540,-0.526095,0.494540,-0.552095,0.494363,-0.552443,0.480363,-0.577443,0.480287,-0.577572,
0.465287,-0.602572,0.465105,-0.602855,0.449105,-0.625855,0.448938,-0.626082,0.430938,-0.649082,0.412870,-0.671166,0.412621,-0.671448,0.392621,-0.692448,0.392448,-0.692621,0.371448,-0.712621,0.371166,-0.712870,0.349082,-0.730938,0.326082,-0.748938,0.325855,-0.749105,0.302855,-0.765105,0.302572,-0.765287,0.277572,-0.780287,0.277443,-0.780363,0.252443,-0.794363,0.252095,-0.794540,
0.226095,-0.806540,0.225886,-0.806630,0.198886,-0.817630,0.198737,-0.817689,0.171737,-0.827689,0.171374,-0.827808,0.143374,-0.835808,0.143213,-0.835851,0.115213,-0.842851,0.114879,-0.842922,0.086879,-0.847922,0.086683,-0.847953,0.057683,-0.851953,0.057356,-0.851987,0.029356,-0.853987,0.029172,-0.853997,0.000172,-0.854997,-0.000172,-0.854997,-0.029172,-0.853997,-0.029356,-0.853987,
-0.057356,-0.851987,-0.057683,-0.851953,-0.086683,-0.847953,-0.086879,-0.847922,-0.114879,-0.842922,-0.115213,-0.842851,-0.143213,-0.835851,-0.143374,-0.835808,-0.171374,-0.827808,-0.171737,-0.827689,-0.198737,-0.817689,-0.198886,-0.817630,-0.225886,-0.806630,-0.226095,-0.806540,-0.252095,-0.794540,-0.252443,-0.794363,-0.277443,-0.780363,-0.277572,-0.780287,-0.302572,-0.765287,-0.302855,-0.765105,
-0.325855,-0.749105,-0.326082,-0.748938,-0.349082,-0.730938,-0.371166,-0.712870,-0.371448,-0.712621,-0.392448,-0.692621,-0.392621,-0.692448,-0.412621,-0.671448,-0.412870,-0.671166,-0.430938,-0.649082,-0.448938,-0.626082,-0.449105,-0.625855,-0.465105,-0.602855,-0.465287,-0.602572,-0.480287,-0.577572,-0.480363,-0.577443,-0.494363,-0.552443,-0.494540,-0.552095,-0.506540,-0.526095,-0.506630,-0.525886,
-0.517630,-0.498886,-0.517689,-0.498737,-0.527689,-0.471737,-0.527808,-0.471374,-0.535808,-0.443374,-0.535851,-0.443213,-0.542851,-0.415213,-0.542922,-0.414879,-0.547922,-0.386879,-0.547953,-0.386683,-0.551953,-0.357683,-0.551987,-0.357356,-0.553987,-0.329356,-0.553997,-0.329172,-0.554997,-0.300172,-0.555000,-0.300000,-0.555000,0.300000,-0.554997,0.300172,-0.553997,0.329172,-0.553987,0.329356,
-0.551987,0.357356,-0.551953,0.357683,-0.547953,0.386683,-0.547922,0.386879,-0.542922,0.414879,-0.542851,0.415213,-0.535851,0.443213,-0.535808,0.443374,-0.527808,0.471374,-0.527689,0.471737,-0.517689,0.498737,-0.517630,0.498886,-0.506630,0.525886,-0.506540,0.526095,-0.494540,0.552095,-0.494363,0.552443,-0.480363,0.577443,-0.480287,0.577572,-0.465287,0.602572,-0.465105,0.602855,
-0.449105,0.625855,-0.448938,0.626082,-0.430938,0.649082,-0.412870,0.671166,-0.412621,0.671448,-0.392621,0.692448,-0.392448,0.692621,-0.371448,0.712621,-0.371166,0.712870,-0.349082,0.730938,-0.326082,0.748938,-0.325855,0.749105,-0.302855,0.765105,-0.302572,0.765287,-0.277572,0.780287,-0.277443,0.780363,-0.252443,0.794363,-0.252095,0.794540,-0.226095,0.806540,-0.225886,0.806630,
-0.198886,0.817630,-0.198737,0.817689,-0.171737,0.827689,-0.171374,0.827808,-0.143374,0.835808,-0.143213,0.835851,-0.115213,0.842851,-0.114879,0.842922,-0.086879,0.847922,-0.086683,0.847953,-0.057683,0.851953,-0.057356,0.851987,-0.029356,0.853987,-0.029172,0.853997,-0.000172,0.854997,0.000172,0.854997,0.029172,0.853997,0.029172,0.853997,$1*%
G04 Aperture macros list end*
%TA.AperFunction,ComponentPad*%
%ADD10C,4.400000*%
%TD*%
%TA.AperFunction,ComponentPad*%
%ADD11FreePoly0,270.000000*%
%TD*%
%TA.AperFunction,HeatsinkPad*%
%ADD12C,0.500000*%
%TD*%
%TA.AperFunction,HeatsinkPad*%
%ADD13R,1.700000X1.700000*%
%TD*%
%TA.AperFunction,ComponentPad*%
%ADD14O,1.750000X1.200000*%
%TD*%
%TA.AperFunction,ComponentPad*%
%ADD15RoundRect,0.250000X-0.625000X0.350000X-0.625000X-0.350000X0.625000X-0.350000X0.625000X0.350000X0*%
%TD*%
%TA.AperFunction,SMDPad,CuDef*%
%ADD16RoundRect,0.225000X0.250000X-0.225000X0.250000X0.225000X-0.250000X0.225000X-0.250000X-0.225000X0*%
%TD*%
%TA.AperFunction,ComponentPad*%
%ADD17C,1.000000*%
%TD*%
%TA.AperFunction,ComponentPad*%
%ADD18R,1.000000X1.000000*%
%TD*%
%TA.AperFunction,ComponentPad*%
%ADD19RoundRect,0.250000X0.625000X-0.350000X0.625000X0.350000X-0.625000X0.350000X-0.625000X-0.350000X0*%
%TD*%
%TA.AperFunction,SMDPad,CuDef*%
%ADD20RoundRect,0.200000X-0.200000X-0.275000X0.200000X-0.275000X0.200000X0.275000X-0.200000X0.275000X0*%
%TD*%
%TA.AperFunction,SMDPad,CuDef*%
%ADD21RoundRect,0.200000X0.200000X0.275000X-0.200000X0.275000X-0.200000X-0.275000X0.200000X-0.275000X0*%
%TD*%
%TA.AperFunction,ComponentPad*%
%ADD22R,1.700000X1.700000*%
%TD*%
%TA.AperFunction,ComponentPad*%
%ADD23C,1.700000*%
%TD*%
%TA.AperFunction,SMDPad,CuDef*%
%ADD24RoundRect,0.225000X-0.250000X0.225000X-0.250000X-0.225000X0.250000X-0.225000X0.250000X0.225000X0*%
%TD*%
%TA.AperFunction,ViaPad*%
%ADD25C,0.600000*%
%TD*%
%TA.AperFunction,ViaPad*%
%ADD26C,0.800000*%
%TD*%
%TA.AperFunction,Conductor*%
%ADD27C,0.200000*%
%TD*%
%TA.AperFunction,Conductor*%
%ADD28C,0.800000*%
%TD*%
%TA.AperFunction,Conductor*%
%ADD29C,0.500000*%
%TD*%
G04 APERTURE END LIST*
D10*
%TO.P,H1,1*%
%TO.N,N/C*%
X137000000Y-53000000D03*
%TD*%
%TO.P,H2,1*%
%TO.N,N/C*%
X191000000Y-53000000D03*
%TD*%
%TO.P,H3,1*%
%TO.N,N/C*%
X137000000Y-107000000D03*
%TD*%
%TO.P,H4,1*%
%TO.N,N/C*%
X191000000Y-107000000D03*
%TD*%
D11*
%TO.P,J1,S1,SHIELD*%
%TO.N,GND*%
X139050000Y-75430000D03*
%TO.P,J1,S2*%
%TO.N,N/C*%
X139050000Y-84070000D03*
%TO.P,J1,S3*%
X135250000Y-75430000D03*
%TO.P,J1,S4*%
X135250000Y-84070000D03*
%TD*%
D12*
%TO.P,U2,17,VSS*%
%TO.N,GND*%
X145400000Y-83285000D03*
X146600000Y-83285000D03*
D13*
X146000000Y-82685000D03*
D12*
X145400000Y-82085000D03*
X146600000Y-82085000D03*
%TD*%
D14*
%TO.P,J3,2,Pin_2*%
%TO.N,Net-(J3-Pin_2)*%
X137500000Y-100900000D03*
D15*
%TO.P,J3,1,Pin_1*%
%TO.N,Net-(J3-Pin_1)*%
X137500000Y-98900000D03*
%TD*%
D16*
%TO.P,C2,2*%
%TO.N,GND*%
X141240000Y-78475000D03*
%TO.P,C2,1*%
%TO.N,VBUS*%
X141240000Y-80025000D03*
%TD*%
%TO.P,C1,2*%
%TO.N,GND*%
X143000000Y-78475000D03*
%TO.P,C1,1*%
%TO.N,VBUS*%
X143000000Y-80025000D03*
%TD*%
D17*
%TO.P,J10,10,10*%
%TO.N,/MCU/RESET*%
X186750000Y-51500000D03*
%TO.P,J10,9,9*%
%TO.N,GND*%
X186750000Y-52770000D03*
%TO.P,J10,8,8*%
%TO.N,unconnected-(J10-Pad8)*%
X185480000Y-51500000D03*
%TO.P,J10,7,7*%
%TO.N,unconnected-(J10-Pad7)*%
X185480000Y-52770000D03*
%TO.P,J10,6,6*%
%TO.N,unconnected-(J10-Pad6)*%
X184210000Y-51500000D03*
%TO.P,J10,5,5*%
%TO.N,GND*%
X184210000Y-52770000D03*
%TO.P,J10,4,4*%
%TO.N,/MCU/SWDCLK*%
X182940000Y-51500000D03*
%TO.P,J10,3,3*%
%TO.N,GND*%
X182940000Y-52770000D03*
%TO.P,J10,2,2*%
%TO.N,/MCU/SWDIO*%
X181670000Y-51500000D03*
D18*
%TO.P,J10,1,1*%
%TO.N,+3V3*%
X181670000Y-52770000D03*
%TD*%
D19*
%TO.P,J6,1,Pin_1*%
%TO.N,GND*%
X190500000Y-64500000D03*
D14*
%TO.P,J6,2,Pin_2*%
%TO.N,/MCU/BTN3*%
X190500000Y-62500000D03*
%TO.P,J6,3,Pin_3*%
%TO.N,/MCU/BTN2*%
X190500000Y-60500000D03*
%TO.P,J6,4,Pin_4*%
%TO.N,/MCU/BTN1*%
X190500000Y-58500000D03*
%TD*%
D20*
%TO.P,R2,1*%
%TO.N,GND*%
X135110000Y-79050000D03*
%TO.P,R2,2*%
%TO.N,Net-(J1-CC1)*%
X136760000Y-79050000D03*
%TD*%
D21*
%TO.P,R1,1*%
%TO.N,Net-(J1-CC2)*%
X136750000Y-80750000D03*
%TO.P,R1,2*%
%TO.N,GND*%
X135100000Y-80750000D03*
%TD*%
D19*
%TO.P,J9,1,Pin_1*%
%TO.N,VBAT*%
X190450000Y-100500000D03*
D14*
%TO.P,J9,2,Pin_2*%
%TO.N,GND*%
X190450000Y-98500000D03*
%TO.P,J9,3,Pin_3*%
%TO.N,/MCU/LED3_DATA*%
X190450000Y-96500000D03*
%TO.P,J9,4,Pin_4*%
%TO.N,/MCU/LED3_CLK*%
X190450000Y-94500000D03*
%TD*%
D19*
%TO.P,J8,1,Pin_1*%
%TO.N,VBAT*%
X190500000Y-88500000D03*
D14*
%TO.P,J8,2,Pin_2*%
%TO.N,GND*%
X190500000Y-86500000D03*
%TO.P,J8,3,Pin_3*%
%TO.N,/MCU/LED2_DATA*%
X190500000Y-84500000D03*
%TO.P,J8,4,Pin_4*%
%TO.N,/MCU/LED2_CLK*%
X190500000Y-82500000D03*
%TD*%
D19*
%TO.P,J7,1,Pin_1*%
%TO.N,VBAT*%
X190500000Y-76500000D03*
D14*
%TO.P,J7,2,Pin_2*%
%TO.N,GND*%
X190500000Y-74500000D03*
%TO.P,J7,3,Pin_3*%
%TO.N,/MCU/LED1_DATA*%
X190500000Y-72500000D03*
%TO.P,J7,4,Pin_4*%
%TO.N,/MCU/LED1_CLK*%
X190500000Y-70500000D03*
%TD*%
D22*
%TO.P,J5,1,Pin_1*%
%TO.N,GND*%
X152500000Y-64210000D03*
D23*
%TO.P,J5,2,Pin_2*%
%TO.N,/MCU/UART_TX*%
X152500000Y-66750000D03*
%TO.P,J5,3,Pin_3*%
%TO.N,/MCU/UART_RX*%
X152500000Y-69290000D03*
%TD*%
D15*
%TO.P,J2,1,Pin_1*%
%TO.N,VBAT*%
X137500000Y-91500000D03*
D14*
%TO.P,J2,2,Pin_2*%
%TO.N,GND*%
X137500000Y-93500000D03*
%TD*%
D16*
%TO.P,C24,1*%
%TO.N,VBAT*%
X187250000Y-100750000D03*
%TO.P,C24,2*%
%TO.N,GND*%
X187250000Y-99200000D03*
%TD*%
%TO.P,C22,1*%
%TO.N,VBAT*%
X185500000Y-88550000D03*
%TO.P,C22,2*%
%TO.N,GND*%
X185500000Y-87000000D03*
%TD*%
%TO.P,C21,1*%
%TO.N,VBAT*%
X187260000Y-88525000D03*
%TO.P,C21,2*%
%TO.N,GND*%
X187260000Y-86975000D03*
%TD*%
%TO.P,C20,1*%
%TO.N,VBAT*%
X187250000Y-76500000D03*
%TO.P,C20,2*%
%TO.N,GND*%
X187250000Y-74950000D03*
%TD*%
%TO.P,C19,1*%
%TO.N,VBAT*%
X185480000Y-76500000D03*
%TO.P,C19,2*%
%TO.N,GND*%
X185480000Y-74950000D03*
%TD*%
%TO.P,C18,1*%
%TO.N,GND*%
X161500000Y-70025000D03*
%TO.P,C18,2*%
%TO.N,/MCU/VBAT_ADC*%
X161500000Y-68475000D03*
%TD*%
%TO.P,C17,1*%
%TO.N,+3V3*%
X155750000Y-58525000D03*
%TO.P,C17,2*%
%TO.N,GND*%
X155750000Y-56975000D03*
%TD*%
%TO.P,C16,1*%
%TO.N,+3V3*%
X157500000Y-58525000D03*
%TO.P,C16,2*%
%TO.N,GND*%
X157500000Y-56975000D03*
%TD*%
%TO.P,C15,1*%
%TO.N,+3V3*%
X143250000Y-55800000D03*
%TO.P,C15,2*%
%TO.N,GND*%
X143250000Y-54250000D03*
%TD*%
%TO.P,C14,1*%
%TO.N,Net-(U3-REG)*%
X146250000Y-93775000D03*
%TO.P,C14,2*%
%TO.N,GND*%
X146250000Y-92225000D03*
%TD*%
%TO.P,C13,1*%
%TO.N,VBAT*%
X142250000Y-96525000D03*
%TO.P,C13,2*%
%TO.N,GND*%
X142250000Y-94975000D03*
%TD*%
%TO.P,C12,1*%
%TO.N,VBAT*%
X144000000Y-96525000D03*
%TO.P,C12,2*%
%TO.N,GND*%
X144000000Y-94975000D03*
%TD*%
%TO.P,C11,1*%
%TO.N,GND*%
X147740000Y-87275000D03*
%TO.P,C11,2*%
%TO.N,VBAT*%
X147740000Y-85725000D03*
%TD*%
%TO.P,C10,1*%
%TO.N,GND*%
X149500000Y-87275000D03*
%TO.P,C10,2*%
%TO.N,VBAT*%
X149500000Y-85725000D03*
%TD*%
D24*
%TO.P,C9,1*%
%TO.N,GND*%
X146500000Y-76225000D03*
%TO.P,C9,2*%
%TO.N,VSYS*%
X146500000Y-77775000D03*
%TD*%
%TO.P,C8,1*%
%TO.N,GND*%
X144750000Y-76225000D03*
%TO.P,C8,2*%
%TO.N,VSYS*%
X144750000Y-77775000D03*
%TD*%
D16*
%TO.P,C7,1*%
%TO.N,GND*%
X143000000Y-84550000D03*
%TO.P,C7,2*%
%TO.N,VBUS*%
X143000000Y-83000000D03*
%TD*%
%TO.P,C6,1*%
%TO.N,GND*%
X141250000Y-84550000D03*
%TO.P,C6,2*%
%TO.N,VBUS*%
X141250000Y-83000000D03*
%TD*%
%TO.P,C5,1*%
%TO.N,+3V3*%
X155000000Y-74550000D03*
%TO.P,C5,2*%
%TO.N,GND*%
X155000000Y-73000000D03*
%TD*%
D24*
%TO.P,C4,1*%
%TO.N,GND*%
X148750000Y-72950000D03*
%TO.P,C4,2*%
%TO.N,VSYS*%
X148750000Y-74500000D03*
%TD*%
%TO.P,C3,1*%
%TO.N,GND*%
X147000000Y-72950000D03*
%TO.P,C3,2*%
%TO.N,VSYS*%
X147000000Y-74500000D03*
%TD*%
D25*
%TO.N,GND*%
X186500000Y-64500000D03*
X173000000Y-75750000D03*
X161750000Y-97500000D03*
X185500000Y-99250000D03*
X186250000Y-68500000D03*
X193000000Y-55500000D03*
X183250000Y-56250000D03*
X189750000Y-79500000D03*
X188750000Y-79500000D03*
%TO.N,/MCU/PGOOD_STAT*%
X149250000Y-82000000D03*
%TO.N,/MCU/CHG_STAT*%
X149250000Y-80250000D03*
%TO.N,/MCU/PGOOD_STAT*%
X165550003Y-63250000D03*
%TO.N,/MCU/CHG_STAT*%
X164750000Y-63250000D03*
%TO.N,/MCU/RESET*%
X187500000Y-56250000D03*
%TO.N,GND*%
X146250000Y-69750000D03*
X146250000Y-64500000D03*
X136000000Y-60000000D03*
X142000000Y-60000000D03*
X174500000Y-63750000D03*
X170000000Y-50750000D03*
X155750000Y-53250000D03*
X155750000Y-51250000D03*
X159750000Y-64500000D03*
%TO.N,Net-(Q1-Pad1)*%
X167500000Y-67250000D03*
X167750000Y-72500000D03*
%TO.N,Net-(BT1-+)*%
X152000000Y-79000000D03*
X152000000Y-60750000D03*
%TO.N,/MCU/SCL*%
X157000000Y-69500000D03*
X149500000Y-89350000D03*
%TO.N,/MCU/SDA*%
X147500000Y-89250000D03*
X156000000Y-69500000D03*
%TO.N,/MCU/UART_RX*%
X162500000Y-63500000D03*
%TO.N,/MCU/UART_TX*%
X161750000Y-63000000D03*
%TO.N,+3V3*%
X157250000Y-59500000D03*
X143750000Y-57000000D03*
%TO.N,/MCU/VBAT_ADC*%
X161375000Y-67125000D03*
D26*
%TO.N,VBAT*%
X158500000Y-71000000D03*
D25*
%TO.N,+3V3*%
X180750000Y-63000000D03*
%TO.N,/MCU/RESET*%
X179750000Y-61250000D03*
D26*
%TO.N,VBAT*%
X141000000Y-96750000D03*
D25*
%TO.N,/MCU/RESET*%
X173250000Y-53250000D03*
X188500000Y-50750000D03*
%TO.N,/MCU/SWDCLK*%
X171750000Y-52500000D03*
X180000000Y-50750000D03*
D26*
%TO.N,VBAT*%
X181500000Y-101250000D03*
X142250000Y-90250000D03*
%TO.N,VBUS*%
X153000000Y-84000000D03*
D25*
%TO.N,Net-(U3-REG)*%
X145250000Y-93750000D03*
%TO.N,+3V3*%
X155000000Y-75500000D03*
D26*
%TO.N,VBAT*%
X146000000Y-85750000D03*
%TO.N,VSYS*%
X149000000Y-76250000D03*
X146000000Y-79250000D03*
D25*
%TO.N,Net-(J1-CC2)*%
X138000000Y-80250000D03*
%TO.N,Net-(J1-CC1)*%
X138000000Y-79250000D03*
D26*
%TO.N,VBUS*%
X143250000Y-81704000D03*
X141000000Y-81250000D03*
D25*
%TO.N,+3V3*%
X181500000Y-55000000D03*
%TD*%
D27*
%TO.N,/MCU/PGOOD_STAT*%
X150417043Y-82000000D02*
X153500000Y-78917043D01*
X149250000Y-82000000D02*
X150417043Y-82000000D01*
X153500000Y-78917043D02*
X153500000Y-72750000D01*
%TO.N,/MCU/CHG_STAT*%
X149250000Y-80250000D02*
X151599943Y-80250000D01*
X152649000Y-79200943D02*
X152649000Y-72851000D01*
X151599943Y-80250000D02*
X152649000Y-79200943D01*
%TO.N,/MCU/PGOOD_STAT*%
X154651000Y-71599000D02*
X153500000Y-72750000D01*
X154651000Y-69849000D02*
X154651000Y-71599000D01*
X165550003Y-63449997D02*
X163349000Y-65651000D01*
X158849000Y-65651000D02*
X154651000Y-69849000D01*
X163349000Y-65651000D02*
X158849000Y-65651000D01*
X165550003Y-63250000D02*
X165550003Y-63449997D01*
%TO.N,/MCU/CHG_STAT*%
X154250000Y-71250000D02*
X152649000Y-72851000D01*
X162750000Y-65250000D02*
X158000000Y-65250000D01*
X164750000Y-63250000D02*
X162750000Y-65250000D01*
X158000000Y-65250000D02*
X154250000Y-69000000D01*
X154250000Y-69000000D02*
X154250000Y-71250000D01*
D28*
%TO.N,VBAT*%
X193099000Y-76853000D02*
X193099000Y-70750000D01*
X191976000Y-77976000D02*
X193099000Y-76853000D01*
X162098374Y-71076000D02*
X158576000Y-71076000D01*
X193099000Y-70750000D02*
X188698000Y-66349000D01*
X166825374Y-66349000D02*
X162098374Y-71076000D01*
X188698000Y-66349000D02*
X166825374Y-66349000D01*
X158576000Y-71076000D02*
X158500000Y-71000000D01*
X146000000Y-85750000D02*
X147715000Y-85750000D01*
D27*
%TO.N,/MCU/RESET*%
X188500000Y-55250000D02*
X187500000Y-56250000D01*
X188500000Y-50750000D02*
X188500000Y-55250000D01*
%TO.N,Net-(Q1-Pad1)*%
X167500000Y-72250000D02*
X167500000Y-67250000D01*
X167750000Y-72500000D02*
X167500000Y-72250000D01*
X167500000Y-67250000D02*
X167500000Y-67500000D01*
D28*
%TO.N,VBAT*%
X190500000Y-88500000D02*
X191976000Y-87024000D01*
X191976000Y-87024000D02*
X191976000Y-77976000D01*
X191976000Y-77976000D02*
X190500000Y-76500000D01*
X190450000Y-100500000D02*
X192000000Y-98950000D01*
X192000000Y-98950000D02*
X192000000Y-90000000D01*
X192000000Y-90000000D02*
X190500000Y-88500000D01*
X187250000Y-100750000D02*
X190200000Y-100750000D01*
X190200000Y-100750000D02*
X190450000Y-100500000D01*
X187250000Y-100750000D02*
X186750000Y-101250000D01*
X181500000Y-101250000D02*
X186750000Y-101250000D01*
X141174000Y-103925000D02*
X146098000Y-108849000D01*
X146098000Y-108849000D02*
X178500000Y-108849000D01*
X142250000Y-90250000D02*
X141174000Y-91326000D01*
X141174000Y-91326000D02*
X141174000Y-103925000D01*
X178500000Y-108849000D02*
X181500000Y-105849000D01*
X181500000Y-105849000D02*
X181500000Y-101250000D01*
D27*
%TO.N,Net-(BT1-+)*%
X149750000Y-63000000D02*
X152000000Y-60750000D01*
X152000000Y-79000000D02*
X152000000Y-73250000D01*
X149750000Y-71000000D02*
X149750000Y-63000000D01*
X152000000Y-73250000D02*
X149750000Y-71000000D01*
%TO.N,/MCU/UART_RX*%
X158000000Y-63750000D02*
X162250000Y-63750000D01*
X162250000Y-63750000D02*
X162500000Y-63500000D01*
X152500000Y-69290000D02*
X158000000Y-63790000D01*
X158000000Y-63790000D02*
X158000000Y-63750000D01*
%TO.N,/MCU/UART_TX*%
X152500000Y-66750000D02*
X156250000Y-63000000D01*
X156250000Y-63000000D02*
X161750000Y-63000000D01*
%TO.N,/MCU/SCL*%
X157000000Y-81850000D02*
X157000000Y-69500000D01*
X149500000Y-89350000D02*
X157000000Y-81850000D01*
%TO.N,/MCU/SDA*%
X148750110Y-89250000D02*
X156000000Y-82000110D01*
X156000000Y-82000110D02*
X156000000Y-69500000D01*
X147500000Y-89250000D02*
X148750110Y-89250000D01*
%TO.N,/MCU/VBAT_ADC*%
X161375000Y-67125000D02*
X161375000Y-68350000D01*
X161375000Y-68350000D02*
X161500000Y-68475000D01*
D29*
%TO.N,+3V3*%
X157250000Y-59500000D02*
X156725000Y-59500000D01*
X156725000Y-59500000D02*
X155750000Y-58525000D01*
X157250000Y-59500000D02*
X157250000Y-58775000D01*
X157250000Y-58775000D02*
X157500000Y-58525000D01*
X143750000Y-57000000D02*
X143750000Y-56300000D01*
X143750000Y-56300000D02*
X143250000Y-55800000D01*
D27*
X181500000Y-62250000D02*
X180750000Y-63000000D01*
%TO.N,/MCU/RESET*%
X179750000Y-59750000D02*
X179750000Y-61250000D01*
X173250000Y-53250000D02*
X179750000Y-59750000D01*
%TO.N,/MCU/SWDCLK*%
X180000000Y-50750000D02*
X173500000Y-50750000D01*
X173500000Y-50750000D02*
X171750000Y-52500000D01*
%TO.N,+3V3*%
X181500000Y-55000000D02*
X181500000Y-62250000D01*
D28*
%TO.N,VBAT*%
X142250000Y-96525000D02*
X144000000Y-96525000D01*
X141000000Y-96750000D02*
X142025000Y-96750000D01*
X142025000Y-96750000D02*
X142250000Y-96525000D01*
D27*
%TO.N,/MCU/RESET*%
X178787214Y-53250000D02*
X173250000Y-53250000D01*
X188449000Y-50699000D02*
X181338214Y-50699000D01*
X188500000Y-50750000D02*
X188449000Y-50699000D01*
X181338214Y-50699000D02*
X178787214Y-53250000D01*
D28*
%TO.N,VBAT*%
X185000000Y-76500000D02*
X185480000Y-76500000D01*
X187250000Y-76500000D02*
X190500000Y-76500000D01*
X185480000Y-76500000D02*
X187250000Y-76500000D01*
X187260000Y-88525000D02*
X190475000Y-88525000D01*
X190475000Y-88525000D02*
X190500000Y-88500000D01*
X185500000Y-88550000D02*
X187235000Y-88550000D01*
X187235000Y-88550000D02*
X187260000Y-88525000D01*
D27*
%TO.N,VBUS*%
X143250000Y-82474890D02*
X143250000Y-81704000D01*
X153000000Y-84000000D02*
X144775110Y-84000000D01*
X144775110Y-84000000D02*
X143250000Y-82474890D01*
%TO.N,Net-(U3-REG)*%
X145250000Y-93750000D02*
X146225000Y-93750000D01*
X146225000Y-93750000D02*
X146250000Y-93775000D01*
D29*
%TO.N,+3V3*%
X155000000Y-75500000D02*
X155000000Y-74550000D01*
D28*
%TO.N,VBAT*%
X147740000Y-85725000D02*
X149500000Y-85725000D01*
X147715000Y-85750000D02*
X147740000Y-85725000D01*
%TO.N,VSYS*%
X149000000Y-76250000D02*
X148750000Y-76250000D01*
X148750000Y-76250000D02*
X147000000Y-74500000D01*
X149000000Y-76250000D02*
X149000000Y-74750000D01*
X149000000Y-74750000D02*
X148750000Y-74500000D01*
X146000000Y-79250000D02*
X146000000Y-79025000D01*
X146000000Y-79025000D02*
X144750000Y-77775000D01*
X146000000Y-78275000D02*
X146500000Y-77775000D01*
X146000000Y-79250000D02*
X146000000Y-78275000D01*
D27*
%TO.N,Net-(J1-CC2)*%
X138000000Y-80250000D02*
X137250000Y-80250000D01*
X137250000Y-80250000D02*
X136750000Y-80750000D01*
%TO.N,Net-(J1-CC1)*%
X136960000Y-79250000D02*
X136760000Y-79050000D01*
X138000000Y-79250000D02*
X136960000Y-79250000D01*
D28*
%TO.N,VBUS*%
X143250000Y-81704000D02*
X142546000Y-81704000D01*
X142546000Y-81704000D02*
X141250000Y-83000000D01*
X143250000Y-81704000D02*
X143250000Y-82750000D01*
X143250000Y-82750000D02*
X143000000Y-83000000D01*
X141000000Y-81250000D02*
X141775000Y-81250000D01*
X141775000Y-81250000D02*
X143000000Y-80025000D01*
X141000000Y-81250000D02*
X141000000Y-80265000D01*
X141000000Y-80265000D02*
X141240000Y-80025000D01*
%TD*%
%TA.AperFunction,Conductor*%
%TO.N,GND*%
G36*
X163443039Y-50270185D02*
G01*
X163488794Y-50322989D01*
X163500000Y-50374500D01*
X163500000Y-52900000D01*
X167900000Y-52900000D01*
X167900000Y-50374500D01*
X167919685Y-50307461D01*
X167972489Y-50261706D01*
X168024000Y-50250500D01*
X172850902Y-50250500D01*
X172917941Y-50270185D01*
X172963696Y-50322989D01*
X172973640Y-50392147D01*
X172944615Y-50455703D01*
X172938583Y-50462181D01*
X171735339Y-51665425D01*
X171674016Y-51698910D01*
X171671850Y-51699361D01*
X171516508Y-51730261D01*
X171516498Y-51730264D01*
X171370827Y-51790602D01*
X171370814Y-51790609D01*
X171239711Y-51878210D01*
X171239707Y-51878213D01*
X171128213Y-51989707D01*
X171128210Y-51989711D01*
X171040609Y-52120814D01*
X171040602Y-52120827D01*
X170980264Y-52266498D01*
X170980261Y-52266510D01*
X170949500Y-52421153D01*
X170949500Y-52578846D01*
X170980261Y-52733489D01*
X170980264Y-52733501D01*
X171040602Y-52879172D01*
X171040609Y-52879185D01*
X171128210Y-53010288D01*
X171128213Y-53010292D01*
X171239707Y-53121786D01*
X171239711Y-53121789D01*
X171370814Y-53209390D01*
X171370827Y-53209397D01*
X171453595Y-53243680D01*
X171516503Y-53269737D01*
X171668639Y-53299999D01*
X171671153Y-53300499D01*
X171671156Y-53300500D01*
X171671158Y-53300500D01*
X171828844Y-53300500D01*
X171828845Y-53300499D01*
X171983497Y-53269737D01*
X172129179Y-53209394D01*
X172186403Y-53171158D01*
X172256609Y-53124248D01*
X172323286Y-53103370D01*
X172390666Y-53121854D01*
X172437357Y-53173833D01*
X172449500Y-53227350D01*
X172449500Y-53328846D01*
X172480261Y-53483489D01*
X172480264Y-53483501D01*
X172540602Y-53629172D01*
X172540609Y-53629185D01*
X172628210Y-53760288D01*
X172628213Y-53760292D01*
X172739707Y-53871786D01*
X172739711Y-53871789D01*
X172870814Y-53959390D01*
X172870827Y-53959397D01*
X173016498Y-54019735D01*
X173016503Y-54019737D01*
X173081147Y-54032595D01*
X173171849Y-54050638D01*
X173233760Y-54083023D01*
X173235339Y-54084574D01*
X179113181Y-59962416D01*
X179146666Y-60023739D01*
X179149500Y-60050097D01*
X179149500Y-60670234D01*
X179129815Y-60737273D01*
X179128602Y-60739125D01*
X179040609Y-60870814D01*
X179040602Y-60870827D01*
X178980264Y-61016498D01*
X178980261Y-61016510D01*
X178949500Y-61171153D01*
X178949500Y-61328846D01*
X178980261Y-61483489D01*
X178980264Y-61483501D01*
X179040602Y-61629172D01*
X179040609Y-61629185D01*
X179128210Y-61760288D01*
X179128213Y-61760292D01*
X179239707Y-61871786D01*
X179239711Y-61871789D01*
X179370814Y-61959390D01*
X179370827Y-61959397D01*
X179471907Y-62001265D01*
X179516503Y-62019737D01*
X179671153Y-62050499D01*
X179671156Y-62050500D01*
X179671158Y-62050500D01*
X179828844Y-62050500D01*
X179828845Y-62050499D01*
X179983497Y-62019737D01*
X180129179Y-61959394D01*
X180260289Y-61871789D01*
X180371789Y-61760289D01*
X180459394Y-61629179D01*
X180519737Y-61483497D01*
X180550500Y-61328842D01*
X180550500Y-61171158D01*
X180550500Y-61171155D01*
X180550499Y-61171153D01*
X180542148Y-61129172D01*
X180519737Y-61016503D01*
X180480778Y-60922447D01*
X180459397Y-60870827D01*
X180459390Y-60870814D01*
X180371398Y-60739125D01*
X180350520Y-60672447D01*
X180350500Y-60670234D01*
X180350500Y-59670945D01*
X180350500Y-59670943D01*
X180309577Y-59518216D01*
X180309577Y-59518215D01*
X180309577Y-59518214D01*
X180280639Y-59468095D01*
X180280637Y-59468092D01*
X180230520Y-59381284D01*
X180118716Y-59269480D01*
X180118715Y-59269479D01*
X180114385Y-59265149D01*
X180114374Y-59265139D01*
X174911416Y-54062181D01*
X174877931Y-54000858D01*
X174882915Y-53931166D01*
X174924787Y-53875233D01*
X174990251Y-53850816D01*
X174999097Y-53850500D01*
X178700545Y-53850500D01*
X178700561Y-53850501D01*
X178708157Y-53850501D01*
X178866268Y-53850501D01*
X178866271Y-53850501D01*
X179018999Y-53809577D01*
X179086682Y-53770500D01*
X179155930Y-53730520D01*
X179267734Y-53618716D01*
X179267734Y-53618714D01*
X179277938Y-53608511D01*
X179277942Y-53608506D01*
X180457821Y-52428626D01*
X180519142Y-52395143D01*
X180588834Y-52400127D01*
X180644767Y-52441999D01*
X180669184Y-52507463D01*
X180669500Y-52516309D01*
X180669500Y-53317870D01*
X180669501Y-53317876D01*
X180675908Y-53377483D01*
X180726202Y-53512328D01*
X180726206Y-53512335D01*
X180812452Y-53627544D01*
X180812455Y-53627547D01*
X180927664Y-53713793D01*
X180927671Y-53713797D01*
X181062517Y-53764091D01*
X181062516Y-53764091D01*
X181069444Y-53764835D01*
X181122127Y-53770500D01*
X182217872Y-53770499D01*
X182277483Y-53764091D01*
X182412331Y-53713796D01*
X182424575Y-53704629D01*
X182490035Y-53680210D01*
X182546339Y-53689333D01*
X182648309Y-53731570D01*
X182648318Y-53731573D01*
X182841504Y-53769999D01*
X182841508Y-53770000D01*
X183038492Y-53770000D01*
X183038495Y-53769999D01*
X183231681Y-53731572D01*
X183231693Y-53731569D01*
X183413676Y-53656190D01*
X183413680Y-53656187D01*
X183449019Y-53632573D01*
X183449019Y-53632571D01*
X182911447Y-53095000D01*
X182982787Y-53095000D01*
X183065445Y-53072851D01*
X183139554Y-53030064D01*
X183200064Y-52969554D01*
X183242851Y-52895445D01*
X183265000Y-52812787D01*
X183265000Y-52727213D01*
X183242851Y-52644555D01*
X183200064Y-52570446D01*
X183139554Y-52509936D01*
X183101514Y-52487973D01*
X183168582Y-52474632D01*
X183231835Y-52462051D01*
X183286959Y-52439217D01*
X183356427Y-52431749D01*
X183418907Y-52463024D01*
X183454559Y-52523113D01*
X183452065Y-52592938D01*
X183422093Y-52641460D01*
X183293553Y-52770000D01*
X183575000Y-53051446D01*
X183575001Y-53051446D01*
X183856446Y-52770001D01*
X183856446Y-52770000D01*
X183727905Y-52641459D01*
X183694421Y-52580136D01*
X183699405Y-52510444D01*
X183741277Y-52454511D01*
X183806741Y-52430094D01*
X183863037Y-52439216D01*
X183918165Y-52462051D01*
X183918169Y-52462051D01*
X183918170Y-52462052D01*
X184048485Y-52487973D01*
X184010446Y-52509936D01*
X183949936Y-52570446D01*
X183907149Y-52644555D01*
X183885000Y-52727213D01*
X183885000Y-52812787D01*
X183907149Y-52895445D01*
X183949936Y-52969554D01*
X184010446Y-53030064D01*
X184084555Y-53072851D01*
X184167213Y-53095000D01*
X184238552Y-53095000D01*
X183700978Y-53632571D01*
X183736328Y-53656192D01*
X183918306Y-53731569D01*
X183918318Y-53731572D01*
X184111504Y-53769999D01*
X184111508Y-53770000D01*
X184308492Y-53770000D01*
X184308495Y-53769999D01*
X184501681Y-53731572D01*
X184501693Y-53731569D01*
X184683673Y-53656191D01*
X184683676Y-53656189D01*
X184775657Y-53594729D01*
X184842334Y-53573850D01*
X184909715Y-53592334D01*
X184913440Y-53594728D01*
X185006079Y-53656628D01*
X185006092Y-53656635D01*
X185187011Y-53731573D01*
X185188165Y-53732051D01*
X185188169Y-53732051D01*
X185188170Y-53732052D01*
X185381456Y-53770500D01*
X185381459Y-53770500D01*
X185578543Y-53770500D01*
X185708582Y-53744632D01*
X185771835Y-53732051D01*
X185953914Y-53656632D01*
X185953919Y-53656628D01*
X185953922Y-53656627D01*
X185995000Y-53629179D01*
X186046559Y-53594728D01*
X186113234Y-53573850D01*
X186180614Y-53592334D01*
X186184341Y-53594728D01*
X186276321Y-53656188D01*
X186276328Y-53656192D01*
X186458306Y-53731569D01*
X186458318Y-53731572D01*
X186651504Y-53769999D01*
X186651508Y-53770000D01*
X186848492Y-53770000D01*
X186848495Y-53769999D01*
X187041681Y-53731572D01*
X187041693Y-53731569D01*
X187223676Y-53656190D01*
X187223680Y-53656187D01*
X187259019Y-53632573D01*
X187259020Y-53632572D01*
X186721447Y-53095000D01*
X186792787Y-53095000D01*
X186875445Y-53072851D01*
X186949554Y-53030064D01*
X187010064Y-52969554D01*
X187052851Y-52895445D01*
X187075000Y-52812787D01*
X187075000Y-52741447D01*
X187612572Y-53279020D01*
X187612573Y-53279019D01*
X187636187Y-53243680D01*
X187636190Y-53243676D01*
X187660939Y-53183927D01*
X187704780Y-53129523D01*
X187771074Y-53107458D01*
X187838773Y-53124737D01*
X187886384Y-53175874D01*
X187899500Y-53231379D01*
X187899500Y-54949902D01*
X187879815Y-55016941D01*
X187863181Y-55037583D01*
X187485339Y-55415425D01*
X187424016Y-55448910D01*
X187421850Y-55449361D01*
X187266508Y-55480261D01*
X187266498Y-55480264D01*
X187120827Y-55540602D01*
X187120814Y-55540609D01*
X186989711Y-55628210D01*
X186989707Y-55628213D01*
X186878213Y-55739707D01*
X186878210Y-55739711D01*
X186790609Y-55870814D01*
X186790602Y-55870827D01*
X186730264Y-56016498D01*
X186730261Y-56016510D01*
X186699500Y-56171153D01*
X186699500Y-56328846D01*
X186730261Y-56483489D01*
X186730264Y-56483501D01*
X186790602Y-56629172D01*
X186790609Y-56629185D01*
X186878210Y-56760288D01*
X186878213Y-56760292D01*
X186989707Y-56871786D01*
X186989711Y-56871789D01*
X187120814Y-56959390D01*
X187120827Y-56959397D01*
X187266498Y-57019735D01*
X187266503Y-57019737D01*
X187421153Y-57050499D01*
X187421156Y-57050500D01*
X187421158Y-57050500D01*
X187578844Y-57050500D01*
X187578845Y-57050499D01*
X187733497Y-57019737D01*
X187879179Y-56959394D01*
X188010289Y-56871789D01*
X188121789Y-56760289D01*
X188209394Y-56629179D01*
X188269737Y-56483497D01*
X188299533Y-56333705D01*
X188300638Y-56328150D01*
X188333023Y-56266239D01*
X188334515Y-56264719D01*
X188980520Y-55618716D01*
X189059577Y-55481784D01*
X189100501Y-55329057D01*
X189100501Y-55196757D01*
X189120186Y-55129718D01*
X189172990Y-55083963D01*
X189242148Y-55074019D01*
X189301812Y-55099809D01*
X189434836Y-55205892D01*
X189691659Y-55367265D01*
X189964935Y-55498868D01*
X190179951Y-55574105D01*
X190251216Y-55599042D01*
X190251228Y-55599046D01*
X190546937Y-55666540D01*
X190546946Y-55666541D01*
X190546951Y-55666542D01*
X190747404Y-55689127D01*
X190848337Y-55700499D01*
X190848340Y-55700500D01*
X190848343Y-55700500D01*
X191151660Y-55700500D01*
X191151661Y-55700499D01*
X191305694Y-55683144D01*
X191453048Y-55666542D01*
X191453051Y-55666541D01*
X191453063Y-55666540D01*
X191748772Y-55599046D01*
X192035065Y-55498868D01*
X192308341Y-55367265D01*
X192565164Y-55205892D01*
X192802304Y-55016779D01*
X193016779Y-54802304D01*
X193205892Y-54565164D01*
X193270506Y-54462330D01*
X193322840Y-54416040D01*
X193391894Y-54405391D01*
X193455742Y-54433766D01*
X193494115Y-54492156D01*
X193499500Y-54528303D01*
X193499500Y-69577637D01*
X193479815Y-69644676D01*
X193427011Y-69690431D01*
X193357853Y-69700375D01*
X193294297Y-69671350D01*
X193287819Y-69665318D01*
X189273307Y-65650806D01*
X189273303Y-65650803D01*
X189272036Y-65649536D01*
X189197898Y-65599999D01*
X189190339Y-65594948D01*
X189124544Y-65550985D01*
X189124542Y-65550984D01*
X189042607Y-65517046D01*
X189042606Y-65517046D01*
X188960666Y-65483105D01*
X188960658Y-65483103D01*
X188786696Y-65448500D01*
X188786692Y-65448500D01*
X188786691Y-65448500D01*
X166914066Y-65448500D01*
X166736683Y-65448500D01*
X166736678Y-65448500D01*
X166562713Y-65483103D01*
X166562697Y-65483108D01*
X166446827Y-65531102D01*
X166446828Y-65531103D01*
X166398828Y-65550986D01*
X166398827Y-65550987D01*
X166333034Y-65594949D01*
X166251338Y-65649535D01*
X166251335Y-65649538D01*
X162521602Y-69379270D01*
X162507603Y-69386914D01*
X162496676Y-69398537D01*
X162477565Y-69403315D01*
X162460279Y-69412755D01*
X162444368Y-69411617D01*
X162428893Y-69415487D01*
X162410235Y-69409176D01*
X162390587Y-69407771D01*
X162377030Y-69397944D01*
X162362707Y-69393100D01*
X162346230Y-69375620D01*
X162336993Y-69368925D01*
X162304092Y-69327689D01*
X162293401Y-69301522D01*
X162279854Y-69276711D01*
X162280362Y-69269603D01*
X162277668Y-69263009D01*
X162282821Y-69235218D01*
X162284838Y-69207019D01*
X162289353Y-69199994D01*
X162290407Y-69194311D01*
X162298622Y-69185572D01*
X162313343Y-69162668D01*
X162322968Y-69153044D01*
X162412003Y-69008697D01*
X162465349Y-68847708D01*
X162475500Y-68748345D01*
X162475499Y-68201656D01*
X162465349Y-68102292D01*
X162412003Y-67941303D01*
X162411999Y-67941297D01*
X162411998Y-67941294D01*
X162322970Y-67796959D01*
X162322967Y-67796955D01*
X162203044Y-67677032D01*
X162203040Y-67677029D01*
X162141384Y-67638999D01*
X162094659Y-67587051D01*
X162083438Y-67518089D01*
X162091918Y-67486012D01*
X162144737Y-67358497D01*
X162175500Y-67203842D01*
X162175500Y-67046158D01*
X162175500Y-67046155D01*
X162175499Y-67046153D01*
X162144738Y-66891510D01*
X162144737Y-66891503D01*
X162103067Y-66790901D01*
X162084397Y-66745827D01*
X162084390Y-66745814D01*
X161996789Y-66614711D01*
X161996786Y-66614707D01*
X161885292Y-66503213D01*
X161885288Y-66503210D01*
X161848460Y-66478602D01*
X161803655Y-66424989D01*
X161794948Y-66355664D01*
X161825103Y-66292637D01*
X161884546Y-66255918D01*
X161917351Y-66251500D01*
X163262331Y-66251500D01*
X163262347Y-66251501D01*
X163269943Y-66251501D01*
X163428054Y-66251501D01*
X163428057Y-66251501D01*
X163580785Y-66210577D01*
X163630904Y-66181639D01*
X163717716Y-66131520D01*
X163829520Y-66019716D01*
X163829520Y-66019714D01*
X163839728Y-66009507D01*
X163839730Y-66009504D01*
X165844583Y-64004650D01*
X165884807Y-63977773D01*
X165929182Y-63959394D01*
X166060292Y-63871789D01*
X166171792Y-63760289D01*
X166259397Y-63629179D01*
X166319740Y-63483497D01*
X166350503Y-63328842D01*
X166350503Y-63171158D01*
X166350503Y-63171155D01*
X166350502Y-63171153D01*
X166332002Y-63078150D01*
X166319740Y-63016503D01*
X166280245Y-62921153D01*
X179949500Y-62921153D01*
X179949500Y-63078846D01*
X179980261Y-63233489D01*
X179980264Y-63233501D01*
X180040602Y-63379172D01*
X180040609Y-63379185D01*
X180128210Y-63510288D01*
X180128213Y-63510292D01*
X180239707Y-63621786D01*
X180239711Y-63621789D01*
X180370814Y-63709390D01*
X180370827Y-63709397D01*
X180516498Y-63769735D01*
X180516503Y-63769737D01*
X180671153Y-63800499D01*
X180671156Y-63800500D01*
X180671158Y-63800500D01*
X180828844Y-63800500D01*
X180828845Y-63800499D01*
X180983497Y-63769737D01*
X181129179Y-63709394D01*
X181260289Y-63621789D01*
X181371789Y-63510289D01*
X181459394Y-63379179D01*
X181519737Y-63233497D01*
X181548468Y-63089059D01*
X181550638Y-63078150D01*
X181583023Y-63016239D01*
X181584524Y-63014710D01*
X181858506Y-62740727D01*
X181858511Y-62740724D01*
X181868714Y-62730520D01*
X181868716Y-62730520D01*
X181980520Y-62618716D01*
X182025619Y-62540602D01*
X182037813Y-62519482D01*
X182037814Y-62519480D01*
X182059574Y-62481790D01*
X182059573Y-62481790D01*
X182059577Y-62481785D01*
X182100500Y-62329057D01*
X182100500Y-62170943D01*
X182100500Y-58413389D01*
X189124500Y-58413389D01*
X189124500Y-58586611D01*
X189151598Y-58757701D01*
X189205127Y-58922445D01*
X189283768Y-59076788D01*
X189385586Y-59216928D01*
X189508072Y-59339414D01*
X189508078Y-59339418D01*
X189591023Y-59399683D01*
X189633689Y-59455013D01*
X189639667Y-59524626D01*
X189607061Y-59586421D01*
X189591023Y-59600317D01*
X189508078Y-59660581D01*
X189508069Y-59660588D01*
X189385588Y-59783069D01*
X189385588Y-59783070D01*
X189385586Y-59783072D01*
X189341859Y-59843256D01*
X189283768Y-59923211D01*
X189205128Y-60077552D01*
X189151597Y-60242302D01*
X189124500Y-60413389D01*
X189124500Y-60586610D01*
X189148748Y-60739711D01*
X189151598Y-60757701D01*
X189205127Y-60922445D01*
X189283768Y-61076788D01*
X189385586Y-61216928D01*
X189508072Y-61339414D01*
X189508078Y-61339418D01*
X189591023Y-61399683D01*
X189633689Y-61455013D01*
X189639667Y-61524626D01*
X189607061Y-61586421D01*
X189591023Y-61600317D01*
X189508078Y-61660581D01*
X189508069Y-61660588D01*
X189385588Y-61783069D01*
X189385588Y-61783070D01*
X189385586Y-61783072D01*
X189341859Y-61843256D01*
X189283768Y-61923211D01*
X189205128Y-62077552D01*
X189151597Y-62242302D01*
X189124500Y-62413389D01*
X189124500Y-62586610D01*
X189148748Y-62739711D01*
X189151598Y-62757701D01*
X189205127Y-62922445D01*
X189283768Y-63076788D01*
X189385586Y-63216928D01*
X189385588Y-63216930D01*
X189493491Y-63324833D01*
X189526976Y-63386156D01*
X189521992Y-63455848D01*
X189480120Y-63511781D01*
X189470907Y-63518053D01*
X189406654Y-63557684D01*
X189282684Y-63681654D01*
X189190643Y-63830875D01*
X189190641Y-63830880D01*
X189135494Y-63997302D01*
X189135493Y-63997309D01*
X189125000Y-64100013D01*
X189125000Y-64250000D01*
X190219670Y-64250000D01*
X190199925Y-64269745D01*
X190150556Y-64355255D01*
X190125000Y-64450630D01*
X190125000Y-64549370D01*
X190150556Y-64644745D01*
X190199925Y-64730255D01*
X190219670Y-64750000D01*
X189125001Y-64750000D01*
X189125001Y-64899986D01*
X189135494Y-65002697D01*
X189190641Y-65169119D01*
X189190643Y-65169124D01*
X189282684Y-65318345D01*
X189404016Y-65439677D01*
X189417607Y-65449071D01*
X189555875Y-65534356D01*
X189555880Y-65534358D01*
X189722302Y-65589505D01*
X189722309Y-65589506D01*
X189825019Y-65599999D01*
X190249999Y-65599999D01*
X190250000Y-65599998D01*
X190250000Y-64780330D01*
X190269745Y-64800075D01*
X190355255Y-64849444D01*
X190450630Y-64875000D01*
X190549370Y-64875000D01*
X190644745Y-64849444D01*
X190730255Y-64800075D01*
X190750000Y-64780330D01*
X190750000Y-65599999D01*
X191174972Y-65599999D01*
X191174986Y-65599998D01*
X191277697Y-65589505D01*
X191444119Y-65534358D01*
X191444124Y-65534356D01*
X191593345Y-65442315D01*
X191717315Y-65318345D01*
X191809356Y-65169124D01*
X191809358Y-65169119D01*
X191864505Y-65002697D01*
X191864506Y-65002690D01*
X191874999Y-64899986D01*
X191875000Y-64899973D01*
X191875000Y-64750000D01*
X190780330Y-64750000D01*
X190800075Y-64730255D01*
X190849444Y-64644745D01*
X190875000Y-64549370D01*
X190875000Y-64450630D01*
X190849444Y-64355255D01*
X190800075Y-64269745D01*
X190780330Y-64250000D01*
X191874999Y-64250000D01*
X191874999Y-64100028D01*
X191874998Y-64100013D01*
X191864505Y-63997302D01*
X191809358Y-63830880D01*
X191809356Y-63830875D01*
X191717315Y-63681654D01*
X191593343Y-63557682D01*
X191529093Y-63518053D01*
X191482368Y-63466105D01*
X191471145Y-63397143D01*
X191498988Y-63333061D01*
X191506486Y-63324855D01*
X191614414Y-63216928D01*
X191716232Y-63076788D01*
X191794873Y-62922445D01*
X191848402Y-62757701D01*
X191875500Y-62586611D01*
X191875500Y-62413389D01*
X191848402Y-62242299D01*
X191794873Y-62077555D01*
X191716232Y-61923212D01*
X191614414Y-61783072D01*
X191491928Y-61660586D01*
X191408975Y-61600317D01*
X191366311Y-61544988D01*
X191360332Y-61475374D01*
X191392938Y-61413579D01*
X191408976Y-61399682D01*
X191491928Y-61339414D01*
X191614414Y-61216928D01*
X191716232Y-61076788D01*
X191794873Y-60922445D01*
X191848402Y-60757701D01*
X191875500Y-60586611D01*
X191875500Y-60413389D01*
X191848402Y-60242299D01*
X191794873Y-60077555D01*
X191716232Y-59923212D01*
X191614414Y-59783072D01*
X191491928Y-59660586D01*
X191408975Y-59600317D01*
X191366311Y-59544988D01*
X191360332Y-59475374D01*
X191392938Y-59413579D01*
X191408976Y-59399682D01*
X191491928Y-59339414D01*
X191614414Y-59216928D01*
X191716232Y-59076788D01*
X191794873Y-58922445D01*
X191848402Y-58757701D01*
X191875500Y-58586611D01*
X191875500Y-58413389D01*
X191848402Y-58242299D01*
X191794873Y-58077555D01*
X191716232Y-57923212D01*
X191614414Y-57783072D01*
X191491928Y-57660586D01*
X191351788Y-57558768D01*
X191197445Y-57480127D01*
X191032701Y-57426598D01*
X191032699Y-57426597D01*
X191032698Y-57426597D01*
X190901271Y-57405781D01*
X190861611Y-57399500D01*
X190138389Y-57399500D01*
X190098728Y-57405781D01*
X189967302Y-57426597D01*
X189802552Y-57480128D01*
X189648211Y-57558768D01*
X189626557Y-57574501D01*
X189508072Y-57660586D01*
X189508070Y-57660588D01*
X189508069Y-57660588D01*
X189385588Y-57783069D01*
X189385588Y-57783070D01*
X189385586Y-57783072D01*
X189346167Y-57837327D01*
X189283768Y-57923211D01*
X189205128Y-58077552D01*
X189151597Y-58242302D01*
X189150117Y-58251647D01*
X189124500Y-58413389D01*
X182100500Y-58413389D01*
X182100500Y-55579765D01*
X182120185Y-55512726D01*
X182121398Y-55510874D01*
X182209390Y-55379185D01*
X182209390Y-55379184D01*
X182209394Y-55379179D01*
X182214329Y-55367266D01*
X182230156Y-55329055D01*
X182269737Y-55233497D01*
X182300500Y-55078842D01*
X182300500Y-54921158D01*
X182300500Y-54921155D01*
X182300499Y-54921153D01*
X182269738Y-54766510D01*
X182269737Y-54766503D01*
X182210134Y-54622607D01*
X182209397Y-54620827D01*
X182209390Y-54620814D01*
X182121789Y-54489711D01*
X182121786Y-54489707D01*
X182010292Y-54378213D01*
X182010288Y-54378210D01*
X181879185Y-54290609D01*
X181879172Y-54290602D01*
X181733501Y-54230264D01*
X181733489Y-54230261D01*
X181578845Y-54199500D01*
X181578842Y-54199500D01*
X181421158Y-54199500D01*
X181421155Y-54199500D01*
X181266510Y-54230261D01*
X181266498Y-54230264D01*
X181120827Y-54290602D01*
X181120814Y-54290609D01*
X180989711Y-54378210D01*
X180989707Y-54378213D01*
X180878213Y-54489707D01*
X180878210Y-54489711D01*
X180790609Y-54620814D01*
X180790602Y-54620827D01*
X180730264Y-54766498D01*
X180730261Y-54766510D01*
X180699500Y-54921153D01*
X180699500Y-55078846D01*
X180730261Y-55233489D01*
X180730264Y-55233501D01*
X180790602Y-55379172D01*
X180790609Y-55379185D01*
X180878602Y-55510874D01*
X180899480Y-55577551D01*
X180899500Y-55579765D01*
X180899500Y-61949903D01*
X180879815Y-62016942D01*
X180863185Y-62037579D01*
X180735339Y-62165426D01*
X180674016Y-62198910D01*
X180671850Y-62199361D01*
X180516508Y-62230261D01*
X180516498Y-62230264D01*
X180370827Y-62290602D01*
X180370814Y-62290609D01*
X180239711Y-62378210D01*
X180239707Y-62378213D01*
X180128213Y-62489707D01*
X180128210Y-62489711D01*
X180040609Y-62620814D01*
X180040602Y-62620827D01*
X179980264Y-62766498D01*
X179980261Y-62766510D01*
X179949500Y-62921153D01*
X166280245Y-62921153D01*
X166262458Y-62878210D01*
X166259400Y-62870827D01*
X166259393Y-62870814D01*
X166171792Y-62739711D01*
X166171789Y-62739707D01*
X166060295Y-62628213D01*
X166060291Y-62628210D01*
X165929188Y-62540609D01*
X165929175Y-62540602D01*
X165783504Y-62480264D01*
X165783492Y-62480261D01*
X165628848Y-62449500D01*
X165628845Y-62449500D01*
X165471161Y-62449500D01*
X165471158Y-62449500D01*
X165316513Y-62480261D01*
X165316501Y-62480264D01*
X165197453Y-62529575D01*
X165127983Y-62537044D01*
X165102549Y-62529575D01*
X164983501Y-62480264D01*
X164983489Y-62480261D01*
X164828845Y-62449500D01*
X164828842Y-62449500D01*
X164671158Y-62449500D01*
X164671155Y-62449500D01*
X164516510Y-62480261D01*
X164516498Y-62480264D01*
X164370827Y-62540602D01*
X164370814Y-62540609D01*
X164239711Y-62628210D01*
X164239707Y-62628213D01*
X164128213Y-62739707D01*
X164128210Y-62739711D01*
X164040609Y-62870814D01*
X164040602Y-62870827D01*
X163980264Y-63016498D01*
X163980261Y-63016508D01*
X163949361Y-63171850D01*
X163916976Y-63233761D01*
X163915425Y-63235339D01*
X163512181Y-63638584D01*
X163450858Y-63672069D01*
X163381167Y-63667085D01*
X163325233Y-63625214D01*
X163300816Y-63559749D01*
X163300500Y-63550903D01*
X163300500Y-63421155D01*
X163300499Y-63421153D01*
X163282137Y-63328842D01*
X163269737Y-63266503D01*
X163269735Y-63266498D01*
X163209397Y-63120827D01*
X163209390Y-63120814D01*
X163121789Y-62989711D01*
X163121786Y-62989707D01*
X163010292Y-62878213D01*
X163010288Y-62878210D01*
X162879185Y-62790609D01*
X162879172Y-62790602D01*
X162733501Y-62730264D01*
X162733489Y-62730261D01*
X162578845Y-62699500D01*
X162578842Y-62699500D01*
X162574838Y-62699500D01*
X162572816Y-62698906D01*
X162572782Y-62698903D01*
X162572782Y-62698896D01*
X162507799Y-62679815D01*
X162462044Y-62627011D01*
X162460275Y-62622949D01*
X162459394Y-62620821D01*
X162459391Y-62620816D01*
X162459390Y-62620814D01*
X162371789Y-62489711D01*
X162371786Y-62489707D01*
X162260292Y-62378213D01*
X162260288Y-62378210D01*
X162129185Y-62290609D01*
X162129172Y-62290602D01*
X161983501Y-62230264D01*
X161983489Y-62230261D01*
X161828845Y-62199500D01*
X161828842Y-62199500D01*
X161671158Y-62199500D01*
X161671155Y-62199500D01*
X161516510Y-62230261D01*
X161516498Y-62230264D01*
X161370827Y-62290602D01*
X161370814Y-62290609D01*
X161239125Y-62378602D01*
X161172447Y-62399480D01*
X161170234Y-62399500D01*
X156336669Y-62399500D01*
X156336653Y-62399499D01*
X156329057Y-62399499D01*
X156170943Y-62399499D01*
X156063587Y-62428265D01*
X156018210Y-62440424D01*
X156018209Y-62440425D01*
X155968096Y-62469359D01*
X155968095Y-62469360D01*
X155932853Y-62489707D01*
X155881285Y-62519479D01*
X153977083Y-64423681D01*
X153915760Y-64457166D01*
X153889402Y-64460000D01*
X152933012Y-64460000D01*
X152965925Y-64402993D01*
X153000000Y-64275826D01*
X153000000Y-64144174D01*
X152965925Y-64017007D01*
X152933012Y-63960000D01*
X153850000Y-63960000D01*
X153850000Y-63312172D01*
X153849999Y-63312155D01*
X153843598Y-63252627D01*
X153843596Y-63252620D01*
X153793354Y-63117913D01*
X153793350Y-63117906D01*
X153707190Y-63002812D01*
X153707187Y-63002809D01*
X153592093Y-62916649D01*
X153592086Y-62916645D01*
X153457379Y-62866403D01*
X153457372Y-62866401D01*
X153397844Y-62860000D01*
X152750000Y-62860000D01*
X152750000Y-63776988D01*
X152692993Y-63744075D01*
X152565826Y-63710000D01*
X152434174Y-63710000D01*
X152307007Y-63744075D01*
X152250000Y-63776988D01*
X152250000Y-62860000D01*
X151602155Y-62860000D01*
X151542627Y-62866401D01*
X151542620Y-62866403D01*
X151407913Y-62916645D01*
X151407906Y-62916649D01*
X151292812Y-63002809D01*
X151292809Y-63002812D01*
X151206649Y-63117906D01*
X151206645Y-63117913D01*
X151156403Y-63252620D01*
X151156401Y-63252627D01*
X151150000Y-63312155D01*
X151150000Y-63960000D01*
X152066988Y-63960000D01*
X152034075Y-64017007D01*
X152000000Y-64144174D01*
X152000000Y-64275826D01*
X152034075Y-64402993D01*
X152066988Y-64460000D01*
X151150000Y-64460000D01*
X151150000Y-65107844D01*
X151156401Y-65167372D01*
X151156403Y-65167379D01*
X151206645Y-65302086D01*
X151206649Y-65302093D01*
X151292809Y-65417187D01*
X151292812Y-65417190D01*
X151407906Y-65503350D01*
X151407913Y-65503354D01*
X151539470Y-65552422D01*
X151595404Y-65594293D01*
X151619821Y-65659758D01*
X151604969Y-65728031D01*
X151583819Y-65756285D01*
X151469889Y-65870215D01*
X151344951Y-66042179D01*
X151248444Y-66231585D01*
X151182753Y-66433760D01*
X151171753Y-66503211D01*
X151149500Y-66643713D01*
X151149500Y-66856287D01*
X151182754Y-67066243D01*
X151227463Y-67203844D01*
X151248444Y-67268414D01*
X151344951Y-67457820D01*
X151469890Y-67629786D01*
X151620213Y-67780109D01*
X151792182Y-67905050D01*
X151800946Y-67909516D01*
X151851742Y-67957491D01*
X151868536Y-68025312D01*
X151845998Y-68091447D01*
X151800946Y-68130484D01*
X151792182Y-68134949D01*
X151620213Y-68259890D01*
X151469890Y-68410213D01*
X151344951Y-68582179D01*
X151248444Y-68771585D01*
X151182753Y-68973760D01*
X151152833Y-69162672D01*
X151149500Y-69183713D01*
X151149500Y-69396287D01*
X151153439Y-69421155D01*
X151178414Y-69578846D01*
X151182754Y-69606243D01*
X151246205Y-69801525D01*
X151248444Y-69808414D01*
X151344951Y-69997820D01*
X151469890Y-70169786D01*
X151620213Y-70320109D01*
X151792179Y-70445048D01*
X151792181Y-70445049D01*
X151792184Y-70445051D01*
X151981588Y-70541557D01*
X152183757Y-70607246D01*
X152393713Y-70640500D01*
X152393714Y-70640500D01*
X152606286Y-70640500D01*
X152606287Y-70640500D01*
X152816243Y-70607246D01*
X153018412Y-70541557D01*
X153207816Y-70445051D01*
X153251395Y-70413389D01*
X153379786Y-70320109D01*
X153379788Y-70320106D01*
X153379792Y-70320104D01*
X153437819Y-70262077D01*
X153499142Y-70228592D01*
X153568834Y-70233576D01*
X153624767Y-70275448D01*
X153649184Y-70340912D01*
X153649500Y-70349758D01*
X153649500Y-70949902D01*
X153629815Y-71016941D01*
X153613181Y-71037583D01*
X152212681Y-72438083D01*
X152151358Y-72471568D01*
X152081666Y-72466584D01*
X152037319Y-72438083D01*
X150386819Y-70787583D01*
X150353334Y-70726260D01*
X150350500Y-70699902D01*
X150350500Y-63300097D01*
X150370185Y-63233058D01*
X150386819Y-63212416D01*
X151185846Y-62413389D01*
X152014664Y-61584571D01*
X152075985Y-61551088D01*
X152078152Y-61550637D01*
X152078841Y-61550500D01*
X152078842Y-61550500D01*
X152233497Y-61519737D01*
X152379179Y-61459394D01*
X152510289Y-61371789D01*
X152621789Y-61260289D01*
X152709394Y-61129179D01*
X152769737Y-60983497D01*
X152800500Y-60828842D01*
X152800500Y-60671158D01*
X152800500Y-60671155D01*
X152800499Y-60671153D01*
X152769738Y-60516510D01*
X152769738Y-60516508D01*
X152769737Y-60516503D01*
X152727026Y-60413389D01*
X152709397Y-60370827D01*
X152709390Y-60370814D01*
X152621789Y-60239711D01*
X152621786Y-60239707D01*
X152510292Y-60128213D01*
X152510288Y-60128210D01*
X152379185Y-60040609D01*
X152379172Y-60040602D01*
X152233501Y-59980264D01*
X152233489Y-59980261D01*
X152078845Y-59949500D01*
X152078842Y-59949500D01*
X151921158Y-59949500D01*
X151921155Y-59949500D01*
X151766510Y-59980261D01*
X151766498Y-59980264D01*
X151620827Y-60040602D01*
X151620814Y-60040609D01*
X151489711Y-60128210D01*
X151489707Y-60128213D01*
X151378213Y-60239707D01*
X151378210Y-60239711D01*
X151290609Y-60370814D01*
X151290602Y-60370827D01*
X151230264Y-60516498D01*
X151230261Y-60516508D01*
X151199362Y-60671848D01*
X151166977Y-60733759D01*
X151165426Y-60735337D01*
X149381286Y-62519478D01*
X149269481Y-62631282D01*
X149269479Y-62631284D01*
X149241797Y-62679232D01*
X149230096Y-62699500D01*
X149190423Y-62768215D01*
X149149499Y-62920943D01*
X149149499Y-62920945D01*
X149149499Y-63089046D01*
X149149500Y-63089059D01*
X149149500Y-70913330D01*
X149149499Y-70913348D01*
X149149499Y-71079054D01*
X149149498Y-71079054D01*
X149186442Y-71216930D01*
X149190423Y-71231785D01*
X149215869Y-71275858D01*
X149252561Y-71339411D01*
X149269479Y-71368714D01*
X149269481Y-71368717D01*
X149388349Y-71487585D01*
X149388355Y-71487590D01*
X151363181Y-73462416D01*
X151396666Y-73523739D01*
X151399500Y-73550097D01*
X151399500Y-78420234D01*
X151379815Y-78487273D01*
X151378602Y-78489125D01*
X151290609Y-78620814D01*
X151290602Y-78620827D01*
X151230264Y-78766498D01*
X151230261Y-78766510D01*
X151199500Y-78921153D01*
X151199500Y-79078846D01*
X151230261Y-79233489D01*
X151230264Y-79233501D01*
X151290602Y-79379172D01*
X151290609Y-79379184D01*
X151342343Y-79456609D01*
X151363221Y-79523286D01*
X151344737Y-79590666D01*
X151292758Y-79637357D01*
X151239241Y-79649500D01*
X149829766Y-79649500D01*
X149762727Y-79629815D01*
X149760875Y-79628602D01*
X149629185Y-79540609D01*
X149629172Y-79540602D01*
X149483501Y-79480264D01*
X149483489Y-79480261D01*
X149328845Y-79449500D01*
X149328842Y-79449500D01*
X149171158Y-79449500D01*
X149171155Y-79449500D01*
X149016510Y-79480261D01*
X149016498Y-79480264D01*
X148870827Y-79540602D01*
X148870814Y-79540609D01*
X148739711Y-79628210D01*
X148739707Y-79628213D01*
X148628213Y-79739707D01*
X148628210Y-79739711D01*
X148540609Y-79870814D01*
X148540602Y-79870827D01*
X148480264Y-80016498D01*
X148480261Y-80016510D01*
X148449500Y-80171153D01*
X148449500Y-80328846D01*
X148480261Y-80483489D01*
X148480264Y-80483501D01*
X148540602Y-80629172D01*
X148540609Y-80629185D01*
X148628210Y-80760288D01*
X148628213Y-80760292D01*
X148739707Y-80871786D01*
X148739711Y-80871789D01*
X148870814Y-80959390D01*
X148870827Y-80959397D01*
X148994054Y-81010439D01*
X149048458Y-81054280D01*
X149070523Y-81120574D01*
X149053244Y-81188273D01*
X149002107Y-81235884D01*
X148994054Y-81239561D01*
X148870827Y-81290602D01*
X148870814Y-81290609D01*
X148739711Y-81378210D01*
X148739707Y-81378213D01*
X148628213Y-81489707D01*
X148628210Y-81489711D01*
X148540609Y-81620814D01*
X148540602Y-81620827D01*
X148480264Y-81766498D01*
X148480261Y-81766510D01*
X148449500Y-81921153D01*
X148449500Y-82078846D01*
X148480261Y-82233489D01*
X148480264Y-82233501D01*
X148540602Y-82379172D01*
X148540609Y-82379185D01*
X148628210Y-82510288D01*
X148628213Y-82510292D01*
X148739707Y-82621786D01*
X148739711Y-82621789D01*
X148870814Y-82709390D01*
X148870827Y-82709397D01*
X148987445Y-82757701D01*
X149016503Y-82769737D01*
X149171153Y-82800499D01*
X149171156Y-82800500D01*
X149171158Y-82800500D01*
X149328844Y-82800500D01*
X149328845Y-82800499D01*
X149483497Y-82769737D01*
X149629179Y-82709394D01*
X149665687Y-82685000D01*
X149760875Y-82621398D01*
X149827553Y-82600520D01*
X149829766Y-82600500D01*
X150330374Y-82600500D01*
X150330390Y-82600501D01*
X150337986Y-82600501D01*
X150496097Y-82600501D01*
X150496100Y-82600501D01*
X150648828Y-82559577D01*
X150698947Y-82530639D01*
X150785759Y-82480520D01*
X150897563Y-82368716D01*
X150897563Y-82368714D01*
X150907771Y-82358507D01*
X150907772Y-82358504D01*
X153980520Y-79285759D01*
X154059577Y-79148827D01*
X154100501Y-78996100D01*
X154100501Y-78837985D01*
X154100501Y-78830390D01*
X154100500Y-78830372D01*
X154100500Y-76003439D01*
X154120185Y-75936400D01*
X154172989Y-75890645D01*
X154242147Y-75880701D01*
X154305703Y-75909726D01*
X154327602Y-75934548D01*
X154378210Y-76010288D01*
X154378213Y-76010292D01*
X154489707Y-76121786D01*
X154489711Y-76121789D01*
X154620814Y-76209390D01*
X154620827Y-76209397D01*
X154766498Y-76269735D01*
X154766503Y-76269737D01*
X154896982Y-76295691D01*
X154921153Y-76300499D01*
X154921156Y-76300500D01*
X154921158Y-76300500D01*
X155078844Y-76300500D01*
X155078845Y-76300499D01*
X155233497Y-76269737D01*
X155233509Y-76269731D01*
X155239324Y-76267969D01*
X155240158Y-76270720D01*
X155297359Y-76264497D01*
X155359878Y-76295691D01*
X155395608Y-76355734D01*
X155399500Y-76386555D01*
X155399500Y-81700011D01*
X155379815Y-81767050D01*
X155363181Y-81787692D01*
X153799867Y-83351005D01*
X153738544Y-83384490D01*
X153668852Y-83379506D01*
X153624505Y-83351005D01*
X153574038Y-83300538D01*
X153574034Y-83300535D01*
X153426553Y-83201990D01*
X153426540Y-83201983D01*
X153262667Y-83134106D01*
X153262658Y-83134103D01*
X153088694Y-83099500D01*
X153088691Y-83099500D01*
X152911309Y-83099500D01*
X152911306Y-83099500D01*
X152737341Y-83134103D01*
X152737332Y-83134106D01*
X152573459Y-83201983D01*
X152573446Y-83201990D01*
X152425966Y-83300534D01*
X152410184Y-83316317D01*
X152363318Y-83363182D01*
X152301998Y-83396666D01*
X152275639Y-83399500D01*
X147474000Y-83399500D01*
X147406961Y-83379815D01*
X147361206Y-83327011D01*
X147350000Y-83275500D01*
X147350000Y-83211128D01*
X147349999Y-83211126D01*
X147321179Y-83066240D01*
X147321178Y-83066236D01*
X147277577Y-82960975D01*
X146875373Y-83363181D01*
X146814050Y-83396666D01*
X146787692Y-83399500D01*
X146370446Y-83399500D01*
X146303407Y-83379815D01*
X146257652Y-83327011D01*
X146249087Y-83287641D01*
X146226555Y-83265109D01*
X146500000Y-83265109D01*
X146500000Y-83304891D01*
X146515224Y-83341645D01*
X146543355Y-83369776D01*
X146580109Y-83385000D01*
X146619891Y-83385000D01*
X146656645Y-83369776D01*
X146684776Y-83341645D01*
X146700000Y-83304891D01*
X146700000Y-83265109D01*
X146684776Y-83228355D01*
X146656645Y-83200224D01*
X146619891Y-83185000D01*
X146580109Y-83185000D01*
X146543355Y-83200224D01*
X146515224Y-83228355D01*
X146500000Y-83265109D01*
X146226555Y-83265109D01*
X146000000Y-83038554D01*
X145749604Y-83288949D01*
X145733869Y-83342539D01*
X145681065Y-83388294D01*
X145629554Y-83399500D01*
X145212308Y-83399500D01*
X145145269Y-83379815D01*
X145124627Y-83363181D01*
X145026555Y-83265109D01*
X145300000Y-83265109D01*
X145300000Y-83304891D01*
X145315224Y-83341645D01*
X145343355Y-83369776D01*
X145380109Y-83385000D01*
X145419891Y-83385000D01*
X145456645Y-83369776D01*
X145484776Y-83341645D01*
X145500000Y-83304891D01*
X145500000Y-83265109D01*
X145484776Y-83228355D01*
X145456645Y-83200224D01*
X145419891Y-83185000D01*
X145380109Y-83185000D01*
X145343355Y-83200224D01*
X145315224Y-83228355D01*
X145300000Y-83265109D01*
X145026555Y-83265109D01*
X144722421Y-82960974D01*
X144673070Y-82970791D01*
X144603479Y-82964562D01*
X144561199Y-82936854D01*
X144309345Y-82685000D01*
X145153554Y-82685000D01*
X145400000Y-82931446D01*
X145646446Y-82685000D01*
X146353554Y-82685000D01*
X146600000Y-82931446D01*
X146846446Y-82685000D01*
X146600000Y-82438554D01*
X146353554Y-82685000D01*
X145646446Y-82685000D01*
X145400000Y-82438554D01*
X145153554Y-82685000D01*
X144309345Y-82685000D01*
X144186819Y-82562474D01*
X144153334Y-82501151D01*
X144150500Y-82474793D01*
X144150500Y-82011126D01*
X144650000Y-82011126D01*
X144650000Y-82158873D01*
X144678820Y-82303759D01*
X144678822Y-82303767D01*
X144722421Y-82409024D01*
X145046446Y-82085000D01*
X145046446Y-82084999D01*
X145026556Y-82065109D01*
X145300000Y-82065109D01*
X145300000Y-82104891D01*
X145315224Y-82141645D01*
X145343355Y-82169776D01*
X145380109Y-82185000D01*
X145419891Y-82185000D01*
X145456645Y-82169776D01*
X145484776Y-82141645D01*
X145500000Y-82104891D01*
X145500000Y-82085000D01*
X145753554Y-82085000D01*
X146000000Y-82331446D01*
X146246446Y-82085000D01*
X146226555Y-82065109D01*
X146500000Y-82065109D01*
X146500000Y-82104891D01*
X146515224Y-82141645D01*
X146543355Y-82169776D01*
X146580109Y-82185000D01*
X146619891Y-82185000D01*
X146656645Y-82169776D01*
X146684776Y-82141645D01*
X146700000Y-82104891D01*
X146700000Y-82084999D01*
X146953554Y-82084999D01*
X146953554Y-82085001D01*
X147277577Y-82409024D01*
X147277578Y-82409024D01*
X147321175Y-82303775D01*
X147321179Y-82303760D01*
X147349999Y-82158873D01*
X147350000Y-82158871D01*
X147350000Y-82011128D01*
X147349999Y-82011126D01*
X147321179Y-81866240D01*
X147321178Y-81866236D01*
X147277577Y-81760975D01*
X146953554Y-82084999D01*
X146700000Y-82084999D01*
X146700000Y-82065109D01*
X146684776Y-82028355D01*
X146656645Y-82000224D01*
X146619891Y-81985000D01*
X146580109Y-81985000D01*
X146543355Y-82000224D01*
X146515224Y-82028355D01*
X146500000Y-82065109D01*
X146226555Y-82065109D01*
X146000000Y-81838554D01*
X145753554Y-82085000D01*
X145500000Y-82085000D01*
X145500000Y-82065109D01*
X145484776Y-82028355D01*
X145456645Y-82000224D01*
X145419891Y-81985000D01*
X145380109Y-81985000D01*
X145343355Y-82000224D01*
X145315224Y-82028355D01*
X145300000Y-82065109D01*
X145026556Y-82065109D01*
X144722421Y-81760974D01*
X144722420Y-81760974D01*
X144678823Y-81866228D01*
X144678820Y-81866240D01*
X144650000Y-82011126D01*
X144150500Y-82011126D01*
X144150500Y-81615306D01*
X144122079Y-81472428D01*
X144115894Y-81441334D01*
X144101847Y-81407420D01*
X145075974Y-81407420D01*
X145075974Y-81407421D01*
X145400000Y-81731446D01*
X145400001Y-81731446D01*
X145724024Y-81407421D01*
X145724022Y-81407420D01*
X146275974Y-81407420D01*
X146275974Y-81407421D01*
X146600000Y-81731446D01*
X146600001Y-81731446D01*
X146924024Y-81407421D01*
X146818767Y-81363822D01*
X146818759Y-81363820D01*
X146673872Y-81335000D01*
X146526128Y-81335000D01*
X146381240Y-81363820D01*
X146381228Y-81363823D01*
X146275974Y-81407420D01*
X145724022Y-81407420D01*
X145618767Y-81363822D01*
X145618759Y-81363820D01*
X145473872Y-81335000D01*
X145326128Y-81335000D01*
X145181240Y-81363820D01*
X145181228Y-81363823D01*
X145075974Y-81407420D01*
X144101847Y-81407420D01*
X144089748Y-81378211D01*
X144048016Y-81277459D01*
X144048009Y-81277446D01*
X143949464Y-81129965D01*
X143949461Y-81129961D01*
X143824038Y-81004538D01*
X143768293Y-80967290D01*
X143723489Y-80913677D01*
X143714782Y-80844352D01*
X143744937Y-80781325D01*
X143749467Y-80776544D01*
X143822968Y-80703044D01*
X143912003Y-80558697D01*
X143965349Y-80397708D01*
X143975500Y-80298345D01*
X143975499Y-79751656D01*
X143974278Y-79739707D01*
X143965349Y-79652292D01*
X143965348Y-79652289D01*
X143957690Y-79629179D01*
X143912003Y-79491303D01*
X143911999Y-79491297D01*
X143911998Y-79491294D01*
X143822970Y-79346959D01*
X143822967Y-79346955D01*
X143813339Y-79337327D01*
X143779854Y-79276004D01*
X143784838Y-79206312D01*
X143813345Y-79161959D01*
X143822573Y-79152731D01*
X143911542Y-79008492D01*
X143911547Y-79008481D01*
X143964855Y-78847606D01*
X143974999Y-78748321D01*
X143975160Y-78745167D01*
X143975320Y-78745175D01*
X143975321Y-78745174D01*
X143975344Y-78745176D01*
X143976661Y-78745243D01*
X143994589Y-78683867D01*
X144047329Y-78638038D01*
X144116473Y-78627997D01*
X144164094Y-78645220D01*
X144191303Y-78662003D01*
X144279324Y-78691170D01*
X144352291Y-78715349D01*
X144356981Y-78715828D01*
X144380305Y-78718210D01*
X144444997Y-78744603D01*
X144455387Y-78753887D01*
X145087628Y-79386128D01*
X145121113Y-79447451D01*
X145121564Y-79449617D01*
X145134104Y-79512660D01*
X145134107Y-79512670D01*
X145201983Y-79676540D01*
X145201990Y-79676553D01*
X145300535Y-79824034D01*
X145300538Y-79824038D01*
X145425961Y-79949461D01*
X145425965Y-79949464D01*
X145573446Y-80048009D01*
X145573459Y-80048016D01*
X145683603Y-80093638D01*
X145737334Y-80115894D01*
X145737336Y-80115894D01*
X145737341Y-80115896D01*
X145911304Y-80150499D01*
X145911307Y-80150500D01*
X145911309Y-80150500D01*
X146088693Y-80150500D01*
X146088694Y-80150499D01*
X146146682Y-80138964D01*
X146262658Y-80115896D01*
X146262661Y-80115894D01*
X146262666Y-80115894D01*
X146426547Y-80048013D01*
X146574035Y-79949464D01*
X146699464Y-79824035D01*
X146798013Y-79676547D01*
X146865894Y-79512666D01*
X146870144Y-79491303D01*
X146898856Y-79346955D01*
X146900500Y-79338691D01*
X146900500Y-78803964D01*
X146920185Y-78736925D01*
X146972989Y-78691170D01*
X146985485Y-78686262D01*
X147058697Y-78662003D01*
X147203044Y-78572968D01*
X147322968Y-78453044D01*
X147412003Y-78308697D01*
X147465349Y-78147708D01*
X147475500Y-78048345D01*
X147475499Y-77501656D01*
X147470273Y-77450500D01*
X147465349Y-77402292D01*
X147465348Y-77402289D01*
X147453288Y-77365893D01*
X147412003Y-77241303D01*
X147411999Y-77241297D01*
X147411998Y-77241294D01*
X147322970Y-77096959D01*
X147322967Y-77096955D01*
X147313339Y-77087327D01*
X147279854Y-77026004D01*
X147284838Y-76956312D01*
X147313345Y-76911959D01*
X147322573Y-76902731D01*
X147411542Y-76758492D01*
X147411547Y-76758481D01*
X147464856Y-76597606D01*
X147471635Y-76531252D01*
X147498031Y-76466560D01*
X147555212Y-76426408D01*
X147625023Y-76423545D01*
X147682673Y-76456172D01*
X148050536Y-76824035D01*
X148114498Y-76887997D01*
X148175966Y-76949465D01*
X148211620Y-76973288D01*
X148323453Y-77048013D01*
X148371452Y-77067895D01*
X148487334Y-77115895D01*
X148661303Y-77150499D01*
X148661307Y-77150500D01*
X148661308Y-77150500D01*
X149088693Y-77150500D01*
X149088694Y-77150499D01*
X149146682Y-77138964D01*
X149262658Y-77115896D01*
X149262661Y-77115894D01*
X149262666Y-77115894D01*
X149426547Y-77048013D01*
X149574035Y-76949464D01*
X149699464Y-76824035D01*
X149798013Y-76676547D01*
X149865894Y-76512666D01*
X149867097Y-76506622D01*
X149894316Y-76369778D01*
X149900500Y-76338691D01*
X149900500Y-76161309D01*
X149900500Y-76161308D01*
X149900500Y-74661309D01*
X149897794Y-74647707D01*
X149865894Y-74487334D01*
X149861233Y-74476082D01*
X149854736Y-74460397D01*
X149798015Y-74323458D01*
X149798013Y-74323453D01*
X149748932Y-74249999D01*
X149741208Y-74238439D01*
X149720952Y-74182148D01*
X149717725Y-74150556D01*
X149715349Y-74127292D01*
X149662003Y-73966303D01*
X149661999Y-73966297D01*
X149661998Y-73966294D01*
X149572970Y-73821959D01*
X149572967Y-73821955D01*
X149563339Y-73812327D01*
X149529854Y-73751004D01*
X149534838Y-73681312D01*
X149563345Y-73636959D01*
X149572573Y-73627731D01*
X149661542Y-73483492D01*
X149661547Y-73483481D01*
X149714855Y-73322606D01*
X149724999Y-73223322D01*
X149725000Y-73223309D01*
X149725000Y-73200000D01*
X146025001Y-73200000D01*
X146025001Y-73223322D01*
X146035144Y-73322607D01*
X146088452Y-73483481D01*
X146088457Y-73483492D01*
X146177424Y-73627728D01*
X146177427Y-73627732D01*
X146186660Y-73636965D01*
X146220145Y-73698288D01*
X146215161Y-73767980D01*
X146186663Y-73812324D01*
X146177033Y-73821953D01*
X146177029Y-73821959D01*
X146088001Y-73966294D01*
X146087996Y-73966305D01*
X146034651Y-74127290D01*
X146024500Y-74226647D01*
X146024500Y-74773337D01*
X146024501Y-74773355D01*
X146034650Y-74872707D01*
X146034651Y-74872710D01*
X146087996Y-75033694D01*
X146087998Y-75033699D01*
X146136886Y-75112958D01*
X146155326Y-75180351D01*
X146134403Y-75247014D01*
X146080761Y-75291784D01*
X146070352Y-75295761D01*
X145941516Y-75338453D01*
X145941507Y-75338457D01*
X145797271Y-75427424D01*
X145712681Y-75512014D01*
X145651357Y-75545498D01*
X145581666Y-75540514D01*
X145537319Y-75512014D01*
X145452728Y-75427424D01*
X145308492Y-75338457D01*
X145308481Y-75338452D01*
X145147606Y-75285144D01*
X145048322Y-75275000D01*
X145000000Y-75275000D01*
X145000000Y-75975000D01*
X146376000Y-75975000D01*
X146443039Y-75994685D01*
X146488794Y-76047489D01*
X146500000Y-76099000D01*
X146500000Y-76351000D01*
X146480315Y-76418039D01*
X146427511Y-76463794D01*
X146376000Y-76475000D01*
X143775001Y-76475000D01*
X143775001Y-76498322D01*
X143785144Y-76597607D01*
X143838452Y-76758481D01*
X143838457Y-76758492D01*
X143927424Y-76902728D01*
X143927427Y-76902732D01*
X143936660Y-76911965D01*
X143970145Y-76973288D01*
X143965161Y-77042980D01*
X143936663Y-77087324D01*
X143927033Y-77096953D01*
X143927029Y-77096959D01*
X143838001Y-77241294D01*
X143837996Y-77241305D01*
X143784651Y-77402290D01*
X143774500Y-77501647D01*
X143774340Y-77504803D01*
X143774179Y-77504794D01*
X143774179Y-77504796D01*
X143774155Y-77504793D01*
X143772968Y-77504733D01*
X143754815Y-77566557D01*
X143702011Y-77612312D01*
X143632853Y-77622256D01*
X143585404Y-77605057D01*
X143558490Y-77588456D01*
X143558481Y-77588452D01*
X143397606Y-77535144D01*
X143298322Y-77525000D01*
X143250000Y-77525000D01*
X143250000Y-78351000D01*
X143230315Y-78418039D01*
X143177511Y-78463794D01*
X143126000Y-78475000D01*
X143000000Y-78475000D01*
X143000000Y-78601000D01*
X142980315Y-78668039D01*
X142927511Y-78713794D01*
X142876000Y-78725000D01*
X140265001Y-78725000D01*
X140265001Y-78748322D01*
X140275144Y-78847607D01*
X140328452Y-79008481D01*
X140328457Y-79008492D01*
X140417424Y-79152728D01*
X140417427Y-79152732D01*
X140426660Y-79161965D01*
X140460145Y-79223288D01*
X140455161Y-79292980D01*
X140426663Y-79337324D01*
X140417033Y-79346953D01*
X140417029Y-79346959D01*
X140328001Y-79491294D01*
X140327996Y-79491305D01*
X140274651Y-79652290D01*
X140268447Y-79713015D01*
X140265500Y-79722272D01*
X140265857Y-79728537D01*
X140257008Y-79748956D01*
X140253041Y-79761422D01*
X140250756Y-79765465D01*
X140201987Y-79838453D01*
X140184246Y-79881284D01*
X140181355Y-79888261D01*
X140181355Y-79888263D01*
X140134105Y-80002333D01*
X140134103Y-80002341D01*
X140099500Y-80176303D01*
X140099500Y-81338695D01*
X140134103Y-81512658D01*
X140134106Y-81512667D01*
X140201983Y-81676540D01*
X140201990Y-81676553D01*
X140300535Y-81824034D01*
X140300538Y-81824038D01*
X140425961Y-81949461D01*
X140425965Y-81949464D01*
X140524266Y-82015148D01*
X140569071Y-82068761D01*
X140577778Y-82138086D01*
X140547623Y-82201113D01*
X140543057Y-82205931D01*
X140427029Y-82321959D01*
X140338001Y-82466294D01*
X140337996Y-82466305D01*
X140284651Y-82627290D01*
X140274500Y-82726647D01*
X140274500Y-83190057D01*
X140254815Y-83257096D01*
X140202011Y-83302851D01*
X140132853Y-83312795D01*
X140069297Y-83283770D01*
X140066725Y-83281477D01*
X140059524Y-83274873D01*
X140058959Y-83274374D01*
X140044434Y-83262025D01*
X140044433Y-83262024D01*
X140044414Y-83262008D01*
X140022424Y-83244017D01*
X140017823Y-83240296D01*
X140017665Y-83240171D01*
X140013698Y-83237033D01*
X139990727Y-83219056D01*
X139986659Y-83215963D01*
X139979577Y-83210577D01*
X139979125Y-83210243D01*
X139979111Y-83210233D01*
X139979084Y-83210213D01*
X139967413Y-83201843D01*
X139944372Y-83185814D01*
X139930197Y-83176305D01*
X139929625Y-83175936D01*
X139915237Y-83166970D01*
X139890265Y-83151987D01*
X139883477Y-83147986D01*
X139883135Y-83147788D01*
X139876858Y-83144212D01*
X139851872Y-83130221D01*
X139834863Y-83121118D01*
X139834137Y-83120747D01*
X139816027Y-83111948D01*
X139789972Y-83099922D01*
X139779053Y-83095040D01*
X139778631Y-83094857D01*
X139768516Y-83090607D01*
X139768517Y-83090607D01*
X139768497Y-83090599D01*
X139741497Y-83079599D01*
X139741493Y-83079597D01*
X139741438Y-83079575D01*
X139733066Y-83076252D01*
X139732864Y-83076174D01*
X139725940Y-83073553D01*
X139699031Y-83063587D01*
X139680937Y-83057274D01*
X139680240Y-83057045D01*
X139661612Y-83051332D01*
X139633604Y-83043330D01*
X139625276Y-83041029D01*
X139625228Y-83041016D01*
X139625184Y-83041004D01*
X139624862Y-83040918D01*
X139624816Y-83040906D01*
X139617016Y-83038889D01*
X139589033Y-83031893D01*
X139580884Y-83030002D01*
X139572393Y-83028031D01*
X139572145Y-83027978D01*
X139571708Y-83027884D01*
X139554607Y-83024525D01*
X139530489Y-83020218D01*
X139526620Y-83019528D01*
X139521390Y-83018647D01*
X139516714Y-83017859D01*
X139516365Y-83017804D01*
X139506353Y-83016322D01*
X139477447Y-83012336D01*
X139461391Y-83010381D01*
X139460806Y-83010320D01*
X139460752Y-83010315D01*
X139460750Y-83010315D01*
X139443727Y-83008810D01*
X139443728Y-83008810D01*
X139443716Y-83008809D01*
X139426913Y-83007609D01*
X139415727Y-83006810D01*
X139415711Y-83006809D01*
X139405873Y-83006202D01*
X139405471Y-83006181D01*
X139396708Y-83005803D01*
X139367752Y-83004804D01*
X139359206Y-83004583D01*
X139358702Y-83004574D01*
X139350048Y-83004500D01*
X139350000Y-83004500D01*
X138750000Y-83004500D01*
X138749952Y-83004500D01*
X138741297Y-83004574D01*
X138740793Y-83004583D01*
X138732247Y-83004804D01*
X138703291Y-83005803D01*
X138694528Y-83006181D01*
X138694126Y-83006202D01*
X138684288Y-83006809D01*
X138684280Y-83006809D01*
X138684273Y-83006810D01*
X138678687Y-83007209D01*
X138656283Y-83008809D01*
X138639193Y-83010320D01*
X138638608Y-83010381D01*
X138622552Y-83012336D01*
X138593646Y-83016322D01*
X138583634Y-83017804D01*
X138583285Y-83017859D01*
X138577381Y-83018853D01*
X138573380Y-83019528D01*
X138573325Y-83019537D01*
X138573318Y-83019539D01*
X138545392Y-83024525D01*
X138528291Y-83027884D01*
X138527625Y-83028027D01*
X138527617Y-83028028D01*
X138527607Y-83028031D01*
X138523930Y-83028884D01*
X138510966Y-83031893D01*
X138482983Y-83038889D01*
X138475183Y-83040906D01*
X138474723Y-83041029D01*
X138466395Y-83043330D01*
X138438387Y-83051332D01*
X138419759Y-83057045D01*
X138419062Y-83057274D01*
X138400968Y-83063587D01*
X138374059Y-83073553D01*
X138367135Y-83076174D01*
X138366933Y-83076252D01*
X138358561Y-83079575D01*
X138331483Y-83090607D01*
X138321368Y-83094857D01*
X138320946Y-83095040D01*
X138310027Y-83099922D01*
X138283972Y-83111948D01*
X138265862Y-83120747D01*
X138265136Y-83121118D01*
X138248127Y-83130221D01*
X138223141Y-83144212D01*
X138216864Y-83147788D01*
X138216522Y-83147986D01*
X138209734Y-83151987D01*
X138184762Y-83166970D01*
X138170374Y-83175936D01*
X138169802Y-83176305D01*
X138155627Y-83185814D01*
X138132586Y-83201843D01*
X138120915Y-83210213D01*
X138120433Y-83210569D01*
X138109272Y-83219056D01*
X138086301Y-83237033D01*
X138082334Y-83240171D01*
X138082176Y-83240296D01*
X138077575Y-83244017D01*
X138055585Y-83262008D01*
X138041018Y-83274393D01*
X138040513Y-83274839D01*
X138026462Y-83287725D01*
X138005508Y-83307680D01*
X137996624Y-83316352D01*
X137996352Y-83316624D01*
X137987680Y-83325508D01*
X137967725Y-83346462D01*
X137954839Y-83360513D01*
X137954393Y-83361018D01*
X137942008Y-83375585D01*
X137924017Y-83397575D01*
X137920296Y-83402176D01*
X137920171Y-83402334D01*
X137917033Y-83406301D01*
X137899056Y-83429272D01*
X137890569Y-83440433D01*
X137890213Y-83440915D01*
X137881843Y-83452586D01*
X137865814Y-83475627D01*
X137856305Y-83489802D01*
X137855936Y-83490374D01*
X137846970Y-83504762D01*
X137831987Y-83529734D01*
X137827986Y-83536522D01*
X137827788Y-83536864D01*
X137824212Y-83543141D01*
X137810221Y-83568127D01*
X137801118Y-83585136D01*
X137800747Y-83585862D01*
X137791948Y-83603972D01*
X137779922Y-83630027D01*
X137775040Y-83640946D01*
X137774857Y-83641368D01*
X137770607Y-83651483D01*
X137759575Y-83678561D01*
X137756252Y-83686933D01*
X137756174Y-83687135D01*
X137753553Y-83694059D01*
X137743587Y-83720968D01*
X137737274Y-83739062D01*
X137737045Y-83739759D01*
X137731332Y-83758387D01*
X137723330Y-83786395D01*
X137721029Y-83794723D01*
X137720906Y-83795183D01*
X137718889Y-83802983D01*
X137711893Y-83830966D01*
X137708027Y-83847625D01*
X137707884Y-83848291D01*
X137704525Y-83865392D01*
X137700667Y-83887003D01*
X137699528Y-83893380D01*
X137698853Y-83897381D01*
X137697859Y-83903285D01*
X137697804Y-83903634D01*
X137696322Y-83913646D01*
X137692336Y-83942552D01*
X137690381Y-83958608D01*
X137690320Y-83959193D01*
X137688809Y-83976283D01*
X137686809Y-84004288D01*
X137686202Y-84014126D01*
X137686181Y-84014528D01*
X137685803Y-84023301D01*
X137684807Y-84052188D01*
X137684506Y-84069678D01*
X137684506Y-84070321D01*
X137684807Y-84087811D01*
X137685803Y-84116698D01*
X137686181Y-84125471D01*
X137686202Y-84125873D01*
X137686809Y-84135711D01*
X137688809Y-84163716D01*
X137690320Y-84180806D01*
X137690381Y-84181391D01*
X137692336Y-84197447D01*
X137696322Y-84226353D01*
X137697804Y-84236365D01*
X137697859Y-84236714D01*
X137698355Y-84239654D01*
X137699528Y-84246620D01*
X137699539Y-84246681D01*
X137704525Y-84274607D01*
X137707884Y-84291708D01*
X137708027Y-84292374D01*
X137711893Y-84309033D01*
X137718889Y-84337016D01*
X137720906Y-84344816D01*
X137721029Y-84345276D01*
X137723330Y-84353604D01*
X137731332Y-84381612D01*
X137737045Y-84400240D01*
X137737274Y-84400937D01*
X137743587Y-84419031D01*
X137753553Y-84445940D01*
X137756174Y-84452864D01*
X137756252Y-84453066D01*
X137759575Y-84461438D01*
X137770607Y-84488516D01*
X137774857Y-84498631D01*
X137775040Y-84499053D01*
X137779922Y-84509972D01*
X137791948Y-84536027D01*
X137800747Y-84554137D01*
X137801118Y-84554863D01*
X137810221Y-84571872D01*
X137824212Y-84596858D01*
X137827755Y-84603077D01*
X137827986Y-84603477D01*
X137831987Y-84610265D01*
X137846970Y-84635237D01*
X137855936Y-84649625D01*
X137856305Y-84650197D01*
X137865814Y-84664372D01*
X137881843Y-84687413D01*
X137890213Y-84699084D01*
X137890233Y-84699111D01*
X137890243Y-84699125D01*
X137890569Y-84699566D01*
X137899056Y-84710727D01*
X137917033Y-84733698D01*
X137920171Y-84737665D01*
X137920296Y-84737823D01*
X137924017Y-84742424D01*
X137942008Y-84764414D01*
X137942024Y-84764433D01*
X137942025Y-84764434D01*
X137954374Y-84778959D01*
X137954873Y-84779524D01*
X137967707Y-84793518D01*
X137967722Y-84793534D01*
X137967725Y-84793537D01*
X137987680Y-84814491D01*
X137996352Y-84823375D01*
X137996624Y-84823647D01*
X138005508Y-84832319D01*
X138023549Y-84849500D01*
X138026482Y-84852293D01*
X138040476Y-84865127D01*
X138041041Y-84865626D01*
X138055566Y-84877975D01*
X138055585Y-84877991D01*
X138077575Y-84895982D01*
X138082176Y-84899703D01*
X138082334Y-84899828D01*
X138086301Y-84902966D01*
X138109272Y-84920943D01*
X138109291Y-84920957D01*
X138109293Y-84920959D01*
X138120423Y-84929423D01*
X138120875Y-84929757D01*
X138120900Y-84929775D01*
X138120915Y-84929786D01*
X138132586Y-84938156D01*
X138155627Y-84954185D01*
X138169802Y-84963694D01*
X138170374Y-84964063D01*
X138184762Y-84973029D01*
X138184776Y-84973037D01*
X138184777Y-84973038D01*
X138209777Y-84988038D01*
X138216515Y-84992009D01*
X138216522Y-84992013D01*
X138216864Y-84992211D01*
X138223141Y-84995787D01*
X138248127Y-85009778D01*
X138265136Y-85018881D01*
X138265163Y-85018894D01*
X138265169Y-85018898D01*
X138265864Y-85019253D01*
X138283975Y-85028053D01*
X138300498Y-85035679D01*
X138310027Y-85040077D01*
X138317513Y-85043424D01*
X138320943Y-85044958D01*
X138321361Y-85045139D01*
X138331503Y-85049401D01*
X138358503Y-85060401D01*
X138358561Y-85060424D01*
X138366933Y-85063747D01*
X138367135Y-85063825D01*
X138367166Y-85063836D01*
X138367221Y-85063858D01*
X138373960Y-85066409D01*
X138374018Y-85066430D01*
X138374059Y-85066446D01*
X138400968Y-85076412D01*
X138402046Y-85076788D01*
X138419058Y-85082724D01*
X138419490Y-85082865D01*
X138419759Y-85082954D01*
X138419768Y-85082956D01*
X138419784Y-85082962D01*
X138432346Y-85086814D01*
X138438387Y-85088667D01*
X138458569Y-85094433D01*
X138466381Y-85096665D01*
X138474816Y-85098996D01*
X138475138Y-85099082D01*
X138482973Y-85101108D01*
X138510973Y-85108108D01*
X138527607Y-85111969D01*
X138528274Y-85112112D01*
X138545380Y-85115472D01*
X138573380Y-85120472D01*
X138583272Y-85122138D01*
X138583664Y-85122200D01*
X138593564Y-85123665D01*
X138593577Y-85123666D01*
X138593646Y-85123677D01*
X138612916Y-85126334D01*
X138622564Y-85127665D01*
X138630580Y-85128640D01*
X138638608Y-85129618D01*
X138639193Y-85129679D01*
X138639250Y-85129685D01*
X138656273Y-85131190D01*
X138684273Y-85133190D01*
X138694153Y-85133799D01*
X138694520Y-85133818D01*
X138703234Y-85134194D01*
X138703287Y-85134195D01*
X138703291Y-85134196D01*
X138732247Y-85135195D01*
X138739378Y-85135379D01*
X138740865Y-85135418D01*
X138741210Y-85135424D01*
X138741270Y-85135424D01*
X138741297Y-85135425D01*
X138749952Y-85135500D01*
X138750000Y-85135500D01*
X139350048Y-85135500D01*
X139358702Y-85135425D01*
X139358727Y-85135424D01*
X139358790Y-85135424D01*
X139359135Y-85135418D01*
X139360899Y-85135372D01*
X139367752Y-85135195D01*
X139396708Y-85134196D01*
X139396766Y-85134194D01*
X139405480Y-85133818D01*
X139405847Y-85133799D01*
X139415727Y-85133190D01*
X139443727Y-85131190D01*
X139460750Y-85129685D01*
X139460880Y-85129671D01*
X139461391Y-85129618D01*
X139467608Y-85128860D01*
X139477436Y-85127665D01*
X139490936Y-85125802D01*
X139506353Y-85123677D01*
X139506407Y-85123668D01*
X139506436Y-85123665D01*
X139516336Y-85122200D01*
X139516728Y-85122138D01*
X139526620Y-85120472D01*
X139554620Y-85115472D01*
X139571726Y-85112112D01*
X139572393Y-85111969D01*
X139589027Y-85108108D01*
X139617027Y-85101108D01*
X139624862Y-85099082D01*
X139625184Y-85098996D01*
X139633619Y-85096665D01*
X139661619Y-85088665D01*
X139680216Y-85082962D01*
X139680942Y-85082724D01*
X139699040Y-85076409D01*
X139726040Y-85066409D01*
X139732779Y-85063858D01*
X139733079Y-85063742D01*
X139741497Y-85060401D01*
X139768497Y-85049401D01*
X139778639Y-85045139D01*
X139779057Y-85044958D01*
X139786979Y-85041415D01*
X139789972Y-85040077D01*
X139789992Y-85040067D01*
X139790025Y-85040053D01*
X139816025Y-85028053D01*
X139834136Y-85019253D01*
X139834831Y-85018898D01*
X139851875Y-85009777D01*
X139866518Y-85001576D01*
X139876858Y-84995787D01*
X139883135Y-84992211D01*
X139883152Y-84992201D01*
X139883226Y-84992159D01*
X139883485Y-84992009D01*
X139890223Y-84988038D01*
X139915223Y-84973038D01*
X139929634Y-84964058D01*
X139930200Y-84963692D01*
X139944384Y-84954177D01*
X139967384Y-84938177D01*
X139979125Y-84929757D01*
X139979577Y-84929423D01*
X139990707Y-84920959D01*
X140013707Y-84902959D01*
X140017661Y-84899832D01*
X140017769Y-84899745D01*
X140017823Y-84899703D01*
X140018923Y-84898812D01*
X140022434Y-84895975D01*
X140044434Y-84877975D01*
X140058959Y-84865626D01*
X140059524Y-84865127D01*
X140073518Y-84852293D01*
X140076654Y-84849305D01*
X140138769Y-84817318D01*
X140208319Y-84823991D01*
X140263221Y-84867206D01*
X140281749Y-84916412D01*
X140283727Y-84915989D01*
X140285142Y-84922603D01*
X140338452Y-85083481D01*
X140338457Y-85083492D01*
X140427424Y-85227728D01*
X140427427Y-85227732D01*
X140547267Y-85347572D01*
X140547271Y-85347575D01*
X140691507Y-85436542D01*
X140691518Y-85436547D01*
X140852393Y-85489855D01*
X140951683Y-85499999D01*
X141500000Y-85499999D01*
X141548308Y-85499999D01*
X141548322Y-85499998D01*
X141647607Y-85489855D01*
X141808481Y-85436547D01*
X141808492Y-85436542D01*
X141952728Y-85347575D01*
X141952732Y-85347572D01*
X142037319Y-85262986D01*
X142098642Y-85229501D01*
X142168334Y-85234485D01*
X142212681Y-85262986D01*
X142297267Y-85347572D01*
X142297271Y-85347575D01*
X142441507Y-85436542D01*
X142441518Y-85436547D01*
X142602393Y-85489855D01*
X142701683Y-85499999D01*
X143250000Y-85499999D01*
X143298308Y-85499999D01*
X143298322Y-85499998D01*
X143397607Y-85489855D01*
X143558481Y-85436547D01*
X143558492Y-85436542D01*
X143702728Y-85347575D01*
X143702732Y-85347572D01*
X143822572Y-85227732D01*
X143822575Y-85227728D01*
X143911542Y-85083492D01*
X143911547Y-85083481D01*
X143964855Y-84922606D01*
X143974999Y-84823322D01*
X143975000Y-84823309D01*
X143975000Y-84800000D01*
X143250000Y-84800000D01*
X143250000Y-85499999D01*
X142701683Y-85499999D01*
X142749999Y-85499998D01*
X142750000Y-85499998D01*
X142750000Y-84800000D01*
X141500000Y-84800000D01*
X141500000Y-85499999D01*
X140951683Y-85499999D01*
X140999999Y-85499998D01*
X141000000Y-85499998D01*
X141000000Y-84674000D01*
X141019685Y-84606961D01*
X141072489Y-84561206D01*
X141124000Y-84550000D01*
X141250000Y-84550000D01*
X141250000Y-84424000D01*
X141269685Y-84356961D01*
X141322489Y-84311206D01*
X141374000Y-84300000D01*
X143974999Y-84300000D01*
X144011318Y-84263681D01*
X144012773Y-84265136D01*
X144024689Y-84249219D01*
X144037309Y-84244511D01*
X144047488Y-84235692D01*
X144069405Y-84232540D01*
X144090153Y-84224802D01*
X144103313Y-84227664D01*
X144116646Y-84225748D01*
X144136789Y-84234947D01*
X144158426Y-84239654D01*
X144176151Y-84252922D01*
X144180202Y-84254773D01*
X144186680Y-84260805D01*
X144290249Y-84364374D01*
X144290259Y-84364385D01*
X144294589Y-84368715D01*
X144294590Y-84368716D01*
X144406394Y-84480520D01*
X144406396Y-84480521D01*
X144457499Y-84510025D01*
X144457498Y-84510025D01*
X144457501Y-84510026D01*
X144543319Y-84559574D01*
X144543320Y-84559574D01*
X144543325Y-84559577D01*
X144696052Y-84600500D01*
X144696053Y-84600500D01*
X147131289Y-84600500D01*
X147139494Y-84602909D01*
X147147951Y-84601624D01*
X147172516Y-84612605D01*
X147198328Y-84620185D01*
X147203928Y-84626648D01*
X147211737Y-84630139D01*
X147226465Y-84652656D01*
X147244083Y-84672989D01*
X147245300Y-84681453D01*
X147249982Y-84688612D01*
X147250198Y-84715517D01*
X147254027Y-84742147D01*
X147250474Y-84749926D01*
X147250543Y-84758479D01*
X147236179Y-84781228D01*
X147225002Y-84805703D01*
X147216832Y-84811869D01*
X147213241Y-84817558D01*
X147183704Y-84836877D01*
X147181560Y-84837877D01*
X147129145Y-84849500D01*
X145911306Y-84849500D01*
X145737341Y-84884103D01*
X145737332Y-84884106D01*
X145573459Y-84951983D01*
X145573446Y-84951990D01*
X145425965Y-85050535D01*
X145425961Y-85050538D01*
X145300538Y-85175961D01*
X145300535Y-85175965D01*
X145201990Y-85323446D01*
X145201983Y-85323459D01*
X145134106Y-85487332D01*
X145134103Y-85487341D01*
X145099500Y-85661304D01*
X145099500Y-85838695D01*
X145134103Y-86012658D01*
X145134106Y-86012667D01*
X145201983Y-86176540D01*
X145201990Y-86176553D01*
X145300535Y-86324034D01*
X145300538Y-86324038D01*
X145425961Y-86449461D01*
X145425965Y-86449464D01*
X145573446Y-86548009D01*
X145573459Y-86548016D01*
X145696363Y-86598923D01*
X145737334Y-86615894D01*
X145737336Y-86615894D01*
X145737341Y-86615896D01*
X145911304Y-86650499D01*
X145911307Y-86650500D01*
X145911309Y-86650500D01*
X146088691Y-86650500D01*
X146686893Y-86650500D01*
X146753932Y-86670185D01*
X146799687Y-86722989D01*
X146809631Y-86792147D01*
X146804599Y-86813504D01*
X146775144Y-86902393D01*
X146765000Y-87001677D01*
X146765000Y-87025000D01*
X149376000Y-87025000D01*
X149443039Y-87044685D01*
X149488794Y-87097489D01*
X149500000Y-87149000D01*
X149500000Y-87401000D01*
X149480315Y-87468039D01*
X149427511Y-87513794D01*
X149376000Y-87525000D01*
X147990000Y-87525000D01*
X147990000Y-88224999D01*
X148038308Y-88224999D01*
X148038322Y-88224998D01*
X148137607Y-88214855D01*
X148298481Y-88161547D01*
X148298492Y-88161542D01*
X148442728Y-88072575D01*
X148442732Y-88072572D01*
X148532319Y-87982986D01*
X148536363Y-87980777D01*
X148538858Y-87976901D01*
X148566747Y-87964186D01*
X148593642Y-87949501D01*
X148598239Y-87949829D01*
X148602433Y-87947918D01*
X148632762Y-87952298D01*
X148663334Y-87954485D01*
X148668295Y-87957430D01*
X148671585Y-87957906D01*
X148686216Y-87968071D01*
X148701264Y-87977007D01*
X148853779Y-88109336D01*
X148867430Y-88130608D01*
X148884337Y-88149405D01*
X148885982Y-88159517D01*
X148891515Y-88168139D01*
X148891498Y-88193417D01*
X148895558Y-88218368D01*
X148891475Y-88227763D01*
X148891469Y-88238008D01*
X148877788Y-88259265D01*
X148867715Y-88282450D01*
X148860197Y-88290677D01*
X148768552Y-88382323D01*
X148537692Y-88613182D01*
X148476371Y-88646666D01*
X148450013Y-88649500D01*
X148079766Y-88649500D01*
X148012727Y-88629815D01*
X148010875Y-88628602D01*
X147879185Y-88540609D01*
X147879172Y-88540602D01*
X147733501Y-88480264D01*
X147733489Y-88480261D01*
X147578845Y-88449500D01*
X147578842Y-88449500D01*
X147421158Y-88449500D01*
X147355816Y-88462497D01*
X147355805Y-88462498D01*
X147266508Y-88480261D01*
X147266498Y-88480264D01*
X147120827Y-88540602D01*
X147120814Y-88540609D01*
X146989711Y-88628210D01*
X146989707Y-88628213D01*
X146878213Y-88739707D01*
X146878210Y-88739711D01*
X146790609Y-88870814D01*
X146790602Y-88870827D01*
X146730264Y-89016498D01*
X146730261Y-89016510D01*
X146699500Y-89171153D01*
X146699500Y-89328846D01*
X146730261Y-89483489D01*
X146730264Y-89483501D01*
X146790602Y-89629172D01*
X146790609Y-89629185D01*
X146878210Y-89760288D01*
X146878213Y-89760292D01*
X146989707Y-89871786D01*
X146989711Y-89871789D01*
X147120814Y-89959390D01*
X147120827Y-89959397D01*
X147266498Y-90019735D01*
X147266503Y-90019737D01*
X147421153Y-90050499D01*
X147421156Y-90050500D01*
X147421158Y-90050500D01*
X147578844Y-90050500D01*
X147578845Y-90050499D01*
X147733497Y-90019737D01*
X147879179Y-89959394D01*
X147879185Y-89959390D01*
X148010875Y-89871398D01*
X148077553Y-89850520D01*
X148079766Y-89850500D01*
X148663442Y-89850500D01*
X148671049Y-89850500D01*
X148671053Y-89850501D01*
X148817061Y-89850501D01*
X148884100Y-89870186D01*
X148884102Y-89870188D01*
X148904741Y-89886820D01*
X148989707Y-89971786D01*
X148989711Y-89971789D01*
X149120814Y-90059390D01*
X149120827Y-90059397D01*
X149266498Y-90119735D01*
X149266503Y-90119737D01*
X149421153Y-90150499D01*
X149421156Y-90150500D01*
X149421158Y-90150500D01*
X149578844Y-90150500D01*
X149578845Y-90150499D01*
X149733497Y-90119737D01*
X149879179Y-90059394D01*
X150010289Y-89971789D01*
X150121789Y-89860289D01*
X150209394Y-89729179D01*
X150269737Y-89583497D01*
X150291219Y-89475499D01*
X150300638Y-89428150D01*
X150333023Y-89366239D01*
X150334518Y-89364716D01*
X152972558Y-86726677D01*
X184525000Y-86726677D01*
X184525000Y-86750000D01*
X185250000Y-86750000D01*
X185250000Y-86050000D01*
X185750000Y-86050000D01*
X185750000Y-86750000D01*
X186164410Y-86750000D01*
X186205004Y-86727834D01*
X186231362Y-86725000D01*
X187010000Y-86725000D01*
X187510000Y-86725000D01*
X188234999Y-86725000D01*
X188234999Y-86701692D01*
X188234998Y-86701677D01*
X188224855Y-86602392D01*
X188171547Y-86441518D01*
X188171542Y-86441507D01*
X188082575Y-86297271D01*
X188082572Y-86297267D01*
X187962732Y-86177427D01*
X187962728Y-86177424D01*
X187818492Y-86088457D01*
X187818481Y-86088452D01*
X187657606Y-86035144D01*
X187558322Y-86025000D01*
X187510000Y-86025000D01*
X187510000Y-86725000D01*
X187010000Y-86725000D01*
X187010000Y-86025000D01*
X187009999Y-86024999D01*
X186961693Y-86025000D01*
X186961675Y-86025001D01*
X186862392Y-86035144D01*
X186701518Y-86088452D01*
X186701507Y-86088457D01*
X186557271Y-86177424D01*
X186557267Y-86177427D01*
X186455179Y-86279514D01*
X186393856Y-86312998D01*
X186324164Y-86308013D01*
X186279818Y-86279513D01*
X186202732Y-86202427D01*
X186202728Y-86202424D01*
X186058492Y-86113457D01*
X186058481Y-86113452D01*
X185897606Y-86060144D01*
X185798322Y-86050000D01*
X185750000Y-86050000D01*
X185250000Y-86050000D01*
X185249999Y-86049999D01*
X185201693Y-86050000D01*
X185201675Y-86050001D01*
X185102392Y-86060144D01*
X184941518Y-86113452D01*
X184941507Y-86113457D01*
X184797271Y-86202424D01*
X184797267Y-86202427D01*
X184677427Y-86322267D01*
X184677424Y-86322271D01*
X184588457Y-86466507D01*
X184588452Y-86466518D01*
X184535144Y-86627393D01*
X184525000Y-86726677D01*
X152972558Y-86726677D01*
X157480520Y-82218716D01*
X157559577Y-82081784D01*
X157600501Y-81929057D01*
X157600501Y-81770942D01*
X157600501Y-81763347D01*
X157600500Y-81763329D01*
X157600500Y-74676677D01*
X184505000Y-74676677D01*
X184505000Y-74700000D01*
X185230000Y-74700000D01*
X185230000Y-74000000D01*
X185730000Y-74000000D01*
X185730000Y-74700000D01*
X187000000Y-74700000D01*
X187500000Y-74700000D01*
X188224999Y-74700000D01*
X188224999Y-74676692D01*
X188224998Y-74676677D01*
X188214855Y-74577392D01*
X188161547Y-74416518D01*
X188161542Y-74416507D01*
X188072575Y-74272271D01*
X188072572Y-74272267D01*
X187952732Y-74152427D01*
X187952728Y-74152424D01*
X187808492Y-74063457D01*
X187808481Y-74063452D01*
X187647606Y-74010144D01*
X187548322Y-74000000D01*
X187500000Y-74000000D01*
X187500000Y-74700000D01*
X187000000Y-74700000D01*
X187000000Y-74000000D01*
X186999999Y-73999999D01*
X186951693Y-74000000D01*
X186951675Y-74000001D01*
X186852392Y-74010144D01*
X186691518Y-74063452D01*
X186691507Y-74063457D01*
X186547271Y-74152424D01*
X186547267Y-74152427D01*
X186452681Y-74247014D01*
X186391358Y-74280499D01*
X186321666Y-74275515D01*
X186277319Y-74247014D01*
X186182732Y-74152427D01*
X186182728Y-74152424D01*
X186038492Y-74063457D01*
X186038481Y-74063452D01*
X185877606Y-74010144D01*
X185778322Y-74000000D01*
X185730000Y-74000000D01*
X185230000Y-74000000D01*
X185229999Y-73999999D01*
X185181693Y-74000000D01*
X185181675Y-74000001D01*
X185082392Y-74010144D01*
X184921518Y-74063452D01*
X184921507Y-74063457D01*
X184777271Y-74152424D01*
X184777267Y-74152427D01*
X184657427Y-74272267D01*
X184657424Y-74272271D01*
X184568457Y-74416507D01*
X184568452Y-74416518D01*
X184515144Y-74577393D01*
X184505000Y-74676677D01*
X157600500Y-74676677D01*
X157600500Y-71673363D01*
X157620185Y-71606324D01*
X157672989Y-71560569D01*
X157742147Y-71550625D01*
X157805703Y-71579650D01*
X157812181Y-71585682D01*
X158001959Y-71775460D01*
X158001962Y-71775462D01*
X158001964Y-71775464D01*
X158053018Y-71809577D01*
X158149453Y-71874013D01*
X158213399Y-71900500D01*
X158313334Y-71941895D01*
X158487303Y-71976499D01*
X158487307Y-71976500D01*
X158487308Y-71976500D01*
X162187067Y-71976500D01*
X162187068Y-71976499D01*
X162361040Y-71941895D01*
X162460975Y-71900500D01*
X162524921Y-71874013D01*
X162621356Y-71809577D01*
X162672410Y-71775464D01*
X166687819Y-67760052D01*
X166749142Y-67726568D01*
X166818834Y-67731552D01*
X166874767Y-67773424D01*
X166899184Y-67838888D01*
X166899500Y-67847734D01*
X166899500Y-72163330D01*
X166899499Y-72163348D01*
X166899499Y-72329054D01*
X166899498Y-72329054D01*
X166899499Y-72329057D01*
X166937685Y-72471568D01*
X166942527Y-72489636D01*
X166941832Y-72489821D01*
X166949500Y-72528364D01*
X166949500Y-72578846D01*
X166980261Y-72733489D01*
X166980264Y-72733501D01*
X167040602Y-72879172D01*
X167040609Y-72879185D01*
X167128210Y-73010288D01*
X167128213Y-73010292D01*
X167239707Y-73121786D01*
X167239711Y-73121789D01*
X167370814Y-73209390D01*
X167370827Y-73209397D01*
X167516498Y-73269735D01*
X167516503Y-73269737D01*
X167671153Y-73300499D01*
X167671156Y-73300500D01*
X167671158Y-73300500D01*
X167828844Y-73300500D01*
X167828845Y-73300499D01*
X167983497Y-73269737D01*
X168129179Y-73209394D01*
X168260289Y-73121789D01*
X168371789Y-73010289D01*
X168459394Y-72879179D01*
X168519737Y-72733497D01*
X168550500Y-72578842D01*
X168550500Y-72421158D01*
X168550500Y-72421155D01*
X168550499Y-72421153D01*
X168520884Y-72272271D01*
X168519737Y-72266503D01*
X168509713Y-72242302D01*
X168459397Y-72120827D01*
X168459390Y-72120814D01*
X168371789Y-71989711D01*
X168371786Y-71989707D01*
X168260289Y-71878210D01*
X168155609Y-71808266D01*
X168110804Y-71754654D01*
X168100500Y-71705164D01*
X168100500Y-67829765D01*
X168120185Y-67762726D01*
X168121398Y-67760874D01*
X168209390Y-67629185D01*
X168209390Y-67629184D01*
X168209394Y-67629179D01*
X168269737Y-67483497D01*
X168290552Y-67378848D01*
X168296429Y-67349309D01*
X168328814Y-67287398D01*
X168389529Y-67252824D01*
X168418046Y-67249500D01*
X188273638Y-67249500D01*
X188340677Y-67269185D01*
X188361319Y-67285819D01*
X190263319Y-69187819D01*
X190296804Y-69249142D01*
X190291820Y-69318834D01*
X190249948Y-69374767D01*
X190184484Y-69399184D01*
X190175638Y-69399500D01*
X190138389Y-69399500D01*
X190114302Y-69403315D01*
X189967302Y-69426597D01*
X189802552Y-69480128D01*
X189648211Y-69558768D01*
X189582874Y-69606239D01*
X189508072Y-69660586D01*
X189508070Y-69660588D01*
X189508069Y-69660588D01*
X189385588Y-69783069D01*
X189385588Y-69783070D01*
X189385586Y-69783072D01*
X189367174Y-69808414D01*
X189283768Y-69923211D01*
X189205128Y-70077552D01*
X189151597Y-70242302D01*
X189124500Y-70413389D01*
X189124500Y-70586610D01*
X189142443Y-70699902D01*
X189151598Y-70757701D01*
X189205127Y-70922445D01*
X189283768Y-71076788D01*
X189385586Y-71216928D01*
X189508072Y-71339414D01*
X189508078Y-71339418D01*
X189591023Y-71399683D01*
X189633689Y-71455013D01*
X189639667Y-71524626D01*
X189607061Y-71586421D01*
X189591023Y-71600317D01*
X189508078Y-71660581D01*
X189508069Y-71660588D01*
X189385588Y-71783069D01*
X189385588Y-71783070D01*
X189385586Y-71783072D01*
X189366329Y-71809577D01*
X189283768Y-71923211D01*
X189205128Y-72077552D01*
X189151597Y-72242302D01*
X189137857Y-72329054D01*
X189124500Y-72413389D01*
X189124500Y-72586611D01*
X189151598Y-72757701D01*
X189205127Y-72922445D01*
X189283768Y-73076788D01*
X189385586Y-73216928D01*
X189508072Y-73339414D01*
X189591449Y-73399991D01*
X189634114Y-73455322D01*
X189640093Y-73524935D01*
X189607487Y-73586730D01*
X189591448Y-73600627D01*
X189508404Y-73660961D01*
X189508399Y-73660965D01*
X189385967Y-73783397D01*
X189284195Y-73923475D01*
X189205591Y-74077744D01*
X189152085Y-74242415D01*
X189150884Y-74249999D01*
X189150885Y-74250000D01*
X190219670Y-74250000D01*
X190199925Y-74269745D01*
X190150556Y-74355255D01*
X190125000Y-74450630D01*
X190125000Y-74549370D01*
X190150556Y-74644745D01*
X190199925Y-74730255D01*
X190219670Y-74750000D01*
X189150885Y-74750000D01*
X189152085Y-74757584D01*
X189205591Y-74922255D01*
X189284195Y-75076524D01*
X189385967Y-75216602D01*
X189493565Y-75324200D01*
X189503362Y-75342142D01*
X189517182Y-75357211D01*
X189519767Y-75372186D01*
X189527050Y-75385523D01*
X189525591Y-75405916D01*
X189529070Y-75426062D01*
X189523150Y-75440055D01*
X189522066Y-75455215D01*
X189509812Y-75471583D01*
X189501848Y-75490410D01*
X189484078Y-75505959D01*
X189480194Y-75511148D01*
X189475837Y-75514265D01*
X189473434Y-75515906D01*
X189406344Y-75557288D01*
X189392272Y-75571359D01*
X189382723Y-75577884D01*
X189360049Y-75585242D01*
X189339128Y-75596666D01*
X189317770Y-75598962D01*
X189316265Y-75599451D01*
X189315383Y-75599218D01*
X189312770Y-75599500D01*
X188294823Y-75599500D01*
X188227784Y-75579815D01*
X188182029Y-75527011D01*
X188172085Y-75457853D01*
X188177117Y-75436496D01*
X188214855Y-75322607D01*
X188224999Y-75223322D01*
X188225000Y-75223309D01*
X188225000Y-75200000D01*
X184505001Y-75200000D01*
X184505001Y-75223322D01*
X184515144Y-75322607D01*
X184568452Y-75483481D01*
X184568454Y-75483486D01*
X184602580Y-75538812D01*
X184621020Y-75606205D01*
X184600097Y-75672868D01*
X184565933Y-75707011D01*
X184425961Y-75800538D01*
X184300538Y-75925961D01*
X184300535Y-75925965D01*
X184201990Y-76073446D01*
X184201983Y-76073459D01*
X184134106Y-76237332D01*
X184134103Y-76237341D01*
X184099500Y-76411304D01*
X184099500Y-76588695D01*
X184134103Y-76762658D01*
X184134106Y-76762667D01*
X184201983Y-76926540D01*
X184201990Y-76926553D01*
X184300535Y-77074034D01*
X184300538Y-77074038D01*
X184425961Y-77199461D01*
X184425965Y-77199464D01*
X184573446Y-77298009D01*
X184573459Y-77298016D01*
X184696363Y-77348923D01*
X184737334Y-77365894D01*
X184737336Y-77365894D01*
X184737341Y-77365896D01*
X184911304Y-77400499D01*
X184911307Y-77400500D01*
X184911309Y-77400500D01*
X184942025Y-77400500D01*
X184981029Y-77406794D01*
X185082292Y-77440349D01*
X185181655Y-77450500D01*
X185778344Y-77450499D01*
X185778352Y-77450498D01*
X185778355Y-77450498D01*
X185854575Y-77442712D01*
X185877708Y-77440349D01*
X185978971Y-77406794D01*
X186017975Y-77400500D01*
X186712025Y-77400500D01*
X186751029Y-77406794D01*
X186852292Y-77440349D01*
X186951655Y-77450500D01*
X187548344Y-77450499D01*
X187548352Y-77450498D01*
X187548355Y-77450498D01*
X187624575Y-77442712D01*
X187647708Y-77440349D01*
X187748971Y-77406794D01*
X187787975Y-77400500D01*
X189312770Y-77400500D01*
X189379809Y-77420185D01*
X189400451Y-77436819D01*
X189406344Y-77442712D01*
X189555666Y-77534814D01*
X189722203Y-77589999D01*
X189824991Y-77600500D01*
X190275637Y-77600499D01*
X190342676Y-77620183D01*
X190363318Y-77636818D01*
X191039181Y-78312681D01*
X191072666Y-78374004D01*
X191075500Y-78400362D01*
X191075500Y-81288191D01*
X191055815Y-81355230D01*
X191003011Y-81400985D01*
X190933853Y-81410929D01*
X190932124Y-81410668D01*
X190861611Y-81399500D01*
X190138389Y-81399500D01*
X190098728Y-81405781D01*
X189967302Y-81426597D01*
X189802552Y-81480128D01*
X189648211Y-81558768D01*
X189570394Y-81615306D01*
X189508072Y-81660586D01*
X189508070Y-81660588D01*
X189508069Y-81660588D01*
X189385588Y-81783069D01*
X189385588Y-81783070D01*
X189385586Y-81783072D01*
X189345276Y-81838554D01*
X189283768Y-81923211D01*
X189205128Y-82077552D01*
X189151597Y-82242302D01*
X189124500Y-82413389D01*
X189124500Y-82586610D01*
X189146679Y-82726647D01*
X189151598Y-82757701D01*
X189165504Y-82800500D01*
X189205128Y-82922447D01*
X189267599Y-83045054D01*
X189283768Y-83076788D01*
X189385586Y-83216928D01*
X189508072Y-83339414D01*
X189517773Y-83346462D01*
X189591023Y-83399683D01*
X189633689Y-83455013D01*
X189639667Y-83524626D01*
X189607061Y-83586421D01*
X189591023Y-83600317D01*
X189508078Y-83660581D01*
X189508069Y-83660588D01*
X189385588Y-83783069D01*
X189385588Y-83783070D01*
X189385586Y-83783072D01*
X189371127Y-83802973D01*
X189283768Y-83923211D01*
X189205128Y-84077552D01*
X189151597Y-84242302D01*
X189129533Y-84381612D01*
X189124500Y-84413389D01*
X189124500Y-84586611D01*
X189128411Y-84611302D01*
X189150366Y-84749926D01*
X189151598Y-84757701D01*
X189204644Y-84920959D01*
X189205128Y-84922447D01*
X189205209Y-84922606D01*
X189283768Y-85076788D01*
X189385586Y-85216928D01*
X189508072Y-85339414D01*
X189591449Y-85399991D01*
X189634114Y-85455322D01*
X189640093Y-85524935D01*
X189607487Y-85586730D01*
X189591448Y-85600627D01*
X189508404Y-85660961D01*
X189508399Y-85660965D01*
X189385967Y-85783397D01*
X189284195Y-85923475D01*
X189205591Y-86077744D01*
X189152085Y-86242415D01*
X189150884Y-86249999D01*
X189150885Y-86250000D01*
X190219670Y-86250000D01*
X190199925Y-86269745D01*
X190150556Y-86355255D01*
X190125000Y-86450630D01*
X190125000Y-86549370D01*
X190150556Y-86644745D01*
X190199925Y-86730255D01*
X190219670Y-86750000D01*
X189150885Y-86750000D01*
X189152085Y-86757584D01*
X189205591Y-86922255D01*
X189284195Y-87076524D01*
X189385967Y-87216602D01*
X189493565Y-87324200D01*
X189502076Y-87339787D01*
X189514652Y-87352336D01*
X189518475Y-87369819D01*
X189527050Y-87385523D01*
X189525783Y-87403238D01*
X189529578Y-87420593D01*
X189523342Y-87437366D01*
X189522066Y-87455215D01*
X189511409Y-87469465D01*
X189505232Y-87486084D01*
X189485450Y-87504182D01*
X189480302Y-87511067D01*
X189475779Y-87514459D01*
X189406344Y-87557288D01*
X189369227Y-87594404D01*
X189362188Y-87599686D01*
X189337379Y-87608969D01*
X189314128Y-87621666D01*
X189299147Y-87623276D01*
X189296750Y-87624174D01*
X189294775Y-87623746D01*
X189287770Y-87624500D01*
X188304823Y-87624500D01*
X188237784Y-87604815D01*
X188192029Y-87552011D01*
X188182085Y-87482853D01*
X188187117Y-87461496D01*
X188224855Y-87347607D01*
X188234999Y-87248322D01*
X188235000Y-87248309D01*
X188235000Y-87225000D01*
X186595590Y-87225000D01*
X186554996Y-87247166D01*
X186528638Y-87250000D01*
X184525001Y-87250000D01*
X184525001Y-87273322D01*
X184535144Y-87372607D01*
X184588452Y-87533481D01*
X184588457Y-87533492D01*
X184677424Y-87677728D01*
X184677427Y-87677732D01*
X184686660Y-87686965D01*
X184720145Y-87748288D01*
X184715161Y-87817980D01*
X184686663Y-87862324D01*
X184677033Y-87871953D01*
X184677029Y-87871959D01*
X184588001Y-88016294D01*
X184587996Y-88016305D01*
X184534651Y-88177290D01*
X184524500Y-88276647D01*
X184524500Y-88823337D01*
X184524501Y-88823355D01*
X184534650Y-88922707D01*
X184534651Y-88922710D01*
X184587996Y-89083694D01*
X184588001Y-89083705D01*
X184677029Y-89228040D01*
X184677032Y-89228044D01*
X184796955Y-89347967D01*
X184796959Y-89347970D01*
X184941294Y-89436998D01*
X184941297Y-89436999D01*
X184941303Y-89437003D01*
X185102292Y-89490349D01*
X185201655Y-89500500D01*
X185798344Y-89500499D01*
X185798352Y-89500498D01*
X185798355Y-89500498D01*
X185852760Y-89494940D01*
X185897708Y-89490349D01*
X185998971Y-89456794D01*
X186037975Y-89450500D01*
X186797471Y-89450500D01*
X186836472Y-89456793D01*
X186862292Y-89465349D01*
X186961655Y-89475500D01*
X187558344Y-89475499D01*
X187558352Y-89475498D01*
X187558355Y-89475498D01*
X187612760Y-89469940D01*
X187657708Y-89465349D01*
X187758038Y-89432103D01*
X187758971Y-89431794D01*
X187797975Y-89425500D01*
X189343273Y-89425500D01*
X189408368Y-89443960D01*
X189555666Y-89534814D01*
X189722203Y-89589999D01*
X189824991Y-89600500D01*
X190275637Y-89600499D01*
X190342676Y-89620183D01*
X190363318Y-89636818D01*
X191063181Y-90336680D01*
X191096666Y-90398003D01*
X191099500Y-90424361D01*
X191099500Y-93299912D01*
X191079815Y-93366951D01*
X191027011Y-93412706D01*
X190957853Y-93422650D01*
X190956102Y-93422385D01*
X190890604Y-93412011D01*
X190811611Y-93399500D01*
X190088389Y-93399500D01*
X190048728Y-93405781D01*
X189917302Y-93426597D01*
X189752552Y-93480128D01*
X189598211Y-93558768D01*
X189518256Y-93616859D01*
X189458072Y-93660586D01*
X189458070Y-93660588D01*
X189458069Y-93660588D01*
X189335588Y-93783069D01*
X189335588Y-93783070D01*
X189335586Y-93783072D01*
X189323233Y-93800075D01*
X189233768Y-93923211D01*
X189155128Y-94077552D01*
X189101597Y-94242302D01*
X189074500Y-94413389D01*
X189074500Y-94586610D01*
X189096497Y-94725499D01*
X189101598Y-94757701D01*
X189155127Y-94922445D01*
X189233768Y-95076788D01*
X189335586Y-95216928D01*
X189458072Y-95339414D01*
X189458078Y-95339418D01*
X189541023Y-95399683D01*
X189583689Y-95455013D01*
X189589667Y-95524626D01*
X189557061Y-95586421D01*
X189541023Y-95600317D01*
X189458078Y-95660581D01*
X189458069Y-95660588D01*
X189335588Y-95783069D01*
X189335588Y-95783070D01*
X189335586Y-95783072D01*
X189296167Y-95837327D01*
X189233768Y-95923211D01*
X189155128Y-96077552D01*
X189101597Y-96242302D01*
X189100116Y-96251656D01*
X189074500Y-96413389D01*
X189074500Y-96586611D01*
X189101598Y-96757701D01*
X189155127Y-96922445D01*
X189233768Y-97076788D01*
X189335586Y-97216928D01*
X189458072Y-97339414D01*
X189541449Y-97399991D01*
X189584114Y-97455322D01*
X189590093Y-97524935D01*
X189557487Y-97586730D01*
X189541448Y-97600627D01*
X189458404Y-97660961D01*
X189458399Y-97660965D01*
X189335967Y-97783397D01*
X189234195Y-97923475D01*
X189155591Y-98077744D01*
X189102085Y-98242415D01*
X189100884Y-98249999D01*
X189100885Y-98250000D01*
X190169670Y-98250000D01*
X190149925Y-98269745D01*
X190100556Y-98355255D01*
X190075000Y-98450630D01*
X190075000Y-98549370D01*
X190100556Y-98644745D01*
X190149925Y-98730255D01*
X190169670Y-98750000D01*
X189100885Y-98750000D01*
X189102085Y-98757584D01*
X189155591Y-98922255D01*
X189234195Y-99076524D01*
X189335967Y-99216602D01*
X189443565Y-99324200D01*
X189477050Y-99385523D01*
X189472066Y-99455215D01*
X189430194Y-99511148D01*
X189420983Y-99517418D01*
X189410251Y-99524038D01*
X189356342Y-99557289D01*
X189232289Y-99681342D01*
X189232288Y-99681344D01*
X189173281Y-99777011D01*
X189164901Y-99790597D01*
X189112953Y-99837321D01*
X189059362Y-99849500D01*
X188294823Y-99849500D01*
X188227784Y-99829815D01*
X188182029Y-99777011D01*
X188172085Y-99707853D01*
X188177117Y-99686496D01*
X188214855Y-99572607D01*
X188224999Y-99473322D01*
X188225000Y-99473309D01*
X188225000Y-99450000D01*
X186275001Y-99450000D01*
X186275001Y-99473322D01*
X186285144Y-99572607D01*
X186338452Y-99733481D01*
X186338457Y-99733492D01*
X186427424Y-99877728D01*
X186427427Y-99877732D01*
X186436660Y-99886965D01*
X186470145Y-99948288D01*
X186465161Y-100017980D01*
X186436663Y-100062324D01*
X186427033Y-100071953D01*
X186427029Y-100071959D01*
X186338001Y-100216294D01*
X186337996Y-100216305D01*
X186322025Y-100264504D01*
X186282252Y-100321949D01*
X186217736Y-100348772D01*
X186204319Y-100349500D01*
X181411306Y-100349500D01*
X181237341Y-100384103D01*
X181237332Y-100384106D01*
X181073459Y-100451983D01*
X181073446Y-100451990D01*
X180925965Y-100550535D01*
X180925961Y-100550538D01*
X180800538Y-100675961D01*
X180800535Y-100675965D01*
X180701990Y-100823446D01*
X180701983Y-100823459D01*
X180634106Y-100987332D01*
X180634103Y-100987341D01*
X180599500Y-101161304D01*
X180599500Y-105424638D01*
X180579815Y-105491677D01*
X180563181Y-105512319D01*
X178163319Y-107912181D01*
X178101996Y-107945666D01*
X178075638Y-107948500D01*
X146522361Y-107948500D01*
X146455322Y-107928815D01*
X146434680Y-107912181D01*
X142110819Y-103588319D01*
X142077334Y-103526996D01*
X142074500Y-103500638D01*
X142074500Y-98926677D01*
X186275000Y-98926677D01*
X186275000Y-98950000D01*
X187000000Y-98950000D01*
X187500000Y-98950000D01*
X188224999Y-98950000D01*
X188224999Y-98926692D01*
X188224998Y-98926677D01*
X188214855Y-98827392D01*
X188161547Y-98666518D01*
X188161542Y-98666507D01*
X188072575Y-98522271D01*
X188072572Y-98522267D01*
X187952732Y-98402427D01*
X187952728Y-98402424D01*
X187808492Y-98313457D01*
X187808481Y-98313452D01*
X187647606Y-98260144D01*
X187548322Y-98250000D01*
X187500000Y-98250000D01*
X187500000Y-98950000D01*
X187000000Y-98950000D01*
X187000000Y-98250000D01*
X186999999Y-98249999D01*
X186951693Y-98250000D01*
X186951675Y-98250001D01*
X186852392Y-98260144D01*
X186691518Y-98313452D01*
X186691507Y-98313457D01*
X186547271Y-98402424D01*
X186547267Y-98402427D01*
X186427427Y-98522267D01*
X186427424Y-98522271D01*
X186338457Y-98666507D01*
X186338452Y-98666518D01*
X186285144Y-98827393D01*
X186275000Y-98926677D01*
X142074500Y-98926677D01*
X142074500Y-97760060D01*
X142081988Y-97734555D01*
X142085842Y-97708250D01*
X142091681Y-97701546D01*
X142094185Y-97693021D01*
X142114270Y-97675616D01*
X142131737Y-97655567D01*
X142142323Y-97651308D01*
X142146989Y-97647266D01*
X142163880Y-97640991D01*
X142169039Y-97639490D01*
X142287666Y-97615895D01*
X142369606Y-97581953D01*
X142451547Y-97548013D01*
X142536558Y-97491208D01*
X142541185Y-97489170D01*
X142543156Y-97487093D01*
X142553614Y-97483695D01*
X142575886Y-97473886D01*
X142584264Y-97471829D01*
X142647708Y-97465349D01*
X142753634Y-97430248D01*
X142758411Y-97429076D01*
X142764203Y-97429335D01*
X142787975Y-97425500D01*
X143462025Y-97425500D01*
X143501029Y-97431794D01*
X143602292Y-97465349D01*
X143701655Y-97475500D01*
X144298344Y-97475499D01*
X144298352Y-97475498D01*
X144298355Y-97475498D01*
X144352760Y-97469940D01*
X144397708Y-97465349D01*
X144558697Y-97412003D01*
X144703044Y-97322968D01*
X144822968Y-97203044D01*
X144912003Y-97058697D01*
X144965349Y-96897708D01*
X144975500Y-96798345D01*
X144975499Y-96251656D01*
X144974543Y-96242302D01*
X144965349Y-96152292D01*
X144965348Y-96152289D01*
X144940583Y-96077552D01*
X144912003Y-95991303D01*
X144911999Y-95991297D01*
X144911998Y-95991294D01*
X144822970Y-95846959D01*
X144822967Y-95846955D01*
X144813339Y-95837327D01*
X144779854Y-95776004D01*
X144784838Y-95706312D01*
X144813345Y-95661959D01*
X144822573Y-95652731D01*
X144911542Y-95508492D01*
X144911547Y-95508481D01*
X144964855Y-95347606D01*
X144974999Y-95248322D01*
X144975000Y-95248309D01*
X144975000Y-95225000D01*
X142374000Y-95225000D01*
X142306961Y-95205315D01*
X142261206Y-95152511D01*
X142250000Y-95101000D01*
X142250000Y-94975000D01*
X142198500Y-94975000D01*
X142131461Y-94955315D01*
X142085706Y-94902511D01*
X142074500Y-94851000D01*
X142074500Y-94025000D01*
X142500000Y-94025000D01*
X142500000Y-94725000D01*
X143750000Y-94725000D01*
X143750000Y-94063606D01*
X144250000Y-94063606D01*
X144250000Y-94725000D01*
X144974999Y-94725000D01*
X144974999Y-94701692D01*
X144974998Y-94701684D01*
X144972221Y-94674501D01*
X144984989Y-94605807D01*
X145032869Y-94554922D01*
X145100658Y-94538000D01*
X145119770Y-94540279D01*
X145171153Y-94550499D01*
X145171156Y-94550500D01*
X145171158Y-94550500D01*
X145328844Y-94550500D01*
X145427022Y-94530971D01*
X145496614Y-94537198D01*
X145538895Y-94564907D01*
X145546955Y-94572967D01*
X145546959Y-94572970D01*
X145691294Y-94661998D01*
X145691297Y-94661999D01*
X145691303Y-94662003D01*
X145852292Y-94715349D01*
X145951655Y-94725500D01*
X146548344Y-94725499D01*
X146548352Y-94725498D01*
X146548355Y-94725498D01*
X146602760Y-94719940D01*
X146647708Y-94715349D01*
X146808697Y-94662003D01*
X146953044Y-94572968D01*
X147072968Y-94453044D01*
X147162003Y-94308697D01*
X147215349Y-94147708D01*
X147225500Y-94048345D01*
X147225499Y-93501656D01*
X147221708Y-93464548D01*
X147215349Y-93402292D01*
X147215348Y-93402289D01*
X147214424Y-93399500D01*
X147162003Y-93241303D01*
X147161999Y-93241297D01*
X147161998Y-93241294D01*
X147072970Y-93096959D01*
X147072967Y-93096955D01*
X147063339Y-93087327D01*
X147029854Y-93026004D01*
X147034838Y-92956312D01*
X147063345Y-92911959D01*
X147072573Y-92902731D01*
X147161542Y-92758492D01*
X147161547Y-92758481D01*
X147214855Y-92597606D01*
X147224999Y-92498322D01*
X147225000Y-92498309D01*
X147225000Y-92475000D01*
X145275001Y-92475000D01*
X145275001Y-92498322D01*
X145285144Y-92597607D01*
X145338452Y-92758481D01*
X145338455Y-92758488D01*
X145339638Y-92760405D01*
X145340047Y-92761902D01*
X145341507Y-92765032D01*
X145340972Y-92765281D01*
X145358077Y-92827797D01*
X145337154Y-92894461D01*
X145283511Y-92939229D01*
X145234098Y-92949500D01*
X145171155Y-92949500D01*
X145016510Y-92980261D01*
X145016498Y-92980264D01*
X144870827Y-93040602D01*
X144870814Y-93040609D01*
X144739711Y-93128210D01*
X144739707Y-93128213D01*
X144628213Y-93239707D01*
X144628210Y-93239711D01*
X144540609Y-93370814D01*
X144540602Y-93370827D01*
X144480264Y-93516498D01*
X144480261Y-93516510D01*
X144449500Y-93671153D01*
X144449500Y-93828841D01*
X144459721Y-93880229D01*
X144459584Y-93881748D01*
X144460260Y-93883117D01*
X144456480Y-93916428D01*
X144453492Y-93949821D01*
X144452555Y-93951026D01*
X144452384Y-93952541D01*
X144431202Y-93978513D01*
X144410629Y-94004997D01*
X144409190Y-94005504D01*
X144408226Y-94006687D01*
X144376573Y-94022300D01*
X144250000Y-94063606D01*
X143750000Y-94063606D01*
X143750000Y-94025000D01*
X143749999Y-94024999D01*
X143701693Y-94025000D01*
X143701675Y-94025001D01*
X143602392Y-94035144D01*
X143441518Y-94088452D01*
X143441507Y-94088457D01*
X143297271Y-94177424D01*
X143212681Y-94262014D01*
X143151357Y-94295498D01*
X143081666Y-94290514D01*
X143037319Y-94262014D01*
X142952728Y-94177424D01*
X142808492Y-94088457D01*
X142808481Y-94088452D01*
X142647606Y-94035144D01*
X142548322Y-94025000D01*
X142500000Y-94025000D01*
X142074500Y-94025000D01*
X142074500Y-91951677D01*
X145275000Y-91951677D01*
X145275000Y-91975000D01*
X146000000Y-91975000D01*
X146500000Y-91975000D01*
X147224999Y-91975000D01*
X147224999Y-91951692D01*
X147224998Y-91951677D01*
X147214855Y-91852392D01*
X147161547Y-91691518D01*
X147161542Y-91691507D01*
X147072575Y-91547271D01*
X147072572Y-91547267D01*
X146952732Y-91427427D01*
X146952728Y-91427424D01*
X146808492Y-91338457D01*
X146808481Y-91338452D01*
X146647606Y-91285144D01*
X146548322Y-91275000D01*
X146500000Y-91275000D01*
X146500000Y-91975000D01*
X146000000Y-91975000D01*
X146000000Y-91275000D01*
X145999999Y-91274999D01*
X145951693Y-91275000D01*
X145951675Y-91275001D01*
X145852392Y-91285144D01*
X145691518Y-91338452D01*
X145691507Y-91338457D01*
X145547271Y-91427424D01*
X145547267Y-91427427D01*
X145427427Y-91547267D01*
X145427424Y-91547271D01*
X145338457Y-91691507D01*
X145338452Y-91691518D01*
X145285144Y-91852393D01*
X145275000Y-91951677D01*
X142074500Y-91951677D01*
X142074500Y-91750362D01*
X142094185Y-91683323D01*
X142110819Y-91662681D01*
X142949461Y-90824039D01*
X142949464Y-90824036D01*
X143016211Y-90724142D01*
X143048013Y-90676547D01*
X143087254Y-90581811D01*
X143115895Y-90512666D01*
X143150500Y-90338692D01*
X143150500Y-90161308D01*
X143115895Y-89987334D01*
X143048013Y-89823453D01*
X143048012Y-89823452D01*
X143048009Y-89823446D01*
X142949464Y-89675964D01*
X142949461Y-89675960D01*
X142824039Y-89550538D01*
X142824035Y-89550535D01*
X142676553Y-89451990D01*
X142676544Y-89451985D01*
X142512666Y-89384105D01*
X142512658Y-89384103D01*
X142338696Y-89349500D01*
X142338692Y-89349500D01*
X142161308Y-89349500D01*
X142161303Y-89349500D01*
X141987339Y-89384103D01*
X141987323Y-89384108D01*
X141871453Y-89432102D01*
X141871454Y-89432103D01*
X141823451Y-89451987D01*
X141766042Y-89490348D01*
X141675961Y-89550537D01*
X141675958Y-89550540D01*
X140474536Y-90751963D01*
X140460408Y-90773108D01*
X140446373Y-90794114D01*
X140421948Y-90830668D01*
X140375987Y-90899452D01*
X140358404Y-90941902D01*
X140335497Y-90997204D01*
X140308105Y-91063334D01*
X140290767Y-91150500D01*
X140273500Y-91237305D01*
X140273500Y-96178811D01*
X140253815Y-96245850D01*
X140252602Y-96247702D01*
X140201990Y-96323447D01*
X140201983Y-96323460D01*
X140134106Y-96487332D01*
X140134103Y-96487341D01*
X140099500Y-96661304D01*
X140099500Y-96838695D01*
X140134103Y-97012658D01*
X140134106Y-97012667D01*
X140201983Y-97176540D01*
X140201987Y-97176547D01*
X140252602Y-97252298D01*
X140273480Y-97318974D01*
X140273500Y-97321188D01*
X140273500Y-104013696D01*
X140308103Y-104187658D01*
X140308105Y-104187666D01*
X140342046Y-104269606D01*
X140375987Y-104351547D01*
X140409000Y-104400954D01*
X140412960Y-104406880D01*
X140474537Y-104499038D01*
X140474538Y-104499039D01*
X145013320Y-109037819D01*
X145046805Y-109099142D01*
X145041821Y-109168834D01*
X144999949Y-109224767D01*
X144934485Y-109249184D01*
X144925639Y-109249500D01*
X138864853Y-109249500D01*
X138797814Y-109229815D01*
X138752059Y-109177011D01*
X138742115Y-109107853D01*
X138771140Y-109044297D01*
X138787540Y-109028553D01*
X138789080Y-109027324D01*
X138802304Y-109016779D01*
X139016779Y-108802304D01*
X139205892Y-108565164D01*
X139367265Y-108308341D01*
X139498868Y-108035065D01*
X139599046Y-107748772D01*
X139666540Y-107453063D01*
X139700500Y-107151657D01*
X139700500Y-106848343D01*
X139666540Y-106546937D01*
X139599046Y-106251228D01*
X139498868Y-105964935D01*
X139367265Y-105691659D01*
X139205892Y-105434836D01*
X139016779Y-105197696D01*
X138802304Y-104983221D01*
X138565164Y-104794108D01*
X138308341Y-104632735D01*
X138308338Y-104632733D01*
X138035068Y-104501133D01*
X137748783Y-104400957D01*
X137748771Y-104400953D01*
X137520556Y-104348864D01*
X137453063Y-104333460D01*
X137453060Y-104333459D01*
X137453048Y-104333457D01*
X137151663Y-104299500D01*
X137151657Y-104299500D01*
X136848343Y-104299500D01*
X136848336Y-104299500D01*
X136546951Y-104333457D01*
X136546937Y-104333460D01*
X136251228Y-104400953D01*
X136251216Y-104400957D01*
X135964931Y-104501133D01*
X135691661Y-104632733D01*
X135434837Y-104794107D01*
X135197696Y-104983220D01*
X134983220Y-105197696D01*
X134794107Y-105434837D01*
X134729494Y-105537668D01*
X134677159Y-105583959D01*
X134608106Y-105594607D01*
X134544257Y-105566232D01*
X134505885Y-105507842D01*
X134500500Y-105471696D01*
X134500500Y-98499983D01*
X136124500Y-98499983D01*
X136124500Y-99300001D01*
X136124501Y-99300019D01*
X136135000Y-99402796D01*
X136135001Y-99402799D01*
X136170905Y-99511148D01*
X136190186Y-99569334D01*
X136282288Y-99718656D01*
X136406344Y-99842712D01*
X136463114Y-99877728D01*
X136470543Y-99882310D01*
X136517268Y-99934258D01*
X136528489Y-100003221D01*
X136500646Y-100067303D01*
X136493128Y-100075530D01*
X136385585Y-100183073D01*
X136283768Y-100323211D01*
X136205128Y-100477552D01*
X136151597Y-100642302D01*
X136124500Y-100813389D01*
X136124500Y-100986611D01*
X136151598Y-101157701D01*
X136205127Y-101322445D01*
X136283768Y-101476788D01*
X136385586Y-101616928D01*
X136508072Y-101739414D01*
X136648212Y-101841232D01*
X136802555Y-101919873D01*
X136967299Y-101973402D01*
X137138389Y-102000500D01*
X137138390Y-102000500D01*
X137861610Y-102000500D01*
X137861611Y-102000500D01*
X138032701Y-101973402D01*
X138197445Y-101919873D01*
X138351788Y-101841232D01*
X138491928Y-101739414D01*
X138614414Y-101616928D01*
X138716232Y-101476788D01*
X138794873Y-101322445D01*
X138848402Y-101157701D01*
X138875500Y-100986611D01*
X138875500Y-100813389D01*
X138848402Y-100642299D01*
X138794873Y-100477555D01*
X138716232Y-100323212D01*
X138614414Y-100183072D01*
X138506872Y-100075530D01*
X138473387Y-100014207D01*
X138478371Y-99944515D01*
X138520243Y-99888582D01*
X138529457Y-99882310D01*
X138536886Y-99877728D01*
X138593656Y-99842712D01*
X138717712Y-99718656D01*
X138809814Y-99569334D01*
X138864999Y-99402797D01*
X138875500Y-99300009D01*
X138875499Y-98499992D01*
X138864999Y-98397203D01*
X138809814Y-98230666D01*
X138717712Y-98081344D01*
X138593656Y-97957288D01*
X138444334Y-97865186D01*
X138277797Y-97810001D01*
X138277795Y-97810000D01*
X138175010Y-97799500D01*
X136824998Y-97799500D01*
X136824981Y-97799501D01*
X136722203Y-97810000D01*
X136722200Y-97810001D01*
X136555668Y-97865185D01*
X136555663Y-97865187D01*
X136406342Y-97957289D01*
X136282289Y-98081342D01*
X136190187Y-98230663D01*
X136190185Y-98230668D01*
X136183779Y-98250000D01*
X136135001Y-98397203D01*
X136135001Y-98397204D01*
X136135000Y-98397204D01*
X136124500Y-98499983D01*
X134500500Y-98499983D01*
X134500500Y-91099983D01*
X136124500Y-91099983D01*
X136124500Y-91900001D01*
X136124501Y-91900019D01*
X136135000Y-92002796D01*
X136135001Y-92002799D01*
X136190185Y-92169331D01*
X136190186Y-92169334D01*
X136282288Y-92318656D01*
X136406344Y-92442712D01*
X136470981Y-92482580D01*
X136517705Y-92534526D01*
X136528928Y-92603489D01*
X136501085Y-92667571D01*
X136493566Y-92675799D01*
X136385964Y-92783401D01*
X136284195Y-92923475D01*
X136205591Y-93077744D01*
X136152085Y-93242415D01*
X136150884Y-93249999D01*
X136150885Y-93250000D01*
X137219670Y-93250000D01*
X137199925Y-93269745D01*
X137150556Y-93355255D01*
X137125000Y-93450630D01*
X137125000Y-93549370D01*
X137150556Y-93644745D01*
X137199925Y-93730255D01*
X137219670Y-93750000D01*
X136150885Y-93750000D01*
X136152085Y-93757584D01*
X136205591Y-93922255D01*
X136284195Y-94076524D01*
X136385967Y-94216602D01*
X136508397Y-94339032D01*
X136648475Y-94440804D01*
X136802742Y-94519408D01*
X136967415Y-94572914D01*
X137138429Y-94600000D01*
X137250000Y-94600000D01*
X137250000Y-93780330D01*
X137269745Y-93800075D01*
X137355255Y-93849444D01*
X137450630Y-93875000D01*
X137549370Y-93875000D01*
X137644745Y-93849444D01*
X137730255Y-93800075D01*
X137750000Y-93780330D01*
X137750000Y-94600000D01*
X137861571Y-94600000D01*
X138032584Y-94572914D01*
X138197257Y-94519408D01*
X138351524Y-94440804D01*
X138491602Y-94339032D01*
X138614032Y-94216602D01*
X138715804Y-94076524D01*
X138794408Y-93922255D01*
X138847914Y-93757584D01*
X138849115Y-93750000D01*
X137780330Y-93750000D01*
X137800075Y-93730255D01*
X137849444Y-93644745D01*
X137875000Y-93549370D01*
X137875000Y-93450630D01*
X137849444Y-93355255D01*
X137800075Y-93269745D01*
X137780330Y-93250000D01*
X138849115Y-93250000D01*
X138849115Y-93249999D01*
X138847914Y-93242415D01*
X138794408Y-93077744D01*
X138715804Y-92923475D01*
X138614032Y-92783397D01*
X138506434Y-92675799D01*
X138472949Y-92614476D01*
X138477933Y-92544784D01*
X138519805Y-92488851D01*
X138528995Y-92482594D01*
X138593656Y-92442712D01*
X138717712Y-92318656D01*
X138809814Y-92169334D01*
X138864999Y-92002797D01*
X138875500Y-91900009D01*
X138875499Y-91099992D01*
X138864999Y-90997203D01*
X138809814Y-90830666D01*
X138717712Y-90681344D01*
X138593656Y-90557288D01*
X138444334Y-90465186D01*
X138277797Y-90410001D01*
X138277795Y-90410000D01*
X138175010Y-90399500D01*
X136824998Y-90399500D01*
X136824981Y-90399501D01*
X136722203Y-90410000D01*
X136722200Y-90410001D01*
X136555668Y-90465185D01*
X136555663Y-90465187D01*
X136406342Y-90557289D01*
X136282289Y-90681342D01*
X136190187Y-90830663D01*
X136190185Y-90830668D01*
X136167392Y-90899453D01*
X136135001Y-90997203D01*
X136135001Y-90997204D01*
X136135000Y-90997204D01*
X136124500Y-91099983D01*
X134500500Y-91099983D01*
X134500500Y-87548322D01*
X146765001Y-87548322D01*
X146775144Y-87647607D01*
X146828452Y-87808481D01*
X146828457Y-87808492D01*
X146917424Y-87952728D01*
X146917427Y-87952732D01*
X147037267Y-88072572D01*
X147037271Y-88072575D01*
X147181507Y-88161542D01*
X147181518Y-88161547D01*
X147342394Y-88214856D01*
X147490000Y-88205841D01*
X147490000Y-87525000D01*
X146765001Y-87525000D01*
X146765001Y-87548322D01*
X134500500Y-87548322D01*
X134500500Y-85213661D01*
X134520185Y-85146622D01*
X134572989Y-85100867D01*
X134642147Y-85090923D01*
X134658567Y-85094433D01*
X134666350Y-85096657D01*
X134671827Y-85098170D01*
X134674816Y-85098996D01*
X134675138Y-85099082D01*
X134682973Y-85101108D01*
X134710973Y-85108108D01*
X134727607Y-85111969D01*
X134728274Y-85112112D01*
X134745380Y-85115472D01*
X134773380Y-85120472D01*
X134783272Y-85122138D01*
X134783664Y-85122200D01*
X134793564Y-85123665D01*
X134793577Y-85123666D01*
X134793646Y-85123677D01*
X134812916Y-85126334D01*
X134822564Y-85127665D01*
X134830580Y-85128640D01*
X134838608Y-85129618D01*
X134839193Y-85129679D01*
X134839250Y-85129685D01*
X134856273Y-85131190D01*
X134884273Y-85133190D01*
X134894153Y-85133799D01*
X134894520Y-85133818D01*
X134903234Y-85134194D01*
X134903287Y-85134195D01*
X134903291Y-85134196D01*
X134932247Y-85135195D01*
X134939378Y-85135379D01*
X134940865Y-85135418D01*
X134941210Y-85135424D01*
X134941270Y-85135424D01*
X134941297Y-85135425D01*
X134949952Y-85135500D01*
X134950000Y-85135500D01*
X135550048Y-85135500D01*
X135558702Y-85135425D01*
X135558727Y-85135424D01*
X135558790Y-85135424D01*
X135559135Y-85135418D01*
X135560899Y-85135372D01*
X135567752Y-85135195D01*
X135596708Y-85134196D01*
X135596766Y-85134194D01*
X135605480Y-85133818D01*
X135605847Y-85133799D01*
X135615727Y-85133190D01*
X135643727Y-85131190D01*
X135660750Y-85129685D01*
X135660880Y-85129671D01*
X135661391Y-85129618D01*
X135667608Y-85128860D01*
X135677436Y-85127665D01*
X135690936Y-85125802D01*
X135706353Y-85123677D01*
X135706407Y-85123668D01*
X135706436Y-85123665D01*
X135716336Y-85122200D01*
X135716728Y-85122138D01*
X135726620Y-85120472D01*
X135754620Y-85115472D01*
X135771726Y-85112112D01*
X135772393Y-85111969D01*
X135789027Y-85108108D01*
X135817027Y-85101108D01*
X135824862Y-85099082D01*
X135825184Y-85098996D01*
X135833619Y-85096665D01*
X135861619Y-85088665D01*
X135880216Y-85082962D01*
X135880942Y-85082724D01*
X135899040Y-85076409D01*
X135926040Y-85066409D01*
X135932779Y-85063858D01*
X135933079Y-85063742D01*
X135941497Y-85060401D01*
X135968497Y-85049401D01*
X135978639Y-85045139D01*
X135979057Y-85044958D01*
X135986979Y-85041415D01*
X135989972Y-85040077D01*
X135989992Y-85040067D01*
X135990025Y-85040053D01*
X136016025Y-85028053D01*
X136034136Y-85019253D01*
X136034831Y-85018898D01*
X136051875Y-85009777D01*
X136066518Y-85001576D01*
X136076858Y-84995787D01*
X136083135Y-84992211D01*
X136083152Y-84992201D01*
X136083226Y-84992159D01*
X136083485Y-84992009D01*
X136090223Y-84988038D01*
X136115223Y-84973038D01*
X136129634Y-84964058D01*
X136130200Y-84963692D01*
X136144384Y-84954177D01*
X136167384Y-84938177D01*
X136179125Y-84929757D01*
X136179577Y-84929423D01*
X136190707Y-84920959D01*
X136213707Y-84902959D01*
X136217661Y-84899832D01*
X136217769Y-84899745D01*
X136217823Y-84899703D01*
X136218923Y-84898812D01*
X136222434Y-84895975D01*
X136244434Y-84877975D01*
X136258959Y-84865626D01*
X136259524Y-84865127D01*
X136273518Y-84852293D01*
X136290962Y-84835680D01*
X136294491Y-84832319D01*
X136294518Y-84832293D01*
X136303339Y-84823683D01*
X136303683Y-84823339D01*
X136312293Y-84814518D01*
X136332293Y-84793518D01*
X136345127Y-84779524D01*
X136345626Y-84778959D01*
X136357975Y-84764434D01*
X136375975Y-84742434D01*
X136379697Y-84737830D01*
X136379832Y-84737661D01*
X136382959Y-84733707D01*
X136400959Y-84710707D01*
X136409423Y-84699577D01*
X136409757Y-84699125D01*
X136418177Y-84687384D01*
X136434177Y-84664384D01*
X136443692Y-84650200D01*
X136444058Y-84649634D01*
X136453038Y-84635223D01*
X136468038Y-84610223D01*
X136472009Y-84603485D01*
X136472159Y-84603226D01*
X136472182Y-84603185D01*
X136472245Y-84603077D01*
X136475787Y-84596858D01*
X136481576Y-84586518D01*
X136489777Y-84571875D01*
X136498898Y-84554831D01*
X136499253Y-84554136D01*
X136508053Y-84536025D01*
X136520053Y-84510025D01*
X136524958Y-84499057D01*
X136525139Y-84498639D01*
X136529401Y-84488497D01*
X136540401Y-84461497D01*
X136543742Y-84453079D01*
X136543858Y-84452779D01*
X136546409Y-84446040D01*
X136556409Y-84419040D01*
X136562724Y-84400942D01*
X136562962Y-84400216D01*
X136568665Y-84381619D01*
X136576665Y-84353619D01*
X136578996Y-84345184D01*
X136579082Y-84344862D01*
X136581108Y-84337027D01*
X136588108Y-84309027D01*
X136591969Y-84292393D01*
X136592112Y-84291726D01*
X136595472Y-84274620D01*
X136600472Y-84246620D01*
X136602138Y-84236728D01*
X136602200Y-84236336D01*
X136603665Y-84226436D01*
X136603668Y-84226407D01*
X136603677Y-84226353D01*
X136607663Y-84197447D01*
X136607665Y-84197436D01*
X136609616Y-84181404D01*
X136609618Y-84181391D01*
X136609679Y-84180806D01*
X136609685Y-84180750D01*
X136611190Y-84163727D01*
X136613190Y-84135727D01*
X136613799Y-84125847D01*
X136613818Y-84125480D01*
X136614194Y-84116766D01*
X136615194Y-84087766D01*
X136615494Y-84070345D01*
X136615494Y-84069655D01*
X136615194Y-84052234D01*
X136614194Y-84023234D01*
X136613818Y-84014520D01*
X136613799Y-84014153D01*
X136613190Y-84004273D01*
X136611190Y-83976273D01*
X136609685Y-83959250D01*
X136609679Y-83959193D01*
X136609618Y-83958608D01*
X136608631Y-83950499D01*
X136607665Y-83942564D01*
X136604996Y-83923211D01*
X136603677Y-83913646D01*
X136603665Y-83913564D01*
X136602200Y-83903664D01*
X136602138Y-83903272D01*
X136600472Y-83893380D01*
X136595472Y-83865380D01*
X136592112Y-83848274D01*
X136591969Y-83847607D01*
X136588108Y-83830973D01*
X136581108Y-83802973D01*
X136579082Y-83795138D01*
X136578996Y-83794816D01*
X136576665Y-83786381D01*
X136568665Y-83758381D01*
X136562962Y-83739784D01*
X136562724Y-83739058D01*
X136556409Y-83720960D01*
X136546409Y-83693960D01*
X136543858Y-83687221D01*
X136543742Y-83686921D01*
X136540401Y-83678503D01*
X136529401Y-83651503D01*
X136525139Y-83641361D01*
X136524958Y-83640943D01*
X136523424Y-83637513D01*
X136520077Y-83630027D01*
X136520053Y-83629975D01*
X136508053Y-83603975D01*
X136499253Y-83585864D01*
X136498898Y-83585169D01*
X136498894Y-83585163D01*
X136498881Y-83585136D01*
X136489778Y-83568127D01*
X136475787Y-83543141D01*
X136472211Y-83536864D01*
X136472013Y-83536522D01*
X136470348Y-83533697D01*
X136468038Y-83529777D01*
X136453038Y-83504777D01*
X136450061Y-83500000D01*
X136444063Y-83490374D01*
X136443694Y-83489802D01*
X136434185Y-83475627D01*
X136418156Y-83452586D01*
X136409786Y-83440915D01*
X136409775Y-83440900D01*
X136409757Y-83440875D01*
X136409423Y-83440423D01*
X136400959Y-83429293D01*
X136400943Y-83429272D01*
X136382966Y-83406301D01*
X136379828Y-83402334D01*
X136379703Y-83402176D01*
X136375982Y-83397575D01*
X136375238Y-83396666D01*
X136365694Y-83385000D01*
X136357991Y-83375585D01*
X136345606Y-83361018D01*
X136345160Y-83360513D01*
X136345151Y-83360503D01*
X136345127Y-83360476D01*
X136332293Y-83346482D01*
X136328538Y-83342539D01*
X136312319Y-83325508D01*
X136303647Y-83316624D01*
X136303375Y-83316352D01*
X136294491Y-83307680D01*
X136273537Y-83287725D01*
X136273534Y-83287722D01*
X136273518Y-83287707D01*
X136259524Y-83274873D01*
X136258959Y-83274374D01*
X136244434Y-83262025D01*
X136244433Y-83262024D01*
X136244414Y-83262008D01*
X136222424Y-83244017D01*
X136217823Y-83240296D01*
X136217665Y-83240171D01*
X136213698Y-83237033D01*
X136190727Y-83219056D01*
X136186659Y-83215963D01*
X136179577Y-83210577D01*
X136179125Y-83210243D01*
X136179111Y-83210233D01*
X136179084Y-83210213D01*
X136167413Y-83201843D01*
X136144372Y-83185814D01*
X136130197Y-83176305D01*
X136129625Y-83175936D01*
X136115237Y-83166970D01*
X136090265Y-83151987D01*
X136083477Y-83147986D01*
X136083135Y-83147788D01*
X136076858Y-83144212D01*
X136051872Y-83130221D01*
X136034863Y-83121118D01*
X136034137Y-83120747D01*
X136016027Y-83111948D01*
X135989972Y-83099922D01*
X135979053Y-83095040D01*
X135978631Y-83094857D01*
X135968516Y-83090607D01*
X135968517Y-83090607D01*
X135968497Y-83090599D01*
X135941497Y-83079599D01*
X135941493Y-83079597D01*
X135941438Y-83079575D01*
X135933066Y-83076252D01*
X135932864Y-83076174D01*
X135925940Y-83073553D01*
X135899031Y-83063587D01*
X135880937Y-83057274D01*
X135880240Y-83057045D01*
X135861612Y-83051332D01*
X135833604Y-83043330D01*
X135825276Y-83041029D01*
X135825228Y-83041016D01*
X135825184Y-83041004D01*
X135824862Y-83040918D01*
X135824816Y-83040906D01*
X135817016Y-83038889D01*
X135789033Y-83031893D01*
X135780884Y-83030002D01*
X135772393Y-83028031D01*
X135772145Y-83027978D01*
X135771708Y-83027884D01*
X135754607Y-83024525D01*
X135730489Y-83020218D01*
X135726620Y-83019528D01*
X135721390Y-83018647D01*
X135716714Y-83017859D01*
X135716365Y-83017804D01*
X135706353Y-83016322D01*
X135677447Y-83012336D01*
X135661391Y-83010381D01*
X135660806Y-83010320D01*
X135660752Y-83010315D01*
X135660750Y-83010315D01*
X135643727Y-83008810D01*
X135643728Y-83008810D01*
X135643716Y-83008809D01*
X135626913Y-83007609D01*
X135615727Y-83006810D01*
X135615711Y-83006809D01*
X135605873Y-83006202D01*
X135605471Y-83006181D01*
X135596708Y-83005803D01*
X135567752Y-83004804D01*
X135559206Y-83004583D01*
X135558702Y-83004574D01*
X135550048Y-83004500D01*
X135550000Y-83004500D01*
X134950000Y-83004500D01*
X134949952Y-83004500D01*
X134941297Y-83004574D01*
X134940793Y-83004583D01*
X134932247Y-83004804D01*
X134903291Y-83005803D01*
X134894528Y-83006181D01*
X134894126Y-83006202D01*
X134884288Y-83006809D01*
X134884280Y-83006809D01*
X134884273Y-83006810D01*
X134878687Y-83007209D01*
X134856283Y-83008809D01*
X134839193Y-83010320D01*
X134838608Y-83010381D01*
X134822552Y-83012336D01*
X134793646Y-83016322D01*
X134783634Y-83017804D01*
X134783285Y-83017859D01*
X134777381Y-83018853D01*
X134773380Y-83019528D01*
X134773325Y-83019537D01*
X134773318Y-83019539D01*
X134745392Y-83024525D01*
X134728291Y-83027884D01*
X134727625Y-83028027D01*
X134727617Y-83028028D01*
X134727607Y-83028031D01*
X134723930Y-83028884D01*
X134710966Y-83031893D01*
X134682983Y-83038889D01*
X134675183Y-83040906D01*
X134674723Y-83041029D01*
X134666374Y-83043336D01*
X134658554Y-83045570D01*
X134588686Y-83045054D01*
X134530189Y-83006846D01*
X134501635Y-82943077D01*
X134500500Y-82926338D01*
X134500500Y-81802230D01*
X134520185Y-81735191D01*
X134572989Y-81689436D01*
X134642147Y-81679492D01*
X134661390Y-81683845D01*
X134772894Y-81718590D01*
X134772893Y-81718590D01*
X134843408Y-81724998D01*
X134843426Y-81724999D01*
X134849999Y-81724998D01*
X134850000Y-81724998D01*
X134850000Y-80129308D01*
X135350000Y-80129308D01*
X135350000Y-81724999D01*
X135356581Y-81724999D01*
X135427102Y-81718591D01*
X135427107Y-81718590D01*
X135589396Y-81668018D01*
X135734877Y-81580072D01*
X135734878Y-81580071D01*
X135836963Y-81477985D01*
X135898286Y-81444499D01*
X135967977Y-81449483D01*
X136012326Y-81477984D01*
X136114811Y-81580469D01*
X136114813Y-81580470D01*
X136114815Y-81580472D01*
X136260394Y-81668478D01*
X136422804Y-81719086D01*
X136493384Y-81725500D01*
X136493387Y-81725500D01*
X137006613Y-81725500D01*
X137006616Y-81725500D01*
X137077196Y-81719086D01*
X137239606Y-81668478D01*
X137385185Y-81580472D01*
X137505472Y-81460185D01*
X137593478Y-81314606D01*
X137644086Y-81152196D01*
X137645606Y-81135460D01*
X137671275Y-81070480D01*
X137728002Y-81029690D01*
X137793288Y-81025065D01*
X137812058Y-81028798D01*
X137921155Y-81050500D01*
X137921158Y-81050500D01*
X138078844Y-81050500D01*
X138078845Y-81050499D01*
X138233497Y-81019737D01*
X138379179Y-80959394D01*
X138510289Y-80871789D01*
X138621789Y-80760289D01*
X138709394Y-80629179D01*
X138769737Y-80483497D01*
X138800500Y-80328842D01*
X138800500Y-80171158D01*
X138800500Y-80171155D01*
X138800499Y-80171153D01*
X138790936Y-80123078D01*
X138769737Y-80016503D01*
X138713392Y-79880472D01*
X138709396Y-79870825D01*
X138709394Y-79870822D01*
X138709394Y-79870821D01*
X138674694Y-79818889D01*
X138653816Y-79752215D01*
X138672300Y-79684835D01*
X138674676Y-79681136D01*
X138709394Y-79629179D01*
X138769737Y-79483497D01*
X138800500Y-79328842D01*
X138800500Y-79171158D01*
X138800500Y-79171155D01*
X138800499Y-79171153D01*
X138793904Y-79137997D01*
X138769737Y-79016503D01*
X138730242Y-78921153D01*
X138709397Y-78870827D01*
X138709390Y-78870814D01*
X138621789Y-78739711D01*
X138621786Y-78739707D01*
X138510292Y-78628213D01*
X138510288Y-78628210D01*
X138379185Y-78540609D01*
X138379172Y-78540602D01*
X138233501Y-78480264D01*
X138233489Y-78480261D01*
X138078845Y-78449500D01*
X138078842Y-78449500D01*
X137921158Y-78449500D01*
X137921155Y-78449500D01*
X137766510Y-78480261D01*
X137766498Y-78480264D01*
X137732087Y-78494518D01*
X137703541Y-78497586D01*
X137675470Y-78503618D01*
X137669237Y-78501275D01*
X137662617Y-78501987D01*
X137636940Y-78489133D01*
X137610069Y-78479032D01*
X137604544Y-78472916D01*
X137600138Y-78470711D01*
X137585176Y-78454011D01*
X137581615Y-78449228D01*
X137515472Y-78339815D01*
X137455480Y-78279823D01*
X137455478Y-78279820D01*
X137395188Y-78219530D01*
X137365656Y-78201677D01*
X140265000Y-78201677D01*
X140265000Y-78225000D01*
X140990000Y-78225000D01*
X140990000Y-77525000D01*
X141490000Y-77525000D01*
X141490000Y-78225000D01*
X142750000Y-78225000D01*
X142750000Y-77525000D01*
X142749999Y-77524999D01*
X142701693Y-77525000D01*
X142701675Y-77525001D01*
X142602392Y-77535144D01*
X142441518Y-77588452D01*
X142441507Y-77588457D01*
X142297271Y-77677424D01*
X142207681Y-77767014D01*
X142146357Y-77800498D01*
X142076666Y-77795514D01*
X142032319Y-77767014D01*
X141942728Y-77677424D01*
X141798492Y-77588457D01*
X141798481Y-77588452D01*
X141637606Y-77535144D01*
X141538322Y-77525000D01*
X141490000Y-77525000D01*
X140990000Y-77525000D01*
X140989999Y-77524999D01*
X140941693Y-77525000D01*
X140941675Y-77525001D01*
X140842392Y-77535144D01*
X140681518Y-77588452D01*
X140681507Y-77588457D01*
X140537271Y-77677424D01*
X140537267Y-77677427D01*
X140417427Y-77797267D01*
X140417424Y-77797271D01*
X140328457Y-77941507D01*
X140328452Y-77941518D01*
X140275144Y-78102393D01*
X140265000Y-78201677D01*
X137365656Y-78201677D01*
X137249606Y-78131522D01*
X137210290Y-78119271D01*
X137087196Y-78080914D01*
X137087194Y-78080913D01*
X137087192Y-78080913D01*
X137037778Y-78076423D01*
X137016616Y-78074500D01*
X136503384Y-78074500D01*
X136484145Y-78076248D01*
X136432807Y-78080913D01*
X136270393Y-78131522D01*
X136124811Y-78219530D01*
X136124810Y-78219531D01*
X136022327Y-78322015D01*
X135961004Y-78355500D01*
X135891312Y-78350516D01*
X135846965Y-78322015D01*
X135744877Y-78219927D01*
X135599395Y-78131980D01*
X135599396Y-78131980D01*
X135437105Y-78081409D01*
X135437106Y-78081409D01*
X135366572Y-78075000D01*
X135360000Y-78075000D01*
X135360000Y-80093638D01*
X135351355Y-80123078D01*
X135350000Y-80129308D01*
X134850000Y-80129308D01*
X134850000Y-79706362D01*
X134860000Y-79672306D01*
X134860000Y-78075000D01*
X134859999Y-78074999D01*
X134853436Y-78075000D01*
X134853417Y-78075001D01*
X134782897Y-78081408D01*
X134661390Y-78119271D01*
X134591530Y-78120421D01*
X134532137Y-78083620D01*
X134502069Y-78020552D01*
X134500500Y-78000885D01*
X134500500Y-76573661D01*
X134520185Y-76506622D01*
X134572989Y-76460867D01*
X134642147Y-76450923D01*
X134658567Y-76454433D01*
X134666350Y-76456657D01*
X134671494Y-76458078D01*
X134674816Y-76458996D01*
X134675138Y-76459082D01*
X134682973Y-76461108D01*
X134710973Y-76468108D01*
X134727607Y-76471969D01*
X134728274Y-76472112D01*
X134745380Y-76475472D01*
X134773380Y-76480472D01*
X134783272Y-76482138D01*
X134783664Y-76482200D01*
X134793564Y-76483665D01*
X134793577Y-76483666D01*
X134793646Y-76483677D01*
X134812916Y-76486334D01*
X134822564Y-76487665D01*
X134830580Y-76488640D01*
X134838608Y-76489618D01*
X134839193Y-76489679D01*
X134839250Y-76489685D01*
X134856273Y-76491190D01*
X134884273Y-76493190D01*
X134894153Y-76493799D01*
X134894520Y-76493818D01*
X134903234Y-76494194D01*
X134903287Y-76494195D01*
X134903291Y-76494196D01*
X134932247Y-76495195D01*
X134939378Y-76495379D01*
X134940865Y-76495418D01*
X134941210Y-76495424D01*
X134941270Y-76495424D01*
X134941297Y-76495425D01*
X134949952Y-76495500D01*
X134950000Y-76495500D01*
X135550048Y-76495500D01*
X135558702Y-76495425D01*
X135558727Y-76495424D01*
X135558790Y-76495424D01*
X135559135Y-76495418D01*
X135560899Y-76495372D01*
X135567752Y-76495195D01*
X135596708Y-76494196D01*
X135596766Y-76494194D01*
X135605480Y-76493818D01*
X135605847Y-76493799D01*
X135615727Y-76493190D01*
X135643727Y-76491190D01*
X135660750Y-76489685D01*
X135660880Y-76489671D01*
X135661391Y-76489618D01*
X135667608Y-76488860D01*
X135677436Y-76487665D01*
X135690936Y-76485802D01*
X135706353Y-76483677D01*
X135706407Y-76483668D01*
X135706436Y-76483665D01*
X135716336Y-76482200D01*
X135716728Y-76482138D01*
X135726620Y-76480472D01*
X135754620Y-76475472D01*
X135771726Y-76472112D01*
X135772393Y-76471969D01*
X135789027Y-76468108D01*
X135817027Y-76461108D01*
X135824862Y-76459082D01*
X135825184Y-76458996D01*
X135833619Y-76456665D01*
X135861619Y-76448665D01*
X135880216Y-76442962D01*
X135880942Y-76442724D01*
X135899040Y-76436409D01*
X135926040Y-76426409D01*
X135932779Y-76423858D01*
X135933079Y-76423742D01*
X135941497Y-76420401D01*
X135968497Y-76409401D01*
X135978639Y-76405139D01*
X135979057Y-76404958D01*
X135986979Y-76401415D01*
X135989972Y-76400077D01*
X135989992Y-76400067D01*
X135990025Y-76400053D01*
X136016025Y-76388053D01*
X136034136Y-76379253D01*
X136034831Y-76378898D01*
X136051875Y-76369777D01*
X136066518Y-76361576D01*
X136076858Y-76355787D01*
X136083135Y-76352211D01*
X136083152Y-76352201D01*
X136083226Y-76352159D01*
X136083485Y-76352009D01*
X136090223Y-76348038D01*
X136115223Y-76333038D01*
X136129634Y-76324058D01*
X136130200Y-76323692D01*
X136144384Y-76314177D01*
X136167384Y-76298177D01*
X136179125Y-76289757D01*
X136179577Y-76289423D01*
X136190707Y-76280959D01*
X136213707Y-76262959D01*
X136217661Y-76259832D01*
X136217769Y-76259745D01*
X136217823Y-76259703D01*
X136218923Y-76258812D01*
X136222434Y-76255975D01*
X136244434Y-76237975D01*
X136258959Y-76225626D01*
X136259524Y-76225127D01*
X136273518Y-76212293D01*
X136273534Y-76212277D01*
X136273549Y-76212264D01*
X136294491Y-76192319D01*
X136294857Y-76191962D01*
X136303339Y-76183683D01*
X136303683Y-76183339D01*
X136312293Y-76174518D01*
X136332293Y-76153518D01*
X136345127Y-76139524D01*
X136345626Y-76138959D01*
X136357975Y-76124434D01*
X136375975Y-76102434D01*
X136379697Y-76097830D01*
X136379832Y-76097661D01*
X136382959Y-76093707D01*
X136382994Y-76093663D01*
X136400943Y-76070727D01*
X136400959Y-76070707D01*
X136409423Y-76059577D01*
X136409757Y-76059125D01*
X136418177Y-76047384D01*
X136434177Y-76024384D01*
X136443692Y-76010200D01*
X136444058Y-76009634D01*
X136453038Y-75995223D01*
X136468038Y-75970223D01*
X136472009Y-75963485D01*
X136472159Y-75963226D01*
X136472182Y-75963185D01*
X136472245Y-75963077D01*
X136475787Y-75956858D01*
X136488280Y-75934548D01*
X136489777Y-75931875D01*
X136498898Y-75914831D01*
X136499253Y-75914136D01*
X136508053Y-75896025D01*
X136520053Y-75870025D01*
X136524958Y-75859057D01*
X136524961Y-75859048D01*
X136524978Y-75859012D01*
X136525142Y-75858631D01*
X136525243Y-75858391D01*
X136529401Y-75848497D01*
X136540401Y-75821497D01*
X136543742Y-75813079D01*
X136543858Y-75812779D01*
X136546409Y-75806040D01*
X136556409Y-75779040D01*
X136562724Y-75760942D01*
X136562962Y-75760216D01*
X136568665Y-75741619D01*
X136576665Y-75713619D01*
X136578996Y-75705184D01*
X136579082Y-75704862D01*
X136581108Y-75697027D01*
X136588108Y-75669027D01*
X136591969Y-75652393D01*
X136592112Y-75651726D01*
X136595472Y-75634620D01*
X136600472Y-75606620D01*
X136602138Y-75596728D01*
X136602200Y-75596336D01*
X136603665Y-75586436D01*
X136603668Y-75586407D01*
X136603677Y-75586353D01*
X136607663Y-75557447D01*
X136607665Y-75557436D01*
X136609616Y-75541404D01*
X136609618Y-75541391D01*
X136609679Y-75540806D01*
X136609685Y-75540750D01*
X136611190Y-75523727D01*
X136613190Y-75495727D01*
X136613799Y-75485847D01*
X136613818Y-75485480D01*
X136614194Y-75476766D01*
X136615194Y-75447766D01*
X136615494Y-75430345D01*
X136615494Y-75429655D01*
X136615194Y-75412234D01*
X136614194Y-75383234D01*
X136613818Y-75374520D01*
X136613799Y-75374153D01*
X136613190Y-75364273D01*
X136611190Y-75336273D01*
X136609685Y-75319250D01*
X136609679Y-75319193D01*
X136609618Y-75318608D01*
X136608640Y-75310580D01*
X136607665Y-75302564D01*
X136606178Y-75291784D01*
X136603677Y-75273646D01*
X136603665Y-75273564D01*
X136602200Y-75263664D01*
X136602138Y-75263272D01*
X136600472Y-75253380D01*
X136595472Y-75225380D01*
X136592112Y-75208274D01*
X136591969Y-75207607D01*
X136588108Y-75190973D01*
X136585364Y-75179999D01*
X137715150Y-75179999D01*
X137715151Y-75180000D01*
X138583012Y-75180000D01*
X138565795Y-75189940D01*
X138509940Y-75245795D01*
X138470444Y-75314204D01*
X138450000Y-75390504D01*
X138450000Y-75469496D01*
X138470444Y-75545796D01*
X138509940Y-75614205D01*
X138565795Y-75670060D01*
X138583012Y-75680000D01*
X137715151Y-75680000D01*
X137719371Y-75696884D01*
X137721384Y-75704668D01*
X137721488Y-75705060D01*
X137723812Y-75713472D01*
X137731812Y-75741472D01*
X137737521Y-75760087D01*
X137737749Y-75760783D01*
X137744051Y-75778841D01*
X137754110Y-75806001D01*
X137756574Y-75812514D01*
X137756745Y-75812955D01*
X137760036Y-75821243D01*
X137771073Y-75848335D01*
X137775298Y-75858391D01*
X137775484Y-75858821D01*
X137780397Y-75869808D01*
X137792401Y-75895814D01*
X137801177Y-75913877D01*
X137801548Y-75914604D01*
X137810672Y-75931656D01*
X137824621Y-75956564D01*
X137828269Y-75962969D01*
X137828431Y-75963249D01*
X137832405Y-75969989D01*
X137847378Y-75994942D01*
X137856366Y-76009369D01*
X137856724Y-76009923D01*
X137866243Y-76024113D01*
X137882246Y-76047117D01*
X137890632Y-76058811D01*
X137890948Y-76059238D01*
X137899442Y-76070409D01*
X137917392Y-76093344D01*
X137920547Y-76097334D01*
X137920591Y-76097389D01*
X137924432Y-76102140D01*
X137942412Y-76124116D01*
X137954764Y-76138647D01*
X137955239Y-76139184D01*
X137968075Y-76153179D01*
X137988037Y-76174140D01*
X137996710Y-76183027D01*
X137996972Y-76183289D01*
X138005859Y-76191962D01*
X138026820Y-76211924D01*
X138040815Y-76224760D01*
X138041352Y-76225235D01*
X138055883Y-76237587D01*
X138077859Y-76255567D01*
X138082608Y-76259406D01*
X138082665Y-76259452D01*
X138086655Y-76262607D01*
X138109590Y-76280557D01*
X138120761Y-76289051D01*
X138121188Y-76289367D01*
X138132882Y-76297753D01*
X138155886Y-76313756D01*
X138170076Y-76323275D01*
X138170630Y-76323633D01*
X138185057Y-76332621D01*
X138210010Y-76347594D01*
X138216750Y-76351568D01*
X138217030Y-76351730D01*
X138223435Y-76355378D01*
X138248343Y-76369327D01*
X138265395Y-76378451D01*
X138266122Y-76378822D01*
X138284185Y-76387598D01*
X138310191Y-76399602D01*
X138321120Y-76404490D01*
X138321579Y-76404689D01*
X138331664Y-76408926D01*
X138358756Y-76419963D01*
X138367044Y-76423254D01*
X138367485Y-76423425D01*
X138373998Y-76425889D01*
X138401158Y-76435948D01*
X138419216Y-76442250D01*
X138419912Y-76442478D01*
X138438527Y-76448187D01*
X138466527Y-76456187D01*
X138474939Y-76458511D01*
X138475270Y-76458599D01*
X138483032Y-76460607D01*
X138511100Y-76467624D01*
X138527738Y-76471485D01*
X138528375Y-76471622D01*
X138545483Y-76474983D01*
X138573488Y-76479983D01*
X138583349Y-76481644D01*
X138583677Y-76481695D01*
X138593662Y-76483174D01*
X138622645Y-76487171D01*
X138638654Y-76489120D01*
X138639290Y-76489187D01*
X138656283Y-76490689D01*
X138684347Y-76492694D01*
X138694140Y-76493298D01*
X138694567Y-76493320D01*
X138703283Y-76493695D01*
X138732204Y-76494692D01*
X138740859Y-76494917D01*
X138741304Y-76494925D01*
X138749952Y-76495000D01*
X138800000Y-76495000D01*
X138800000Y-75730000D01*
X139300000Y-75730000D01*
X139300000Y-76495000D01*
X139350048Y-76495000D01*
X139358695Y-76494925D01*
X139359140Y-76494917D01*
X139367795Y-76494692D01*
X139396716Y-76493695D01*
X139405432Y-76493320D01*
X139405859Y-76493298D01*
X139415652Y-76492694D01*
X139443716Y-76490689D01*
X139460709Y-76489187D01*
X139461345Y-76489120D01*
X139477354Y-76487171D01*
X139506337Y-76483174D01*
X139516322Y-76481695D01*
X139516650Y-76481644D01*
X139526511Y-76479983D01*
X139554516Y-76474983D01*
X139571624Y-76471622D01*
X139572261Y-76471485D01*
X139588899Y-76467624D01*
X139616967Y-76460607D01*
X139624729Y-76458599D01*
X139625060Y-76458511D01*
X139633472Y-76456187D01*
X139661472Y-76448187D01*
X139680087Y-76442478D01*
X139680783Y-76442250D01*
X139698841Y-76435948D01*
X139726001Y-76425889D01*
X139732514Y-76423425D01*
X139732955Y-76423254D01*
X139741243Y-76419963D01*
X139768335Y-76408926D01*
X139778421Y-76404689D01*
X139778879Y-76404490D01*
X139789808Y-76399602D01*
X139815814Y-76387598D01*
X139833877Y-76378822D01*
X139834604Y-76378451D01*
X139851656Y-76369327D01*
X139876564Y-76355378D01*
X139882969Y-76351730D01*
X139883249Y-76351568D01*
X139889989Y-76347594D01*
X139914942Y-76332621D01*
X139929369Y-76323633D01*
X139929923Y-76323275D01*
X139944113Y-76313756D01*
X139967117Y-76297753D01*
X139978811Y-76289367D01*
X139979238Y-76289051D01*
X139990409Y-76280557D01*
X140013344Y-76262607D01*
X140017334Y-76259452D01*
X140017391Y-76259406D01*
X140022140Y-76255567D01*
X140044116Y-76237587D01*
X140058647Y-76225235D01*
X140059184Y-76224760D01*
X140073179Y-76211924D01*
X140094140Y-76191962D01*
X140103027Y-76183289D01*
X140103289Y-76183027D01*
X140111962Y-76174140D01*
X140131924Y-76153179D01*
X140144760Y-76139184D01*
X140145235Y-76138647D01*
X140157587Y-76124116D01*
X140175567Y-76102140D01*
X140179409Y-76097389D01*
X140179452Y-76097334D01*
X140182607Y-76093344D01*
X140200557Y-76070409D01*
X140209051Y-76059238D01*
X140209367Y-76058811D01*
X140217753Y-76047117D01*
X140233756Y-76024113D01*
X140243275Y-76009923D01*
X140243633Y-76009369D01*
X140252621Y-75994942D01*
X140267594Y-75969989D01*
X140271568Y-75963249D01*
X140271730Y-75962969D01*
X140275378Y-75956564D01*
X140278115Y-75951677D01*
X143775000Y-75951677D01*
X143775000Y-75975000D01*
X144500000Y-75975000D01*
X144500000Y-75275000D01*
X144499999Y-75274999D01*
X144451693Y-75275000D01*
X144451675Y-75275001D01*
X144352392Y-75285144D01*
X144191518Y-75338452D01*
X144191507Y-75338457D01*
X144047271Y-75427424D01*
X144047267Y-75427427D01*
X143927427Y-75547267D01*
X143927424Y-75547271D01*
X143838457Y-75691507D01*
X143838452Y-75691518D01*
X143785144Y-75852393D01*
X143775000Y-75951677D01*
X140278115Y-75951677D01*
X140289327Y-75931656D01*
X140298451Y-75914604D01*
X140298822Y-75913877D01*
X140307583Y-75895846D01*
X140319617Y-75869775D01*
X140324516Y-75858821D01*
X140324702Y-75858391D01*
X140328926Y-75848335D01*
X140339963Y-75821243D01*
X140343254Y-75812955D01*
X140343425Y-75812514D01*
X140345889Y-75806001D01*
X140355948Y-75778841D01*
X140362250Y-75760783D01*
X140362478Y-75760087D01*
X140368187Y-75741472D01*
X140376187Y-75713472D01*
X140378511Y-75705060D01*
X140378616Y-75704668D01*
X140380628Y-75696884D01*
X140384849Y-75680000D01*
X139516988Y-75680000D01*
X139534205Y-75670060D01*
X139590060Y-75614205D01*
X139629556Y-75545796D01*
X139650000Y-75469496D01*
X139650000Y-75390504D01*
X139629556Y-75314204D01*
X139590060Y-75245795D01*
X139534205Y-75189940D01*
X139516988Y-75180000D01*
X140384849Y-75180000D01*
X140384849Y-75179999D01*
X140380628Y-75163115D01*
X140378591Y-75155240D01*
X140378511Y-75154939D01*
X140376187Y-75146527D01*
X140368187Y-75118527D01*
X140362478Y-75099912D01*
X140362250Y-75099216D01*
X140355948Y-75081158D01*
X140345889Y-75053998D01*
X140343425Y-75047485D01*
X140343254Y-75047044D01*
X140339963Y-75038756D01*
X140328926Y-75011664D01*
X140324695Y-75001594D01*
X140324490Y-75001120D01*
X140319602Y-74990191D01*
X140307598Y-74964185D01*
X140298822Y-74946122D01*
X140298451Y-74945395D01*
X140289327Y-74928343D01*
X140275378Y-74903435D01*
X140271730Y-74897030D01*
X140271568Y-74896750D01*
X140267594Y-74890010D01*
X140252621Y-74865057D01*
X140243633Y-74850630D01*
X140243275Y-74850076D01*
X140233756Y-74835886D01*
X140217753Y-74812882D01*
X140209367Y-74801188D01*
X140209051Y-74800761D01*
X140200557Y-74789590D01*
X140182607Y-74766655D01*
X140179409Y-74762611D01*
X140179406Y-74762608D01*
X140175558Y-74757847D01*
X140157587Y-74735883D01*
X140145235Y-74721352D01*
X140144760Y-74720815D01*
X140131924Y-74706820D01*
X140111962Y-74685859D01*
X140103289Y-74676972D01*
X140103027Y-74676710D01*
X140094140Y-74668037D01*
X140073179Y-74648075D01*
X140059184Y-74635239D01*
X140058647Y-74634764D01*
X140044116Y-74622412D01*
X140022140Y-74604432D01*
X140017391Y-74600593D01*
X140017334Y-74600547D01*
X140013344Y-74597392D01*
X139990409Y-74579442D01*
X139979238Y-74570948D01*
X139978811Y-74570632D01*
X139967117Y-74562246D01*
X139944113Y-74546243D01*
X139929923Y-74536724D01*
X139929369Y-74536366D01*
X139914942Y-74527378D01*
X139889989Y-74512405D01*
X139883249Y-74508431D01*
X139882969Y-74508269D01*
X139876564Y-74504621D01*
X139851656Y-74490672D01*
X139834604Y-74481548D01*
X139833877Y-74481177D01*
X139815814Y-74472401D01*
X139789808Y-74460397D01*
X139778879Y-74455509D01*
X139778405Y-74455304D01*
X139768335Y-74451073D01*
X139741243Y-74440036D01*
X139732955Y-74436745D01*
X139732514Y-74436574D01*
X139726001Y-74434110D01*
X139698841Y-74424051D01*
X139680783Y-74417749D01*
X139680087Y-74417521D01*
X139661472Y-74411812D01*
X139633472Y-74403812D01*
X139625060Y-74401488D01*
X139624729Y-74401400D01*
X139616967Y-74399392D01*
X139588899Y-74392375D01*
X139572261Y-74388514D01*
X139571624Y-74388377D01*
X139554516Y-74385016D01*
X139526511Y-74380016D01*
X139516650Y-74378355D01*
X139516322Y-74378304D01*
X139506337Y-74376825D01*
X139477354Y-74372828D01*
X139461345Y-74370879D01*
X139460709Y-74370812D01*
X139443716Y-74369310D01*
X139415652Y-74367305D01*
X139405859Y-74366701D01*
X139405432Y-74366679D01*
X139396716Y-74366304D01*
X139367795Y-74365307D01*
X139359140Y-74365082D01*
X139358695Y-74365074D01*
X139350048Y-74365000D01*
X139300000Y-74365000D01*
X139300000Y-75130000D01*
X138800000Y-75130000D01*
X138800000Y-74365000D01*
X138749952Y-74365000D01*
X138741304Y-74365074D01*
X138740859Y-74365082D01*
X138732204Y-74365307D01*
X138703283Y-74366304D01*
X138694567Y-74366679D01*
X138694140Y-74366701D01*
X138684347Y-74367305D01*
X138656283Y-74369310D01*
X138639290Y-74370812D01*
X138638654Y-74370879D01*
X138622645Y-74372828D01*
X138593662Y-74376825D01*
X138583677Y-74378304D01*
X138583349Y-74378355D01*
X138573488Y-74380016D01*
X138545483Y-74385016D01*
X138528375Y-74388377D01*
X138527738Y-74388514D01*
X138511100Y-74392375D01*
X138483032Y-74399392D01*
X138475270Y-74401400D01*
X138474939Y-74401488D01*
X138466527Y-74403812D01*
X138438527Y-74411812D01*
X138419912Y-74417521D01*
X138419216Y-74417749D01*
X138401158Y-74424051D01*
X138373998Y-74434110D01*
X138367485Y-74436574D01*
X138367044Y-74436745D01*
X138358756Y-74440036D01*
X138331664Y-74451073D01*
X138321594Y-74455304D01*
X138321120Y-74455509D01*
X138310191Y-74460397D01*
X138284185Y-74472401D01*
X138266122Y-74481177D01*
X138265395Y-74481548D01*
X138248343Y-74490672D01*
X138223435Y-74504621D01*
X138217030Y-74508269D01*
X138216750Y-74508431D01*
X138210010Y-74512405D01*
X138185057Y-74527378D01*
X138170630Y-74536366D01*
X138170076Y-74536724D01*
X138155886Y-74546243D01*
X138132882Y-74562246D01*
X138121188Y-74570632D01*
X138120761Y-74570948D01*
X138109590Y-74579442D01*
X138086655Y-74597392D01*
X138082665Y-74600547D01*
X138082608Y-74600593D01*
X138077859Y-74604432D01*
X138055883Y-74622412D01*
X138041352Y-74634764D01*
X138040815Y-74635239D01*
X138026820Y-74648075D01*
X138005859Y-74668037D01*
X137996972Y-74676710D01*
X137996710Y-74676972D01*
X137988037Y-74685859D01*
X137968075Y-74706820D01*
X137955239Y-74720815D01*
X137954764Y-74721352D01*
X137942412Y-74735883D01*
X137924442Y-74757847D01*
X137920593Y-74762608D01*
X137920591Y-74762611D01*
X137917392Y-74766655D01*
X137899442Y-74789590D01*
X137890948Y-74800761D01*
X137890632Y-74801188D01*
X137882246Y-74812882D01*
X137866243Y-74835886D01*
X137856724Y-74850076D01*
X137856366Y-74850630D01*
X137847378Y-74865057D01*
X137832405Y-74890010D01*
X137828431Y-74896750D01*
X137828269Y-74897030D01*
X137824621Y-74903435D01*
X137810672Y-74928343D01*
X137801548Y-74945395D01*
X137801177Y-74946122D01*
X137792401Y-74964185D01*
X137780397Y-74990191D01*
X137775509Y-75001120D01*
X137775304Y-75001594D01*
X137771073Y-75011664D01*
X137760036Y-75038756D01*
X137756745Y-75047044D01*
X137756574Y-75047485D01*
X137754110Y-75053998D01*
X137744051Y-75081158D01*
X137737749Y-75099216D01*
X137737521Y-75099912D01*
X137731812Y-75118527D01*
X137723812Y-75146527D01*
X137721488Y-75154939D01*
X137721408Y-75155240D01*
X137719371Y-75163115D01*
X137715150Y-75179999D01*
X136585364Y-75179999D01*
X136581108Y-75162973D01*
X136579082Y-75155138D01*
X136578996Y-75154816D01*
X136576665Y-75146381D01*
X136568665Y-75118381D01*
X136562962Y-75099784D01*
X136562724Y-75099058D01*
X136556409Y-75080960D01*
X136546409Y-75053960D01*
X136543858Y-75047221D01*
X136543742Y-75046921D01*
X136540401Y-75038503D01*
X136529401Y-75011503D01*
X136525139Y-75001361D01*
X136524958Y-75000943D01*
X136520150Y-74990191D01*
X136520077Y-74990027D01*
X136520053Y-74989975D01*
X136508053Y-74963975D01*
X136499253Y-74945864D01*
X136498898Y-74945169D01*
X136498894Y-74945163D01*
X136498881Y-74945136D01*
X136489778Y-74928127D01*
X136475787Y-74903141D01*
X136472211Y-74896864D01*
X136472013Y-74896522D01*
X136468175Y-74890010D01*
X136468038Y-74889777D01*
X136453038Y-74864777D01*
X136444058Y-74850366D01*
X136443990Y-74850261D01*
X136443694Y-74849802D01*
X136434185Y-74835627D01*
X136418156Y-74812586D01*
X136409786Y-74800915D01*
X136409775Y-74800900D01*
X136409757Y-74800875D01*
X136409423Y-74800423D01*
X136400959Y-74789293D01*
X136388486Y-74773355D01*
X136382966Y-74766301D01*
X136379805Y-74762304D01*
X136379703Y-74762176D01*
X136376202Y-74757847D01*
X136375975Y-74757566D01*
X136367986Y-74747801D01*
X136357991Y-74735585D01*
X136357975Y-74735566D01*
X136345626Y-74721041D01*
X136345606Y-74721018D01*
X136345160Y-74720513D01*
X136345151Y-74720503D01*
X136345127Y-74720476D01*
X136332293Y-74706482D01*
X136326120Y-74700000D01*
X136312305Y-74685494D01*
X136303647Y-74676624D01*
X136303375Y-74676352D01*
X136294491Y-74667680D01*
X136273537Y-74647725D01*
X136273534Y-74647722D01*
X136273518Y-74647707D01*
X136259524Y-74634873D01*
X136258959Y-74634374D01*
X136244434Y-74622025D01*
X136244433Y-74622024D01*
X136244414Y-74622008D01*
X136222424Y-74604017D01*
X136217811Y-74600287D01*
X136217665Y-74600171D01*
X136213698Y-74597033D01*
X136190727Y-74579056D01*
X136186659Y-74575963D01*
X136179577Y-74570577D01*
X136179125Y-74570243D01*
X136179111Y-74570233D01*
X136179084Y-74570213D01*
X136167413Y-74561843D01*
X136144372Y-74545814D01*
X136130197Y-74536305D01*
X136129625Y-74535936D01*
X136115237Y-74526970D01*
X136090265Y-74511987D01*
X136083477Y-74507986D01*
X136083135Y-74507788D01*
X136076858Y-74504212D01*
X136051872Y-74490221D01*
X136034863Y-74481118D01*
X136034137Y-74480747D01*
X136016027Y-74471948D01*
X135989972Y-74459922D01*
X135979051Y-74455039D01*
X135978631Y-74454857D01*
X135968516Y-74450607D01*
X135968517Y-74450607D01*
X135968497Y-74450599D01*
X135941497Y-74439599D01*
X135941493Y-74439597D01*
X135941438Y-74439575D01*
X135933066Y-74436252D01*
X135932864Y-74436174D01*
X135925940Y-74433553D01*
X135899031Y-74423587D01*
X135880937Y-74417274D01*
X135880240Y-74417045D01*
X135861612Y-74411332D01*
X135833604Y-74403330D01*
X135825276Y-74401029D01*
X135825228Y-74401016D01*
X135825184Y-74401004D01*
X135824862Y-74400918D01*
X135818961Y-74399392D01*
X135817016Y-74398889D01*
X135789033Y-74391893D01*
X135780884Y-74390002D01*
X135772393Y-74388031D01*
X135772145Y-74387978D01*
X135771708Y-74387884D01*
X135754607Y-74384525D01*
X135729353Y-74380016D01*
X135726620Y-74379528D01*
X135721390Y-74378647D01*
X135716714Y-74377859D01*
X135716365Y-74377804D01*
X135706353Y-74376322D01*
X135677447Y-74372336D01*
X135661391Y-74370381D01*
X135660806Y-74370320D01*
X135660752Y-74370315D01*
X135660750Y-74370315D01*
X135649854Y-74369351D01*
X135643716Y-74368809D01*
X135626913Y-74367609D01*
X135615727Y-74366810D01*
X135615711Y-74366809D01*
X135605873Y-74366202D01*
X135605471Y-74366181D01*
X135596708Y-74365803D01*
X135567752Y-74364804D01*
X135559206Y-74364583D01*
X135558702Y-74364574D01*
X135550048Y-74364500D01*
X135550000Y-74364500D01*
X134950000Y-74364500D01*
X134949952Y-74364500D01*
X134941297Y-74364574D01*
X134940793Y-74364583D01*
X134932247Y-74364804D01*
X134903291Y-74365803D01*
X134894528Y-74366181D01*
X134894126Y-74366202D01*
X134884288Y-74366809D01*
X134884280Y-74366809D01*
X134884273Y-74366810D01*
X134878687Y-74367209D01*
X134856283Y-74368809D01*
X134839193Y-74370320D01*
X134838608Y-74370381D01*
X134822552Y-74372336D01*
X134793646Y-74376322D01*
X134783634Y-74377804D01*
X134783285Y-74377859D01*
X134777381Y-74378853D01*
X134773380Y-74379528D01*
X134773325Y-74379537D01*
X134773318Y-74379539D01*
X134745392Y-74384525D01*
X134728291Y-74387884D01*
X134727625Y-74388027D01*
X134727617Y-74388028D01*
X134727607Y-74388031D01*
X134725526Y-74388514D01*
X134710966Y-74391893D01*
X134682983Y-74398889D01*
X134675183Y-74400906D01*
X134674723Y-74401029D01*
X134666374Y-74403336D01*
X134658554Y-74405570D01*
X134588686Y-74405054D01*
X134530189Y-74366846D01*
X134501635Y-74303077D01*
X134500500Y-74286338D01*
X134500500Y-72676677D01*
X146025000Y-72676677D01*
X146025000Y-72700000D01*
X146750000Y-72700000D01*
X146750000Y-72000000D01*
X147250000Y-72000000D01*
X147250000Y-72700000D01*
X148500000Y-72700000D01*
X149000000Y-72700000D01*
X149724999Y-72700000D01*
X149724999Y-72676692D01*
X149724998Y-72676677D01*
X149714855Y-72577392D01*
X149661547Y-72416518D01*
X149661542Y-72416507D01*
X149572575Y-72272271D01*
X149572572Y-72272267D01*
X149452732Y-72152427D01*
X149452728Y-72152424D01*
X149308492Y-72063457D01*
X149308481Y-72063452D01*
X149147606Y-72010144D01*
X149048322Y-72000000D01*
X149000000Y-72000000D01*
X149000000Y-72700000D01*
X148500000Y-72700000D01*
X148500000Y-72000000D01*
X148499999Y-71999999D01*
X148451693Y-72000000D01*
X148451675Y-72000001D01*
X148352392Y-72010144D01*
X148191518Y-72063452D01*
X148191507Y-72063457D01*
X148047271Y-72152424D01*
X147962681Y-72237014D01*
X147901357Y-72270498D01*
X147831666Y-72265514D01*
X147787319Y-72237014D01*
X147702728Y-72152424D01*
X147558492Y-72063457D01*
X147558481Y-72063452D01*
X147397606Y-72010144D01*
X147298322Y-72000000D01*
X147250000Y-72000000D01*
X146750000Y-72000000D01*
X146749999Y-71999999D01*
X146701693Y-72000000D01*
X146701675Y-72000001D01*
X146602392Y-72010144D01*
X146441518Y-72063452D01*
X146441507Y-72063457D01*
X146297271Y-72152424D01*
X146297267Y-72152427D01*
X146177427Y-72272267D01*
X146177424Y-72272271D01*
X146088457Y-72416507D01*
X146088452Y-72416518D01*
X146035144Y-72577393D01*
X146025000Y-72676677D01*
X134500500Y-72676677D01*
X134500500Y-58251647D01*
X154774500Y-58251647D01*
X154774500Y-58798337D01*
X154774501Y-58798355D01*
X154784650Y-58897707D01*
X154784651Y-58897710D01*
X154837996Y-59058694D01*
X154838001Y-59058705D01*
X154927029Y-59203040D01*
X154927032Y-59203044D01*
X155046955Y-59322967D01*
X155046959Y-59322970D01*
X155191294Y-59411998D01*
X155191297Y-59411999D01*
X155191303Y-59412003D01*
X155352292Y-59465349D01*
X155451655Y-59475500D01*
X155587769Y-59475499D01*
X155654809Y-59495183D01*
X155675451Y-59511818D01*
X156246580Y-60082948D01*
X156246584Y-60082951D01*
X156369498Y-60165080D01*
X156369511Y-60165087D01*
X156476469Y-60209390D01*
X156506087Y-60221658D01*
X156506091Y-60221658D01*
X156506092Y-60221659D01*
X156651079Y-60250500D01*
X156651082Y-60250500D01*
X156798917Y-60250500D01*
X156945396Y-60250500D01*
X156992844Y-60259937D01*
X157016503Y-60269737D01*
X157016508Y-60269738D01*
X157016511Y-60269739D01*
X157171153Y-60300499D01*
X157171156Y-60300500D01*
X157171158Y-60300500D01*
X157328844Y-60300500D01*
X157328845Y-60300499D01*
X157483497Y-60269737D01*
X157629179Y-60209394D01*
X157760289Y-60121789D01*
X157871789Y-60010289D01*
X157959394Y-59879179D01*
X158019737Y-59733497D01*
X158050500Y-59578842D01*
X158050500Y-59486265D01*
X158070185Y-59419226D01*
X158109400Y-59380728D01*
X158203044Y-59322968D01*
X158322968Y-59203044D01*
X158412003Y-59058697D01*
X158465349Y-58897708D01*
X158475500Y-58798345D01*
X158475499Y-58251656D01*
X158474543Y-58242302D01*
X158465349Y-58152292D01*
X158465348Y-58152289D01*
X158440583Y-58077552D01*
X158412003Y-57991303D01*
X158411999Y-57991297D01*
X158411998Y-57991294D01*
X158322970Y-57846959D01*
X158322967Y-57846955D01*
X158313339Y-57837327D01*
X158279854Y-57776004D01*
X158284838Y-57706312D01*
X158313345Y-57661959D01*
X158322573Y-57652731D01*
X158411542Y-57508492D01*
X158411547Y-57508481D01*
X158464855Y-57347606D01*
X158474999Y-57248322D01*
X158475000Y-57248309D01*
X158475000Y-57225000D01*
X154775001Y-57225000D01*
X154775001Y-57248322D01*
X154785144Y-57347607D01*
X154838452Y-57508481D01*
X154838457Y-57508492D01*
X154927424Y-57652728D01*
X154927427Y-57652732D01*
X154936660Y-57661965D01*
X154970145Y-57723288D01*
X154965161Y-57792980D01*
X154936663Y-57837324D01*
X154927033Y-57846953D01*
X154927029Y-57846959D01*
X154838001Y-57991294D01*
X154837996Y-57991305D01*
X154784651Y-58152290D01*
X154774500Y-58251647D01*
X134500500Y-58251647D01*
X134500500Y-54528303D01*
X134520185Y-54461264D01*
X134572989Y-54415509D01*
X134642147Y-54405565D01*
X134705703Y-54434590D01*
X134729492Y-54462329D01*
X134794108Y-54565164D01*
X134983221Y-54802304D01*
X135197696Y-55016779D01*
X135434836Y-55205892D01*
X135691659Y-55367265D01*
X135964935Y-55498868D01*
X136179951Y-55574105D01*
X136251216Y-55599042D01*
X136251228Y-55599046D01*
X136546937Y-55666540D01*
X136546946Y-55666541D01*
X136546951Y-55666542D01*
X136747404Y-55689127D01*
X136848337Y-55700499D01*
X136848340Y-55700500D01*
X136848343Y-55700500D01*
X137151660Y-55700500D01*
X137151661Y-55700499D01*
X137305694Y-55683144D01*
X137453048Y-55666542D01*
X137453051Y-55666541D01*
X137453063Y-55666540D01*
X137748772Y-55599046D01*
X137955677Y-55526647D01*
X142274500Y-55526647D01*
X142274500Y-56073337D01*
X142274501Y-56073355D01*
X142284650Y-56172707D01*
X142284651Y-56172710D01*
X142337996Y-56333694D01*
X142338001Y-56333705D01*
X142427029Y-56478040D01*
X142427032Y-56478044D01*
X142546955Y-56597967D01*
X142546959Y-56597970D01*
X142691294Y-56686998D01*
X142691297Y-56686999D01*
X142691303Y-56687003D01*
X142791063Y-56720060D01*
X142852294Y-56740350D01*
X142858909Y-56741766D01*
X142858349Y-56744379D01*
X142911886Y-56766218D01*
X142952043Y-56823395D01*
X142956219Y-56887377D01*
X142949500Y-56921158D01*
X142949500Y-57078846D01*
X142980261Y-57233489D01*
X142980264Y-57233501D01*
X143040602Y-57379172D01*
X143040609Y-57379185D01*
X143128210Y-57510288D01*
X143128213Y-57510292D01*
X143239707Y-57621786D01*
X143239711Y-57621789D01*
X143370814Y-57709390D01*
X143370827Y-57709397D01*
X143516498Y-57769735D01*
X143516503Y-57769737D01*
X143633353Y-57792980D01*
X143671153Y-57800499D01*
X143671156Y-57800500D01*
X143671158Y-57800500D01*
X143828844Y-57800500D01*
X143828845Y-57800499D01*
X143983497Y-57769737D01*
X144129179Y-57709394D01*
X144260289Y-57621789D01*
X144371789Y-57510289D01*
X144459394Y-57379179D01*
X144519737Y-57233497D01*
X144550500Y-57078842D01*
X144550500Y-56921158D01*
X144550500Y-56921155D01*
X144550499Y-56921153D01*
X144519739Y-56766511D01*
X144519736Y-56766501D01*
X144511236Y-56745980D01*
X144509934Y-56742838D01*
X144501749Y-56701677D01*
X154775000Y-56701677D01*
X154775000Y-56725000D01*
X155500000Y-56725000D01*
X155500000Y-56025000D01*
X156000000Y-56025000D01*
X156000000Y-56725000D01*
X157250000Y-56725000D01*
X157750000Y-56725000D01*
X158474999Y-56725000D01*
X158474999Y-56701692D01*
X158474998Y-56701677D01*
X158464855Y-56602392D01*
X158411547Y-56441518D01*
X158411542Y-56441507D01*
X158322575Y-56297271D01*
X158322572Y-56297267D01*
X158202732Y-56177427D01*
X158202728Y-56177424D01*
X158058492Y-56088457D01*
X158058481Y-56088452D01*
X157897606Y-56035144D01*
X157798322Y-56025000D01*
X157750000Y-56025000D01*
X157750000Y-56725000D01*
X157250000Y-56725000D01*
X157250000Y-56025000D01*
X157249999Y-56024999D01*
X157201693Y-56025000D01*
X157201675Y-56025001D01*
X157102392Y-56035144D01*
X156941518Y-56088452D01*
X156941507Y-56088457D01*
X156797271Y-56177424D01*
X156712681Y-56262014D01*
X156651357Y-56295498D01*
X156581666Y-56290514D01*
X156537319Y-56262014D01*
X156452728Y-56177424D01*
X156308492Y-56088457D01*
X156308481Y-56088452D01*
X156147606Y-56035144D01*
X156048322Y-56025000D01*
X156000000Y-56025000D01*
X155500000Y-56025000D01*
X155499999Y-56024999D01*
X155451693Y-56025000D01*
X155451675Y-56025001D01*
X155352392Y-56035144D01*
X155191518Y-56088452D01*
X155191507Y-56088457D01*
X155047271Y-56177424D01*
X155047267Y-56177427D01*
X154927427Y-56297267D01*
X154927424Y-56297271D01*
X154838457Y-56441507D01*
X154838452Y-56441518D01*
X154785144Y-56602393D01*
X154775000Y-56701677D01*
X144501749Y-56701677D01*
X144500500Y-56695396D01*
X144500500Y-56226079D01*
X144471659Y-56081092D01*
X144471658Y-56081091D01*
X144471658Y-56081087D01*
X144452628Y-56035144D01*
X144415087Y-55944511D01*
X144415085Y-55944507D01*
X144415084Y-55944505D01*
X144365850Y-55870821D01*
X144332952Y-55821584D01*
X144258481Y-55747113D01*
X144255409Y-55743534D01*
X144242904Y-55715813D01*
X144228333Y-55689127D01*
X144227539Y-55681750D01*
X144226680Y-55679844D01*
X144227059Y-55677286D01*
X144225499Y-55662769D01*
X144225499Y-55526662D01*
X144225498Y-55526644D01*
X144215349Y-55427292D01*
X144215348Y-55427289D01*
X144195459Y-55367268D01*
X144162003Y-55266303D01*
X144161999Y-55266297D01*
X144161998Y-55266294D01*
X144072970Y-55121959D01*
X144072967Y-55121955D01*
X144063339Y-55112327D01*
X144029854Y-55051004D01*
X144034838Y-54981312D01*
X144063345Y-54936959D01*
X144072573Y-54927731D01*
X144161542Y-54783492D01*
X144161547Y-54783481D01*
X144214855Y-54622606D01*
X144224999Y-54523322D01*
X144225000Y-54523309D01*
X144225000Y-54500000D01*
X142275001Y-54500000D01*
X142275001Y-54523322D01*
X142285144Y-54622607D01*
X142338452Y-54783481D01*
X142338457Y-54783492D01*
X142427424Y-54927728D01*
X142427427Y-54927732D01*
X142436660Y-54936965D01*
X142470145Y-54998288D01*
X142465161Y-55067980D01*
X142436663Y-55112324D01*
X142427033Y-55121953D01*
X142427029Y-55121959D01*
X142338001Y-55266294D01*
X142337996Y-55266305D01*
X142284651Y-55427290D01*
X142274500Y-55526647D01*
X137955677Y-55526647D01*
X138035065Y-55498868D01*
X138308341Y-55367265D01*
X138565164Y-55205892D01*
X138802304Y-55016779D01*
X139016779Y-54802304D01*
X139205892Y-54565164D01*
X139367265Y-54308341D01*
X139498868Y-54035065D01*
X139519299Y-53976677D01*
X142275000Y-53976677D01*
X142275000Y-54000000D01*
X143000000Y-54000000D01*
X143500000Y-54000000D01*
X144224999Y-54000000D01*
X144224999Y-53976692D01*
X144224998Y-53976677D01*
X144214855Y-53877392D01*
X144161547Y-53716518D01*
X144161542Y-53716507D01*
X144072575Y-53572271D01*
X144072572Y-53572267D01*
X143952732Y-53452427D01*
X143952728Y-53452424D01*
X143808492Y-53363457D01*
X143808481Y-53363452D01*
X143647606Y-53310144D01*
X143548322Y-53300000D01*
X143500000Y-53300000D01*
X143500000Y-54000000D01*
X143000000Y-54000000D01*
X143000000Y-53300000D01*
X142999999Y-53299999D01*
X142951693Y-53300000D01*
X142951675Y-53300001D01*
X142852392Y-53310144D01*
X142691518Y-53363452D01*
X142691507Y-53363457D01*
X142547271Y-53452424D01*
X142547267Y-53452427D01*
X142427427Y-53572267D01*
X142427424Y-53572271D01*
X142338457Y-53716507D01*
X142338452Y-53716518D01*
X142285144Y-53877393D01*
X142275000Y-53976677D01*
X139519299Y-53976677D01*
X139599046Y-53748772D01*
X139666540Y-53453063D01*
X139700500Y-53151657D01*
X139700500Y-52848343D01*
X139685158Y-52712181D01*
X139666542Y-52546951D01*
X139666541Y-52546946D01*
X139666540Y-52546937D01*
X139599046Y-52251228D01*
X139577474Y-52189580D01*
X139539967Y-52082389D01*
X139498868Y-51964935D01*
X139367265Y-51691659D01*
X139205892Y-51434836D01*
X139016779Y-51197696D01*
X138802304Y-50983221D01*
X138565164Y-50794108D01*
X138308341Y-50632735D01*
X138308338Y-50632733D01*
X138035068Y-50501133D01*
X138007655Y-50491541D01*
X137950879Y-50450820D01*
X137925132Y-50385867D01*
X137938588Y-50317305D01*
X137986976Y-50266903D01*
X138048610Y-50250500D01*
X163376000Y-50250500D01*
X163443039Y-50270185D01*
G37*
%TD.AperFunction*%
%TA.AperFunction,Conductor*%
G36*
X191967865Y-70894933D02*
G01*
X191984101Y-70908601D01*
X192162181Y-71086681D01*
X192195666Y-71148004D01*
X192198500Y-71174362D01*
X192198500Y-76428638D01*
X192189855Y-76458078D01*
X192183332Y-76488065D01*
X192179577Y-76493080D01*
X192178815Y-76495677D01*
X192162181Y-76516319D01*
X192087180Y-76591320D01*
X192025857Y-76624805D01*
X191956165Y-76619821D01*
X191900232Y-76577949D01*
X191875815Y-76512485D01*
X191875499Y-76503639D01*
X191875499Y-76099998D01*
X191875498Y-76099981D01*
X191864999Y-75997203D01*
X191864998Y-75997200D01*
X191853655Y-75962969D01*
X191809814Y-75830666D01*
X191717712Y-75681344D01*
X191593656Y-75557288D01*
X191593655Y-75557287D01*
X191544569Y-75527011D01*
X191529018Y-75517419D01*
X191482294Y-75465472D01*
X191471071Y-75396510D01*
X191498914Y-75332428D01*
X191506434Y-75324199D01*
X191614035Y-75216598D01*
X191715804Y-75076524D01*
X191794408Y-74922255D01*
X191847914Y-74757584D01*
X191849115Y-74750000D01*
X190780330Y-74750000D01*
X190800075Y-74730255D01*
X190849444Y-74644745D01*
X190875000Y-74549370D01*
X190875000Y-74450630D01*
X190849444Y-74355255D01*
X190800075Y-74269745D01*
X190780330Y-74250000D01*
X191849115Y-74250000D01*
X191849115Y-74249999D01*
X191847914Y-74242415D01*
X191794408Y-74077744D01*
X191715804Y-73923475D01*
X191614032Y-73783397D01*
X191491602Y-73660967D01*
X191408551Y-73600628D01*
X191365885Y-73545298D01*
X191359906Y-73475685D01*
X191392511Y-73413889D01*
X191408551Y-73399991D01*
X191491928Y-73339414D01*
X191614414Y-73216928D01*
X191716232Y-73076788D01*
X191794873Y-72922445D01*
X191848402Y-72757701D01*
X191875500Y-72586611D01*
X191875500Y-72413389D01*
X191848402Y-72242299D01*
X191794873Y-72077555D01*
X191716232Y-71923212D01*
X191614414Y-71783072D01*
X191491928Y-71660586D01*
X191408975Y-71600317D01*
X191366311Y-71544988D01*
X191360332Y-71475374D01*
X191392938Y-71413579D01*
X191408976Y-71399682D01*
X191491928Y-71339414D01*
X191614414Y-71216928D01*
X191716232Y-71076788D01*
X191785935Y-70939987D01*
X191833909Y-70889191D01*
X191901730Y-70872396D01*
X191967865Y-70894933D01*
G37*
%TD.AperFunction*%
%TA.AperFunction,Conductor*%
G36*
X160899688Y-66271185D02*
G01*
X160945443Y-66323989D01*
X160955387Y-66393147D01*
X160926362Y-66456703D01*
X160901540Y-66478602D01*
X160864711Y-66503210D01*
X160864707Y-66503213D01*
X160753213Y-66614707D01*
X160753210Y-66614711D01*
X160665609Y-66745814D01*
X160665602Y-66745827D01*
X160605264Y-66891498D01*
X160605261Y-66891510D01*
X160574500Y-67046153D01*
X160574500Y-67203846D01*
X160605261Y-67358489D01*
X160605264Y-67358501D01*
X160665602Y-67504172D01*
X160665609Y-67504185D01*
X160730915Y-67601921D01*
X160751793Y-67668598D01*
X160733309Y-67735978D01*
X160715495Y-67758492D01*
X160677032Y-67796955D01*
X160677029Y-67796959D01*
X160588001Y-67941294D01*
X160587996Y-67941305D01*
X160534651Y-68102290D01*
X160524500Y-68201647D01*
X160524500Y-68748337D01*
X160524501Y-68748355D01*
X160534650Y-68847707D01*
X160534651Y-68847710D01*
X160587996Y-69008694D01*
X160588001Y-69008705D01*
X160677029Y-69153040D01*
X160677032Y-69153044D01*
X160686660Y-69162672D01*
X160720145Y-69223995D01*
X160715161Y-69293687D01*
X160686663Y-69338031D01*
X160677428Y-69347265D01*
X160677424Y-69347271D01*
X160588457Y-69491507D01*
X160588452Y-69491518D01*
X160535144Y-69652393D01*
X160525000Y-69751677D01*
X160525000Y-69775000D01*
X161376000Y-69775000D01*
X161384685Y-69777550D01*
X161393647Y-69776262D01*
X161417687Y-69787240D01*
X161443039Y-69794685D01*
X161448966Y-69801525D01*
X161457203Y-69805287D01*
X161471492Y-69827521D01*
X161488794Y-69847489D01*
X161491081Y-69858003D01*
X161494977Y-69864065D01*
X161500000Y-69899000D01*
X161500000Y-70051500D01*
X161480315Y-70118539D01*
X161427511Y-70164294D01*
X161376000Y-70175500D01*
X158887268Y-70175500D01*
X158839816Y-70166061D01*
X158762670Y-70134106D01*
X158762658Y-70134103D01*
X158588696Y-70099500D01*
X158588692Y-70099500D01*
X158411308Y-70099500D01*
X158411303Y-70099500D01*
X158237341Y-70134103D01*
X158237329Y-70134106D01*
X158155392Y-70168045D01*
X158155393Y-70168046D01*
X158073455Y-70201985D01*
X157985040Y-70261063D01*
X157970369Y-70270865D01*
X157925961Y-70300537D01*
X157925960Y-70300538D01*
X157812181Y-70414318D01*
X157750858Y-70447803D01*
X157681166Y-70442819D01*
X157625233Y-70400947D01*
X157600816Y-70335483D01*
X157600500Y-70326637D01*
X157600500Y-70079765D01*
X157609652Y-70048596D01*
X157617524Y-70017058D01*
X157619443Y-70015251D01*
X157620185Y-70012726D01*
X157621398Y-70010874D01*
X157630121Y-69997820D01*
X157709394Y-69879179D01*
X157769737Y-69733497D01*
X157800500Y-69578842D01*
X157800500Y-69421158D01*
X157800500Y-69421155D01*
X157800499Y-69421153D01*
X157799372Y-69415487D01*
X157769737Y-69266503D01*
X157762546Y-69249142D01*
X157709397Y-69120827D01*
X157709390Y-69120814D01*
X157621789Y-68989711D01*
X157621786Y-68989707D01*
X157510292Y-68878213D01*
X157510288Y-68878210D01*
X157379185Y-68790609D01*
X157379172Y-68790602D01*
X157233501Y-68730264D01*
X157233489Y-68730261D01*
X157078845Y-68699500D01*
X157078842Y-68699500D01*
X156949096Y-68699500D01*
X156882057Y-68679815D01*
X156836302Y-68627011D01*
X156826358Y-68557853D01*
X156855383Y-68494297D01*
X156861415Y-68487819D01*
X157147573Y-68201662D01*
X159061417Y-66287819D01*
X159122740Y-66254334D01*
X159149098Y-66251500D01*
X160832649Y-66251500D01*
X160899688Y-66271185D01*
G37*
%TD.AperFunction*%
%TA.AperFunction,Conductor*%
G36*
X162617942Y-64320185D02*
G01*
X162663697Y-64372989D01*
X162673641Y-64442147D01*
X162644616Y-64505703D01*
X162638584Y-64512181D01*
X162537584Y-64613181D01*
X162513457Y-64626355D01*
X162491155Y-64642437D01*
X162480740Y-64644220D01*
X162476261Y-64646666D01*
X162469344Y-64646171D01*
X162449903Y-64649500D01*
X158289098Y-64649500D01*
X158222059Y-64629815D01*
X158176304Y-64577011D01*
X158166360Y-64507853D01*
X158195385Y-64444297D01*
X158201417Y-64437819D01*
X158252417Y-64386819D01*
X158313740Y-64353334D01*
X158340098Y-64350500D01*
X162163331Y-64350500D01*
X162163347Y-64350501D01*
X162170943Y-64350501D01*
X162329054Y-64350501D01*
X162329057Y-64350501D01*
X162481785Y-64309577D01*
X162481789Y-64309574D01*
X162485818Y-64308495D01*
X162487112Y-64307563D01*
X162494969Y-64307141D01*
X162528364Y-64300500D01*
X162550903Y-64300500D01*
X162617942Y-64320185D01*
G37*
%TD.AperFunction*%
%TD*%
M02*
