%TF.GenerationSoftware,KiCad,Pcbnew,9.0.7*%
%TF.CreationDate,2026-03-23T12:41:53-04:00*%
%TF.ProjectId,rev-b,7265762d-622e-46b6-9963-61645f706362,rev?*%
%TF.SameCoordinates,Original*%
%TF.FileFunction,Component,L1,Top*%
%TF.FilePolarity,Positive*%
%FSLAX46Y46*%
G04 Gerber Fmt 4.6, Leading zero omitted, Abs format (unit mm)*
G04 Created by KiCad (PCBNEW 9.0.7) date 2026-03-23 12:41:53*
%MOMM*%
%LPD*%
G01*
G04 APERTURE LIST*
%TA.AperFunction,ComponentMain*%
%ADD10C,0.300000*%
%TD*%
%TA.AperFunction,ComponentOutline,Courtyard*%
%ADD11C,0.100000*%
%TD*%
%TA.AperFunction,ComponentPin*%
%ADD12P,0.360000X4X0.000000*%
%TD*%
%TA.AperFunction,ComponentPin*%
%ADD13C,0.100000*%
%TD*%
G04 APERTURE END LIST*
D10*
%TO.C,R22*%
%TO.CFtp,R_0603_1608Metric*%
%TO.CVal,100*%
%TO.CLbN,Resistor_SMD*%
%TO.CMnt,SMD*%
%TO.CRot,180*%
X186175000Y-82490000D03*
D11*
X187650000Y-81765000D02*
X187650000Y-83215000D01*
X184700000Y-83215000D01*
X184700000Y-81765000D01*
X187650000Y-81765000D01*
D12*
%TO.P,R22,1*%
X187000000Y-82490000D03*
D13*
%TO.P,R22,2*%
X185350000Y-82490000D03*
%TD*%
D10*
%TO.C,U3*%
%TO.CFtp,VSSOP-10_3x3mm_P0.5mm*%
%TO.CVal,DRV2605LDGS*%
%TO.CLbN,Package_SO*%
%TO.CMnt,SMD*%
%TO.CRot,-90*%
X143500000Y-96000000D03*
D11*
X144895000Y-92825000D02*
X144895000Y-94255000D01*
X145245000Y-94255000D01*
X145245000Y-97745000D01*
X144895000Y-97745000D01*
X144895000Y-99175000D01*
X142105000Y-99175000D01*
X142105000Y-97745000D01*
X141755000Y-97745000D01*
X141755000Y-94255000D01*
X142105000Y-94255000D01*
X142105000Y-92825000D01*
X144895000Y-92825000D01*
D12*
%TO.P,U3,1,REG*%
X144500000Y-93800000D03*
D13*
%TO.P,U3,2,SCL*%
X144000000Y-93800000D03*
%TO.P,U3,3,SDA*%
X143500000Y-93800000D03*
%TO.P,U3,4,IN/TRIG*%
X143000000Y-93800000D03*
%TO.P,U3,5,EN*%
X142500000Y-93800000D03*
%TO.P,U3,6,VDD/NC*%
X142500000Y-98200000D03*
%TO.P,U3,7,OUT+*%
X143000000Y-98200000D03*
%TO.P,U3,8,GND*%
X143500000Y-98200000D03*
%TO.P,U3,9,OUT-*%
X144000000Y-98200000D03*
%TO.P,U3,10,VDD*%
X144500000Y-98200000D03*
%TD*%
D10*
%TO.C,J1*%
%TO.CFtp,GCT_USB4125-GF-A_REVA2*%
%TO.CVal,USB_C_Receptacle_PowerOnly_6P*%
%TO.CLbN,USB4125-GF-A_REVA2*%
%TO.CMnt,SMD*%
%TO.CRot,-90*%
X136050000Y-79750000D03*
D11*
X140395000Y-74605000D02*
X140395000Y-84895000D01*
X132405000Y-84895000D01*
X132405000Y-74605000D01*
X140395000Y-74605000D01*
D13*
%TO.P,J1,B12,GND*%
X139130000Y-77000000D03*
%TO.P,J1,A12,GND*%
X139130000Y-82500000D03*
%TO.P,J1,B9,VBUS*%
X139130000Y-78230000D03*
%TO.P,J1,A9,VBUS*%
X139130000Y-81270000D03*
%TO.P,J1,A5,CC1*%
X139130000Y-79250000D03*
%TO.P,J1,B5,CC2*%
X139130000Y-80250000D03*
%TO.P,J1,S1,SHIELD*%
X139050000Y-75430000D03*
%TO.P,J1,S2*%
X139050000Y-84070000D03*
%TO.P,J1,S3*%
X135250000Y-75430000D03*
%TO.P,J1,S4*%
X135250000Y-84070000D03*
%TD*%
D10*
%TO.C,U2*%
%TO.CFtp,QFN-16-1EP_3x3mm_P0.5mm_EP1.7x1.7mm_ThermalVias*%
%TO.CVal,BQ24074RGT*%
%TO.CLbN,Package_DFN_QFN*%
%TO.CMnt,SMD*%
%TO.CRot,90*%
X146000000Y-82685000D03*
D11*
X147125000Y-80560000D02*
X147125000Y-80940000D01*
X147745000Y-80940000D01*
X147745000Y-81560000D01*
X148125000Y-81560000D01*
X148125000Y-83810000D01*
X147745000Y-83810000D01*
X147745000Y-84430000D01*
X147125000Y-84430000D01*
X147125000Y-84810000D01*
X144875000Y-84810000D01*
X144875000Y-84430000D01*
X144255000Y-84430000D01*
X144255000Y-83810000D01*
X143875000Y-83810000D01*
X143875000Y-81560000D01*
X144255000Y-81560000D01*
X144255000Y-80940000D01*
X144875000Y-80940000D01*
X144875000Y-80560000D01*
X147125000Y-80560000D01*
D12*
%TO.P,U2,1,TS*%
X145250000Y-84147500D03*
D13*
%TO.P,U2,2,BAT*%
X145750000Y-84147500D03*
%TO.P,U2,3,BAT*%
X146250000Y-84147500D03*
%TO.P,U2,4,~{CE}*%
X146750000Y-84147500D03*
%TO.P,U2,5,EN2*%
X147462500Y-83435000D03*
%TO.P,U2,6,EN1*%
X147462500Y-82935000D03*
%TO.P,U2,7,~{PGOOD}*%
X147462500Y-82435000D03*
%TO.P,U2,8,VSS*%
X147462500Y-81935000D03*
%TO.P,U2,9,~{CHG}*%
X146750000Y-81222500D03*
%TO.P,U2,10,OUT*%
X146250000Y-81222500D03*
%TO.P,U2,11,OUT*%
X145750000Y-81222500D03*
%TO.P,U2,12,ILIM*%
X145250000Y-81222500D03*
%TO.P,U2,13,IN*%
X144537500Y-81935000D03*
%TO.P,U2,14,TMR*%
X144537500Y-82435000D03*
%TO.P,U2,15,ITERM*%
X144537500Y-82935000D03*
%TO.P,U2,16,ISET*%
X144537500Y-83435000D03*
%TO.P,U2,17,VSS*%
X145400000Y-83285000D03*
X146600000Y-83285000D03*
X146000000Y-82685000D03*
X145400000Y-82085000D03*
X146600000Y-82085000D03*
%TD*%
D10*
%TO.C,J3*%
%TO.CFtp,JST_PH_B2B-PH-K_1x02_P2.00mm_Vertical*%
%TO.CVal,Conn_01x02*%
%TO.CLbN,Connector_JST*%
%TO.CMnt,TH*%
%TO.CRot,-90*%
X137500000Y-98900000D03*
D11*
X139695000Y-96455000D02*
X139695000Y-103345000D01*
X134205000Y-103345000D01*
X134205000Y-96455000D01*
X139695000Y-96455000D01*
D12*
%TO.P,J3,1,Pin_1*%
X137500000Y-98900000D03*
D13*
%TO.P,J3,2,Pin_2*%
X137500000Y-100900000D03*
%TD*%
D10*
%TO.C,J10*%
%TO.CFtp,PinHeader_2x05_P1.27mm_Vertical*%
%TO.CVal,3220-10-0300-00*%
%TO.CLbN,Connector_PinHeader_1.27mm*%
%TO.CMnt,TH*%
%TO.CRot,90*%
X181670000Y-52770000D03*
D11*
X187885000Y-49935000D02*
X187885000Y-54335000D01*
X180535000Y-54335000D01*
X180535000Y-49935000D01*
X187885000Y-49935000D01*
D12*
%TO.P,J10,1,1*%
X181670000Y-52770000D03*
D13*
%TO.P,J10,10,10*%
X186750000Y-51500000D03*
%TO.P,J10,9,9*%
X186750000Y-52770000D03*
%TO.P,J10,8,8*%
X185480000Y-51500000D03*
%TO.P,J10,7,7*%
X185480000Y-52770000D03*
%TO.P,J10,6,6*%
X184210000Y-51500000D03*
%TO.P,J10,5,5*%
X184210000Y-52770000D03*
%TO.P,J10,4,4*%
X182940000Y-51500000D03*
%TO.P,J10,3,3*%
X182940000Y-52770000D03*
%TO.P,J10,2,2*%
X181670000Y-51500000D03*
%TD*%
D10*
%TO.C,SW1*%
%TO.CFtp,SW_SPST_EVQP0*%
%TO.CVal,SW_Push*%
%TO.CLbN,Button_Switch_SMD*%
%TO.CMnt,SMD*%
%TO.CRot,180*%
X174500000Y-63750000D03*
D11*
X178995000Y-60505000D02*
X178995000Y-66995000D01*
X170005000Y-66995000D01*
X170005000Y-60505000D01*
X178995000Y-60505000D01*
D12*
%TO.P,SW1,1,1*%
X171620000Y-65750000D03*
X177380000Y-65750000D03*
D13*
%TO.P,SW1,2,2*%
X171620000Y-61750000D03*
X177380000Y-61750000D03*
%TD*%
D10*
%TO.C,J6*%
%TO.CFtp,JST_PH_B4B-PH-K_1x04_P2.00mm_Vertical*%
%TO.CVal,Conn_01x04*%
%TO.CLbN,Connector_JST*%
%TO.CMnt,TH*%
%TO.CRot,90*%
X190500000Y-64500000D03*
D11*
X193795000Y-56055000D02*
X193795000Y-66945000D01*
X188305000Y-66945000D01*
X188305000Y-56055000D01*
X193795000Y-56055000D01*
D12*
%TO.P,J6,1,Pin_1*%
X190500000Y-64500000D03*
D13*
%TO.P,J6,2,Pin_2*%
X190500000Y-62500000D03*
%TO.P,J6,3,Pin_3*%
X190500000Y-60500000D03*
%TO.P,J6,4,Pin_4*%
X190500000Y-58500000D03*
%TD*%
D10*
%TO.C,U5*%
%TO.CFtp,Raytac_MDBT42Q*%
%TO.CVal,MDBT42Q-512K*%
%TO.CLbN,RF_Module*%
%TO.CMnt,SMD*%
%TO.CRot,0*%
X164000000Y-54000000D03*
D11*
X169545000Y-45455000D02*
X169545000Y-62545000D01*
X158455000Y-62545000D01*
X158455000Y-45455000D01*
X169545000Y-45455000D01*
D12*
%TO.P,U5,1,GND*%
X159400000Y-50200000D03*
D13*
%TO.P,U5,2,P0.25*%
X159400000Y-53200000D03*
%TO.P,U5,3,P0.26*%
X159400000Y-53900000D03*
%TO.P,U5,4,P0.27*%
X159400000Y-54600000D03*
%TO.P,U5,5,AIN4/P0.28*%
X159400000Y-55300000D03*
%TO.P,U5,6,AIN5/P0.29*%
X159400000Y-56000000D03*
%TO.P,U5,7,AIN6/P0.30*%
X159400000Y-56700000D03*
%TO.P,U5,8,AIN7/P0.31*%
X159400000Y-57400000D03*
%TO.P,U5,9,DEC4*%
X159400000Y-58100000D03*
%TO.P,U5,10,DCC*%
X159400000Y-58800000D03*
%TO.P,U5,11,VDD*%
X159400000Y-59500000D03*
%TO.P,U5,12,GND*%
X159800000Y-61600000D03*
%TO.P,U5,13,P0.00/XL1*%
X160500000Y-61600000D03*
%TO.P,U5,14,P0.01/XL2*%
X161200000Y-61600000D03*
%TO.P,U5,15,AIN0/P0.02*%
X161900000Y-61600000D03*
%TO.P,U5,16,AIN1/P0.03*%
X162600000Y-61600000D03*
%TO.P,U5,17,AIN2/P0.04*%
X163300000Y-61600000D03*
%TO.P,U5,18,AIN3/P0.05*%
X164000000Y-61600000D03*
%TO.P,U5,19,P0.06*%
X164700000Y-61600000D03*
%TO.P,U5,20,P0.07*%
X165400000Y-61600000D03*
%TO.P,U5,21,P0.08*%
X166100000Y-61600000D03*
%TO.P,U5,22,NFC1/P0.09*%
X166800000Y-61600000D03*
%TO.P,U5,23,NFC2/P0.10*%
X167500000Y-61600000D03*
%TO.P,U5,24,GND*%
X168200000Y-61600000D03*
%TO.P,U5,25,P0.11*%
X168600000Y-60200000D03*
%TO.P,U5,26,P0.12*%
X168600000Y-59500000D03*
%TO.P,U5,27,P0.13*%
X168600000Y-58800000D03*
%TO.P,U5,28,TRACEDATA3/P0.14*%
X168600000Y-58100000D03*
%TO.P,U5,29,TRACEDATA2/P0.15*%
X168600000Y-57400000D03*
%TO.P,U5,30,TRACEDATA1/P0.16*%
X168600000Y-56700000D03*
%TO.P,U5,31,P0.17*%
X168600000Y-56000000D03*
%TO.P,U5,32,TRACEDATA0/P0.18*%
X168600000Y-55300000D03*
%TO.P,U5,33,P0.19*%
X168600000Y-54600000D03*
%TO.P,U5,34,TRACECLK/P0.20*%
X168600000Y-53900000D03*
%TO.P,U5,35,P0.21/~{RESET}*%
X168600000Y-53200000D03*
%TO.P,U5,36,SWDCLK*%
X168600000Y-52500000D03*
%TO.P,U5,37,SWDIO*%
X168600000Y-51800000D03*
%TO.P,U5,38,P0.22*%
X168600000Y-51100000D03*
%TO.P,U5,39,GND*%
X168600000Y-50200000D03*
%TO.P,U5,40,P0.24*%
X166900000Y-50750000D03*
%TO.P,U5,41,P0.23*%
X166900000Y-52150000D03*
%TD*%
D10*
%TO.C,U4*%
%TO.CFtp,SOIC-8_3.9x4.9mm_P1.27mm*%
%TO.CVal,DS3231MZ*%
%TO.CLbN,Package_SO*%
%TO.CMnt,SMD*%
%TO.CRot,0*%
X148025000Y-57655000D03*
D11*
X150220000Y-54960000D02*
X150220000Y-55200000D01*
X151720000Y-55200000D01*
X151720000Y-60110000D01*
X150220000Y-60110000D01*
X150220000Y-60350000D01*
X145830000Y-60350000D01*
X145830000Y-60110000D01*
X144330000Y-60110000D01*
X144330000Y-55200000D01*
X145830000Y-55200000D01*
X145830000Y-54960000D01*
X150220000Y-54960000D01*
D12*
%TO.P,U4,1,32KHZ*%
X145550000Y-55750000D03*
D13*
%TO.P,U4,2,VCC*%
X145550000Y-57020000D03*
%TO.P,U4,3,~{INT}/SQW*%
X145550000Y-58290000D03*
%TO.P,U4,4,~{RST}*%
X145550000Y-59560000D03*
%TO.P,U4,5,GND*%
X150500000Y-59560000D03*
%TO.P,U4,6,VBAT*%
X150500000Y-58290000D03*
%TO.P,U4,7,SDA*%
X150500000Y-57020000D03*
%TO.P,U4,8,SCL*%
X150500000Y-55750000D03*
%TD*%
D10*
%TO.C,U1*%
%TO.CFtp,SOT-23-5*%
%TO.CVal,TLV75533PDBV*%
%TO.CLbN,Package_TO_SOT_SMD*%
%TO.CMnt,SMD*%
%TO.CRot,0*%
X151887500Y-76300000D03*
D11*
X152932500Y-74605000D02*
X152932500Y-74805000D01*
X153932500Y-74805000D01*
X153932500Y-75905000D01*
X152932500Y-75905000D01*
X152932500Y-76695000D01*
X153932500Y-76695000D01*
X153932500Y-77795000D01*
X152932500Y-77795000D01*
X152932500Y-77995000D01*
X150842500Y-77995000D01*
X150842500Y-77795000D01*
X149842500Y-77795000D01*
X149842500Y-74805000D01*
X150842500Y-74805000D01*
X150842500Y-74605000D01*
X152932500Y-74605000D01*
D12*
%TO.P,U1,1,IN*%
X150750000Y-75350000D03*
D13*
%TO.P,U1,2,GND*%
X150750000Y-76300000D03*
%TO.P,U1,3,EN*%
X150750000Y-77250000D03*
%TO.P,U1,4,NC*%
X153025000Y-77250000D03*
%TO.P,U1,5,OUT*%
X153025000Y-75350000D03*
%TD*%
D10*
%TO.C,R27*%
%TO.CFtp,R_0603_1608Metric*%
%TO.CVal,100*%
%TO.CLbN,Resistor_SMD*%
%TO.CMnt,SMD*%
%TO.CRot,180*%
X185925000Y-58500000D03*
D11*
X187400000Y-57775000D02*
X187400000Y-59225000D01*
X184450000Y-59225000D01*
X184450000Y-57775000D01*
X187400000Y-57775000D01*
D12*
%TO.P,R27,1*%
X186750000Y-58500000D03*
D13*
%TO.P,R27,2*%
X185100000Y-58500000D03*
%TD*%
D10*
%TO.C,R26*%
%TO.CFtp,R_0603_1608Metric*%
%TO.CVal,100*%
%TO.CLbN,Resistor_SMD*%
%TO.CMnt,SMD*%
%TO.CRot,180*%
X185925000Y-60500000D03*
D11*
X187400000Y-59775000D02*
X187400000Y-61225000D01*
X184450000Y-61225000D01*
X184450000Y-59775000D01*
X187400000Y-59775000D01*
D12*
%TO.P,R26,1*%
X186750000Y-60500000D03*
D13*
%TO.P,R26,2*%
X185100000Y-60500000D03*
%TD*%
D10*
%TO.C,R25*%
%TO.CFtp,R_0603_1608Metric*%
%TO.CVal,100*%
%TO.CLbN,Resistor_SMD*%
%TO.CMnt,SMD*%
%TO.CRot,180*%
X185925000Y-62500000D03*
D11*
X187400000Y-61775000D02*
X187400000Y-63225000D01*
X184450000Y-63225000D01*
X184450000Y-61775000D01*
X187400000Y-61775000D01*
D12*
%TO.P,R25,1*%
X186750000Y-62500000D03*
D13*
%TO.P,R25,2*%
X185100000Y-62500000D03*
%TD*%
D10*
%TO.C,R24*%
%TO.CFtp,R_0603_1608Metric*%
%TO.CVal,100*%
%TO.CLbN,Resistor_SMD*%
%TO.CMnt,SMD*%
%TO.CRot,180*%
X185925000Y-70500000D03*
D11*
X187400000Y-69775000D02*
X187400000Y-71225000D01*
X184450000Y-71225000D01*
X184450000Y-69775000D01*
X187400000Y-69775000D01*
D12*
%TO.P,R24,1*%
X186750000Y-70500000D03*
D13*
%TO.P,R24,2*%
X185100000Y-70500000D03*
%TD*%
D10*
%TO.C,R23*%
%TO.CFtp,R_0603_1608Metric*%
%TO.CVal,100*%
%TO.CLbN,Resistor_SMD*%
%TO.CMnt,SMD*%
%TO.CRot,180*%
X185925000Y-72500000D03*
D11*
X187400000Y-71775000D02*
X187400000Y-73225000D01*
X184450000Y-73225000D01*
X184450000Y-71775000D01*
X187400000Y-71775000D01*
D12*
%TO.P,R23,1*%
X186750000Y-72500000D03*
D13*
%TO.P,R23,2*%
X185100000Y-72500000D03*
%TD*%
D10*
%TO.C,R21*%
%TO.CFtp,R_0603_1608Metric*%
%TO.CVal,100*%
%TO.CLbN,Resistor_SMD*%
%TO.CMnt,SMD*%
%TO.CRot,0*%
X186175000Y-84500000D03*
D11*
X187650000Y-83775000D02*
X187650000Y-85225000D01*
X184700000Y-85225000D01*
X184700000Y-83775000D01*
X187650000Y-83775000D01*
D12*
%TO.P,R21,1*%
X185350000Y-84500000D03*
D13*
%TO.P,R21,2*%
X187000000Y-84500000D03*
%TD*%
D10*
%TO.C,R20*%
%TO.CFtp,R_0603_1608Metric*%
%TO.CVal,100*%
%TO.CLbN,Resistor_SMD*%
%TO.CMnt,SMD*%
%TO.CRot,0*%
X185425000Y-94500000D03*
D11*
X186900000Y-93775000D02*
X186900000Y-95225000D01*
X183950000Y-95225000D01*
X183950000Y-93775000D01*
X186900000Y-93775000D01*
D12*
%TO.P,R20,1*%
X184600000Y-94500000D03*
D13*
%TO.P,R20,2*%
X186250000Y-94500000D03*
%TD*%
D10*
%TO.C,R19*%
%TO.CFtp,R_0603_1608Metric*%
%TO.CVal,100*%
%TO.CLbN,Resistor_SMD*%
%TO.CMnt,SMD*%
%TO.CRot,0*%
X185425000Y-96500000D03*
D11*
X186900000Y-95775000D02*
X186900000Y-97225000D01*
X183950000Y-97225000D01*
X183950000Y-95775000D01*
X186900000Y-95775000D01*
D12*
%TO.P,R19,1*%
X184600000Y-96500000D03*
D13*
%TO.P,R19,2*%
X186250000Y-96500000D03*
%TD*%
D10*
%TO.C,R18*%
%TO.CFtp,R_0603_1608Metric*%
%TO.CVal,100*%
%TO.CLbN,Resistor_SMD*%
%TO.CMnt,SMD*%
%TO.CRot,-90*%
X163750000Y-64250000D03*
D11*
X164475000Y-62775000D02*
X164475000Y-65725000D01*
X163025000Y-65725000D01*
X163025000Y-62775000D01*
X164475000Y-62775000D01*
D12*
%TO.P,R18,1*%
X163750000Y-63425000D03*
D13*
%TO.P,R18,2*%
X163750000Y-65075000D03*
%TD*%
D10*
%TO.C,R17*%
%TO.CFtp,R_0603_1608Metric*%
%TO.CVal,10k*%
%TO.CLbN,Resistor_SMD*%
%TO.CMnt,SMD*%
%TO.CRot,180*%
X176250000Y-52750000D03*
D11*
X177725000Y-52025000D02*
X177725000Y-53475000D01*
X174775000Y-53475000D01*
X174775000Y-52025000D01*
X177725000Y-52025000D01*
D12*
%TO.P,R17,1*%
X177075000Y-52750000D03*
D13*
%TO.P,R17,2*%
X175425000Y-52750000D03*
%TD*%
D10*
%TO.C,R16*%
%TO.CFtp,R_0603_1608Metric*%
%TO.CVal,1k*%
%TO.CLbN,Resistor_SMD*%
%TO.CMnt,SMD*%
%TO.CRot,-90*%
X167437500Y-64425000D03*
D11*
X168162500Y-62950000D02*
X168162500Y-65900000D01*
X166712500Y-65900000D01*
X166712500Y-62950000D01*
X168162500Y-62950000D01*
D12*
%TO.P,R16,1*%
X167437500Y-63600000D03*
D13*
%TO.P,R16,2*%
X167437500Y-65250000D03*
%TD*%
D10*
%TO.C,R15*%
%TO.CFtp,R_0603_1608Metric*%
%TO.CVal,10k*%
%TO.CLbN,Resistor_SMD*%
%TO.CMnt,SMD*%
%TO.CRot,0*%
X146925000Y-61750000D03*
D11*
X148400000Y-61025000D02*
X148400000Y-62475000D01*
X145450000Y-62475000D01*
X145450000Y-61025000D01*
X148400000Y-61025000D01*
D12*
%TO.P,R15,1*%
X146100000Y-61750000D03*
D13*
%TO.P,R15,2*%
X147750000Y-61750000D03*
%TD*%
D10*
%TO.C,R14*%
%TO.CFtp,R_0603_1608Metric*%
%TO.CVal,4.7k*%
%TO.CLbN,Resistor_SMD*%
%TO.CMnt,SMD*%
%TO.CRot,-90*%
X155000000Y-58750000D03*
D11*
X155725000Y-57275000D02*
X155725000Y-60225000D01*
X154275000Y-60225000D01*
X154275000Y-57275000D01*
X155725000Y-57275000D01*
D12*
%TO.P,R14,1*%
X155000000Y-57925000D03*
D13*
%TO.P,R14,2*%
X155000000Y-59575000D03*
%TD*%
D10*
%TO.C,R13*%
%TO.CFtp,R_0603_1608Metric*%
%TO.CVal,4.7k*%
%TO.CLbN,Resistor_SMD*%
%TO.CMnt,SMD*%
%TO.CRot,-90*%
X153250000Y-58750000D03*
D11*
X153975000Y-57275000D02*
X153975000Y-60225000D01*
X152525000Y-60225000D01*
X152525000Y-57275000D01*
X153975000Y-57275000D01*
D12*
%TO.P,R13,1*%
X153250000Y-57925000D03*
D13*
%TO.P,R13,2*%
X153250000Y-59575000D03*
%TD*%
D10*
%TO.C,R12*%
%TO.CFtp,R_0603_1608Metric*%
%TO.CVal,10k*%
%TO.CLbN,Resistor_SMD*%
%TO.CMnt,SMD*%
%TO.CRot,180*%
X151175000Y-86000000D03*
D11*
X152650000Y-85275000D02*
X152650000Y-86725000D01*
X149700000Y-86725000D01*
X149700000Y-85275000D01*
X152650000Y-85275000D01*
D12*
%TO.P,R12,1*%
X152000000Y-86000000D03*
D13*
%TO.P,R12,2*%
X150350000Y-86000000D03*
%TD*%
D10*
%TO.C,R11*%
%TO.CFtp,R_0603_1608Metric*%
%TO.CVal,10k*%
%TO.CLbN,Resistor_SMD*%
%TO.CMnt,SMD*%
%TO.CRot,180*%
X151175000Y-80750000D03*
D11*
X152650000Y-80025000D02*
X152650000Y-81475000D01*
X149700000Y-81475000D01*
X149700000Y-80025000D01*
X152650000Y-80025000D01*
D12*
%TO.P,R11,1*%
X152000000Y-80750000D03*
D13*
%TO.P,R11,2*%
X150350000Y-80750000D03*
%TD*%
D10*
%TO.C,R9*%
%TO.CFtp,R_0603_1608Metric*%
%TO.CVal,10k*%
%TO.CLbN,Resistor_SMD*%
%TO.CMnt,SMD*%
%TO.CRot,-90*%
X143750000Y-86250000D03*
D11*
X144475000Y-84775000D02*
X144475000Y-87725000D01*
X143025000Y-87725000D01*
X143025000Y-84775000D01*
X144475000Y-84775000D01*
D12*
%TO.P,R9,1*%
X143750000Y-85425000D03*
D13*
%TO.P,R9,2*%
X143750000Y-87075000D03*
%TD*%
D10*
%TO.C,R8*%
%TO.CFtp,R_0603_1608Metric*%
%TO.CVal,1.8k*%
%TO.CLbN,Resistor_SMD*%
%TO.CMnt,SMD*%
%TO.CRot,-90*%
X141925000Y-86250000D03*
D11*
X142650000Y-84775000D02*
X142650000Y-87725000D01*
X141200000Y-87725000D01*
X141200000Y-84775000D01*
X142650000Y-84775000D01*
D12*
%TO.P,R8,1*%
X141925000Y-85425000D03*
D13*
%TO.P,R8,2*%
X141925000Y-87075000D03*
%TD*%
D10*
%TO.C,R7*%
%TO.CFtp,R_0603_1608Metric*%
%TO.CVal,10K*%
%TO.CLbN,Resistor_SMD*%
%TO.CMnt,SMD*%
%TO.CRot,0*%
X151175000Y-84250000D03*
D11*
X152650000Y-83525000D02*
X152650000Y-84975000D01*
X149700000Y-84975000D01*
X149700000Y-83525000D01*
X152650000Y-83525000D01*
D12*
%TO.P,R7,1*%
X150350000Y-84250000D03*
D13*
%TO.P,R7,2*%
X152000000Y-84250000D03*
%TD*%
D10*
%TO.C,R6*%
%TO.CFtp,R_0603_1608Metric*%
%TO.CVal,3k*%
%TO.CLbN,Resistor_SMD*%
%TO.CMnt,SMD*%
%TO.CRot,180*%
X143825000Y-79500000D03*
D11*
X145300000Y-78775000D02*
X145300000Y-80225000D01*
X142350000Y-80225000D01*
X142350000Y-78775000D01*
X145300000Y-78775000D01*
D12*
%TO.P,R6,1*%
X144650000Y-79500000D03*
D13*
%TO.P,R6,2*%
X143000000Y-79500000D03*
%TD*%
D10*
%TO.C,R5*%
%TO.CFtp,R_0603_1608Metric*%
%TO.CVal,100k*%
%TO.CLbN,Resistor_SMD*%
%TO.CMnt,SMD*%
%TO.CRot,0*%
X159175000Y-67760000D03*
D11*
X160650000Y-67035000D02*
X160650000Y-68485000D01*
X157700000Y-68485000D01*
X157700000Y-67035000D01*
X160650000Y-67035000D01*
D12*
%TO.P,R5,1*%
X158350000Y-67760000D03*
D13*
%TO.P,R5,2*%
X160000000Y-67760000D03*
%TD*%
D10*
%TO.C,R4*%
%TO.CFtp,R_0603_1608Metric*%
%TO.CVal,100k*%
%TO.CLbN,Resistor_SMD*%
%TO.CMnt,SMD*%
%TO.CRot,180*%
X159175000Y-69500000D03*
D11*
X160650000Y-68775000D02*
X160650000Y-70225000D01*
X157700000Y-70225000D01*
X157700000Y-68775000D01*
X160650000Y-68775000D01*
D12*
%TO.P,R4,1*%
X160000000Y-69500000D03*
D13*
%TO.P,R4,2*%
X158350000Y-69500000D03*
%TD*%
D10*
%TO.C,R3*%
%TO.CFtp,R_0603_1608Metric*%
%TO.CVal,10k*%
%TO.CLbN,Resistor_SMD*%
%TO.CMnt,SMD*%
%TO.CRot,0*%
X149175000Y-78750000D03*
D11*
X150650000Y-78025000D02*
X150650000Y-79475000D01*
X147700000Y-79475000D01*
X147700000Y-78025000D01*
X150650000Y-78025000D01*
D12*
%TO.P,R3,1*%
X148350000Y-78750000D03*
D13*
%TO.P,R3,2*%
X150000000Y-78750000D03*
%TD*%
D10*
%TO.C,Q1*%
%TO.CFtp,SOT-23*%
%TO.CVal,MMBT2222A_RFG*%
%TO.CLbN,Package_TO_SOT_SMD*%
%TO.CMnt,SMD*%
%TO.CRot,0*%
X173250000Y-73500000D03*
D11*
X174145000Y-71805000D02*
X174145000Y-72955000D01*
X175175000Y-72955000D01*
X175175000Y-74045000D01*
X174145000Y-74045000D01*
X174145000Y-75195000D01*
X172355000Y-75195000D01*
X172355000Y-74995000D01*
X171325000Y-74995000D01*
X171325000Y-73895000D01*
X172355000Y-73895000D01*
X172355000Y-73105000D01*
X171325000Y-73105000D01*
X171325000Y-72005000D01*
X172355000Y-72005000D01*
X172355000Y-71805000D01*
X174145000Y-71805000D01*
D12*
%TO.P,Q1,1*%
X172312500Y-72550000D03*
D13*
%TO.P,Q1,2*%
X172312500Y-74450000D03*
%TO.P,Q1,3*%
X174187500Y-73500000D03*
%TD*%
D10*
%TO.C,J9*%
%TO.CFtp,JST_PH_B4B-PH-K_1x04_P2.00mm_Vertical*%
%TO.CVal,Conn_01x04*%
%TO.CLbN,Connector_JST*%
%TO.CMnt,TH*%
%TO.CRot,90*%
X190450000Y-100500000D03*
D11*
X193745000Y-92055000D02*
X193745000Y-102945000D01*
X188255000Y-102945000D01*
X188255000Y-92055000D01*
X193745000Y-92055000D01*
D12*
%TO.P,J9,1,Pin_1*%
X190450000Y-100500000D03*
D13*
%TO.P,J9,2,Pin_2*%
X190450000Y-98500000D03*
%TO.P,J9,3,Pin_3*%
X190450000Y-96500000D03*
%TO.P,J9,4,Pin_4*%
X190450000Y-94500000D03*
%TD*%
D10*
%TO.C,J8*%
%TO.CFtp,JST_PH_B4B-PH-K_1x04_P2.00mm_Vertical*%
%TO.CVal,Conn_01x04*%
%TO.CLbN,Connector_JST*%
%TO.CMnt,TH*%
%TO.CRot,90*%
X190500000Y-88500000D03*
D11*
X193795000Y-80055000D02*
X193795000Y-90945000D01*
X188305000Y-90945000D01*
X188305000Y-80055000D01*
X193795000Y-80055000D01*
D12*
%TO.P,J8,1,Pin_1*%
X190500000Y-88500000D03*
D13*
%TO.P,J8,2,Pin_2*%
X190500000Y-86500000D03*
%TO.P,J8,3,Pin_3*%
X190500000Y-84500000D03*
%TO.P,J8,4,Pin_4*%
X190500000Y-82500000D03*
%TD*%
D10*
%TO.C,J7*%
%TO.CFtp,JST_PH_B4B-PH-K_1x04_P2.00mm_Vertical*%
%TO.CVal,Conn_01x04*%
%TO.CLbN,Connector_JST*%
%TO.CMnt,TH*%
%TO.CRot,90*%
X190500000Y-76500000D03*
D11*
X193795000Y-68055000D02*
X193795000Y-78945000D01*
X188305000Y-78945000D01*
X188305000Y-68055000D01*
X193795000Y-68055000D01*
D12*
%TO.P,J7,1,Pin_1*%
X190500000Y-76500000D03*
D13*
%TO.P,J7,2,Pin_2*%
X190500000Y-74500000D03*
%TO.P,J7,3,Pin_3*%
X190500000Y-72500000D03*
%TO.P,J7,4,Pin_4*%
X190500000Y-70500000D03*
%TD*%
D10*
%TO.C,J5*%
%TO.CFtp,PinHeader_1x03_P2.54mm_Vertical*%
%TO.CVal,Conn_01x03*%
%TO.CLbN,Connector_PinHeader_2.54mm*%
%TO.CMnt,TH*%
%TO.CRot,0*%
X152500000Y-64210000D03*
D11*
X154265000Y-62445000D02*
X154265000Y-71055000D01*
X150735000Y-71055000D01*
X150735000Y-62445000D01*
X154265000Y-62445000D01*
D12*
%TO.P,J5,1,Pin_1*%
X152500000Y-64210000D03*
D13*
%TO.P,J5,2,Pin_2*%
X152500000Y-66750000D03*
%TO.P,J5,3,Pin_3*%
X152500000Y-69290000D03*
%TD*%
D10*
%TO.C,J2*%
%TO.CFtp,JST_PH_B2B-PH-K_1x02_P2.00mm_Vertical*%
%TO.CVal,Conn_01x02*%
%TO.CLbN,Connector_JST*%
%TO.CMnt,TH*%
%TO.CRot,-90*%
X137500000Y-91500000D03*
D11*
X139695000Y-89055000D02*
X139695000Y-95945000D01*
X134205000Y-95945000D01*
X134205000Y-89055000D01*
X139695000Y-89055000D01*
D12*
%TO.P,J2,1,Pin_1*%
X137500000Y-91500000D03*
D13*
%TO.P,J2,2,Pin_2*%
X137500000Y-93500000D03*
%TD*%
D10*
%TO.C,BZ1*%
%TO.CFtp,CUI_CMT-1203-SMT*%
%TO.CVal,Buzzer*%
%TO.CLbN,CMT-1203-SMT*%
%TO.CMnt,SMD*%
%TO.CRot,90*%
X164750000Y-79250000D03*
D11*
X170995000Y-73005000D02*
X170995000Y-76005000D01*
X172495000Y-76005000D01*
X172495000Y-82495000D01*
X170995000Y-82495000D01*
X170995000Y-85495000D01*
X158505000Y-85495000D01*
X158505000Y-82495000D01*
X157005000Y-82495000D01*
X157005000Y-76005000D01*
X158505000Y-76005000D01*
X158505000Y-73005000D01*
X170995000Y-73005000D01*
D12*
%TO.P,BZ1,1,+*%
X158750000Y-79250000D03*
D13*
%TO.P,BZ1,2,-*%
X170750000Y-79250000D03*
%TD*%
D10*
%TO.C,R10*%
%TO.CFtp,R_0603_1608Metric*%
%TO.CVal,10k*%
%TO.CLbN,Resistor_SMD*%
%TO.CMnt,SMD*%
%TO.CRot,0*%
X151175000Y-82500000D03*
D11*
X152650000Y-81775000D02*
X152650000Y-83225000D01*
X149700000Y-83225000D01*
X149700000Y-81775000D01*
X152650000Y-81775000D01*
D12*
%TO.P,R10,1*%
X150350000Y-82500000D03*
D13*
%TO.P,R10,2*%
X152000000Y-82500000D03*
%TD*%
D10*
%TO.C,C23*%
%TO.CFtp,CP_Elec_5x5.3*%
%TO.CVal,220uF*%
%TO.CLbN,Capacitor_SMD*%
%TO.CMnt,SMD*%
%TO.CRot,180*%
X184950000Y-104250000D03*
D11*
X186697928Y-101355000D02*
X187845000Y-102502072D01*
X187845000Y-103205000D01*
X188895000Y-103205000D01*
X188895000Y-105295000D01*
X187845000Y-105295000D01*
X187845000Y-105997928D01*
X186697928Y-107145000D01*
X182055000Y-107145000D01*
X182055000Y-105295000D01*
X181005000Y-105295000D01*
X181005000Y-103205000D01*
X182055000Y-103205000D01*
X182055000Y-101355000D01*
X186697928Y-101355000D01*
D12*
%TO.P,C23,1*%
X187150000Y-104250000D03*
D13*
%TO.P,C23,2*%
X182750000Y-104250000D03*
%TD*%
D10*
%TO.C,BT1*%
%TO.CFtp,BatteryHolder_Keystone_3034_1x20mm*%
%TO.CVal,Battery_Cell*%
%TO.CLbN,Battery*%
%TO.CMnt,SMD*%
%TO.CRot,0*%
X161750000Y-97500000D03*
D11*
X162080456Y-87009487D02*
X162740057Y-87051083D01*
X163395719Y-87134109D01*
X164044875Y-87258242D01*
X164684916Y-87422979D01*
X165313331Y-87627677D01*
X165927605Y-87871516D01*
X166525327Y-88153539D01*
X167104112Y-88472621D01*
X167661657Y-88827492D01*
X168195781Y-89216765D01*
X168704333Y-89638871D01*
X168948038Y-89865000D01*
X170487928Y-89865000D01*
X172625000Y-92002072D01*
X172625000Y-94715000D01*
X173615000Y-94715000D01*
X173615000Y-100285000D01*
X172625000Y-100285000D01*
X172625000Y-101139120D01*
X171175327Y-105128218D01*
X171120137Y-105266833D01*
X170978377Y-105529484D01*
X170803275Y-105771148D01*
X170597877Y-105987632D01*
X170365749Y-106175177D01*
X170110937Y-106330513D01*
X169837882Y-106450932D01*
X169551349Y-106534335D01*
X169256326Y-106579268D01*
X168957956Y-106584949D01*
X168661433Y-106551279D01*
X168371935Y-106478845D01*
X168094497Y-106368908D01*
X167833925Y-106223367D01*
X167710090Y-106133896D01*
X167445068Y-106313778D01*
X166902754Y-106641421D01*
X166341685Y-106935725D01*
X165763876Y-107195632D01*
X165171456Y-107420187D01*
X164566534Y-107608591D01*
X163951352Y-107760143D01*
X163328164Y-107874289D01*
X162699196Y-107950622D01*
X162066783Y-107988857D01*
X161433217Y-107988857D01*
X160800803Y-107950622D01*
X160171835Y-107874289D01*
X159548647Y-107760143D01*
X158933465Y-107608591D01*
X158328543Y-107420187D01*
X157736123Y-107195632D01*
X157158314Y-106935725D01*
X156597245Y-106641421D01*
X156054931Y-106313778D01*
X155789872Y-106133870D01*
X155666413Y-106225433D01*
X155405879Y-106374609D01*
X155127741Y-106487544D01*
X154836989Y-106562212D01*
X154538852Y-106597272D01*
X154238718Y-106592091D01*
X153941966Y-106546762D01*
X153653967Y-106462104D01*
X153379897Y-106339640D01*
X153124691Y-106181574D01*
X152892958Y-105990761D01*
X152688863Y-105770631D01*
X152516080Y-105525146D01*
X152377717Y-105258715D01*
X152324678Y-105118234D01*
X150875000Y-101139116D01*
X150875000Y-100285000D01*
X149885000Y-100285000D01*
X149885000Y-94715000D01*
X150875000Y-94715000D01*
X150875000Y-92002072D01*
X153012072Y-89865000D01*
X154551962Y-89865000D01*
X154795666Y-89638871D01*
X155304218Y-89216765D01*
X155838342Y-88827492D01*
X156395887Y-88472621D01*
X156974672Y-88153539D01*
X157572394Y-87871516D01*
X158186668Y-87627677D01*
X158815083Y-87422979D01*
X159455124Y-87258242D01*
X160104280Y-87134109D01*
X160759942Y-87051083D01*
X161419544Y-87009487D01*
X162080456Y-87009487D01*
D12*
%TO.P,BT1,1,+*%
X150765000Y-97500000D03*
X172735000Y-97500000D03*
D13*
%TO.P,BT1,2,-*%
X161750000Y-97500000D03*
%TD*%
M02*
