M48
; DRILL file {KiCad 9.0.7} date 2026-03-23T12:06:40-0400
; FORMAT={-:-/ absolute / metric / decimal}
; #@! TF.CreationDate,2026-03-23T12:06:40-04:00
; #@! TF.GenerationSoftware,Kicad,Pcbnew,9.0.7
; #@! TF.FileFunction,Plated,1,2,PTH
FMAT,2
METRIC
; #@! TA.AperFunction,Plated,PTH,ComponentDrill
T1C0.200
; #@! TA.AperFunction,Plated,PTH,ViaDrill
T2C0.300
; #@! TA.AperFunction,Plated,PTH,ViaDrill
T3C0.400
; #@! TA.AperFunction,Plated,PTH,ComponentDrill
T4C0.600
; #@! TA.AperFunction,Plated,PTH,ComponentDrill
T5C0.650
; #@! TA.AperFunction,Plated,PTH,ComponentDrill
T6C0.750
; #@! TA.AperFunction,Plated,PTH,ComponentDrill
T7C1.000
; #@! TA.AperFunction,Plated,PTH,ComponentDrill
T8C2.200
%
G90
G05
T1
X145.4Y-82.085
X145.4Y-83.285
X146.6Y-82.085
X146.6Y-83.285
T2
X136.0Y-60.0
X138.0Y-79.25
X138.0Y-80.25
X142.0Y-60.0
X143.75Y-57.0
X145.25Y-93.75
X146.25Y-64.5
X146.25Y-69.75
X147.5Y-89.25
X149.25Y-80.25
X149.25Y-82.0
X149.5Y-89.35
X152.0Y-60.75
X152.0Y-79.0
X155.0Y-75.5
X155.75Y-51.25
X155.75Y-53.25
X156.0Y-69.5
X157.0Y-69.5
X157.25Y-59.5
X159.75Y-64.5
X161.375Y-67.125
X161.75Y-63.0
X161.75Y-97.5
X162.5Y-63.5
X164.75Y-63.25
X165.55Y-63.25
X167.5Y-67.25
X167.75Y-72.5
X170.0Y-50.75
X171.75Y-52.5
X173.0Y-75.75
X173.25Y-53.25
X174.5Y-63.75
X179.75Y-61.25
X180.0Y-50.75
X180.75Y-63.0
X181.5Y-55.0
X183.25Y-56.25
X185.5Y-99.25
X186.25Y-68.5
X186.5Y-64.5
X187.5Y-56.25
X188.5Y-50.75
X188.75Y-79.5
X189.75Y-79.5
X193.0Y-55.5
T3
X141.0Y-81.25
X141.0Y-96.75
X142.25Y-90.25
X143.25Y-81.704
X146.0Y-79.25
X146.0Y-85.75
X149.0Y-76.25
X153.0Y-84.0
X158.5Y-71.0
X181.5Y-101.25
T5
X181.67Y-51.5
X181.67Y-52.77
X182.94Y-51.5
X182.94Y-52.77
X184.21Y-51.5
X184.21Y-52.77
X185.48Y-51.5
X185.48Y-52.77
X186.75Y-51.5
X186.75Y-52.77
T6
X137.5Y-91.5
X137.5Y-93.5
X137.5Y-98.9
X137.5Y-100.9
X190.45Y-94.5
X190.45Y-96.5
X190.45Y-98.5
X190.45Y-100.5
X190.5Y-58.5
X190.5Y-60.5
X190.5Y-62.5
X190.5Y-64.5
X190.5Y-70.5
X190.5Y-72.5
X190.5Y-74.5
X190.5Y-76.5
X190.5Y-82.5
X190.5Y-84.5
X190.5Y-86.5
X190.5Y-88.5
T7
X152.5Y-64.21
X152.5Y-66.75
X152.5Y-69.29
T8
X137.0Y-53.0
X137.0Y-107.0
X191.0Y-53.0
X191.0Y-107.0
T4
G00X135.55Y-75.43
M15
G01X134.95Y-75.43
M16
G05
G00X135.55Y-84.07
M15
G01X134.95Y-84.07
M16
G05
G00X139.35Y-75.43
M15
G01X138.75Y-75.43
M16
G05
G00X139.35Y-84.07
M15
G01X138.75Y-84.07
M16
G05
M30
